<?xml version="1.0" encoding="UTF-8" standalone="no"?>
<svg xmlns:xlink="http://www.w3.org/1999/xlink" height="40.85px" width="36.1px" xmlns="http://www.w3.org/2000/svg">
  <g transform="matrix(1.0, 0.0, 0.0, 1.0, 13.7, 19.45)">
    <path d="M16.25 1.15 L16.5 1.5 17.15 2.35 16.8 2.55 Q15.35 5.2 12.35 5.2 L7.05 4.75 Q4.6 4.35 2.75 5.6 L3.15 6.3 3.0 6.55 1.7 6.45 Q-2.25 6.15 -5.15 6.35 -8.05 6.5 -9.9 7.3 L-10.1 7.3 -10.15 7.4 Q-10.8 7.4 -11.25 7.6 L-11.3 7.5 Q-13.0 4.9 -11.4 2.4 -10.8 1.4 -9.85 0.95 L-7.9 0.6 Q-8.45 -0.45 -8.4 -1.9 -8.4 -3.5 -7.5 -4.75 L-6.2 -6.15 Q-5.4 -6.85 -5.25 -8.25 L-4.9 -10.9 Q-4.4 -13.9 -3.25 -16.55 L-2.35 -18.95 Q13.3 -19.7 21.9 -10.85 L20.5 -8.45 20.4 -8.25 Q18.1 -7.25 16.25 -5.05 13.9 -2.4 11.15 -1.5 L8.75 -1.05 14.65 0.65 16.25 1.15" fill="#9e6036" fill-rule="evenodd" stroke="none"/>
    <path d="M16.6 6.25 Q17.5 7.45 17.8 8.8 18.1 10.15 17.65 10.95 17.25 11.6 16.25 11.8 L10.7 13.05 5.15 14.65 -0.05 15.8 -5.85 16.55 -12.4 16.8 Q-13.55 14.1 -13.2 11.1 -12.9 8.1 -10.15 7.4 L-10.1 7.3 -9.9 7.3 Q-8.05 6.5 -5.15 6.35 -2.25 6.15 1.7 6.45 L3.0 6.55 3.5 6.6 4.5 6.5 7.3 6.45 10.05 6.75 15.0 7.05 15.2 7.05 Q16.05 6.9 16.55 6.35 L16.6 6.25 M-10.15 7.4 L-9.9 7.3 -10.15 7.4 M7.1 10.05 Q5.6 7.75 3.0 6.55 5.6 7.75 7.1 10.05 M-6.6 8.55 Q-9.75 8.45 -11.15 11.1 -12.2 13.0 -11.1 14.85 -9.8 11.35 -6.25 10.4 -5.5 10.2 -5.8 9.1 -6.05 8.35 -6.6 8.55" fill="#9a804e" fill-rule="evenodd" stroke="none"/>
    <path d="M17.65 10.95 Q18.85 12.9 19.3 15.25 L17.35 15.3 11.55 16.3 5.9 18.0 0.7 19.45 -4.7 20.4 -10.35 20.9 Q-10.9 20.95 -11.2 20.65 -12.3 19.45 -12.4 16.8 L-5.85 16.55 -0.05 15.8 5.15 14.65 10.7 13.05 16.25 11.8 Q17.25 11.6 17.65 10.95" fill="#ffffcc" fill-rule="evenodd" stroke="none"/>
    <path d="M-6.6 8.55 Q-6.05 8.35 -5.8 9.1 -5.5 10.2 -6.25 10.4 -9.8 11.35 -11.1 14.85 -12.2 13.0 -11.15 11.1 -9.75 8.45 -6.6 8.55" fill="#b89f72" fill-rule="evenodd" stroke="none"/>
    <path d="M3.5 6.6 L3.0 6.55 3.15 6.3 3.5 6.6" fill="#be7341" fill-rule="evenodd" stroke="none"/>
    <path d="M20.4 -8.25 L19.3 -6.35 16.4 -1.45 Q15.4 0.0 16.25 1.15 L14.65 0.65 8.75 -1.05 11.15 -1.5 Q13.9 -2.4 16.25 -5.05 18.1 -7.25 20.4 -8.25 M17.15 2.35 Q18.3 4.25 16.6 6.25 L16.55 6.35 Q16.05 6.9 15.2 7.05 L15.0 7.05 10.05 6.75 7.3 6.45 4.5 6.5 3.5 6.6 3.15 6.3 2.75 5.6 Q4.6 4.35 7.05 4.75 L12.35 5.2 Q15.35 5.2 16.8 2.55 L17.15 2.35" fill="#85512e" fill-rule="evenodd" stroke="none"/>
    <path d="M20.4 -8.25 L19.3 -6.35 16.4 -1.45 Q15.4 0.0 16.25 1.15 L16.5 1.5 17.15 2.35 Q18.3 4.25 16.6 6.25 L16.55 6.35 Q16.05 6.9 15.2 7.05 L15.0 7.05 10.05 6.75 7.3 6.45 4.5 6.5 3.5 6.6 3.0 6.55 1.7 6.45 Q-2.25 6.15 -5.15 6.35 -8.05 6.5 -9.9 7.3 L-10.15 7.4 Q-10.8 7.4 -11.25 7.6 L-11.3 7.5 Q-13.0 4.9 -11.4 2.4 -10.8 1.4 -9.85 0.95 L-7.9 0.6 Q-8.45 -0.45 -8.4 -1.9 -8.4 -3.5 -7.5 -4.75 L-6.2 -6.15 Q-5.4 -6.85 -5.25 -8.25 L-4.9 -10.9 Q-4.4 -13.9 -3.25 -16.55 L-2.35 -18.95 M21.9 -10.85 L20.5 -8.45 20.4 -8.25" fill="none" stroke="#663333" stroke-linecap="round" stroke-linejoin="round" stroke-width="1.0"/>
    <path d="M16.6 6.25 Q17.5 7.45 17.8 8.8 18.1 10.15 17.65 10.95 18.85 12.9 19.3 15.25 L17.35 15.3 11.55 16.3 5.9 18.0 0.7 19.45 -4.7 20.4 -10.35 20.9 Q-10.9 20.95 -11.2 20.65 -12.3 19.45 -12.4 16.8 -13.55 14.1 -13.2 11.1 -12.9 8.1 -10.15 7.4 L-10.1 7.3 M17.65 10.95 Q17.25 11.6 16.25 11.8 L10.7 13.05 5.15 14.65 -0.05 15.8 -5.85 16.55 -12.4 16.8 M3.0 6.55 Q5.6 7.75 7.1 10.05" fill="none" stroke="#685635" stroke-linecap="round" stroke-linejoin="round" stroke-width="0.75"/>
  </g>
</svg>
