<?xml version="1.0" encoding="UTF-8" standalone="no"?>
<svg xmlns:xlink="http://www.w3.org/1999/xlink" height="53.6px" width="13.8px" xmlns="http://www.w3.org/2000/svg">
  <g transform="matrix(1.0, 0.0, 0.0, 1.0, 8.1, 20.6)">
    <path d="M-1.15 -8.1 L-1.35 -8.1 Q-3.75 -8.1 -5.45 -9.8 -7.1 -11.45 -7.1 -13.85 -7.1 -16.25 -5.45 -17.95 -3.75 -19.6 -1.35 -19.6 1.05 -19.6 2.7 -17.95 4.4 -16.25 4.4 -13.85 4.4 -11.45 2.7 -9.8 1.1 -8.15 -1.15 -8.1" fill="#009900" fill-rule="evenodd" stroke="none"/>
    <path d="M-1.15 -8.1 L-1.35 -8.1 Q-3.75 -8.1 -5.45 -9.8 -7.1 -11.45 -7.1 -13.85 -7.1 -16.25 -5.45 -17.95 -3.75 -19.6 -1.35 -19.6 1.05 -19.6 2.7 -17.95 4.4 -16.25 4.4 -13.85 4.4 -11.45 2.7 -9.8 1.1 -8.15 -1.15 -8.1 -0.9 -3.8 1.1 0.0 3.85 5.15 4.7 10.8 5.6 16.95 1.7 21.65 -2.05 26.2 -3.25 32.0" fill="none" stroke="#003300" stroke-linecap="round" stroke-linejoin="round" stroke-width="2.0"/>
  </g>
</svg>
