<?xml version="1.0" encoding="UTF-8" standalone="no"?>
<svg xmlns:xlink="http://www.w3.org/1999/xlink" height="74.85px" width="52.35px" xmlns="http://www.w3.org/2000/svg">
  <g transform="matrix(1.0, 0.0, 0.0, 1.0, 50.05, 36.45)">
    <path d="M-49.05 -15.45 Q-49.05 -23.75 -43.2 -29.6 -37.35 -35.45 -29.05 -35.45 L-18.7 -35.45 Q-10.4 -35.45 -4.55 -29.6 1.3 -23.75 1.3 -15.45 L1.3 17.4 Q1.3 25.7 -4.55 31.55 -10.4 37.4 -18.7 37.4 L-29.05 37.4 Q-37.35 37.4 -43.2 31.55 -49.05 25.7 -49.05 17.4 L-49.05 -15.45" fill="#000000" fill-rule="evenodd" stroke="none"/>
    <path d="M-49.05 -15.45 L-49.05 17.4 Q-49.05 25.7 -43.2 31.55 -37.35 37.4 -29.05 37.4 L-18.7 37.4 Q-10.4 37.4 -4.55 31.55 1.3 25.7 1.3 17.4 L1.3 -15.45 Q1.3 -23.75 -4.55 -29.6 -10.4 -35.45 -18.7 -35.45 L-29.05 -35.45 Q-37.35 -35.45 -43.2 -29.6 -49.05 -23.75 -49.05 -15.45 Z" fill="none" stroke="#003300" stroke-linecap="round" stroke-linejoin="round" stroke-width="2.0"/>
  </g>
</svg>
