<?xml version="1.0" encoding="UTF-8" standalone="no"?>
<svg xmlns:xlink="http://www.w3.org/1999/xlink" height="30.8px" width="32.0px" xmlns="http://www.w3.org/2000/svg">
  <g transform="matrix(1.0, 0.0, 0.0, 1.0, 16.0, 15.4)">
    <path d="M13.9 -6.35 Q15.0 -3.8 15.0 -0.6 15.0 5.6 10.6 10.0 6.2 14.4 0.0 14.4 -6.2 14.4 -10.6 10.0 -15.0 5.6 -15.0 -0.6 -15.0 -6.8 -10.45 -10.6 -5.9 -14.4 0.3 -14.4 6.5 -14.4 10.75 -10.6 12.8 -8.75 13.9 -6.35 6.55 -6.6 3.15 -1.05 0.5 3.25 -5.05 2.2 -6.2 2.0 -7.0 2.55 -6.2 2.0 -5.05 2.2 0.5 3.25 3.15 -1.05 6.55 -6.6 13.9 -6.35" fill="#009900" fill-rule="evenodd" stroke="none"/>
    <path d="M13.9 -6.35 Q6.55 -6.6 3.15 -1.05 0.5 3.25 -5.05 2.2 -6.2 2.0 -7.0 2.55" fill="none" stroke="#006600" stroke-linecap="round" stroke-linejoin="round" stroke-width="0.25"/>
    <path d="M13.9 -6.35 Q15.0 -3.8 15.0 -0.6 15.0 5.6 10.6 10.0 6.2 14.4 0.0 14.4 -6.2 14.4 -10.6 10.0 -15.0 5.6 -15.0 -0.6 -15.0 -6.8 -10.45 -10.6 -5.9 -14.4 0.3 -14.4 6.5 -14.4 10.75 -10.6 12.8 -8.75 13.9 -6.35 Z" fill="none" stroke="#003300" stroke-linecap="round" stroke-linejoin="round" stroke-width="2.0"/>
  </g>
</svg>
