<?xml version="1.0" encoding="UTF-8" standalone="no"?>
<svg xmlns:xlink="http://www.w3.org/1999/xlink" height="62.85px" width="66.8px" xmlns="http://www.w3.org/2000/svg">
  <g transform="matrix(1.0, 0.0, 0.0, 1.0, 33.4, 31.45)">
    <path d="M23.15 -25.15 L29.55 -28.8 29.55 25.35 26.7 27.6 23.15 28.85 23.15 -25.15 M25.8 26.8 L25.8 4.55 25.8 26.8 M26.85 -5.75 L26.85 -26.7 26.85 -5.75 M28.3 25.35 L28.3 -0.8 28.3 25.35" fill="#fce3c2" fill-rule="evenodd" stroke="none"/>
    <path d="M29.55 -28.8 L23.15 -25.15 -32.4 -25.15 -23.15 -28.8 29.55 -28.8" fill="#ffffff" fill-rule="evenodd" stroke="none"/>
    <path d="M29.55 25.35 L29.55 -28.8 -23.15 -28.8 -18.45 -30.45 32.4 -30.45 32.4 23.1 29.55 25.35" fill="#17618c" fill-rule="evenodd" stroke="none"/>
    <path d="M23.15 -25.15 L23.15 28.85 23.15 30.4 -32.4 30.4 -32.4 -25.15 23.15 -25.15" fill="#1e7ab0" fill-rule="evenodd" stroke="none"/>
    <path d="M26.85 -26.7 L26.85 -5.75 M25.8 4.55 L25.8 26.8 M28.3 -0.8 L28.3 25.35" fill="none" stroke="#9e6845" stroke-linecap="round" stroke-linejoin="round" stroke-width="0.25"/>
    <path d="M23.15 -25.15 L23.15 28.85 23.15 30.4 -32.4 30.4 -32.4 -25.15 23.15 -25.15 M26.7 27.6 L29.55 25.35 32.4 23.1 32.4 -30.45 -18.45 -30.45 -23.15 -28.8 -32.4 -25.15 M23.15 30.4 L26.7 27.6" fill="none" stroke="#354264" stroke-linecap="round" stroke-linejoin="round" stroke-width="2.0"/>
    <path d="M23.15 28.85 L26.7 27.6 29.55 26.6 29.55 25.35 29.55 -28.8 -23.15 -28.8" fill="none" stroke="#354264" stroke-linecap="round" stroke-linejoin="round" stroke-width="0.25"/>
  </g>
</svg>
