<?xml version="1.0" encoding="UTF-8" standalone="no"?>
<svg xmlns:xlink="http://www.w3.org/1999/xlink" height="64.35px" width="58.8px" xmlns="http://www.w3.org/2000/svg">
  <g transform="matrix(1.0, 0.0, 0.0, 1.0, 29.4, 32.2)">
    <path d="M-6.8 17.05 L-1.05 16.15 0.75 15.85 Q1.75 16.4 1.7 18.45 L-1.05 19.25 -8.45 21.25 -11.1 21.75 Q-13.6 20.5 -12.7 17.65 L-10.6 17.5 -8.3 17.25 -6.8 17.05" fill="#ffcc00" fill-rule="evenodd" stroke="none"/>
    <path d="M0.75 15.85 L6.4 14.65 13.75 12.7 21.1 10.6 Q23.7 9.85 24.75 7.35 L25.35 5.6 Q27.25 6.75 27.4 9.0 27.45 9.7 27.1 10.15 L26.55 10.95 Q24.4 13.45 20.9 14.5 L13.55 16.4 5.95 17.65 1.7 18.45 Q1.75 16.4 0.75 15.85 M-18.95 21.5 Q-20.55 20.5 -20.2 17.8 -17.3 18.8 -14.3 17.85 L-13.6 17.65 -12.7 17.65 Q-13.6 20.5 -11.1 21.75 L-16.15 22.1 Q-17.95 22.1 -18.95 21.5" fill="#be7341" fill-rule="evenodd" stroke="none"/>
    <path d="M26.55 10.95 Q28.7 12.85 28.9 15.95 29.2 20.35 25.95 22.4 23.0 24.25 19.25 25.5 L12.15 28.0 5.4 30.3 Q1.8 31.55 -2.05 31.65 L-9.9 31.5 Q-13.85 31.2 -16.35 28.15 -18.75 25.25 -18.95 21.5 -17.95 22.1 -16.15 22.1 L-11.1 21.75 -8.45 21.25 -1.05 19.25 1.7 18.45 5.95 17.65 13.55 16.4 20.9 14.5 Q24.4 13.45 26.55 10.95" fill="#9e6036" fill-rule="evenodd" stroke="none"/>
    <path d="M-14.75 -31.35 L-8.3 -31.7 -0.45 -31.2 Q1.25 -31.0 2.75 -30.2 6.1 -28.45 8.95 -25.9 12.0 -23.3 13.9 -19.95 L17.65 -13.3 Q19.5 -9.8 21.8 -6.6 24.05 -3.4 25.1 0.05 25.95 2.9 25.35 5.6 L24.75 7.35 Q23.7 9.85 21.1 10.6 L13.75 12.7 6.4 14.65 0.75 15.85 -1.05 16.15 -6.8 17.05 Q-9.05 13.75 -10.7 10.1 -12.25 6.7 -12.95 2.85 -13.6 -1.05 -13.05 -5.05 -12.75 -7.35 -13.55 -8.9 -15.35 -12.35 -16.3 -16.05 -17.25 -19.85 -17.1 -23.85 -16.95 -28.0 -14.75 -31.35 M-20.2 17.8 L-21.7 17.15 Q-25.1 15.25 -27.0 11.75 -28.65 8.55 -28.9 4.6 -29.15 0.8 -27.35 -2.4 -25.6 -5.55 -26.85 -8.25 -28.3 -11.45 -28.75 -15.1 -29.25 -19.2 -27.5 -22.8 -25.85 -26.2 -22.95 -28.35 -20.7 -30.0 -18.0 -30.75 -20.55 -27.25 -20.7 -23.15 -20.85 -19.2 -19.9 -15.45 -18.95 -11.8 -17.15 -8.4 -16.35 -6.85 -16.65 -4.6 -17.2 -0.65 -16.55 3.2 -15.85 7.0 -14.3 10.35 -12.65 14.0 -10.6 17.5 L-12.7 17.65 -13.6 17.65 -14.3 17.85 Q-17.3 18.8 -20.2 17.8" fill="#d6883a" fill-rule="evenodd" stroke="none"/>
    <path d="M-14.75 -31.35 Q-16.95 -28.0 -17.1 -23.85 -17.25 -19.85 -16.3 -16.05 -15.35 -12.35 -13.55 -8.9 -12.75 -7.35 -13.05 -5.05 -13.6 -1.05 -12.95 2.85 -12.25 6.7 -10.7 10.1 -9.05 13.75 -6.8 17.05 L-8.3 17.25 -10.6 17.5 Q-12.65 14.0 -14.3 10.35 -15.85 7.0 -16.55 3.2 -17.2 -0.65 -16.65 -4.6 -16.35 -6.85 -17.15 -8.4 -18.95 -11.8 -19.9 -15.45 -20.85 -19.2 -20.7 -23.15 -20.55 -27.25 -18.0 -30.75 L-15.75 -31.25 -14.75 -31.35" fill="#e0a76d" fill-rule="evenodd" stroke="none"/>
    <path d="M1.7 18.45 Q1.75 16.4 0.75 15.85 M-12.7 17.65 Q-13.6 20.5 -11.1 21.75" fill="none" stroke="#cc6600" stroke-linecap="round" stroke-linejoin="round" stroke-width="1.0"/>
    <path d="M25.35 5.6 Q27.25 6.75 27.4 9.0 27.45 9.7 27.1 10.15 L26.55 10.95 Q24.4 13.45 20.9 14.5 L13.55 16.4 5.95 17.65 1.7 18.45 -1.05 19.25 -8.45 21.25 -11.1 21.75 -16.15 22.1 Q-17.95 22.1 -18.95 21.5 -20.55 20.5 -20.2 17.8" fill="none" stroke="#996633" stroke-linecap="round" stroke-linejoin="round" stroke-width="1.0"/>
    <path d="M26.55 10.95 Q28.7 12.85 28.9 15.95 29.2 20.35 25.95 22.4 23.0 24.25 19.25 25.5 L12.15 28.0 5.4 30.3 Q1.8 31.55 -2.05 31.65 L-9.9 31.5 Q-13.85 31.2 -16.35 28.15 -18.75 25.25 -18.95 21.5" fill="none" stroke="#663333" stroke-linecap="round" stroke-linejoin="round" stroke-width="1.0"/>
    <path d="M25.35 5.6 Q25.95 2.9 25.1 0.05 24.05 -3.4 21.8 -6.6 19.5 -9.8 17.65 -13.3 L13.9 -19.95 Q12.0 -23.3 8.95 -25.9 6.1 -28.45 2.75 -30.2 1.25 -31.0 -0.45 -31.2 L-8.3 -31.7 -14.75 -31.35 Q-16.95 -28.0 -17.1 -23.85 -17.25 -19.85 -16.3 -16.05 -15.35 -12.35 -13.55 -8.9 -12.75 -7.35 -13.05 -5.05 -13.6 -1.05 -12.95 2.85 -12.25 6.7 -10.7 10.1 -9.05 13.75 -6.8 17.05 L-1.05 16.15 0.75 15.85 6.4 14.65 13.75 12.7 21.1 10.6 Q23.7 9.85 24.75 7.35 L25.35 5.6 M-20.2 17.8 L-21.7 17.15 Q-25.1 15.25 -27.0 11.75 -28.65 8.55 -28.9 4.6 -29.15 0.8 -27.35 -2.4 -25.6 -5.55 -26.85 -8.25 -28.3 -11.45 -28.75 -15.1 -29.25 -19.2 -27.5 -22.8 -25.85 -26.2 -22.95 -28.35 -20.7 -30.0 -18.0 -30.75 L-15.75 -31.25 -14.75 -31.35 M-18.0 -30.75 Q-20.55 -27.25 -20.7 -23.15 -20.85 -19.2 -19.9 -15.45 -18.95 -11.8 -17.15 -8.4 -16.35 -6.85 -16.65 -4.6 -17.2 -0.65 -16.55 3.2 -15.85 7.0 -14.3 10.35 -12.65 14.0 -10.6 17.5 L-8.3 17.25 -6.8 17.05 M-20.2 17.8 Q-17.3 18.8 -14.3 17.85 L-13.6 17.65 -12.7 17.65 -10.6 17.5" fill="none" stroke="#92581f" stroke-linecap="round" stroke-linejoin="round" stroke-width="1.0"/>
  </g>
</svg>
