<?xml version="1.0" encoding="UTF-8" standalone="no"?>
<svg xmlns:xlink="http://www.w3.org/1999/xlink" height="54.35px" width="45.6px" xmlns="http://www.w3.org/2000/svg">
  <g transform="matrix(1.0, 0.0, 0.0, 1.0, 22.8, 27.15)">
    <path d="M-21.8 -18.65 L-21.8 -24.15 Q-21.8 -24.95 -21.2 -25.55 -20.6 -26.15 -19.8 -26.15 L19.8 -26.15 Q20.6 -26.15 21.2 -25.55 21.8 -24.95 21.8 -24.15 L21.8 -18.65 -21.8 -18.65" fill="#999999" fill-rule="evenodd" stroke="none"/>
    <path d="M18.8 4.8 L16.85 4.7 13.0 4.65 Q12.95 0.85 11.75 -2.45 L15.25 0.35 Q18.1 1.95 18.8 4.8 M-18.25 4.65 L-18.35 2.65 -18.55 -4.75 Q-18.6 -8.7 -17.05 -12.25 -15.3 -16.25 -11.4 -15.55 -7.75 -12.5 -10.0 -8.3 -11.9 -4.8 -12.05 -0.85 -12.2 2.25 -12.0 5.35 L-14.3 5.15 -18.25 4.65" fill="#ffffff" fill-rule="evenodd" stroke="none"/>
    <path d="M-21.8 -18.65 L21.8 -18.65 21.8 4.8 18.8 4.8 Q18.1 1.95 15.25 0.35 L11.75 -2.45 Q12.95 0.85 13.0 4.65 L9.25 4.85 1.5 5.1 -6.3 5.35 Q-9.15 5.55 -12.0 5.35 -12.2 2.25 -12.05 -0.85 -11.9 -4.8 -10.0 -8.3 -7.75 -12.5 -11.4 -15.55 -15.3 -16.25 -17.05 -12.25 -18.6 -8.7 -18.55 -4.75 L-18.35 2.65 -18.25 4.65 -21.8 4.25 -21.8 -18.65" fill="#fef1d3" fill-rule="evenodd" stroke="none"/>
    <path d="M13.0 4.65 L16.85 4.7 18.8 4.8 19.0 6.4 Q19.25 12.45 17.75 18.35 17.3 20.2 15.8 20.35 L12.95 20.25 Q11.05 19.95 9.25 19.3 11.65 16.1 12.35 12.2 12.95 8.5 13.0 4.7 L13.0 4.65 M-12.0 5.35 L-11.9 6.7 -11.1 14.15 -10.2 22.05 -14.25 22.6 Q-18.9 22.5 -18.7 18.05 L-18.35 10.1 -18.25 4.65 -14.3 5.15 -12.0 5.35" fill="#daac4e" fill-rule="evenodd" stroke="none"/>
    <path d="M21.8 4.8 L21.8 24.2 Q21.8 25.0 21.2 25.6 20.6 26.2 19.8 26.2 L-19.8 26.2 Q-20.6 26.2 -21.2 25.6 -21.8 25.0 -21.8 24.2 L-21.8 4.25 -18.25 4.65 -18.35 10.1 -18.7 18.05 Q-18.9 22.5 -14.25 22.6 L-10.2 22.05 -11.1 14.15 -11.9 6.7 -12.0 5.35 Q-9.15 5.55 -6.3 5.35 L1.5 5.1 9.25 4.85 13.0 4.65 13.0 4.7 Q12.95 8.5 12.35 12.2 11.65 16.1 9.25 19.3 11.05 19.95 12.95 20.25 L15.8 20.35 Q17.3 20.2 17.75 18.35 19.25 12.45 19.0 6.4 L18.8 4.8 21.8 4.8" fill="#996600" fill-rule="evenodd" stroke="none"/>
    <path d="M21.8 -18.65 L21.8 -24.15 Q21.8 -24.95 21.2 -25.55 20.6 -26.15 19.8 -26.15 L-19.8 -26.15 Q-20.6 -26.15 -21.2 -25.55 -21.8 -24.95 -21.8 -24.15 L-21.8 -18.65 21.8 -18.65" fill="none" stroke="#333333" stroke-linecap="round" stroke-linejoin="round" stroke-width="2.0"/>
    <path d="M21.8 -18.65 L21.8 4.8 21.8 24.2 Q21.8 25.0 21.2 25.6 20.6 26.2 19.8 26.2 L-19.8 26.2 Q-20.6 26.2 -21.2 25.6 -21.8 25.0 -21.8 24.2 L-21.8 4.25 -21.8 -18.65" fill="none" stroke="#d8a95c" stroke-linecap="round" stroke-linejoin="round" stroke-width="1.75"/>
  </g>
</svg>
