<?xml version="1.0" encoding="UTF-8" standalone="no"?>
<svg xmlns:xlink="http://www.w3.org/1999/xlink" height="98.1px" width="394.5px" xmlns="http://www.w3.org/2000/svg">
  <g transform="matrix(1.0, 0.0, 0.0, 1.0, 251.65, 0.65)">
    <path d="M140.35 1.8 Q141.85 3.3 141.85 5.35 L141.85 65.1 Q141.85 67.15 140.35 68.6 138.9 70.1 136.85 70.1 L90.95 70.1 90.95 71.45 Q88.45 90.0 102.15 96.45 95.65 96.45 89.3 95.3 68.95 91.45 69.05 70.1 L-245.65 70.1 Q-247.7 70.1 -249.2 68.6 -250.65 67.15 -250.65 65.1 L-250.65 5.35 Q-250.65 3.3 -249.2 1.8 -247.7 0.35 -245.65 0.35 L136.85 0.35 Q138.9 0.35 140.35 1.8" fill="#666666" fill-rule="evenodd" stroke="none"/>
    <path d="M137.35 5.35 L137.35 65.1 137.25 65.4 137.15 65.5 136.85 65.6 90.95 65.6 Q89.1 65.6 87.8 66.95 86.45 68.25 86.45 70.1 L86.45 71.25 Q84.95 83.05 89.1 90.7 73.4 87.2 73.55 70.15 73.55 68.25 72.25 66.95 70.9 65.6 69.05 65.6 L-245.65 65.6 -246.0 65.45 -246.15 65.1 -246.15 5.35 -246.0 5.0 -245.65 4.85 136.85 4.85 Q137.05 4.85 137.2 5.0 L137.35 5.35" fill="#ffffff" fill-rule="evenodd" stroke="none"/>
    <path d="M138.85 5.35 Q138.85 4.55 138.25 3.95 137.65 3.35 136.85 3.35 L-245.65 3.35 Q-246.45 3.35 -247.05 3.9 L-247.1 3.95 Q-247.65 4.55 -247.65 5.35 L-247.65 65.1 Q-247.65 65.9 -247.05 66.5 -246.45 67.1 -245.65 67.1 L69.05 67.1 Q70.3 67.1 71.2 68.0 72.05 68.85 72.05 70.15 71.9 88.95 89.85 92.35 L92.4 92.75 Q86.15 85.0 87.95 71.25 L87.95 70.1 Q87.95 68.85 88.85 68.0 89.7 67.1 90.95 67.1 L136.85 67.1 Q137.65 67.1 138.2 66.55 L138.3 66.45 Q138.85 65.9 138.85 65.1 L138.85 5.35 M139.25 5.35 L139.25 65.1 Q139.2 66.05 138.55 66.75 L138.5 66.8 Q137.8 67.45 136.85 67.5 L90.95 67.5 Q89.85 67.5 89.1 68.25 88.35 69.0 88.35 70.1 L88.35 71.3 Q86.45 85.5 93.35 93.3 L89.8 92.75 Q71.55 89.3 71.7 70.1 71.7 69.0 70.9 68.25 70.15 67.5 69.05 67.5 L-245.65 67.5 Q-246.65 67.45 -247.35 66.75 -248.05 66.05 -248.0 65.1 L-248.0 5.35 Q-248.0 4.4 -247.35 3.7 L-247.3 3.65 Q-246.6 3.0 -245.65 3.0 L136.85 3.0 Q137.8 2.95 138.5 3.65 139.2 4.35 139.25 5.35" fill="#ffffff" fill-opacity="0.6117647" fill-rule="evenodd" stroke="none"/>
    <path d="M138.5 5.35 Q138.45 4.7 138.0 4.2 137.5 3.7 136.85 3.75 L-245.65 3.75 Q-246.3 3.75 -246.75 4.15 L-246.85 4.25 Q-247.25 4.7 -247.25 5.35 L-247.25 65.1 Q-247.3 65.75 -246.8 66.25 -246.3 66.7 -245.65 66.75 L69.05 66.75 Q70.45 66.75 71.45 67.75 72.45 68.7 72.45 70.15 72.3 88.65 89.9 92.0 L89.95 92.0 91.5 92.25 Q85.85 84.45 87.6 71.2 L87.6 70.1 Q87.6 68.7 88.6 67.75 89.55 66.75 90.95 66.75 L136.85 66.75 Q137.5 66.7 137.95 66.25 L138.0 66.2 Q138.45 65.75 138.5 65.1 L138.5 5.35 M138.85 5.35 L138.85 65.1 Q138.85 65.9 138.3 66.45 L138.2 66.55 Q137.65 67.1 136.85 67.1 L90.95 67.1 Q89.7 67.1 88.85 68.0 87.95 68.85 87.95 70.1 L87.95 71.25 Q86.15 85.0 92.4 92.75 L89.85 92.35 Q71.9 88.95 72.05 70.15 72.05 68.85 71.2 68.0 70.3 67.1 69.05 67.1 L-245.65 67.1 Q-246.45 67.1 -247.05 66.5 -247.65 65.9 -247.65 65.1 L-247.65 5.35 Q-247.65 4.55 -247.1 3.95 L-247.05 3.9 Q-246.45 3.35 -245.65 3.35 L136.85 3.35 Q137.65 3.35 138.25 3.95 138.85 4.55 138.85 5.35" fill="#ffffff" fill-opacity="0.6901961" fill-rule="evenodd" stroke="none"/>
    <path d="M139.6 5.35 L139.6 65.1 Q139.6 66.2 138.8 67.0 L138.75 67.05 Q137.95 67.85 136.85 67.85 L90.95 67.85 Q90.0 67.85 89.35 68.5 88.7 69.15 88.7 70.1 L88.7 71.35 Q86.75 86.05 94.35 93.75 L89.75 93.1 89.7 93.1 Q71.25 89.6 71.3 70.1 71.3 69.2 70.65 68.55 70.0 67.85 69.05 67.85 L-245.65 67.85 Q-246.75 67.85 -247.6 67.0 -248.4 66.2 -248.4 65.1 L-248.4 5.35 Q-248.4 4.25 -247.6 3.45 L-247.55 3.4 Q-246.75 2.6 -245.65 2.6 L136.85 2.6 Q137.95 2.6 138.75 3.4 139.6 4.25 139.6 5.35 M139.25 5.35 Q139.2 4.35 138.5 3.65 137.8 2.95 136.85 3.0 L-245.65 3.0 Q-246.6 3.0 -247.3 3.65 L-247.35 3.7 Q-248.0 4.4 -248.0 5.35 L-248.0 65.1 Q-248.05 66.05 -247.35 66.75 -246.65 67.45 -245.65 67.5 L69.05 67.5 Q70.15 67.5 70.9 68.25 71.7 69.0 71.7 70.1 71.55 89.3 89.8 92.75 L93.35 93.3 Q86.45 85.5 88.35 71.3 L88.35 70.1 Q88.35 69.0 89.1 68.25 89.85 67.5 90.95 67.5 L136.85 67.5 Q137.8 67.45 138.5 66.8 L138.55 66.75 Q139.2 66.05 139.25 65.1 L139.25 5.35" fill="#ffffff" fill-opacity="0.53333336" fill-rule="evenodd" stroke="none"/>
    <path d="M140.0 5.35 L140.0 65.1 Q139.95 66.35 139.05 67.25 L139.0 67.3 Q138.1 68.2 136.85 68.25 L90.95 68.25 Q90.15 68.25 89.65 68.8 89.1 69.3 89.1 70.1 L89.1 71.4 Q87.05 86.65 95.4 94.25 L89.65 93.45 Q70.8 89.9 70.95 70.1 70.95 69.3 70.4 68.8 69.85 68.2 69.05 68.25 L-245.65 68.25 Q-246.95 68.2 -247.85 67.3 -248.8 66.35 -248.75 65.1 L-248.75 5.35 Q-248.75 4.1 -247.9 3.15 L-247.85 3.1 Q-246.9 2.25 -245.65 2.25 L136.85 2.25 Q138.1 2.2 139.05 3.15 139.95 4.05 140.0 5.35 M89.75 93.1 L94.35 93.75 Q86.75 86.05 88.7 71.35 L88.7 70.1 Q88.7 69.15 89.35 68.5 90.0 67.85 90.95 67.85 L136.85 67.85 Q137.95 67.85 138.75 67.05 L138.8 67.0 Q139.6 66.2 139.6 65.1 L139.6 5.35 Q139.6 4.25 138.75 3.4 137.95 2.6 136.85 2.6 L-245.65 2.6 Q-246.75 2.6 -247.55 3.4 L-247.6 3.45 Q-248.4 4.25 -248.4 5.35 L-248.4 65.1 Q-248.4 66.2 -247.6 67.0 -246.75 67.85 -245.65 67.85 L69.05 67.85 Q70.0 67.85 70.65 68.55 71.3 69.2 71.3 70.1 71.25 89.6 89.7 93.1 L89.75 93.1" fill="#ffffff" fill-opacity="0.45882353" fill-rule="evenodd" stroke="none"/>
    <path d="M92.0 87.35 Q92.85 89.35 94.05 91.0 94.2 91.35 94.4 91.55 95.05 93.5 96.55 94.75 L89.6 93.85 Q70.45 90.2 70.55 70.1 70.55 69.5 70.15 69.05 69.7 68.6 69.05 68.6 L-245.65 68.6 Q-247.1 68.6 -248.15 67.55 -249.15 66.55 -249.15 65.1 L-249.15 5.35 Q-249.15 3.9 -248.15 2.9 L-248.1 2.85 Q-247.1 1.85 -245.65 1.85 L136.85 1.85 Q138.3 1.85 139.3 2.85 140.35 3.9 140.35 5.35 L140.35 65.1 Q140.35 66.5 139.3 67.55 138.25 68.6 136.85 68.6 L90.95 68.6 Q90.35 68.6 89.9 69.05 89.45 69.5 89.45 70.1 L89.45 71.45 Q87.8 84.2 94.05 91.0 M140.0 5.35 Q139.95 4.05 139.05 3.15 138.1 2.2 136.85 2.25 L-245.65 2.25 Q-246.9 2.25 -247.85 3.1 L-247.9 3.15 Q-248.75 4.1 -248.75 5.35 L-248.75 65.1 Q-248.8 66.35 -247.85 67.3 -246.95 68.2 -245.65 68.25 L69.05 68.25 Q69.85 68.2 70.4 68.8 70.95 69.3 70.95 70.1 70.8 89.9 89.65 93.45 L95.4 94.25 Q87.05 86.65 89.1 71.4 L89.1 70.1 Q89.1 69.3 89.65 68.8 90.15 68.25 90.95 68.25 L136.85 68.25 Q138.1 68.2 139.0 67.3 L139.05 67.25 Q139.95 66.35 140.0 65.1 L140.0 5.35" fill="#ffffff" fill-opacity="0.38039216" fill-rule="evenodd" stroke="none"/>
    <path d="M91.6 83.4 Q93.5 92.4 102.15 96.45 95.65 96.45 89.3 95.3 68.95 91.45 69.05 70.1 L-245.65 70.1 Q-247.7 70.1 -249.2 68.6 -250.65 67.15 -250.65 65.1 L-250.65 5.35 Q-250.65 3.3 -249.2 1.8 -247.7 0.35 -245.65 0.35 L136.85 0.35 Q138.9 0.35 140.35 1.8 141.85 3.3 141.85 5.35 L141.85 65.1 Q141.85 67.15 140.35 68.6 138.9 70.1 136.85 70.1 L90.95 70.1 90.95 71.45 Q90.8 73.05 90.85 74.5 90.4 73.0 90.6 71.4 L90.6 70.1 90.7 69.85 Q90.8 69.7 90.95 69.75 L136.85 69.75 Q138.75 69.75 140.1 68.35 141.5 67.0 141.5 65.1 L141.5 5.35 Q141.45 3.45 140.1 2.1 138.75 0.75 136.85 0.75 L-245.65 0.75 Q-247.55 0.75 -248.9 2.05 L-248.95 2.1 Q-250.25 3.45 -250.25 5.35 L-250.25 65.1 Q-250.25 67.0 -248.9 68.35 -247.55 69.7 -245.65 69.75 L69.05 69.75 69.35 69.85 69.45 70.1 Q69.35 91.15 89.4 94.95 L100.55 96.05 Q97.65 94.5 95.55 92.15 L94.6 90.9 Q92.3 87.75 91.6 83.4" fill="#ffffff" fill-opacity="0.07058824" fill-rule="evenodd" stroke="none"/>
    <path d="M90.85 80.5 L91.6 83.4 90.85 80.5 Q90.75 79.7 90.75 78.8 89.7 75.4 90.2 71.35 L90.2 70.1 90.45 69.6 Q90.65 69.35 90.95 69.35 L136.85 69.35 Q138.6 69.35 139.8 68.1 L139.85 68.05 Q141.1 66.85 141.1 65.1 L141.1 5.35 Q141.1 3.6 139.85 2.35 138.6 1.1 136.85 1.1 L-245.65 1.1 Q-247.4 1.1 -248.65 2.35 -249.9 3.6 -249.9 5.35 L-249.9 65.1 Q-249.9 66.85 -248.65 68.1 -247.4 69.35 -245.65 69.35 L69.05 69.35 69.6 69.6 69.8 70.1 Q69.7 90.85 89.45 94.6 L89.45 94.55 99.1 95.65 Q97.45 94.65 96.25 93.15 95.75 92.75 95.55 92.15 97.65 94.5 100.55 96.05 L89.4 94.95 Q69.35 91.15 69.45 70.1 L69.35 69.85 69.05 69.75 -245.65 69.75 Q-247.55 69.7 -248.9 68.35 -250.25 67.0 -250.25 65.1 L-250.25 5.35 Q-250.25 3.45 -248.95 2.1 L-248.9 2.05 Q-247.55 0.75 -245.65 0.75 L136.85 0.75 Q138.75 0.75 140.1 2.1 141.45 3.45 141.5 5.35 L141.5 65.1 Q141.5 67.0 140.1 68.35 138.75 69.75 136.85 69.75 L90.95 69.75 Q90.8 69.7 90.7 69.85 L90.6 70.1 90.6 71.4 Q90.4 73.0 90.85 74.5 90.35 79.5 91.6 83.4 92.3 87.75 94.6 90.9 M92.0 87.35 Q91.0 84.3 90.85 80.5 M90.85 74.5 Q90.6 76.8 90.75 78.8 90.6 76.8 90.85 74.5" fill="#ffffff" fill-opacity="0.14901961" fill-rule="evenodd" stroke="none"/>
    <path d="M92.0 87.35 Q88.55 81.05 89.85 71.3 L89.85 70.1 Q89.8 69.65 90.15 69.3 90.5 68.95 90.95 69.0 L136.85 69.0 Q138.45 69.0 139.55 67.85 L139.6 67.8 Q140.75 66.7 140.75 65.1 L140.75 5.35 Q140.7 3.75 139.55 2.6 138.45 1.5 136.85 1.5 L-245.65 1.5 Q-247.25 1.45 -248.4 2.6 -249.55 3.75 -249.5 5.35 L-249.5 65.1 Q-249.5 66.7 -248.4 67.8 -247.25 68.95 -245.65 69.0 L69.05 69.0 Q69.5 68.95 69.85 69.3 70.2 69.65 70.2 70.1 70.05 90.55 89.5 94.2 L97.75 95.2 Q96.7 94.45 96.25 93.15 97.45 94.65 99.1 95.65 L89.45 94.55 89.45 94.6 Q69.7 90.85 69.8 70.1 L69.6 69.6 69.05 69.35 -245.65 69.35 Q-247.4 69.35 -248.65 68.1 -249.9 66.85 -249.9 65.1 L-249.9 5.35 Q-249.9 3.6 -248.65 2.35 -247.4 1.1 -245.65 1.1 L136.85 1.1 Q138.6 1.1 139.85 2.35 141.1 3.6 141.1 5.35 L141.1 65.1 Q141.1 66.85 139.85 68.05 L139.8 68.1 Q138.6 69.35 136.85 69.35 L90.95 69.35 Q90.65 69.35 90.45 69.6 L90.2 70.1 90.2 71.35 Q89.7 75.4 90.75 78.8 90.75 79.7 90.85 80.5 91.0 84.3 92.0 87.35 92.75 89.55 94.6 90.9 M94.05 91.0 Q92.85 89.35 92.0 87.35" fill="#ffffff" fill-opacity="0.22745098" fill-rule="evenodd" stroke="none"/>
    <path d="M140.75 5.35 L140.75 65.1 Q140.75 66.7 139.6 67.8 L139.55 67.85 Q138.45 69.0 136.85 69.0 L90.95 69.0 Q90.5 68.95 90.15 69.3 89.8 69.65 89.85 70.1 L89.85 71.3 Q88.55 81.05 92.0 87.35 92.75 89.55 94.6 90.9 L95.55 92.15 Q95.75 92.75 96.25 93.15 96.7 94.45 97.75 95.2 L89.5 94.2 Q70.05 90.55 70.2 70.1 70.2 69.65 69.85 69.3 69.5 68.95 69.05 69.0 L-245.65 69.0 Q-247.25 68.95 -248.4 67.8 -249.5 66.7 -249.5 65.1 L-249.5 5.35 Q-249.55 3.75 -248.4 2.6 -247.25 1.45 -245.65 1.5 L136.85 1.5 Q138.45 1.5 139.55 2.6 140.7 3.75 140.75 5.35 M140.35 5.35 Q140.35 3.9 139.3 2.85 138.3 1.85 136.85 1.85 L-245.65 1.85 Q-247.1 1.85 -248.1 2.85 L-248.15 2.9 Q-249.15 3.9 -249.15 5.35 L-249.15 65.1 Q-249.15 66.55 -248.15 67.55 -247.1 68.6 -245.65 68.6 L69.05 68.6 Q69.7 68.6 70.15 69.05 70.55 69.5 70.55 70.1 70.45 90.2 89.6 93.85 L96.55 94.75 Q95.05 93.5 94.4 91.55 94.2 91.35 94.05 91.0 87.8 84.2 89.45 71.45 L89.45 70.1 Q89.45 69.5 89.9 69.05 90.35 68.6 90.95 68.6 L136.85 68.6 Q138.25 68.6 139.3 67.55 140.35 66.5 140.35 65.1 L140.35 5.35" fill="#ffffff" fill-opacity="0.3019608" fill-rule="evenodd" stroke="none"/>
    <path d="M137.7 4.45 Q137.35 4.1 136.85 4.1 L-245.65 4.1 Q-246.15 4.1 -246.5 4.4 L-246.55 4.45 -246.6 4.5 -246.9 5.35 -246.9 65.1 Q-246.9 65.6 -246.55 65.95 -246.15 66.35 -245.65 66.35 L69.05 66.35 Q70.6 66.35 71.7 67.45 72.8 68.55 72.8 70.15 72.65 88.35 90.0 91.65 L90.0 91.6 90.65 91.75 Q85.5 83.95 87.2 71.15 L87.2 70.1 Q87.2 68.55 88.3 67.45 89.4 66.35 90.95 66.35 L136.85 66.35 Q137.3 66.35 137.65 66.0 L137.75 65.9 Q138.1 65.55 138.1 65.1 L138.1 5.35 Q138.1 4.85 137.7 4.45 M138.5 5.35 L138.5 65.1 Q138.45 65.75 138.0 66.2 L137.95 66.25 Q137.5 66.7 136.85 66.75 L90.95 66.75 Q89.55 66.75 88.6 67.75 87.6 68.7 87.6 70.1 L87.6 71.2 Q85.85 84.45 91.5 92.25 L89.95 92.0 89.9 92.0 Q72.3 88.65 72.45 70.15 72.45 68.7 71.45 67.75 70.45 66.75 69.05 66.75 L-245.65 66.75 Q-246.3 66.7 -246.8 66.25 -247.3 65.75 -247.25 65.1 L-247.25 5.35 Q-247.25 4.7 -246.85 4.25 L-246.75 4.15 Q-246.3 3.75 -245.65 3.75 L136.85 3.75 Q137.5 3.7 138.0 4.2 138.45 4.7 138.5 5.35" fill="#ffffff" fill-opacity="0.7647059" fill-rule="evenodd" stroke="none"/>
    <path d="M137.7 4.45 Q138.1 4.85 138.1 5.35 L138.1 65.1 Q138.1 65.55 137.75 65.9 L137.65 66.0 Q137.3 66.35 136.85 66.35 L90.95 66.35 Q89.4 66.35 88.3 67.45 87.2 68.55 87.2 70.1 L87.2 71.15 Q85.5 83.95 90.65 91.75 L90.0 91.6 90.0 91.65 Q72.65 88.35 72.8 70.15 72.8 68.55 71.7 67.45 70.6 66.35 69.05 66.35 L-245.65 66.35 Q-246.15 66.35 -246.55 65.95 -246.9 65.6 -246.9 65.1 L-246.9 5.35 -246.6 4.5 -246.55 4.45 -246.5 4.4 Q-246.15 4.1 -245.65 4.1 L136.85 4.1 Q137.35 4.1 137.7 4.45 M137.75 5.35 L137.45 4.75 Q137.2 4.5 136.85 4.5 L-245.65 4.5 -246.25 4.75 -246.5 5.35 -246.5 65.1 -246.25 65.7 Q-246.0 65.95 -245.65 66.0 L69.05 66.0 Q70.75 66.0 72.0 67.2 73.2 68.4 73.2 70.15 73.05 87.95 89.9 91.2 85.2 83.5 86.85 71.1 L86.85 70.1 Q86.8 68.4 88.05 67.2 89.25 65.95 90.95 66.0 L136.85 66.0 137.4 65.75 137.5 65.65 137.75 65.1 137.75 5.35" fill="#ffffff" fill-opacity="0.84313726" fill-rule="evenodd" stroke="none"/>
    <path d="M137.35 5.35 L137.2 5.0 Q137.05 4.85 136.85 4.85 L-245.65 4.85 -246.0 5.0 -246.15 5.35 -246.15 65.1 -246.0 65.45 -245.65 65.6 69.05 65.6 Q70.9 65.6 72.25 66.95 73.55 68.25 73.55 70.15 73.4 87.2 89.1 90.7 84.95 83.05 86.45 71.25 L86.45 70.1 Q86.45 68.25 87.8 66.95 89.1 65.6 90.95 65.6 L136.85 65.6 137.15 65.5 137.25 65.4 137.35 65.1 137.35 5.35 M137.75 5.35 L137.75 65.1 137.5 65.65 137.4 65.75 136.85 66.0 90.95 66.0 Q89.25 65.95 88.05 67.2 86.8 68.4 86.85 70.1 L86.85 71.1 Q85.2 83.5 89.9 91.2 73.05 87.95 73.2 70.15 73.2 68.4 72.0 67.2 70.75 66.0 69.05 66.0 L-245.65 66.0 Q-246.0 65.95 -246.25 65.7 L-246.5 65.1 -246.5 5.35 -246.25 4.75 -245.65 4.5 136.85 4.5 Q137.2 4.5 137.45 4.75 L137.75 5.35" fill="#ffffff" fill-opacity="0.92156863" fill-rule="evenodd" stroke="none"/>
    <path d="M90.95 70.1 L136.85 70.1 Q138.9 70.1 140.35 68.6 141.85 67.15 141.85 65.1 L141.85 5.35 Q141.85 3.3 140.35 1.8 138.9 0.35 136.85 0.35 L-245.65 0.35 Q-247.7 0.35 -249.2 1.8 -250.65 3.3 -250.65 5.35 L-250.65 65.1 Q-250.65 67.15 -249.2 68.6 -247.7 70.1 -245.65 70.1 L69.05 70.1 Q68.95 91.45 89.3 95.3 95.65 96.45 102.15 96.45 93.5 92.4 91.6 83.4 L90.85 80.5 M90.75 78.8 Q90.6 76.8 90.85 74.5 90.8 73.05 90.95 71.45" fill="none" stroke="#000000" stroke-linecap="round" stroke-linejoin="round" stroke-width="2.0"/>
  </g>
</svg>
