<?xml version="1.0" encoding="UTF-8" standalone="no"?>
<svg xmlns:xlink="http://www.w3.org/1999/xlink" height="28.05px" width="25.65px" xmlns="http://www.w3.org/2000/svg">
  <g transform="matrix(1.0, 0.0, 0.0, 1.0, 10.6, 14.95)">
    <path d="M3.95 -8.0 L0.45 -7.7 3.95 -8.0 M-6.2 0.05 L-2.85 -4.7 -2.8 -4.75 -2.6 -5.0 -2.5 -5.1 -2.5 -5.15 -2.4 -5.25 -1.6 -6.25 Q-0.75 -7.25 0.45 -7.7 -1.0 -15.75 5.45 -14.45 11.25 -13.25 14.05 -8.9 14.75 -7.8 14.55 -6.25 11.95 -0.4 7.2 4.25 6.6 2.7 4.9 1.8 2.4 0.4 -0.55 0.1 L-6.2 0.05" fill="#d6883a" fill-rule="evenodd" stroke="none"/>
    <path d="M7.2 4.25 Q7.5 5.15 7.45 6.25 7.35 9.25 4.2 10.05 3.05 10.35 2.55 9.8 L3.05 9.15 Q3.45 8.5 3.3 7.65 L3.05 7.35 3.05 7.3 Q-1.25 2.75 -7.45 3.95 L-8.65 4.25 Q-9.25 1.75 -6.2 0.05 L-0.55 0.1 Q2.4 0.4 4.9 1.8 6.6 2.7 7.2 4.25" fill="#dea063" fill-rule="evenodd" stroke="none"/>
    <path d="M2.55 9.8 L2.3 10.3 Q1.35 12.1 -0.8 12.6 L-1.95 12.3 Q-2.7 10.95 -4.8 10.85 -6.9 11.65 -8.25 10.85 -9.6 10.05 -10.1 8.15 -10.45 6.75 -10.05 5.65 L-10.0 5.65 -9.1 4.5 -9.05 4.55 -8.65 4.5 -7.45 3.95 Q-1.25 2.75 3.05 7.3 L3.05 7.35 3.3 7.65 Q3.45 8.5 3.05 9.15 L2.55 9.8" fill="#ffcc99" fill-rule="evenodd" stroke="none"/>
    <path d="M0.45 -7.7 L3.95 -8.0 M-6.2 0.05 L-2.85 -4.7 -2.8 -4.75 -2.6 -5.0 -2.5 -5.1 -2.5 -5.15 -2.4 -5.25 -1.6 -6.25 Q-0.75 -7.25 0.45 -7.7 -1.0 -15.75 5.45 -14.45 11.25 -13.25 14.05 -8.9 14.75 -7.8 14.55 -6.25 11.95 -0.4 7.2 4.25 7.5 5.15 7.45 6.25 7.35 9.25 4.2 10.05 3.05 10.35 2.55 9.8 L2.3 10.3 Q1.35 12.1 -0.8 12.6 L-1.95 12.3 Q-2.7 10.95 -4.8 10.85 -6.9 11.65 -8.25 10.85 -9.6 10.05 -10.1 8.15 -10.45 6.75 -10.05 5.65 M-10.0 5.65 L-9.1 4.5 -9.0 4.45 -8.95 4.45 -8.9 4.35 -8.65 4.25 Q-9.25 1.75 -6.2 0.05 L-0.55 0.1 Q2.4 0.4 4.9 1.8 6.6 2.7 7.2 4.25 M-9.05 4.55 L-9.0 4.45 M-7.45 3.95 L-8.65 4.5 -9.05 4.55 M-7.45 3.95 L-8.65 4.25 M3.05 7.35 L3.3 7.65 Q3.45 8.5 3.05 9.15 L2.55 9.8 M3.05 7.3 Q-1.25 2.75 -7.45 3.95" fill="none" stroke="#92581f" stroke-linecap="round" stroke-linejoin="round" stroke-width="1.0"/>
  </g>
</svg>
