<?xml version="1.0" encoding="UTF-8" standalone="no"?>
<svg xmlns:xlink="http://www.w3.org/1999/xlink" height="127.85px" width="142.2px" xmlns="http://www.w3.org/2000/svg">
  <g transform="matrix(1.0, 0.0, 0.0, 1.0, 72.2, 64.15)">
    <path d="M5.85 -62.9 Q2.35 -58.55 1.0 -53.15 -0.1 -48.7 -0.6 -42.75 L-0.75 -41.1 -0.65 -39.85 Q-0.05 -35.75 1.9 -32.05 4.55 -27.05 11.35 -27.25 15.85 -27.45 17.0 -23.65 L17.3 -22.0 17.35 -20.1 17.0 -17.05 16.4 -15.0 15.9 -14.65 Q15.45 -13.1 15.3 -11.3 14.85 -5.05 18.9 -0.6 22.35 3.15 26.4 5.6 L27.65 6.35 Q32.35 8.35 35.9 12.25 38.7 15.3 40.4 19.2 42.7 24.45 40.65 30.05 38.45 35.95 32.4 38.15 27.1 40.05 23.7 44.95 21.2 48.5 17.95 51.4 15.0 53.7 11.55 57.4 7.9 61.3 2.7 62.6 1.75 62.85 0.85 63.2 L0.0 63.2 Q-24.05 63.2 -41.05 44.7 -58.05 26.2 -58.05 0.0 -58.05 -26.2 -41.05 -44.7 -24.05 -63.2 0.0 -63.2 L5.85 -62.9" fill="#ffcc99" fill-rule="evenodd" stroke="none"/>
    <path d="M0.85 63.2 Q1.75 62.85 2.7 62.6 7.9 61.3 11.55 57.4 15.0 53.7 17.95 51.4 21.2 48.5 23.7 44.95 27.1 40.05 32.4 38.15 38.45 35.95 40.65 30.05 42.7 24.45 40.4 19.2 38.7 15.3 35.9 12.25 32.35 8.35 27.65 6.35 L26.4 5.6 Q22.35 3.15 18.9 -0.6 14.85 -5.05 15.3 -11.3 15.45 -13.1 15.9 -14.65 L16.4 -15.0 17.0 -17.05 17.35 -20.1 17.3 -22.0 17.0 -23.65 Q15.85 -27.45 11.35 -27.25 4.55 -27.05 1.9 -32.05 -0.05 -35.75 -0.65 -39.85 L-0.75 -41.1 -0.6 -42.75 Q-0.1 -48.7 1.0 -53.15 2.35 -58.55 5.85 -62.9 26.15 -60.9 41.05 -44.7 58.05 -26.2 58.05 0.0 58.05 26.2 41.05 44.7 24.35 62.9 0.85 63.2" fill="#f7ba7d" fill-rule="evenodd" stroke="none"/>
    <path d="M5.85 -62.9 L0.0 -63.2 Q-24.05 -63.2 -41.05 -44.7 -58.05 -26.2 -58.05 0.0 -58.05 26.2 -41.05 44.7 -24.05 63.2 0.0 63.2 M0.85 63.2 Q24.35 62.9 41.05 44.7 58.05 26.2 58.05 0.0 58.05 -26.2 41.05 -44.7 26.15 -60.9 5.85 -62.9 Z" fill="none" stroke="#cc6633" stroke-linecap="round" stroke-linejoin="round" stroke-width="1.0"/>
    <path d="M48.3 -2.15 L48.3 -2.25 48.2 -6.85 49.0 -8.55 Q51.1 -12.8 54.4 -14.55 L57.1 -15.35 Q62.75 -16.55 65.85 -12.25 69.2 -7.7 69.5 -2.15 69.8 3.35 69.0 8.75 68.15 14.35 64.2 18.45 61.1 21.7 56.1 20.5 50.85 19.2 48.55 14.05 L48.3 -2.15 M64.15 -1.55 Q64.05 -2.9 59.8 -2.95 57.55 -2.95 55.95 -2.25 52.65 -0.8 52.05 3.75 52.65 -0.8 55.95 -2.25 57.55 -2.95 59.8 -2.95 64.05 -2.9 64.15 -1.55 M65.5 -5.9 Q65.0 -7.75 63.65 -9.3 58.45 -15.45 53.3 -9.4 60.6 -9.65 65.5 -5.9 M-67.95 -5.2 Q-63.45 -8.65 -57.7 -9.9 L-57.5 -12.8 Q-62.35 -15.15 -65.95 -9.4 -67.1 -7.5 -67.95 -5.2 M-50.75 14.05 Q-53.05 19.2 -58.3 20.5 -63.3 21.7 -66.4 18.45 -70.35 14.35 -71.2 8.75 -72.0 3.35 -71.7 -2.15 -71.4 -7.7 -68.05 -12.25 -64.3 -17.45 -56.7 -14.6 L-56.6 -14.55 Q-52.7 -12.5 -50.4 -6.85 L-50.55 2.85 -50.55 3.55 -50.75 14.05 M-64.45 -2.15 L-58.05 -1.7 Q-55.6 -1.3 -53.75 0.0 -58.7 -0.3 -61.25 3.5 -58.7 -0.3 -53.75 0.0 -55.6 -1.3 -58.05 -1.7 L-64.45 -2.15 M-53.75 0.0 Q-51.85 1.3 -50.55 3.55 -51.85 1.3 -53.75 0.0 M55.95 -2.25 Q60.15 -1.9 61.2 2.2 60.15 -1.9 55.95 -2.25" fill="#ffcc99" fill-rule="evenodd" stroke="none"/>
    <path d="M-21.2 6.15 L-20.7 5.6 -19.25 5.6 -21.2 6.15" fill="#ffffff" fill-rule="evenodd" stroke="none"/>
    <path d="M-5.0 -63.3 L-3.65 -63.1 Q-2.8 -62.45 -2.6 -61.6 L-5.0 -62.4 -7.2 -62.75 -9.35 -62.85 -5.05 -63.3 -5.0 -63.3 -1.4 -63.65 -1.25 -63.5 Q-0.1 -63.55 1.0 -63.2 L-0.15 -63.15 -1.4 -61.65 -1.95 -62.2 -2.8 -63.1 -5.0 -63.3 M48.3 -2.15 Q46.9 2.4 43.75 6.1 41.15 9.1 36.75 7.8 39.6 6.5 41.05 3.55 43.6 -1.65 43.65 -7.75 43.65 -13.7 41.65 -18.9 39.55 -24.3 34.85 -27.95 30.15 -31.65 24.0 -32.1 L12.5 -32.85 Q6.5 -33.1 2.65 -37.5 0.5 -40.0 -0.75 -44.2 0.25 -43.1 0.95 -42.95 1.45 -42.85 1.85 -42.55 2.95 -41.85 3.65 -41.8 3.6 -42.35 3.2 -42.7 1.6 -44.1 -0.4 -45.35 L1.65 -45.65 Q3.1 -45.6 4.0 -45.15 5.4 -45.65 6.9 -45.75 L11.4 -45.5 16.65 -44.55 Q20.3 -43.8 23.0 -41.4 L22.25 -42.8 Q20.35 -45.75 17.2 -47.35 14.85 -48.55 12.25 -48.9 L6.2 -49.1 1.05 -48.95 Q2.35 -50.4 4.45 -51.0 L1.05 -51.0 1.45 -51.55 Q2.4 -53.0 4.05 -53.7 6.6 -54.8 9.45 -54.85 L13.75 -54.75 Q16.9 -54.5 19.7 -53.2 L18.15 -54.8 Q16.25 -56.15 13.95 -56.6 L9.75 -56.95 6.1 -56.65 1.75 -56.35 Q2.3 -57.25 3.3 -57.75 5.2 -58.7 7.55 -58.35 L6.45 -59.0 Q4.6 -60.2 2.5 -60.7 L0.3 -61.15 0.8 -62.1 Q1.4 -62.7 2.3 -63.0 45.45 -62.0 57.1 -15.35 L54.4 -14.55 Q51.1 -12.8 49.0 -8.55 L48.2 -6.85 48.3 -2.25 48.3 -2.15 M-9.35 -62.85 L-10.8 -62.25 -12.7 -60.55 -10.35 -60.95 -7.0 -60.8 Q-5.45 -60.5 -4.35 -59.35 -2.65 -57.55 -2.25 -55.15 -3.35 -55.95 -4.6 -56.4 -6.3 -57.05 -7.8 -56.05 -6.0 -56.0 -4.6 -54.95 -2.8 -53.65 -2.6 -51.5 L-3.25 -51.7 -4.0 -52.2 Q-4.6 -52.75 -5.4 -52.9 L-10.1 -53.95 -11.25 -54.1 -12.95 -54.0 -16.3 -53.15 Q-18.1 -52.55 -18.9 -51.4 L-14.3 -52.1 -9.3 -51.85 Q-6.9 -51.6 -4.65 -50.8 -2.5 -50.1 -1.85 -48.0 -4.1 -49.35 -6.75 -49.25 L-8.9 -49.15 -11.0 -48.8 -13.45 -47.7 -15.9 -45.9 -13.75 -46.75 -10.15 -47.25 -6.25 -47.05 Q-4.3 -46.9 -2.7 -46.0 -1.55 -45.35 -0.8 -44.25 L-1.2 -43.1 Q-2.1 -41.15 -3.9 -39.7 -11.0 -33.95 -20.2 -34.15 L-26.3 -33.6 Q-31.4 -32.5 -35.7 -28.9 -40.55 -24.8 -42.8 -18.4 -45.7 -10.3 -44.2 -1.5 -43.25 4.4 -39.2 7.2 L-41.0 8.0 Q-46.8 10.95 -50.55 3.55 L-50.55 2.85 -50.4 -6.85 Q-52.7 -12.5 -56.6 -14.55 L-56.7 -14.6 Q-48.25 -56.85 -9.35 -62.85 M11.25 17.7 Q14.8 17.95 18.25 19.3 21.9 20.65 23.8 24.15 25.6 27.45 25.6 31.2 25.65 35.3 22.3 37.85 19.0 40.35 15.2 39.0 11.5 37.75 10.05 34.1 8.0 29.0 12.05 28.35 16.6 27.65 17.15 32.25 12.65 29.15 13.65 33.4 13.9 34.35 14.85 34.55 19.05 35.4 20.1 31.4 21.2 27.45 18.15 24.75 15.1 22.05 10.95 22.35 L5.7 22.75 11.25 17.7 M-12.7 24.7 L-17.95 24.3 Q-22.1 24.0 -25.15 26.7 -28.2 29.4 -27.1 33.35 -26.05 37.35 -21.85 36.5 -20.9 36.3 -20.65 35.35 -19.65 31.1 -24.15 34.2 -23.6 29.6 -19.05 30.3 -15.0 30.95 -17.05 36.05 -18.5 39.7 -22.2 40.95 -26.0 42.3 -29.3 39.8 -32.65 37.25 -32.6 33.15 -32.6 29.4 -30.8 26.1 -28.9 22.6 -25.25 21.25 -21.7 19.85 -18.05 19.6 L-12.7 24.7" fill="#333333" fill-rule="evenodd" stroke="none"/>
    <path d="M-9.35 -62.85 L-7.2 -62.75 -5.0 -62.4 -2.6 -61.6 Q-2.8 -62.45 -3.65 -63.1 L-5.0 -63.3 -2.8 -63.1 -1.95 -62.2 -1.4 -61.65 -0.15 -63.15 1.0 -63.2 1.3 -63.2 2.5 -63.15 Q2.4 -63.15 2.3 -63.0 1.4 -62.7 0.8 -62.1 L0.3 -61.15 2.5 -60.7 Q4.6 -60.2 6.45 -59.0 L7.55 -58.35 Q5.2 -58.7 3.3 -57.75 2.3 -57.25 1.75 -56.35 L6.1 -56.65 9.75 -56.95 13.95 -56.6 Q16.25 -56.15 18.15 -54.8 L19.7 -53.2 Q16.9 -54.5 13.75 -54.75 L9.45 -54.85 Q6.6 -54.8 4.05 -53.7 2.4 -53.0 1.45 -51.55 L1.05 -51.0 4.45 -51.0 Q2.35 -50.4 1.05 -48.95 L6.2 -49.1 12.25 -48.9 Q14.85 -48.55 17.2 -47.35 20.35 -45.75 22.25 -42.8 L23.0 -41.4 Q20.3 -43.8 16.65 -44.55 L11.4 -45.5 6.9 -45.75 Q5.4 -45.65 4.0 -45.15 3.1 -45.6 1.65 -45.65 L-0.4 -45.35 Q1.6 -44.1 3.2 -42.7 3.6 -42.35 3.65 -41.8 2.95 -41.85 1.85 -42.55 1.45 -42.85 0.95 -42.95 0.25 -43.1 -0.75 -44.2 L-0.8 -44.25 Q-1.55 -45.35 -2.7 -46.0 -4.3 -46.9 -6.25 -47.05 L-10.15 -47.25 -13.75 -46.75 -15.9 -45.9 -13.45 -47.7 -11.0 -48.8 -8.9 -49.15 -6.75 -49.25 Q-4.1 -49.35 -1.85 -48.0 -2.5 -50.1 -4.65 -50.8 -6.9 -51.6 -9.3 -51.85 L-14.3 -52.1 -18.9 -51.4 Q-18.1 -52.55 -16.3 -53.15 L-12.95 -54.0 -11.25 -54.1 -10.1 -53.95 -5.4 -52.9 Q-4.6 -52.75 -4.0 -52.2 L-3.25 -51.7 -2.6 -51.5 Q-2.8 -53.65 -4.6 -54.95 -6.0 -56.0 -7.8 -56.05 -6.3 -57.05 -4.6 -56.4 -3.35 -55.95 -2.25 -55.15 -2.65 -57.55 -4.35 -59.35 -5.45 -60.5 -7.0 -60.8 L-10.35 -60.95 -12.7 -60.55 -10.8 -62.25 -9.35 -62.85 M1.0 -63.2 Q1.7 -63.25 2.3 -63.0 1.7 -63.25 1.0 -63.2" fill="#252525" fill-rule="evenodd" stroke="none"/>
    <path d="M65.5 -5.9 Q60.6 -9.65 53.3 -9.4 58.45 -15.45 63.65 -9.3 65.0 -7.75 65.5 -5.9 M-67.95 -5.2 Q-67.1 -7.5 -65.95 -9.4 -62.35 -15.15 -57.5 -12.8 L-57.7 -9.9 Q-63.45 -8.65 -67.95 -5.2 M-18.65 15.6 Q-22.9 7.85 -14.65 8.05 -12.3 18.9 -5.95 26.15 L-9.45 24.45 Q-15.4 21.45 -18.65 15.6" fill="#ffe4ca" fill-rule="evenodd" stroke="none"/>
    <path d="M-24.15 10.55 Q-28.0 10.55 -31.0 8.05 -36.85 3.05 -34.55 -4.6 -33.15 -9.1 -30.75 -12.4 L-24.6 -15.5 -14.5 -12.2 Q-8.95 -7.7 -4.95 -2.95 -3.4 -1.15 -0.75 -1.3 6.2 -1.75 9.4 -8.7 11.65 -13.65 16.4 -15.0 L19.45 -15.5 Q26.85 -15.95 30.15 -8.8 33.15 -2.25 29.15 3.55 L27.0 6.1 Q23.25 9.45 17.75 9.05 L15.5 8.7 15.5 8.65 9.7 5.35 8.6 4.75 Q3.75 2.2 -2.65 3.3 L-15.1 5.55 -15.35 5.6 -19.25 5.6 Q-17.75 4.9 -16.55 3.3 -14.35 0.45 -14.35 -3.55 -14.35 -7.6 -16.55 -10.45 -18.7 -13.3 -21.75 -13.3 -24.8 -13.3 -26.95 -10.45 -29.1 -7.6 -29.1 -3.55 -29.1 0.45 -26.95 3.3 -24.8 6.15 -21.75 6.15 L-21.2 6.15 -24.15 9.05 -24.15 10.55 M12.35 -9.55 Q10.2 -6.7 10.2 -2.65 10.2 1.35 12.35 4.2 14.5 7.05 17.55 7.05 20.6 7.05 22.75 4.2 24.95 1.35 24.95 -2.65 24.95 -6.7 22.75 -9.55 20.6 -12.4 17.55 -12.4 14.5 -12.4 12.35 -9.55" fill="#f7ba7d" fill-rule="evenodd" stroke="none"/>
    <path d="M49.0 -8.55 Q51.1 -12.8 54.4 -14.55 L57.1 -15.35 Q62.75 -16.55 65.85 -12.25 69.2 -7.7 69.5 -2.15 69.8 3.35 69.0 8.75 68.15 14.35 64.2 18.45 61.1 21.7 56.1 20.5 50.85 19.2 48.55 14.05 M15.5 8.65 L15.45 8.7 15.5 14.25 11.25 17.7 -3.9 29.8 -7.35 29.8 -12.7 24.7 -18.05 19.6 -24.15 13.8 -24.15 10.55 -24.15 9.05 -21.2 6.15 -19.25 5.6 -20.7 5.6 -21.2 6.15 M-19.25 5.6 L-15.35 5.6 M9.7 5.35 L15.5 8.65 M52.05 3.75 Q52.65 -0.8 55.95 -2.25 57.55 -2.95 59.8 -2.95 64.05 -2.9 64.15 -1.55 M-50.75 14.05 Q-53.05 19.2 -58.3 20.5 -63.3 21.7 -66.4 18.45 -70.35 14.35 -71.2 8.75 -72.0 3.35 -71.7 -2.15 -71.4 -7.7 -68.05 -12.25 -64.3 -17.45 -56.7 -14.6 L-56.6 -14.55 Q-52.7 -12.5 -50.4 -6.85 M-61.25 3.5 Q-58.7 -0.3 -53.75 0.0 -55.6 -1.3 -58.05 -1.7 L-64.45 -2.15 M-50.55 3.55 Q-51.85 1.3 -53.75 0.0 M61.2 2.2 Q60.15 -1.9 55.95 -2.25" fill="none" stroke="#cc6633" stroke-linecap="round" stroke-linejoin="round" stroke-width="1.0"/>
    <path d="M-0.8 -44.25 L-0.75 -44.2 Q0.5 -40.0 2.65 -37.5 6.5 -33.1 12.5 -32.85 L24.0 -32.1 Q30.15 -31.65 34.85 -27.95 39.55 -24.3 41.65 -18.9 43.65 -13.7 43.65 -7.75 43.6 -1.65 41.05 3.55 39.6 6.5 36.75 7.8 41.15 9.1 43.75 6.1 46.9 2.4 48.3 -2.15 L48.3 -2.25 48.2 -6.85 49.0 -8.55 M57.1 -15.35 Q45.45 -62.0 2.3 -63.0 1.7 -63.25 1.0 -63.2 -0.1 -63.55 -1.25 -63.5 L-1.4 -63.65 -5.0 -63.3 -5.05 -63.3 -9.35 -62.85 Q-48.25 -56.85 -56.7 -14.6 M-50.4 -6.85 L-50.55 2.85 -50.55 3.55 Q-46.8 10.95 -41.0 8.0 L-39.2 7.2 Q-43.25 4.4 -44.2 -1.5 -45.7 -10.3 -42.8 -18.4 -40.55 -24.8 -35.7 -28.9 -31.4 -32.5 -26.3 -33.6 L-20.2 -34.15 Q-11.0 -33.95 -3.9 -39.7 -2.1 -41.15 -1.2 -43.1 L-0.8 -44.25" fill="none" stroke="#333333" stroke-linecap="round" stroke-linejoin="round" stroke-width="1.0"/>
  </g>
</svg>
