<?xml version="1.0" encoding="UTF-8" standalone="no"?>
<svg xmlns:xlink="http://www.w3.org/1999/xlink" height="39.65px" width="44.85px" xmlns="http://www.w3.org/2000/svg">
  <g transform="matrix(1.0, 0.0, 0.0, 1.0, -183.35, -110.05)">
    <path d="M226.3 134.75 L225.85 135.0 Q228.15 140.75 219.1 144.75 209.05 149.15 201.55 147.7 L201.35 147.8 Q199.1 139.6 192.0 133.5 184.35 126.8 185.25 117.6 185.9 111.6 192.9 111.95 202.0 112.25 210.9 117.25 219.55 122.1 224.2 130.8 L226.3 134.75" fill="#ffcc99" fill-rule="evenodd" stroke="none"/>
    <path d="M201.35 147.8 Q199.1 139.6 192.0 133.5 184.35 126.8 185.25 117.6 185.9 111.6 192.9 111.95 202.0 112.25 210.9 117.25 219.55 122.1 224.2 130.8 L226.3 134.75" fill="none" stroke="#92581f" stroke-linecap="round" stroke-linejoin="round" stroke-width="3.75"/>
  </g>
</svg>
