<?xml version="1.0" encoding="UTF-8" standalone="no"?>
<svg xmlns:xlink="http://www.w3.org/1999/xlink" height="357.55px" width="487.2px" xmlns="http://www.w3.org/2000/svg">
  <g transform="matrix(1.0, 0.0, 0.0, 1.0, 243.6, 178.8)">
    <path d="M223.1 -178.3 Q231.4 -178.3 237.25 -172.45 243.1 -166.6 243.1 -158.3 L243.1 158.25 Q243.1 166.55 237.25 172.4 231.4 178.25 223.1 178.25 L-223.1 178.25 Q-231.4 178.25 -237.25 172.4 -243.1 166.55 -243.1 158.25 L-243.1 -158.3 Q-243.1 -166.6 -237.25 -172.45 -231.4 -178.3 -223.1 -178.3 L223.1 -178.3" fill="url(#gradient0)" fill-rule="evenodd" stroke="none"/>
    <path d="M232.2 -167.4 Q235.95 -163.65 236.0 -158.3 L236.0 158.25 Q235.95 163.6 232.2 167.35 228.45 171.1 223.1 171.15 L-223.1 171.15 Q-228.45 171.1 -232.2 167.35 -235.95 163.6 -235.95 158.25 L-235.95 -158.3 Q-235.95 -163.65 -232.2 -167.4 -228.45 -171.15 -223.1 -171.15 L223.1 -171.15 Q228.45 -171.15 232.2 -167.4" fill="#fabb01" fill-rule="evenodd" stroke="none"/>
    <path d="M238.6 -158.3 Q238.6 -164.75 234.1 -169.25 229.55 -173.8 223.1 -173.8 L-223.1 -173.8 Q-229.55 -173.8 -234.05 -169.25 -238.6 -164.75 -238.6 -158.3 L-238.6 158.25 Q-238.6 164.7 -234.05 169.25 -229.55 173.75 -223.1 173.75 L223.1 173.75 Q229.55 173.75 234.1 169.25 238.6 164.7 238.6 158.25 L238.6 -158.3 M239.0 -158.3 L239.0 158.25 Q238.95 164.85 234.35 169.5 229.7 174.1 223.1 174.15 L-223.1 174.15 Q-229.7 174.1 -234.3 169.5 -238.95 164.85 -238.95 158.25 L-238.95 -158.3 Q-238.95 -164.9 -234.3 -169.5 -229.7 -174.15 -223.1 -174.15 L223.1 -174.15 Q229.7 -174.15 234.35 -169.5 238.95 -164.9 239.0 -158.3" fill="#fabb01" fill-opacity="0.59607846" fill-rule="evenodd" stroke="none"/>
    <path d="M240.5 -158.3 L240.5 158.25 Q240.5 165.45 235.4 170.55 230.3 175.65 223.1 175.65 L-223.1 175.65 Q-230.3 175.65 -235.4 170.55 -240.5 165.45 -240.45 158.25 L-240.45 -158.3 Q-240.5 -165.5 -235.4 -170.6 -230.3 -175.7 -223.1 -175.65 L223.1 -175.65 Q230.3 -175.7 235.4 -170.6 240.5 -165.5 240.5 -158.3 M240.1 -158.3 Q240.1 -165.35 235.15 -170.3 230.15 -175.3 223.1 -175.3 L-223.1 -175.3 Q-230.15 -175.3 -235.1 -170.3 -240.1 -165.35 -240.1 -158.3 L-240.1 158.25 Q-240.1 165.3 -235.1 170.3 -230.15 175.25 -223.1 175.25 L223.1 175.25 Q230.15 175.25 235.15 170.3 240.1 165.3 240.1 158.25 L240.1 -158.3" fill="#fabb01" fill-opacity="0.39607844" fill-rule="evenodd" stroke="none"/>
    <path d="M241.6 -158.3 Q241.6 -166.0 236.2 -171.4 230.8 -176.8 223.1 -176.8 L-223.1 -176.8 Q-230.8 -176.8 -236.2 -171.4 -241.6 -166.0 -241.6 -158.3 L-241.6 158.25 Q-241.6 165.95 -236.2 171.35 -230.8 176.75 -223.1 176.75 L223.1 176.75 Q230.8 176.75 236.2 171.35 241.6 165.95 241.6 158.25 L241.6 -158.3 M242.0 -158.3 L242.0 158.25 Q241.95 166.1 236.45 171.6 230.95 177.1 223.1 177.15 L-223.1 177.15 Q-230.95 177.1 -236.45 171.6 -241.95 166.1 -241.95 158.25 L-241.95 -158.3 Q-241.95 -166.15 -236.45 -171.65 -230.95 -177.15 -223.1 -177.15 L223.1 -177.15 Q230.95 -177.15 236.45 -171.65 241.95 -166.15 242.0 -158.3" fill="#fabb01" fill-opacity="0.19607843" fill-rule="evenodd" stroke="none"/>
    <path d="M233.3 -168.45 Q237.5 -164.25 237.5 -158.3 L237.5 158.25 Q237.5 164.2 233.3 168.45 229.05 172.65 223.1 172.65 L-223.1 172.65 Q-229.05 172.65 -233.25 168.45 -237.5 164.2 -237.45 158.25 L-237.45 -158.3 Q-237.5 -164.25 -233.25 -168.45 -229.05 -172.7 -223.1 -172.65 L223.1 -172.65 Q229.05 -172.7 233.3 -168.45 M233.0 -168.2 Q228.9 -172.3 223.1 -172.3 L-223.1 -172.3 Q-228.9 -172.3 -233.0 -168.2 -237.1 -164.1 -237.1 -158.3 L-237.1 158.25 Q-237.1 164.05 -233.0 168.15 -228.9 172.25 -223.1 172.25 L223.1 172.25 Q228.9 172.25 233.0 168.15 237.1 164.05 237.1 158.25 L237.1 -158.3 Q237.1 -164.1 233.0 -168.2" fill="#fabb01" fill-opacity="0.79607844" fill-rule="evenodd" stroke="none"/>
    <path d="M232.75 -167.95 Q228.75 -171.95 223.1 -171.9 L-223.1 -171.9 Q-228.75 -171.95 -232.75 -167.95 -236.75 -163.95 -236.7 -158.3 L-236.7 158.25 Q-236.75 163.9 -232.75 167.9 -228.75 171.9 -223.1 171.9 L223.1 171.9 Q228.75 171.9 232.75 167.9 236.75 163.9 236.75 158.25 L236.75 -158.3 Q236.75 -163.95 232.75 -167.95 M233.0 -168.2 Q237.1 -164.1 237.1 -158.3 L237.1 158.25 Q237.1 164.05 233.0 168.15 228.9 172.25 223.1 172.25 L-223.1 172.25 Q-228.9 172.25 -233.0 168.15 -237.1 164.05 -237.1 158.25 L-237.1 -158.3 Q-237.1 -164.1 -233.0 -168.2 -228.9 -172.3 -223.1 -172.3 L223.1 -172.3 Q228.9 -172.3 233.0 -168.2" fill="#fabb01" fill-opacity="0.84705883" fill-rule="evenodd" stroke="none"/>
    <path d="M232.5 -167.65 Q228.6 -171.55 223.1 -171.55 L-223.1 -171.55 Q-228.6 -171.55 -232.45 -167.65 -236.35 -163.8 -236.35 -158.3 L-236.35 158.25 Q-236.35 163.75 -232.45 167.65 -228.6 171.5 -223.1 171.5 L223.1 171.5 Q228.6 171.5 232.5 167.65 236.35 163.75 236.35 158.25 L236.35 -158.3 Q236.35 -163.8 232.5 -167.65 M232.75 -167.95 Q236.75 -163.95 236.75 -158.3 L236.75 158.25 Q236.75 163.9 232.75 167.9 228.75 171.9 223.1 171.9 L-223.1 171.9 Q-228.75 171.9 -232.75 167.9 -236.75 163.9 -236.7 158.25 L-236.7 -158.3 Q-236.75 -163.95 -232.75 -167.95 -228.75 -171.95 -223.1 -171.9 L223.1 -171.9 Q228.75 -171.95 232.75 -167.95" fill="#fabb01" fill-opacity="0.8980392" fill-rule="evenodd" stroke="none"/>
    <path d="M232.2 -167.4 Q228.45 -171.15 223.1 -171.15 L-223.1 -171.15 Q-228.45 -171.15 -232.2 -167.4 -235.95 -163.65 -235.95 -158.3 L-235.95 158.25 Q-235.95 163.6 -232.2 167.35 -228.45 171.1 -223.1 171.15 L223.1 171.15 Q228.45 171.1 232.2 167.35 235.95 163.6 236.0 158.25 L236.0 -158.3 Q235.95 -163.65 232.2 -167.4 M232.5 -167.65 Q236.35 -163.8 236.35 -158.3 L236.35 158.25 Q236.35 163.75 232.5 167.65 228.6 171.5 223.1 171.5 L-223.1 171.5 Q-228.6 171.5 -232.45 167.65 -236.35 163.75 -236.35 158.25 L-236.35 -158.3 Q-236.35 -163.8 -232.45 -167.65 -228.6 -171.55 -223.1 -171.55 L223.1 -171.55 Q228.6 -171.55 232.5 -167.65" fill="#fabb01" fill-opacity="0.9490196" fill-rule="evenodd" stroke="none"/>
    <path d="M240.1 -158.3 L240.1 158.25 Q240.1 165.3 235.15 170.3 230.15 175.25 223.1 175.25 L-223.1 175.25 Q-230.15 175.25 -235.1 170.3 -240.1 165.3 -240.1 158.25 L-240.1 -158.3 Q-240.1 -165.35 -235.1 -170.3 -230.15 -175.3 -223.1 -175.3 L223.1 -175.3 Q230.15 -175.3 235.15 -170.3 240.1 -165.35 240.1 -158.3 M239.75 -158.3 Q239.75 -165.2 234.9 -170.05 230.0 -174.95 223.1 -174.9 L-223.1 -174.9 Q-230.0 -174.95 -234.85 -170.05 -239.75 -165.2 -239.7 -158.3 L-239.7 158.25 Q-239.75 165.15 -234.85 170.05 -230.0 174.9 -223.1 174.9 L223.1 174.9 Q230.0 174.9 234.9 170.05 239.75 165.15 239.75 158.25 L239.75 -158.3" fill="#fabb01" fill-opacity="0.44705883" fill-rule="evenodd" stroke="none"/>
    <path d="M239.35 -158.3 Q239.35 -165.05 234.6 -169.8 229.85 -174.55 223.1 -174.55 L-223.1 -174.55 Q-229.85 -174.55 -234.6 -169.8 -239.35 -165.05 -239.35 -158.3 L-239.35 158.25 Q-239.35 165.0 -234.6 169.75 -229.85 174.5 -223.1 174.5 L223.1 174.5 Q229.85 174.5 234.6 169.75 239.35 165.0 239.35 158.25 L239.35 -158.3 M239.75 -158.3 L239.75 158.25 Q239.75 165.15 234.9 170.05 230.0 174.9 223.1 174.9 L-223.1 174.9 Q-230.0 174.9 -234.85 170.05 -239.75 165.15 -239.7 158.25 L-239.7 -158.3 Q-239.75 -165.2 -234.85 -170.05 -230.0 -174.95 -223.1 -174.9 L223.1 -174.9 Q230.0 -174.95 234.9 -170.05 239.75 -165.2 239.75 -158.3" fill="#fabb01" fill-opacity="0.49803922" fill-rule="evenodd" stroke="none"/>
    <path d="M240.85 -158.3 L240.85 158.25 Q240.85 165.6 235.65 170.8 230.45 176.0 223.1 176.0 L-223.1 176.0 Q-230.45 176.0 -235.65 170.8 -240.85 165.6 -240.85 158.25 L-240.85 -158.3 Q-240.85 -165.65 -235.65 -170.85 -230.45 -176.05 -223.1 -176.05 L223.1 -176.05 Q230.45 -176.05 235.65 -170.85 240.85 -165.65 240.85 -158.3 M240.5 -158.3 Q240.5 -165.5 235.4 -170.6 230.3 -175.7 223.1 -175.65 L-223.1 -175.65 Q-230.3 -175.7 -235.4 -170.6 -240.5 -165.5 -240.45 -158.3 L-240.45 158.25 Q-240.5 165.45 -235.4 170.55 -230.3 175.65 -223.1 175.65 L223.1 175.65 Q230.3 175.65 235.4 170.55 240.5 165.45 240.5 158.25 L240.5 -158.3" fill="#fabb01" fill-opacity="0.34509805" fill-rule="evenodd" stroke="none"/>
    <path d="M241.25 -158.3 L241.25 158.25 Q241.25 165.75 235.95 171.1 230.6 176.4 223.1 176.4 L-223.1 176.4 Q-230.6 176.4 -235.9 171.1 -241.25 165.75 -241.2 158.25 L-241.2 -158.3 Q-241.25 -165.8 -235.9 -171.1 -230.6 -176.45 -223.1 -176.4 L223.1 -176.4 Q230.6 -176.45 235.95 -171.1 241.25 -165.8 241.25 -158.3 M240.85 -158.3 Q240.85 -165.65 235.65 -170.85 230.45 -176.05 223.1 -176.05 L-223.1 -176.05 Q-230.45 -176.05 -235.65 -170.85 -240.85 -165.65 -240.85 -158.3 L-240.85 158.25 Q-240.85 165.6 -235.65 170.8 -230.45 176.0 -223.1 176.0 L223.1 176.0 Q230.45 176.0 235.65 170.8 240.85 165.6 240.85 158.25 L240.85 -158.3" fill="#fabb01" fill-opacity="0.29411766" fill-rule="evenodd" stroke="none"/>
    <path d="M241.6 -158.3 L241.6 158.25 Q241.6 165.95 236.2 171.35 230.8 176.75 223.1 176.75 L-223.1 176.75 Q-230.8 176.75 -236.2 171.35 -241.6 165.95 -241.6 158.25 L-241.6 -158.3 Q-241.6 -166.0 -236.2 -171.4 -230.8 -176.8 -223.1 -176.8 L223.1 -176.8 Q230.8 -176.8 236.2 -171.4 241.6 -166.0 241.6 -158.3 M241.25 -158.3 Q241.25 -165.8 235.95 -171.1 230.6 -176.45 223.1 -176.4 L-223.1 -176.4 Q-230.6 -176.45 -235.9 -171.1 -241.25 -165.8 -241.2 -158.3 L-241.2 158.25 Q-241.25 165.75 -235.9 171.1 -230.6 176.4 -223.1 176.4 L223.1 176.4 Q230.6 176.4 235.95 171.1 241.25 165.75 241.25 158.25 L241.25 -158.3" fill="#fabb01" fill-opacity="0.24705882" fill-rule="evenodd" stroke="none"/>
    <path d="M242.75 -158.3 Q242.7 -166.45 237.0 -172.15 231.25 -177.9 223.1 -177.9 L-223.1 -177.9 Q-231.25 -177.9 -236.95 -172.15 -242.7 -166.45 -242.7 -158.3 L-242.7 158.25 Q-242.7 166.4 -236.95 172.15 -231.25 177.85 -223.1 177.9 L223.1 177.9 Q231.25 177.85 237.0 172.15 242.7 166.4 242.75 158.25 L242.75 -158.3 M223.1 -178.3 Q231.4 -178.3 237.25 -172.45 243.1 -166.6 243.1 -158.3 L243.1 158.25 Q243.1 166.55 237.25 172.4 231.4 178.25 223.1 178.25 L-223.1 178.25 Q-231.4 178.25 -237.25 172.4 -243.1 166.55 -243.1 158.25 L-243.1 -158.3 Q-243.1 -166.6 -237.25 -172.45 -231.4 -178.3 -223.1 -178.3 L223.1 -178.3" fill="#fabb01" fill-opacity="0.043137256" fill-rule="evenodd" stroke="none"/>
    <path d="M242.35 -158.3 Q242.35 -166.3 236.75 -171.9 231.1 -177.55 223.1 -177.55 L-223.1 -177.55 Q-231.1 -177.55 -236.7 -171.9 -242.35 -166.3 -242.35 -158.3 L-242.35 158.25 Q-242.35 166.25 -236.7 171.9 -231.1 177.5 -223.1 177.5 L223.1 177.5 Q231.1 177.5 236.75 171.9 242.35 166.25 242.35 158.25 L242.35 -158.3 M242.75 -158.3 L242.75 158.25 Q242.7 166.4 237.0 172.15 231.25 177.85 223.1 177.9 L-223.1 177.9 Q-231.25 177.85 -236.95 172.15 -242.7 166.4 -242.7 158.25 L-242.7 -158.3 Q-242.7 -166.45 -236.95 -172.15 -231.25 -177.9 -223.1 -177.9 L223.1 -177.9 Q231.25 -177.9 237.0 -172.15 242.7 -166.45 242.75 -158.3" fill="#fabb01" fill-opacity="0.09411765" fill-rule="evenodd" stroke="none"/>
    <path d="M242.0 -158.3 Q241.95 -166.15 236.45 -171.65 230.95 -177.15 223.1 -177.15 L-223.1 -177.15 Q-230.95 -177.15 -236.45 -171.65 -241.95 -166.15 -241.95 -158.3 L-241.95 158.25 Q-241.95 166.1 -236.45 171.6 -230.95 177.1 -223.1 177.15 L223.1 177.15 Q230.95 177.1 236.45 171.6 241.95 166.1 242.0 158.25 L242.0 -158.3 M242.35 -158.3 L242.35 158.25 Q242.35 166.25 236.75 171.9 231.1 177.5 223.1 177.5 L-223.1 177.5 Q-231.1 177.5 -236.7 171.9 -242.35 166.25 -242.35 158.25 L-242.35 -158.3 Q-242.35 -166.3 -236.7 -171.9 -231.1 -177.55 -223.1 -177.55 L223.1 -177.55 Q231.1 -177.55 236.75 -171.9 242.35 -166.3 242.35 -158.3" fill="#fabb01" fill-opacity="0.14509805" fill-rule="evenodd" stroke="none"/>
    <path d="M239.0 -158.3 Q238.95 -164.9 234.35 -169.5 229.7 -174.15 223.1 -174.15 L-223.1 -174.15 Q-229.7 -174.15 -234.3 -169.5 -238.95 -164.9 -238.95 -158.3 L-238.95 158.25 Q-238.95 164.85 -234.3 169.5 -229.7 174.1 -223.1 174.15 L223.1 174.15 Q229.7 174.1 234.35 169.5 238.95 164.85 239.0 158.25 L239.0 -158.3 M239.35 -158.3 L239.35 158.25 Q239.35 165.0 234.6 169.75 229.85 174.5 223.1 174.5 L-223.1 174.5 Q-229.85 174.5 -234.6 169.75 -239.35 165.0 -239.35 158.25 L-239.35 -158.3 Q-239.35 -165.05 -234.6 -169.8 -229.85 -174.55 -223.1 -174.55 L223.1 -174.55 Q229.85 -174.55 234.6 -169.8 239.35 -165.05 239.35 -158.3" fill="#fabb01" fill-opacity="0.54509807" fill-rule="evenodd" stroke="none"/>
    <path d="M238.25 -158.3 Q238.25 -164.6 233.8 -169.0 229.4 -173.45 223.1 -173.4 L-223.1 -173.4 Q-229.4 -173.45 -233.8 -169.0 -238.25 -164.6 -238.2 -158.3 L-238.2 158.25 Q-238.25 164.55 -233.8 168.95 -229.4 173.4 -223.1 173.4 L223.1 173.4 Q229.4 173.4 233.8 168.95 238.25 164.55 238.25 158.25 L238.25 -158.3 M238.6 -158.3 L238.6 158.25 Q238.6 164.7 234.1 169.25 229.55 173.75 223.1 173.75 L-223.1 173.75 Q-229.55 173.75 -234.05 169.25 -238.6 164.7 -238.6 158.25 L-238.6 -158.3 Q-238.6 -164.75 -234.05 -169.25 -229.55 -173.8 -223.1 -173.8 L223.1 -173.8 Q229.55 -173.8 234.1 -169.25 238.6 -164.75 238.6 -158.3" fill="#fabb01" fill-opacity="0.64705884" fill-rule="evenodd" stroke="none"/>
    <path d="M233.55 -168.75 Q229.25 -173.05 223.1 -173.05 L-223.1 -173.05 Q-229.25 -173.05 -233.55 -168.75 -237.85 -164.45 -237.85 -158.3 L-237.85 158.25 Q-237.85 164.4 -233.55 168.7 -229.25 173.0 -223.1 173.0 L223.1 173.0 Q229.25 173.0 233.55 168.7 237.85 164.4 237.85 158.25 L237.85 -158.3 Q237.85 -164.45 233.55 -168.75 M238.25 -158.3 L238.25 158.25 Q238.25 164.55 233.8 168.95 229.4 173.4 223.1 173.4 L-223.1 173.4 Q-229.4 173.4 -233.8 168.95 -238.25 164.55 -238.2 158.25 L-238.2 -158.3 Q-238.25 -164.6 -233.8 -169.0 -229.4 -173.45 -223.1 -173.4 L223.1 -173.4 Q229.4 -173.45 233.8 -169.0 238.25 -164.6 238.25 -158.3" fill="#fabb01" fill-opacity="0.69803923" fill-rule="evenodd" stroke="none"/>
    <path d="M233.3 -168.45 Q229.05 -172.7 223.1 -172.65 L-223.1 -172.65 Q-229.05 -172.7 -233.25 -168.45 -237.5 -164.25 -237.45 -158.3 L-237.45 158.25 Q-237.5 164.2 -233.25 168.45 -229.05 172.65 -223.1 172.65 L223.1 172.65 Q229.05 172.65 233.3 168.45 237.5 164.2 237.5 158.25 L237.5 -158.3 Q237.5 -164.25 233.3 -168.45 M233.55 -168.75 Q237.85 -164.45 237.85 -158.3 L237.85 158.25 Q237.85 164.4 233.55 168.7 229.25 173.0 223.1 173.0 L-223.1 173.0 Q-229.25 173.0 -233.55 168.7 -237.85 164.4 -237.85 158.25 L-237.85 -158.3 Q-237.85 -164.45 -233.55 -168.75 -229.25 -173.05 -223.1 -173.05 L223.1 -173.05 Q229.25 -173.05 233.55 -168.75" fill="#fabb01" fill-opacity="0.7490196" fill-rule="evenodd" stroke="none"/>
    <path d="M223.1 -178.3 L-223.1 -178.3 Q-231.4 -178.3 -237.25 -172.45 -243.1 -166.6 -243.1 -158.3 L-243.1 158.25 Q-243.1 166.55 -237.25 172.4 -231.4 178.25 -223.1 178.25 L223.1 178.25 Q231.4 178.25 237.25 172.4 243.1 166.55 243.1 158.25 L243.1 -158.3 Q243.1 -166.6 237.25 -172.45 231.4 -178.3 223.1 -178.3 Z" fill="none" stroke="#7d5f00" stroke-linecap="round" stroke-linejoin="round" stroke-width="1.0"/>
  </g>
  <defs>
    <linearGradient gradientTransform="matrix(0.0, 0.2176, -0.2968, 0.0, 0.0, -0.05)" gradientUnits="userSpaceOnUse" id="gradient0" spreadMethod="pad" x1="-819.2" x2="819.2">
      <stop offset="0.23921568627450981" stop-color="#ffffcc"/>
      <stop offset="0.6" stop-color="#8f7001"/>
    </linearGradient>
  </defs>
</svg>
