<?xml version="1.0" encoding="UTF-8" standalone="no"?>
<svg xmlns:xlink="http://www.w3.org/1999/xlink" height="218.15px" width="448.15px" xmlns="http://www.w3.org/2000/svg">
  <g transform="matrix(1.0, 0.0, 0.0, 1.0, 95.25, 80.0)">
    <path d="M352.4 97.45 L352.4 127.65 Q352.4 131.8 349.45 134.7 346.55 137.65 342.4 137.65 L311.0 137.65 311.0 97.45 352.4 97.45" fill="url(#gradient0)" fill-rule="evenodd" stroke="none"/>
    <path d="M311.0 137.65 L301.65 137.65 301.65 97.45 311.0 97.45 311.0 137.65" fill="url(#gradient1)" fill-rule="evenodd" stroke="none"/>
    <path d="M301.65 137.65 L226.2 137.65 226.2 97.45 301.65 97.45 301.65 137.65" fill="url(#gradient2)" fill-rule="evenodd" stroke="none"/>
    <path d="M226.2 137.65 L41.5 137.65 41.5 97.45 226.2 97.45 226.2 137.65" fill="url(#gradient3)" fill-rule="evenodd" stroke="none"/>
    <path d="M41.5 137.65 L3.65 137.65 3.65 97.45 41.5 97.45 41.5 137.65" fill="url(#gradient4)" fill-rule="evenodd" stroke="none"/>
    <path d="M3.65 137.65 L-3.5 137.65 -3.5 97.45 3.65 97.45 3.65 137.65" fill="url(#gradient5)" fill-rule="evenodd" stroke="none"/>
    <path d="M-45.45 137.65 L-52.5 137.65 -52.5 97.45 -45.45 97.45 -45.45 137.65" fill="url(#gradient6)" fill-rule="evenodd" stroke="none"/>
    <path d="M-3.5 137.65 L-22.65 137.65 -22.65 97.45 -3.5 97.45 -3.5 137.65" fill="url(#gradient7)" fill-rule="evenodd" stroke="none"/>
    <path d="M-22.65 137.65 L-45.45 137.65 -45.45 97.45 -22.65 97.45 -22.65 137.65" fill="url(#gradient8)" fill-rule="evenodd" stroke="none"/>
    <path d="M-52.5 137.65 L-84.75 137.65 Q-88.9 137.65 -91.85 134.7 -94.75 131.8 -94.75 127.65 L-94.75 97.45 -52.5 97.45 -52.5 137.65" fill="url(#gradient9)" fill-rule="evenodd" stroke="none"/>
    <path d="M352.4 76.4 L352.4 97.45 311.0 97.45 311.0 76.4 352.4 76.4" fill="url(#gradient10)" fill-rule="evenodd" stroke="none"/>
    <path d="M311.0 97.45 L301.65 97.45 301.65 76.4 311.0 76.4 311.0 97.45" fill="url(#gradient11)" fill-rule="evenodd" stroke="none"/>
    <path d="M301.65 76.4 L301.65 97.45 226.2 97.45 226.2 76.4 301.65 76.4" fill="url(#gradient12)" fill-rule="evenodd" stroke="none"/>
    <path d="M226.2 76.4 L226.2 97.45 41.5 97.45 41.5 76.4 226.2 76.4" fill="url(#gradient13)" fill-rule="evenodd" stroke="none"/>
    <path d="M3.65 76.4 L41.5 76.4 41.5 97.45 3.65 97.45 3.65 76.4" fill="url(#gradient14)" fill-rule="evenodd" stroke="none"/>
    <path d="M3.65 76.4 L3.65 97.45 -3.5 97.45 -3.5 76.4 3.65 76.4" fill="url(#gradient15)" fill-rule="evenodd" stroke="none"/>
    <path d="M-22.65 76.4 L-3.5 76.4 -3.5 97.45 -22.65 97.45 -22.65 76.4" fill="url(#gradient16)" fill-rule="evenodd" stroke="none"/>
    <path d="M-52.5 76.4 L-45.45 76.4 -45.45 97.45 -52.5 97.45 -52.5 76.4" fill="url(#gradient17)" fill-rule="evenodd" stroke="none"/>
    <path d="M-45.45 76.4 L-22.65 76.4 -22.65 97.45 -45.45 97.45 -45.45 76.4" fill="url(#gradient18)" fill-rule="evenodd" stroke="none"/>
    <path d="M-94.75 97.45 L-94.75 76.4 -52.5 76.4 -52.5 97.45 -94.75 97.45" fill="url(#gradient19)" fill-rule="evenodd" stroke="none"/>
    <path d="M3.65 -7.65 L3.65 -79.5 41.5 -79.5 41.5 -7.65 3.65 -7.65" fill="url(#gradient20)" fill-rule="evenodd" stroke="none"/>
    <path d="M3.65 -7.65 L41.5 -7.65 41.5 8.45 3.65 8.45 3.65 -7.65" fill="url(#gradient21)" fill-rule="evenodd" stroke="none"/>
    <path d="M3.65 -79.5 L3.65 -7.65 -3.5 -7.65 -3.5 -79.5 3.65 -79.5" fill="url(#gradient22)" fill-rule="evenodd" stroke="none"/>
    <path d="M41.5 -7.65 L41.5 -79.5 226.2 -79.5 226.2 -7.65 41.5 -7.65" fill="url(#gradient23)" fill-rule="evenodd" stroke="none"/>
    <path d="M226.2 -7.65 L226.2 -79.5 301.65 -79.5 301.65 -7.65 226.2 -7.65" fill="url(#gradient24)" fill-rule="evenodd" stroke="none"/>
    <path d="M301.65 -79.5 L311.0 -79.5 311.0 -7.65 301.65 -7.65 301.65 -79.5" fill="url(#gradient25)" fill-rule="evenodd" stroke="none"/>
    <path d="M301.65 -7.65 L311.0 -7.65 311.0 8.45 301.65 8.45 301.65 -7.65" fill="url(#gradient26)" fill-rule="evenodd" stroke="none"/>
    <path d="M311.0 -7.65 L311.0 -79.5 342.4 -79.5 Q346.55 -79.5 349.45 -76.6 352.4 -73.65 352.4 -69.5 L352.4 -7.65 311.0 -7.65" fill="url(#gradient27)" fill-rule="evenodd" stroke="none"/>
    <path d="M226.2 -7.65 L301.65 -7.65 301.65 8.45 226.2 8.45 226.2 -7.65" fill="url(#gradient28)" fill-rule="evenodd" stroke="none"/>
    <path d="M41.5 8.45 L41.5 -7.65 226.2 -7.65 226.2 8.45 41.5 8.45" fill="url(#gradient29)" fill-rule="evenodd" stroke="none"/>
    <path d="M352.4 -7.65 L352.4 8.45 311.0 8.45 311.0 -7.65 352.4 -7.65" fill="url(#gradient30)" fill-rule="evenodd" stroke="none"/>
    <path d="M352.4 8.45 L352.4 30.95 311.0 30.95 311.0 8.45 352.4 8.45" fill="url(#gradient31)" fill-rule="evenodd" stroke="none"/>
    <path d="M301.65 8.45 L311.0 8.45 311.0 30.95 301.65 30.95 301.65 8.45" fill="url(#gradient32)" fill-rule="evenodd" stroke="none"/>
    <path d="M301.65 8.45 L301.65 30.95 226.2 30.95 226.2 8.45 301.65 8.45" fill="url(#gradient33)" fill-rule="evenodd" stroke="none"/>
    <path d="M226.2 8.45 L226.2 30.95 41.5 30.95 41.5 8.45 226.2 8.45" fill="url(#gradient34)" fill-rule="evenodd" stroke="none"/>
    <path d="M3.65 8.45 L41.5 8.45 41.5 30.95 3.65 30.95 3.65 8.45" fill="url(#gradient35)" fill-rule="evenodd" stroke="none"/>
    <path d="M3.65 8.45 L3.65 30.95 -3.5 30.95 -3.5 8.45 3.65 8.45" fill="url(#gradient36)" fill-rule="evenodd" stroke="none"/>
    <path d="M-3.5 -7.65 L3.65 -7.65 3.65 8.45 -3.5 8.45 -3.5 -7.65" fill="url(#gradient37)" fill-rule="evenodd" stroke="none"/>
    <path d="M-94.75 -7.65 L-94.75 -69.5 Q-94.75 -73.65 -91.85 -76.6 -88.9 -79.5 -84.75 -79.5 L-52.5 -79.5 -52.5 -7.65 -94.75 -7.65" fill="url(#gradient38)" fill-rule="evenodd" stroke="none"/>
    <path d="M-3.5 -79.5 L-3.5 -7.65 -22.65 -7.65 -22.65 -79.5 -3.5 -79.5" fill="url(#gradient39)" fill-rule="evenodd" stroke="none"/>
    <path d="M-52.5 -79.5 L-45.45 -79.5 -45.45 -7.65 -52.5 -7.65 -52.5 -79.5" fill="url(#gradient40)" fill-rule="evenodd" stroke="none"/>
    <path d="M-52.5 -7.65 L-45.45 -7.65 -45.45 8.45 -52.5 8.45 -52.5 -7.65" fill="url(#gradient41)" fill-rule="evenodd" stroke="none"/>
    <path d="M-22.65 -7.65 L-3.5 -7.65 -3.5 8.45 -22.65 8.45 -22.65 -7.65" fill="url(#gradient42)" fill-rule="evenodd" stroke="none"/>
    <path d="M-45.45 -79.5 L-22.65 -79.5 -22.65 -7.65 -45.45 -7.65 -45.45 -79.5" fill="url(#gradient43)" fill-rule="evenodd" stroke="none"/>
    <path d="M-45.45 8.45 L-45.45 -7.65 -22.65 -7.65 -22.65 8.45 -45.45 8.45" fill="url(#gradient44)" fill-rule="evenodd" stroke="none"/>
    <path d="M-94.75 8.45 L-94.75 -7.65 -52.5 -7.65 -52.5 8.45 -94.75 8.45" fill="url(#gradient45)" fill-rule="evenodd" stroke="none"/>
    <path d="M-3.5 8.45 L-3.5 30.95 -22.65 30.95 -22.65 8.45 -3.5 8.45" fill="url(#gradient46)" fill-rule="evenodd" stroke="none"/>
    <path d="M-22.65 8.45 L-22.65 30.95 -45.45 30.95 -45.45 8.45 -22.65 8.45" fill="url(#gradient47)" fill-rule="evenodd" stroke="none"/>
    <path d="M-52.5 8.45 L-45.45 8.45 -45.45 30.95 -52.5 30.95 -52.5 8.45" fill="url(#gradient48)" fill-rule="evenodd" stroke="none"/>
    <path d="M-94.75 30.95 L-94.75 8.45 -52.5 8.45 -52.5 30.95 -94.75 30.95" fill="url(#gradient49)" fill-rule="evenodd" stroke="none"/>
    <path d="M352.4 30.95 L352.4 76.4 311.0 76.4 311.0 30.95 352.4 30.95" fill="url(#gradient50)" fill-rule="evenodd" stroke="none"/>
    <path d="M301.65 30.95 L311.0 30.95 311.0 76.4 301.65 76.4 301.65 30.95" fill="url(#gradient51)" fill-rule="evenodd" stroke="none"/>
    <path d="M226.2 30.95 L301.65 30.95 301.65 76.4 226.2 76.4 226.2 30.95" fill="url(#gradient52)" fill-rule="evenodd" stroke="none"/>
    <path d="M226.2 30.95 L226.2 76.4 41.5 76.4 41.5 30.95 226.2 30.95" fill="url(#gradient53)" fill-rule="evenodd" stroke="none"/>
    <path d="M41.5 30.95 L41.5 76.4 3.65 76.4 3.65 30.95 41.5 30.95" fill="url(#gradient54)" fill-rule="evenodd" stroke="none"/>
    <path d="M3.65 30.95 L3.65 76.4 -3.5 76.4 -3.5 30.95 3.65 30.95" fill="url(#gradient55)" fill-rule="evenodd" stroke="none"/>
    <path d="M-22.65 30.95 L-3.5 30.95 -3.5 76.4 -22.65 76.4 -22.65 30.95" fill="url(#gradient56)" fill-rule="evenodd" stroke="none"/>
    <path d="M-52.5 30.95 L-45.45 30.95 -45.45 76.4 -52.5 76.4 -52.5 30.95" fill="url(#gradient57)" fill-rule="evenodd" stroke="none"/>
    <path d="M-22.65 30.95 L-22.65 76.4 -45.45 76.4 -45.45 30.95 -22.65 30.95" fill="url(#gradient58)" fill-rule="evenodd" stroke="none"/>
    <path d="M-94.75 76.4 L-94.75 30.95 -52.5 30.95 -52.5 76.4 -94.75 76.4" fill="url(#gradient59)" fill-rule="evenodd" stroke="none"/>
    <path d="M346.4 -69.5 L346.4 127.65 Q346.4 129.3 345.25 130.45 L345.2 130.5 Q344.05 131.65 342.4 131.65 L-84.75 131.65 Q-86.4 131.65 -87.6 130.45 -88.75 129.3 -88.75 127.65 L-88.75 -69.5 Q-88.75 -71.15 -87.65 -72.3 L-87.55 -72.4 Q-86.4 -73.5 -84.75 -73.5 L342.4 -73.5 Q344.05 -73.5 345.2 -72.35 346.4 -71.15 346.4 -69.5" fill="#c99701" fill-rule="evenodd" stroke="none"/>
    <path d="M347.6 -74.75 Q349.8 -72.55 349.8 -69.5 L349.8 127.65 Q349.75 130.7 347.6 132.85 345.45 135.0 342.4 135.05 L-84.75 135.05 Q-87.8 135.05 -90.0 132.85 -92.15 130.7 -92.1 127.65 L-92.1 -69.5 Q-92.1 -72.55 -90.0 -74.7 L-89.95 -74.75 Q-87.8 -76.85 -84.75 -76.85 L342.4 -76.85 Q345.45 -76.9 347.6 -74.75 M347.35 -74.45 Q345.3 -76.5 342.4 -76.5 L-84.75 -76.5 Q-87.65 -76.5 -89.7 -74.5 L-89.75 -74.45 Q-91.75 -72.4 -91.75 -69.5 L-91.75 127.65 Q-91.75 130.55 -89.7 132.6 -87.65 134.65 -84.75 134.65 L342.4 134.65 Q345.3 134.65 347.3 132.6 L347.35 132.55 Q349.4 130.55 349.4 127.65 L349.4 -69.5 Q349.4 -72.4 347.35 -74.45" fill="#c99701" fill-opacity="0.46666667" fill-rule="evenodd" stroke="none"/>
    <path d="M349.05 -69.5 Q349.05 -72.25 347.1 -74.2 345.15 -76.15 342.4 -76.1 L-84.75 -76.1 Q-87.5 -76.15 -89.45 -74.2 -91.4 -72.25 -91.35 -69.5 L-91.35 127.65 Q-91.4 130.4 -89.45 132.35 -87.5 134.3 -84.75 134.3 L342.4 134.3 Q345.15 134.25 347.05 132.35 L347.1 132.3 Q349.0 130.4 349.05 127.65 L349.05 -69.5 M347.35 -74.45 Q349.4 -72.4 349.4 -69.5 L349.4 127.65 Q349.4 130.55 347.35 132.55 L347.3 132.6 Q345.3 134.65 342.4 134.65 L-84.75 134.65 Q-87.65 134.65 -89.7 132.6 -91.75 130.55 -91.75 127.65 L-91.75 -69.5 Q-91.75 -72.4 -89.75 -74.45 L-89.7 -74.5 Q-87.65 -76.5 -84.75 -76.5 L342.4 -76.5 Q345.3 -76.5 347.35 -74.45" fill="#c99701" fill-opacity="0.5254902" fill-rule="evenodd" stroke="none"/>
    <path d="M347.85 -75.0 Q350.15 -72.7 350.15 -69.5 L350.15 127.65 Q350.15 130.85 347.9 133.1 L347.85 133.15 Q345.6 135.4 342.4 135.4 L-84.75 135.4 Q-87.95 135.4 -90.25 133.1 -92.5 130.85 -92.5 127.65 L-92.5 -69.5 Q-92.5 -72.7 -90.25 -75.0 -87.95 -77.25 -84.75 -77.25 L342.4 -77.25 Q345.6 -77.25 347.85 -75.0 M347.6 -74.75 Q345.45 -76.9 342.4 -76.85 L-84.75 -76.85 Q-87.8 -76.85 -89.95 -74.75 L-90.0 -74.7 Q-92.1 -72.55 -92.1 -69.5 L-92.1 127.65 Q-92.15 130.7 -90.0 132.85 -87.8 135.05 -84.75 135.05 L342.4 135.05 Q345.45 135.0 347.6 132.85 349.75 130.7 349.8 127.65 L349.8 -69.5 Q349.8 -72.55 347.6 -74.75" fill="#c99701" fill-opacity="0.40784314" fill-rule="evenodd" stroke="none"/>
    <path d="M347.85 -75.0 Q345.6 -77.25 342.4 -77.25 L-84.75 -77.25 Q-87.95 -77.25 -90.25 -75.0 -92.5 -72.7 -92.5 -69.5 L-92.5 127.65 Q-92.5 130.85 -90.25 133.1 -87.95 135.4 -84.75 135.4 L342.4 135.4 Q345.6 135.4 347.85 133.15 L347.9 133.1 Q350.15 130.85 350.15 127.65 L350.15 -69.5 Q350.15 -72.7 347.85 -75.0 M348.15 -75.25 Q350.5 -72.9 350.55 -69.5 L350.55 127.65 Q350.5 131.0 348.15 133.4 345.75 135.75 342.4 135.8 L-84.75 135.8 Q-88.15 135.75 -90.5 133.4 -92.9 131.0 -92.85 127.65 L-92.85 -69.5 Q-92.9 -72.9 -90.5 -75.25 -88.15 -77.65 -84.75 -77.6 L342.4 -77.6 Q345.75 -77.65 348.15 -75.25" fill="#c99701" fill-opacity="0.34901962" fill-rule="evenodd" stroke="none"/>
    <path d="M348.4 -75.55 Q350.9 -73.05 350.9 -69.5 L350.9 127.65 Q350.9 131.15 348.4 133.65 345.9 136.15 342.4 136.15 L-84.75 136.15 Q-88.3 136.15 -90.8 133.65 -93.25 131.2 -93.25 127.65 L-93.25 -69.5 Q-93.25 -73.0 -90.8 -75.5 L-90.75 -75.55 Q-88.25 -78.0 -84.75 -78.0 L342.4 -78.0 Q345.95 -78.0 348.4 -75.55 M348.15 -75.25 Q345.75 -77.65 342.4 -77.6 L-84.75 -77.6 Q-88.15 -77.65 -90.5 -75.25 -92.9 -72.9 -92.85 -69.5 L-92.85 127.65 Q-92.9 131.0 -90.5 133.4 -88.15 135.75 -84.75 135.8 L342.4 135.8 Q345.75 135.75 348.15 133.4 350.5 131.0 350.55 127.65 L350.55 -69.5 Q350.5 -72.9 348.15 -75.25" fill="#c99701" fill-opacity="0.2901961" fill-rule="evenodd" stroke="none"/>
    <path d="M342.4 -79.5 Q346.55 -79.5 349.45 -76.6 352.4 -73.65 352.4 -69.5 L352.4 127.65 Q352.4 131.8 349.45 134.7 346.55 137.65 342.4 137.65 L-84.75 137.65 Q-88.9 137.65 -91.85 134.7 -94.75 131.8 -94.75 127.65 L-94.75 -69.5 Q-94.75 -73.65 -91.85 -76.6 -88.9 -79.5 -84.75 -79.5 L342.4 -79.5 M349.2 -76.3 Q346.4 -79.1 342.4 -79.1 L-84.75 -79.1 Q-88.75 -79.1 -91.55 -76.3 -94.35 -73.5 -94.35 -69.5 L-94.35 127.65 Q-94.35 131.65 -91.55 134.45 -88.75 137.25 -84.75 137.3 L342.4 137.3 Q346.4 137.25 349.2 134.45 352.0 131.65 352.05 127.65 L352.05 -69.5 Q352.0 -73.5 349.2 -76.3" fill="#c99701" fill-opacity="0.05490196" fill-rule="evenodd" stroke="none"/>
    <path d="M348.95 -76.05 Q346.25 -78.75 342.4 -78.75 L-84.75 -78.75 Q-88.6 -78.75 -91.3 -76.05 -94.0 -73.35 -94.0 -69.5 L-94.0 127.65 Q-94.0 131.5 -91.3 134.2 -88.6 136.9 -84.75 136.9 L342.4 136.9 Q346.25 136.9 348.95 134.2 351.65 131.5 351.65 127.65 L351.65 -69.5 Q351.65 -73.35 348.95 -76.05 M349.2 -76.3 Q352.0 -73.5 352.05 -69.5 L352.05 127.65 Q352.0 131.65 349.2 134.45 346.4 137.25 342.4 137.3 L-84.75 137.3 Q-88.75 137.25 -91.55 134.45 -94.35 131.65 -94.35 127.65 L-94.35 -69.5 Q-94.35 -73.5 -91.55 -76.3 -88.75 -79.1 -84.75 -79.1 L342.4 -79.1 Q346.4 -79.1 349.2 -76.3" fill="#c99701" fill-opacity="0.11372549" fill-rule="evenodd" stroke="none"/>
    <path d="M348.65 -75.8 Q346.1 -78.35 342.4 -78.35 L-84.75 -78.35 Q-88.45 -78.4 -91.05 -75.8 -93.65 -73.2 -93.6 -69.5 L-93.6 127.65 Q-93.6 131.35 -91.05 133.9 -88.45 136.5 -84.75 136.55 L342.4 136.55 Q346.1 136.5 348.65 133.9 351.25 131.35 351.3 127.65 L351.3 -69.5 Q351.25 -73.2 348.65 -75.8 M348.95 -76.05 Q351.65 -73.35 351.65 -69.5 L351.65 127.65 Q351.65 131.5 348.95 134.2 346.25 136.9 342.4 136.9 L-84.75 136.9 Q-88.6 136.9 -91.3 134.2 -94.0 131.5 -94.0 127.65 L-94.0 -69.5 Q-94.0 -73.35 -91.3 -76.05 -88.6 -78.75 -84.75 -78.75 L342.4 -78.75 Q346.25 -78.75 348.95 -76.05" fill="#c99701" fill-opacity="0.17254902" fill-rule="evenodd" stroke="none"/>
    <path d="M348.4 -75.55 Q345.95 -78.0 342.4 -78.0 L-84.75 -78.0 Q-88.25 -78.0 -90.75 -75.55 L-90.8 -75.5 Q-93.25 -73.0 -93.25 -69.5 L-93.25 127.65 Q-93.25 131.2 -90.8 133.65 -88.3 136.15 -84.75 136.15 L342.4 136.15 Q345.9 136.15 348.4 133.65 350.9 131.15 350.9 127.65 L350.9 -69.5 Q350.9 -73.05 348.4 -75.55 M348.65 -75.8 Q351.25 -73.2 351.3 -69.5 L351.3 127.65 Q351.25 131.35 348.65 133.9 346.1 136.5 342.4 136.55 L-84.75 136.55 Q-88.45 136.5 -91.05 133.9 -93.6 131.35 -93.6 127.65 L-93.6 -69.5 Q-93.65 -73.2 -91.05 -75.8 -88.45 -78.4 -84.75 -78.35 L342.4 -78.35 Q346.1 -78.35 348.65 -75.8" fill="#c99701" fill-opacity="0.23137255" fill-rule="evenodd" stroke="none"/>
    <path d="M349.05 -69.5 L349.05 127.65 Q349.0 130.4 347.1 132.3 L347.05 132.35 Q345.15 134.25 342.4 134.3 L-84.75 134.3 Q-87.5 134.3 -89.45 132.35 -91.4 130.4 -91.35 127.65 L-91.35 -69.5 Q-91.4 -72.25 -89.45 -74.2 -87.5 -76.15 -84.75 -76.1 L342.4 -76.1 Q345.15 -76.15 347.1 -74.2 349.05 -72.25 349.05 -69.5 M348.65 -69.5 Q348.65 -72.1 346.8 -73.95 345.0 -75.75 342.4 -75.75 L-84.75 -75.75 Q-87.35 -75.75 -89.15 -73.95 L-89.2 -73.9 Q-91.0 -72.1 -91.0 -69.5 L-91.0 127.65 Q-91.0 130.25 -89.2 132.05 -87.35 133.9 -84.75 133.9 L342.4 133.9 Q345.0 133.9 346.8 132.1 L346.85 132.05 Q348.65 130.25 348.65 127.65 L348.65 -69.5" fill="#c99701" fill-opacity="0.58431375" fill-rule="evenodd" stroke="none"/>
    <path d="M348.65 -69.5 L348.65 127.65 Q348.65 130.25 346.85 132.05 L346.8 132.1 Q345.0 133.9 342.4 133.9 L-84.75 133.9 Q-87.35 133.9 -89.2 132.05 -91.0 130.25 -91.0 127.65 L-91.0 -69.5 Q-91.0 -72.1 -89.2 -73.9 L-89.15 -73.95 Q-87.35 -75.75 -84.75 -75.75 L342.4 -75.75 Q345.0 -75.75 346.8 -73.95 348.65 -72.1 348.65 -69.5 M348.3 -69.5 Q348.25 -71.95 346.55 -73.65 344.85 -75.4 342.4 -75.35 L-84.75 -75.35 Q-87.15 -75.35 -88.9 -73.7 L-88.95 -73.65 Q-90.6 -71.9 -90.6 -69.5 L-90.6 127.65 Q-90.65 130.1 -88.9 131.8 -87.2 133.5 -84.75 133.55 L342.4 133.55 Q344.8 133.5 346.5 131.8 L346.55 131.75 Q348.25 130.05 348.3 127.65 L348.3 -69.5" fill="#c99701" fill-opacity="0.6431373" fill-rule="evenodd" stroke="none"/>
    <path d="M348.3 -69.5 L348.3 127.65 Q348.25 130.05 346.55 131.75 L346.5 131.8 Q344.8 133.5 342.4 133.55 L-84.75 133.55 Q-87.2 133.5 -88.9 131.8 -90.65 130.1 -90.6 127.65 L-90.6 -69.5 Q-90.6 -71.9 -88.95 -73.65 L-88.9 -73.7 Q-87.15 -75.35 -84.75 -75.35 L342.4 -75.35 Q344.85 -75.4 346.55 -73.65 348.25 -71.95 348.3 -69.5 M347.9 -69.5 Q347.9 -71.8 346.3 -73.4 344.7 -75.0 342.4 -75.0 L-84.75 -75.0 Q-87.0 -75.0 -88.65 -73.45 L-88.7 -73.4 Q-90.25 -71.75 -90.25 -69.5 L-90.25 127.65 Q-90.25 129.95 -88.65 131.55 -87.05 133.15 -84.75 133.15 L342.4 133.15 Q344.65 133.15 346.25 131.55 L346.3 131.5 Q347.9 129.9 347.9 127.65 L347.9 -69.5" fill="#c99701" fill-opacity="0.7019608" fill-rule="evenodd" stroke="none"/>
    <path d="M347.55 -69.5 Q347.5 -71.65 346.0 -73.15 344.5 -74.65 342.4 -74.6 L-84.75 -74.6 Q-86.85 -74.65 -88.35 -73.15 L-88.4 -73.1 Q-89.9 -71.6 -89.85 -69.5 L-89.85 127.65 Q-89.9 129.75 -88.4 131.25 -86.9 132.75 -84.75 132.8 L342.4 132.8 Q344.5 132.75 346.0 131.3 L346.05 131.25 Q347.5 129.75 347.55 127.65 L347.55 -69.5 M347.9 -69.5 L347.9 127.65 Q347.9 129.9 346.3 131.5 L346.25 131.55 Q344.65 133.15 342.4 133.15 L-84.75 133.15 Q-87.05 133.15 -88.65 131.55 -90.25 129.95 -90.25 127.65 L-90.25 -69.5 Q-90.25 -71.75 -88.7 -73.4 L-88.65 -73.45 Q-87.0 -75.0 -84.75 -75.0 L342.4 -75.0 Q344.7 -75.0 346.3 -73.4 347.9 -71.8 347.9 -69.5" fill="#c99701" fill-opacity="0.7607843" fill-rule="evenodd" stroke="none"/>
    <path d="M347.15 -69.5 Q347.15 -71.5 345.75 -72.9 344.35 -74.25 342.4 -74.25 L-84.75 -74.25 Q-86.7 -74.25 -88.1 -72.9 L-88.15 -72.85 Q-89.5 -71.45 -89.5 -69.5 L-89.5 127.65 Q-89.5 129.6 -88.15 131.0 -86.75 132.4 -84.75 132.4 L342.4 132.4 Q344.35 132.4 345.7 131.05 L345.8 130.95 Q347.15 129.6 347.15 127.65 L347.15 -69.5 M347.55 -69.5 L347.55 127.65 Q347.5 129.75 346.05 131.25 L346.0 131.3 Q344.5 132.75 342.4 132.8 L-84.75 132.8 Q-86.9 132.75 -88.4 131.25 -89.9 129.75 -89.85 127.65 L-89.85 -69.5 Q-89.9 -71.6 -88.4 -73.1 L-88.35 -73.15 Q-86.85 -74.65 -84.75 -74.6 L342.4 -74.6 Q344.5 -74.65 346.0 -73.15 347.5 -71.65 347.55 -69.5" fill="#c99701" fill-opacity="0.81960785" fill-rule="evenodd" stroke="none"/>
    <path d="M347.15 -69.5 L347.15 127.65 Q347.15 129.6 345.8 130.95 L345.7 131.05 Q344.35 132.4 342.4 132.4 L-84.75 132.4 Q-86.75 132.4 -88.15 131.0 -89.5 129.6 -89.5 127.65 L-89.5 -69.5 Q-89.5 -71.45 -88.15 -72.85 L-88.1 -72.9 Q-86.7 -74.25 -84.75 -74.25 L342.4 -74.25 Q344.35 -74.25 345.75 -72.9 347.15 -71.5 347.15 -69.5 M346.8 -69.5 Q346.75 -71.35 345.5 -72.6 344.2 -73.9 342.4 -73.85 L-84.75 -73.85 Q-86.55 -73.9 -87.85 -72.65 L-87.9 -72.6 Q-89.15 -71.3 -89.1 -69.5 L-89.1 127.65 Q-89.15 129.45 -87.85 130.75 -86.6 132.0 -84.75 132.05 L342.4 132.05 Q344.2 132.0 345.45 130.75 L345.5 130.7 Q346.75 129.45 346.8 127.65 L346.8 -69.5" fill="#c99701" fill-opacity="0.8784314" fill-rule="evenodd" stroke="none"/>
    <path d="M346.8 -69.5 L346.8 127.65 Q346.75 129.45 345.5 130.7 L345.45 130.75 Q344.2 132.0 342.4 132.05 L-84.75 132.05 Q-86.6 132.0 -87.85 130.75 -89.15 129.45 -89.1 127.65 L-89.1 -69.5 Q-89.15 -71.3 -87.9 -72.6 L-87.85 -72.65 Q-86.55 -73.9 -84.75 -73.85 L342.4 -73.85 Q344.2 -73.9 345.5 -72.6 346.75 -71.35 346.8 -69.5 M346.4 -69.5 Q346.4 -71.15 345.2 -72.35 344.05 -73.5 342.4 -73.5 L-84.75 -73.5 Q-86.4 -73.5 -87.55 -72.4 L-87.65 -72.3 Q-88.75 -71.15 -88.75 -69.5 L-88.75 127.65 Q-88.75 129.3 -87.6 130.45 -86.4 131.65 -84.75 131.65 L342.4 131.65 Q344.05 131.65 345.2 130.5 L345.25 130.45 Q346.4 129.3 346.4 127.65 L346.4 -69.5" fill="#c99701" fill-opacity="0.9372549" fill-rule="evenodd" stroke="none"/>
    <path d="M342.4 -79.5 L-84.75 -79.5 Q-88.9 -79.5 -91.85 -76.6 -94.75 -73.65 -94.75 -69.5 L-94.75 127.65 Q-94.75 131.8 -91.85 134.7 -88.9 137.65 -84.75 137.65 L342.4 137.65 Q346.55 137.65 349.45 134.7 352.4 131.8 352.4 127.65 L352.4 -69.5 Q352.4 -73.65 349.45 -76.6 346.55 -79.5 342.4 -79.5 Z" fill="none" stroke="#764629" stroke-linecap="round" stroke-linejoin="round" stroke-width="1.0"/>
  </g>
  <defs>
    <linearGradient gradientTransform="matrix(0.0047, 0.0889, -0.0897, 0.0047, 281.9, 67.8)" gradientUnits="userSpaceOnUse" id="gradient0" spreadMethod="pad" x1="-819.2" x2="819.2">
      <stop offset="0.23921568627450981" stop-color="#ffffcc"/>
      <stop offset="0.6" stop-color="#8f7001"/>
    </linearGradient>
    <linearGradient gradientTransform="matrix(0.0079, 0.0889, -0.1523, 0.0047, 273.65, 67.8)" gradientUnits="userSpaceOnUse" id="gradient1" spreadMethod="pad" x1="-819.2" x2="819.2">
      <stop offset="0.23921568627450981" stop-color="#ffffcc"/>
      <stop offset="0.6" stop-color="#8f7001"/>
    </linearGradient>
    <linearGradient gradientTransform="matrix(0.076, 0.0889, -1.4589, 0.0047, 104.7, 67.8)" gradientUnits="userSpaceOnUse" id="gradient2" spreadMethod="pad" x1="-819.2" x2="819.2">
      <stop offset="0.23921568627450981" stop-color="#ffffcc"/>
      <stop offset="0.6" stop-color="#8f7001"/>
    </linearGradient>
    <linearGradient gradientTransform="matrix(0.1624, 0.0889, -3.1172, 0.0047, 67.35, 67.8)" gradientUnits="userSpaceOnUse" id="gradient3" spreadMethod="pad" x1="-819.2" x2="819.2">
      <stop offset="0.23921568627450981" stop-color="#ffffcc"/>
      <stop offset="0.6" stop-color="#8f7001"/>
    </linearGradient>
    <linearGradient gradientTransform="matrix(0.9384, 0.0889, -18.0049, 0.0047, 646.6, 67.8)" gradientUnits="userSpaceOnUse" id="gradient4" spreadMethod="pad" x1="-819.2" x2="819.2">
      <stop offset="0.23921568627450981" stop-color="#ffffcc"/>
      <stop offset="0.6" stop-color="#8f7001"/>
    </linearGradient>
    <linearGradient gradientTransform="matrix(0.0979, 0.0889, -1.879, 0.0047, 80.3, 67.8)" gradientUnits="userSpaceOnUse" id="gradient5" spreadMethod="pad" x1="-819.2" x2="819.2">
      <stop offset="0.23921568627450981" stop-color="#ffffcc"/>
      <stop offset="0.6" stop-color="#8f7001"/>
    </linearGradient>
    <linearGradient gradientTransform="matrix(0.0079, 0.0889, -0.1523, 0.0047, -23.55, 67.8)" gradientUnits="userSpaceOnUse" id="gradient6" spreadMethod="pad" x1="-819.2" x2="819.2">
      <stop offset="0.23921568627450981" stop-color="#ffffcc"/>
      <stop offset="0.6" stop-color="#8f7001"/>
    </linearGradient>
    <linearGradient gradientTransform="matrix(0.0458, 0.0889, -0.8794, 0.0047, 43.5, 67.8)" gradientUnits="userSpaceOnUse" id="gradient7" spreadMethod="pad" x1="-819.2" x2="819.2">
      <stop offset="0.23921568627450981" stop-color="#ffffcc"/>
      <stop offset="0.6" stop-color="#8f7001"/>
    </linearGradient>
    <linearGradient gradientTransform="matrix(0.0284, 0.0889, -0.5457, 0.0047, 21.6, 67.8)" gradientUnits="userSpaceOnUse" id="gradient8" spreadMethod="pad" x1="-819.2" x2="819.2">
      <stop offset="0.23921568627450981" stop-color="#ffffcc"/>
      <stop offset="0.6" stop-color="#8f7001"/>
    </linearGradient>
    <linearGradient gradientTransform="matrix(0.0047, 0.0889, -0.0897, 0.0047, -24.25, 67.8)" gradientUnits="userSpaceOnUse" id="gradient9" spreadMethod="pad" x1="-819.2" x2="819.2">
      <stop offset="0.23921568627450981" stop-color="#ffffcc"/>
      <stop offset="0.6" stop-color="#8f7001"/>
    </linearGradient>
    <linearGradient gradientTransform="matrix(0.0047, 0.7722, -0.0897, 0.0409, 281.9, -102.85)" gradientUnits="userSpaceOnUse" id="gradient10" spreadMethod="pad" x1="-819.2" x2="819.2">
      <stop offset="0.23921568627450981" stop-color="#ffffcc"/>
      <stop offset="0.6" stop-color="#8f7001"/>
    </linearGradient>
    <linearGradient gradientTransform="matrix(0.0079, 0.7722, -0.1523, 0.0409, 273.65, -102.85)" gradientUnits="userSpaceOnUse" id="gradient11" spreadMethod="pad" x1="-819.2" x2="819.2">
      <stop offset="0.23921568627450981" stop-color="#ffffcc"/>
      <stop offset="0.6" stop-color="#8f7001"/>
    </linearGradient>
    <linearGradient gradientTransform="matrix(0.076, 0.7722, -1.4589, 0.0409, 104.7, -102.85)" gradientUnits="userSpaceOnUse" id="gradient12" spreadMethod="pad" x1="-819.2" x2="819.2">
      <stop offset="0.23921568627450981" stop-color="#ffffcc"/>
      <stop offset="0.6" stop-color="#8f7001"/>
    </linearGradient>
    <linearGradient gradientTransform="matrix(0.1624, 0.7722, -3.1172, 0.0409, 67.35, -102.85)" gradientUnits="userSpaceOnUse" id="gradient13" spreadMethod="pad" x1="-819.2" x2="819.2">
      <stop offset="0.23921568627450981" stop-color="#ffffcc"/>
      <stop offset="0.6" stop-color="#8f7001"/>
    </linearGradient>
    <linearGradient gradientTransform="matrix(0.9384, 0.7722, -18.0049, 0.0409, 646.6, -102.85)" gradientUnits="userSpaceOnUse" id="gradient14" spreadMethod="pad" x1="-819.2" x2="819.2">
      <stop offset="0.23921568627450981" stop-color="#ffffcc"/>
      <stop offset="0.6" stop-color="#8f7001"/>
    </linearGradient>
    <linearGradient gradientTransform="matrix(0.0979, 0.7722, -1.879, 0.0409, 80.3, -102.85)" gradientUnits="userSpaceOnUse" id="gradient15" spreadMethod="pad" x1="-819.2" x2="819.2">
      <stop offset="0.23921568627450981" stop-color="#ffffcc"/>
      <stop offset="0.6" stop-color="#8f7001"/>
    </linearGradient>
    <linearGradient gradientTransform="matrix(0.0458, 0.7722, -0.8794, 0.0409, 43.5, -102.85)" gradientUnits="userSpaceOnUse" id="gradient16" spreadMethod="pad" x1="-819.2" x2="819.2">
      <stop offset="0.23921568627450981" stop-color="#ffffcc"/>
      <stop offset="0.6" stop-color="#8f7001"/>
    </linearGradient>
    <linearGradient gradientTransform="matrix(0.0079, 0.7722, -0.1523, 0.0409, -23.55, -102.85)" gradientUnits="userSpaceOnUse" id="gradient17" spreadMethod="pad" x1="-819.2" x2="819.2">
      <stop offset="0.23921568627450981" stop-color="#ffffcc"/>
      <stop offset="0.6" stop-color="#8f7001"/>
    </linearGradient>
    <linearGradient gradientTransform="matrix(0.0284, 0.7722, -0.5457, 0.0409, 21.6, -102.85)" gradientUnits="userSpaceOnUse" id="gradient18" spreadMethod="pad" x1="-819.2" x2="819.2">
      <stop offset="0.23921568627450981" stop-color="#ffffcc"/>
      <stop offset="0.6" stop-color="#8f7001"/>
    </linearGradient>
    <linearGradient gradientTransform="matrix(0.0047, 0.7722, -0.0897, 0.0409, -24.25, -102.85)" gradientUnits="userSpaceOnUse" id="gradient19" spreadMethod="pad" x1="-819.2" x2="819.2">
      <stop offset="0.23921568627450981" stop-color="#ffffcc"/>
      <stop offset="0.6" stop-color="#8f7001"/>
    </linearGradient>
    <linearGradient gradientTransform="matrix(0.9384, 0.0889, -18.0049, 0.0047, 646.6, -9.65)" gradientUnits="userSpaceOnUse" id="gradient20" spreadMethod="pad" x1="-819.2" x2="819.2">
      <stop offset="0.23921568627450981" stop-color="#ffffcc"/>
      <stop offset="0.6" stop-color="#8f7001"/>
    </linearGradient>
    <linearGradient gradientTransform="matrix(0.9384, 0.181, -18.0049, 0.0096, 646.6, -17.75)" gradientUnits="userSpaceOnUse" id="gradient21" spreadMethod="pad" x1="-819.2" x2="819.2">
      <stop offset="0.23921568627450981" stop-color="#ffffcc"/>
      <stop offset="0.6" stop-color="#8f7001"/>
    </linearGradient>
    <linearGradient gradientTransform="matrix(0.0979, 0.0889, -1.879, 0.0047, 80.3, -9.65)" gradientUnits="userSpaceOnUse" id="gradient22" spreadMethod="pad" x1="-819.2" x2="819.2">
      <stop offset="0.23921568627450981" stop-color="#ffffcc"/>
      <stop offset="0.6" stop-color="#8f7001"/>
    </linearGradient>
    <linearGradient gradientTransform="matrix(0.1624, 0.0889, -3.1172, 0.0047, 67.35, -9.65)" gradientUnits="userSpaceOnUse" id="gradient23" spreadMethod="pad" x1="-819.2" x2="819.2">
      <stop offset="0.23921568627450981" stop-color="#ffffcc"/>
      <stop offset="0.6" stop-color="#8f7001"/>
    </linearGradient>
    <linearGradient gradientTransform="matrix(0.076, 0.0889, -1.4589, 0.0047, 104.7, -9.65)" gradientUnits="userSpaceOnUse" id="gradient24" spreadMethod="pad" x1="-819.2" x2="819.2">
      <stop offset="0.23921568627450981" stop-color="#ffffcc"/>
      <stop offset="0.6" stop-color="#8f7001"/>
    </linearGradient>
    <linearGradient gradientTransform="matrix(0.0079, 0.0889, -0.1523, 0.0047, 273.65, -9.65)" gradientUnits="userSpaceOnUse" id="gradient25" spreadMethod="pad" x1="-819.2" x2="819.2">
      <stop offset="0.23921568627450981" stop-color="#ffffcc"/>
      <stop offset="0.6" stop-color="#8f7001"/>
    </linearGradient>
    <linearGradient gradientTransform="matrix(0.0079, 0.181, -0.1523, 0.0096, 273.65, -17.75)" gradientUnits="userSpaceOnUse" id="gradient26" spreadMethod="pad" x1="-819.2" x2="819.2">
      <stop offset="0.23921568627450981" stop-color="#ffffcc"/>
      <stop offset="0.6" stop-color="#8f7001"/>
    </linearGradient>
    <linearGradient gradientTransform="matrix(0.0047, 0.0889, -0.0897, 0.0047, 281.9, -9.65)" gradientUnits="userSpaceOnUse" id="gradient27" spreadMethod="pad" x1="-819.2" x2="819.2">
      <stop offset="0.23921568627450981" stop-color="#ffffcc"/>
      <stop offset="0.6" stop-color="#8f7001"/>
    </linearGradient>
    <linearGradient gradientTransform="matrix(0.076, 0.181, -1.4589, 0.0096, 104.7, -17.75)" gradientUnits="userSpaceOnUse" id="gradient28" spreadMethod="pad" x1="-819.2" x2="819.2">
      <stop offset="0.23921568627450981" stop-color="#ffffcc"/>
      <stop offset="0.6" stop-color="#8f7001"/>
    </linearGradient>
    <linearGradient gradientTransform="matrix(0.1624, 0.181, -3.1172, 0.0096, 67.35, -17.75)" gradientUnits="userSpaceOnUse" id="gradient29" spreadMethod="pad" x1="-819.2" x2="819.2">
      <stop offset="0.23921568627450981" stop-color="#ffffcc"/>
      <stop offset="0.6" stop-color="#8f7001"/>
    </linearGradient>
    <linearGradient gradientTransform="matrix(0.0047, 0.181, -0.0897, 0.0096, 281.9, -17.75)" gradientUnits="userSpaceOnUse" id="gradient30" spreadMethod="pad" x1="-819.2" x2="819.2">
      <stop offset="0.23921568627450981" stop-color="#ffffcc"/>
      <stop offset="0.6" stop-color="#8f7001"/>
    </linearGradient>
    <linearGradient gradientTransform="matrix(0.0047, 0.7722, -0.0897, 0.0409, 281.9, -112.5)" gradientUnits="userSpaceOnUse" id="gradient31" spreadMethod="pad" x1="-819.2" x2="819.2">
      <stop offset="0.23921568627450981" stop-color="#ffffcc"/>
      <stop offset="0.6" stop-color="#8f7001"/>
    </linearGradient>
    <linearGradient gradientTransform="matrix(0.0079, 0.7722, -0.1523, 0.0409, 273.65, -112.5)" gradientUnits="userSpaceOnUse" id="gradient32" spreadMethod="pad" x1="-819.2" x2="819.2">
      <stop offset="0.23921568627450981" stop-color="#ffffcc"/>
      <stop offset="0.6" stop-color="#8f7001"/>
    </linearGradient>
    <linearGradient gradientTransform="matrix(0.076, 0.7722, -1.4589, 0.0409, 104.7, -112.5)" gradientUnits="userSpaceOnUse" id="gradient33" spreadMethod="pad" x1="-819.2" x2="819.2">
      <stop offset="0.23921568627450981" stop-color="#ffffcc"/>
      <stop offset="0.6" stop-color="#8f7001"/>
    </linearGradient>
    <linearGradient gradientTransform="matrix(0.1624, 0.7722, -3.1172, 0.0409, 67.35, -112.5)" gradientUnits="userSpaceOnUse" id="gradient34" spreadMethod="pad" x1="-819.2" x2="819.2">
      <stop offset="0.23921568627450981" stop-color="#ffffcc"/>
      <stop offset="0.6" stop-color="#8f7001"/>
    </linearGradient>
    <linearGradient gradientTransform="matrix(0.9384, 0.7722, -18.0049, 0.0409, 646.6, -112.5)" gradientUnits="userSpaceOnUse" id="gradient35" spreadMethod="pad" x1="-819.2" x2="819.2">
      <stop offset="0.23921568627450981" stop-color="#ffffcc"/>
      <stop offset="0.6" stop-color="#8f7001"/>
    </linearGradient>
    <linearGradient gradientTransform="matrix(0.0979, 0.7722, -1.879, 0.0409, 80.3, -112.5)" gradientUnits="userSpaceOnUse" id="gradient36" spreadMethod="pad" x1="-819.2" x2="819.2">
      <stop offset="0.23921568627450981" stop-color="#ffffcc"/>
      <stop offset="0.6" stop-color="#8f7001"/>
    </linearGradient>
    <linearGradient gradientTransform="matrix(0.0979, 0.181, -1.879, 0.0096, 80.3, -17.75)" gradientUnits="userSpaceOnUse" id="gradient37" spreadMethod="pad" x1="-819.2" x2="819.2">
      <stop offset="0.23921568627450981" stop-color="#ffffcc"/>
      <stop offset="0.6" stop-color="#8f7001"/>
    </linearGradient>
    <linearGradient gradientTransform="matrix(0.0047, 0.0889, -0.0897, 0.0047, -24.25, -9.65)" gradientUnits="userSpaceOnUse" id="gradient38" spreadMethod="pad" x1="-819.2" x2="819.2">
      <stop offset="0.23921568627450981" stop-color="#ffffcc"/>
      <stop offset="0.6" stop-color="#8f7001"/>
    </linearGradient>
    <linearGradient gradientTransform="matrix(0.0458, 0.0889, -0.8794, 0.0047, 43.5, -9.65)" gradientUnits="userSpaceOnUse" id="gradient39" spreadMethod="pad" x1="-819.2" x2="819.2">
      <stop offset="0.23921568627450981" stop-color="#ffffcc"/>
      <stop offset="0.6" stop-color="#8f7001"/>
    </linearGradient>
    <linearGradient gradientTransform="matrix(0.0079, 0.0889, -0.1523, 0.0047, -23.55, -9.65)" gradientUnits="userSpaceOnUse" id="gradient40" spreadMethod="pad" x1="-819.2" x2="819.2">
      <stop offset="0.23921568627450981" stop-color="#ffffcc"/>
      <stop offset="0.6" stop-color="#8f7001"/>
    </linearGradient>
    <linearGradient gradientTransform="matrix(0.0079, 0.181, -0.1523, 0.0096, -23.55, -17.75)" gradientUnits="userSpaceOnUse" id="gradient41" spreadMethod="pad" x1="-819.2" x2="819.2">
      <stop offset="0.23921568627450981" stop-color="#ffffcc"/>
      <stop offset="0.6" stop-color="#8f7001"/>
    </linearGradient>
    <linearGradient gradientTransform="matrix(0.0458, 0.181, -0.8794, 0.0096, 43.5, -17.75)" gradientUnits="userSpaceOnUse" id="gradient42" spreadMethod="pad" x1="-819.2" x2="819.2">
      <stop offset="0.23921568627450981" stop-color="#ffffcc"/>
      <stop offset="0.6" stop-color="#8f7001"/>
    </linearGradient>
    <linearGradient gradientTransform="matrix(0.0284, 0.0889, -0.5457, 0.0047, 21.6, -9.65)" gradientUnits="userSpaceOnUse" id="gradient43" spreadMethod="pad" x1="-819.2" x2="819.2">
      <stop offset="0.23921568627450981" stop-color="#ffffcc"/>
      <stop offset="0.6" stop-color="#8f7001"/>
    </linearGradient>
    <linearGradient gradientTransform="matrix(0.0284, 0.181, -0.5457, 0.0096, 21.6, -17.75)" gradientUnits="userSpaceOnUse" id="gradient44" spreadMethod="pad" x1="-819.2" x2="819.2">
      <stop offset="0.23921568627450981" stop-color="#ffffcc"/>
      <stop offset="0.6" stop-color="#8f7001"/>
    </linearGradient>
    <linearGradient gradientTransform="matrix(0.0047, 0.181, -0.0897, 0.0096, -24.25, -17.75)" gradientUnits="userSpaceOnUse" id="gradient45" spreadMethod="pad" x1="-819.2" x2="819.2">
      <stop offset="0.23921568627450981" stop-color="#ffffcc"/>
      <stop offset="0.6" stop-color="#8f7001"/>
    </linearGradient>
    <linearGradient gradientTransform="matrix(0.0458, 0.7722, -0.8794, 0.0409, 43.5, -112.5)" gradientUnits="userSpaceOnUse" id="gradient46" spreadMethod="pad" x1="-819.2" x2="819.2">
      <stop offset="0.23921568627450981" stop-color="#ffffcc"/>
      <stop offset="0.6" stop-color="#8f7001"/>
    </linearGradient>
    <linearGradient gradientTransform="matrix(0.0284, 0.7722, -0.5457, 0.0409, 21.6, -112.5)" gradientUnits="userSpaceOnUse" id="gradient47" spreadMethod="pad" x1="-819.2" x2="819.2">
      <stop offset="0.23921568627450981" stop-color="#ffffcc"/>
      <stop offset="0.6" stop-color="#8f7001"/>
    </linearGradient>
    <linearGradient gradientTransform="matrix(0.0079, 0.7722, -0.1523, 0.0409, -23.55, -112.5)" gradientUnits="userSpaceOnUse" id="gradient48" spreadMethod="pad" x1="-819.2" x2="819.2">
      <stop offset="0.23921568627450981" stop-color="#ffffcc"/>
      <stop offset="0.6" stop-color="#8f7001"/>
    </linearGradient>
    <linearGradient gradientTransform="matrix(0.0047, 0.7722, -0.0897, 0.0409, -24.25, -112.5)" gradientUnits="userSpaceOnUse" id="gradient49" spreadMethod="pad" x1="-819.2" x2="819.2">
      <stop offset="0.23921568627450981" stop-color="#ffffcc"/>
      <stop offset="0.6" stop-color="#8f7001"/>
    </linearGradient>
    <linearGradient gradientTransform="matrix(0.0047, 1.258, -0.0897, 0.0667, 281.9, -210.4)" gradientUnits="userSpaceOnUse" id="gradient50" spreadMethod="pad" x1="-819.2" x2="819.2">
      <stop offset="0.23921568627450981" stop-color="#ffffcc"/>
      <stop offset="0.6" stop-color="#8f7001"/>
    </linearGradient>
    <linearGradient gradientTransform="matrix(0.0079, 1.258, -0.1523, 0.0667, 273.65, -210.4)" gradientUnits="userSpaceOnUse" id="gradient51" spreadMethod="pad" x1="-819.2" x2="819.2">
      <stop offset="0.23921568627450981" stop-color="#ffffcc"/>
      <stop offset="0.6" stop-color="#8f7001"/>
    </linearGradient>
    <linearGradient gradientTransform="matrix(0.076, 1.258, -1.4589, 0.0667, 104.7, -210.4)" gradientUnits="userSpaceOnUse" id="gradient52" spreadMethod="pad" x1="-819.2" x2="819.2">
      <stop offset="0.23921568627450981" stop-color="#ffffcc"/>
      <stop offset="0.6" stop-color="#8f7001"/>
    </linearGradient>
    <linearGradient gradientTransform="matrix(0.1624, 1.258, -3.1172, 0.0667, 67.35, -210.4)" gradientUnits="userSpaceOnUse" id="gradient53" spreadMethod="pad" x1="-819.2" x2="819.2">
      <stop offset="0.23921568627450981" stop-color="#ffffcc"/>
      <stop offset="0.6" stop-color="#8f7001"/>
    </linearGradient>
    <linearGradient gradientTransform="matrix(0.9384, 1.258, -18.0049, 0.0667, 646.6, -210.4)" gradientUnits="userSpaceOnUse" id="gradient54" spreadMethod="pad" x1="-819.2" x2="819.2">
      <stop offset="0.23921568627450981" stop-color="#ffffcc"/>
      <stop offset="0.6" stop-color="#8f7001"/>
    </linearGradient>
    <linearGradient gradientTransform="matrix(0.0979, 1.258, -1.879, 0.0667, 80.3, -210.4)" gradientUnits="userSpaceOnUse" id="gradient55" spreadMethod="pad" x1="-819.2" x2="819.2">
      <stop offset="0.23921568627450981" stop-color="#ffffcc"/>
      <stop offset="0.6" stop-color="#8f7001"/>
    </linearGradient>
    <linearGradient gradientTransform="matrix(0.0458, 1.258, -0.8794, 0.0667, 43.5, -210.4)" gradientUnits="userSpaceOnUse" id="gradient56" spreadMethod="pad" x1="-819.2" x2="819.2">
      <stop offset="0.23921568627450981" stop-color="#ffffcc"/>
      <stop offset="0.6" stop-color="#8f7001"/>
    </linearGradient>
    <linearGradient gradientTransform="matrix(0.0079, 1.258, -0.1523, 0.0667, -23.55, -210.4)" gradientUnits="userSpaceOnUse" id="gradient57" spreadMethod="pad" x1="-819.2" x2="819.2">
      <stop offset="0.23921568627450981" stop-color="#ffffcc"/>
      <stop offset="0.6" stop-color="#8f7001"/>
    </linearGradient>
    <linearGradient gradientTransform="matrix(0.0284, 1.258, -0.5457, 0.0667, 21.6, -210.4)" gradientUnits="userSpaceOnUse" id="gradient58" spreadMethod="pad" x1="-819.2" x2="819.2">
      <stop offset="0.23921568627450981" stop-color="#ffffcc"/>
      <stop offset="0.6" stop-color="#8f7001"/>
    </linearGradient>
    <linearGradient gradientTransform="matrix(0.0047, 1.258, -0.0897, 0.0667, -24.25, -210.4)" gradientUnits="userSpaceOnUse" id="gradient59" spreadMethod="pad" x1="-819.2" x2="819.2">
      <stop offset="0.23921568627450981" stop-color="#ffffcc"/>
      <stop offset="0.6" stop-color="#8f7001"/>
    </linearGradient>
  </defs>
</svg>
