<?xml version="1.0" encoding="UTF-8" standalone="no"?>
<svg xmlns:xlink="http://www.w3.org/1999/xlink" height="198.25px" width="168.2px" xmlns="http://www.w3.org/2000/svg">
  <g transform="matrix(1.0, 0.0, 0.0, 1.0, 322.0, 94.95)">
    <path d="M-261.65 -92.15 Q-248.7 -92.4 -238.95 -84.1 L-236.25 -81.6 Q-227.95 -89.45 -224.0 -89.7 -222.3 -89.85 -221.1 -88.9 L-220.85 -88.75 Q-219.45 -87.5 -218.7 -84.7 -217.35 -79.45 -225.75 -66.15 -215.15 -45.05 -226.35 -32.55 -237.6 -20.0 -248.75 -16.1 L-248.85 -15.8 Q-249.8 -13.15 -249.75 -10.75 L-249.7 -9.55 Q-249.4 -7.0 -247.9 -4.7 -244.55 -3.25 -241.65 -1.25 -238.25 1.1 -235.5 4.3 L-235.45 4.0 Q-225.05 9.35 -217.75 12.25 L-217.3 12.45 Q-215.5 11.95 -214.0 10.8 -211.15 8.5 -209.45 6.65 -208.55 0.65 -206.25 -2.6 -204.45 -5.3 -201.75 -7.45 L-195.85 -7.65 -216.2 -29.55 -185.9 -60.9 -153.8 -28.0 -183.2 5.95 -186.7 2.2 -186.7 3.4 Q-187.25 7.8 -192.35 7.3 L-197.05 7.45 -197.7 7.7 -197.6 7.8 -205.8 16.0 Q-207.25 17.45 -217.3 22.75 L-217.75 22.65 -219.55 22.25 -227.45 20.05 Q-227.15 21.3 -227.0 22.6 -226.3 27.9 -227.5 33.3 -228.3 36.8 -229.9 40.4 -231.45 43.9 -233.5 46.8 -238.2 53.55 -245.3 57.1 L-246.7 59.1 -249.35 63.15 -249.5 63.4 Q-254.0 70.75 -254.15 74.3 L-252.7 74.8 -251.6 75.55 -251.2 75.9 Q-249.7 77.55 -250.6 79.9 L-247.85 77.8 Q-243.85 75.0 -239.6 73.5 -229.65 69.85 -220.25 73.7 -212.35 76.9 -212.5 85.25 -212.55 87.2 -212.75 89.05 L-213.4 93.25 Q-214.0 96.1 -215.15 98.75 L-215.45 99.4 -222.15 99.95 Q-242.4 101.1 -262.7 97.0 L-263.2 96.9 -263.2 97.05 -263.1 99.4 -269.1 101.05 Q-289.55 105.9 -307.75 100.45 -307.65 93.5 -304.75 87.5 L-303.4 85.1 Q-302.3 83.25 -300.95 81.9 L-300.9 81.9 -300.9 81.85 Q-295.6 76.45 -287.0 77.85 -285.3 78.1 -283.7 78.65 -281.5 79.45 -277.75 81.7 -276.7 78.45 -274.5 77.2 -275.7 70.5 -278.25 64.2 L-278.3 64.1 -278.6 63.4 -280.15 59.95 -280.55 59.1 -282.1 56.3 Q-285.5 53.95 -288.15 50.45 -290.55 47.3 -292.25 44.0 -294.55 39.5 -295.65 34.75 L-296.05 32.6 -297.4 35.05 Q-300.7 39.95 -307.1 40.1 -310.9 40.15 -314.05 38.95 -317.25 37.65 -319.75 34.95 -321.25 33.3 -321.7 27.2 -321.9 24.8 -321.55 22.85 -321.1 19.8 -319.4 17.8 -317.05 14.9 -314.05 15.6 L-313.95 15.6 Q-313.3 12.75 -310.3 12.0 -308.15 11.45 -306.45 12.5 L-307.25 9.2 -307.3 8.95 -307.45 7.0 -307.35 5.35 Q-307.15 3.6 -305.0 1.65 -302.6 -0.65 -297.6 -3.3 -288.4 -8.25 -281.7 -8.4 L-279.7 -10.3 -279.15 -10.75 -277.55 -12.05 -276.65 -12.7 Q-291.6 -14.55 -298.7 -22.55 -304.9 -22.15 -308.9 -18.05 -310.1 -16.85 -311.45 -16.2 L-317.75 -16.0 -318.2 -16.2 Q-319.6 -16.95 -320.8 -18.4 -324.7 -23.0 -317.85 -29.65 -312.85 -34.6 -308.0 -43.4 -316.4 -53.9 -318.8 -60.55 -321.25 -67.25 -316.95 -69.25 L-315.3 -69.3 -315.3 -69.6 Q-310.95 -69.7 -302.1 -61.9 -298.1 -75.0 -289.1 -82.45 L-288.55 -82.6 -288.7 -82.8 -287.35 -84.05 Q-287.7 -83.6 -287.2 -83.95 -281.15 -88.35 -273.1 -90.45 L-273.55 -91.4 Q-273.65 -92.6 -272.0 -93.65 -270.4 -94.65 -267.9 -94.9 L-267.1 -94.95 -263.6 -94.5 Q-261.75 -93.8 -261.65 -92.6 L-261.65 -92.15 M-262.9 -54.7 L-263.0 -55.05 -263.1 -55.0 -262.9 -54.7 M-279.7 -34.3 L-279.45 -34.0 -279.4 -34.25 -279.7 -34.3 M-296.2 20.7 L-296.0 20.7 -296.15 20.25 -296.2 20.7" fill="#000000" fill-rule="evenodd" stroke="none"/>
  </g>
</svg>
