<?xml version="1.0" encoding="UTF-8" standalone="no"?>
<svg xmlns:xlink="http://www.w3.org/1999/xlink" height="75.6px" width="69.05px" xmlns="http://www.w3.org/2000/svg">
  <g transform="matrix(1.0, 0.0, 0.0, 1.0, 34.55, 37.8)">
    <path d="M20.95 -15.85 L20.95 -15.95 21.0 -15.85 20.95 -15.85" fill="#bcbcbc" fill-rule="evenodd" stroke="none"/>
    <path d="M2.95 -6.25 Q2.3 -7.45 2.3 -9.2 2.3 -10.95 2.95 -12.2 3.65 -13.4 4.6 -13.4 5.55 -13.4 6.2 -12.2 6.9 -10.95 6.9 -9.2 6.9 -7.45 6.2 -6.25 5.55 -5.0 4.6 -4.95 L4.5 -5.0 3.85 -5.2 3.1 -6.05 3.05 -6.1 2.95 -6.25 M-11.25 -3.85 Q-10.95 -4.5 -11.0 -4.7 -11.3 -5.55 -11.25 -6.6 -11.3 -8.2 -10.7 -9.3 -10.05 -10.35 -9.2 -10.35 -8.4 -10.35 -7.8 -9.3 -7.4 -8.6 -7.15 -7.2 -7.7 -7.3 -7.4 -6.75 -8.9 -6.2 -10.95 -4.15 L-11.25 -3.85" fill="#ffffff" fill-rule="evenodd" stroke="none"/>
    <path d="M13.45 -23.75 Q15.65 -23.15 17.45 -21.85 19.9 -20.15 20.65 -17.55 L21.05 -16.25 20.95 -15.95 20.95 -15.85 Q20.15 -13.0 19.6 -10.2 19.1 -7.3 17.95 -5.1 16.9 -3.15 15.0 -2.4 L13.45 -2.05 Q10.45 -1.65 8.05 -3.2 6.25 -4.35 4.6 -4.95 5.55 -5.0 6.2 -6.25 6.9 -7.45 6.9 -9.2 6.9 -10.95 6.2 -12.2 5.55 -13.4 4.6 -13.4 3.65 -13.4 2.95 -12.2 2.3 -10.95 2.3 -9.2 2.3 -7.45 2.95 -6.25 L3.05 -6.1 3.1 -6.05 3.5 -5.3 Q4.75 -4.0 4.95 -1.85 5.25 1.15 3.9 3.65 2.5 6.3 -0.15 7.7 -2.65 9.0 -5.55 9.2 -8.5 9.4 -11.1 8.2 -12.85 7.4 -13.55 6.0 L-14.2 3.55 Q-14.35 2.05 -13.85 0.55 L-14.95 0.75 -15.4 -2.05 -15.4 -7.3 -15.4 -7.6 Q-15.3 -10.2 -14.85 -12.65 L-14.7 -13.35 -13.6 -18.6 -13.45 -19.0 -13.4 -19.1 Q-11.0 -24.35 -0.2 -24.9 2.75 -25.05 6.4 -24.8 L6.9 -24.8 12.15 -24.1 13.45 -23.75 M1.3 -18.6 Q2.5 -21.4 5.1 -20.2 L6.35 -19.15 Q7.75 -17.3 8.2 -14.8 7.75 -17.3 6.35 -19.15 L5.1 -20.2 Q2.5 -21.4 1.3 -18.6 M2.3 -6.3 L3.5 -5.3 2.3 -6.3 M-12.3 -12.85 L-10.65 -17.9 -12.3 -12.85 M-7.4 -6.75 Q-7.7 -7.3 -7.15 -7.2 -7.4 -8.6 -7.8 -9.3 -8.4 -10.35 -9.2 -10.35 -10.05 -10.35 -10.7 -9.3 -11.3 -8.2 -11.25 -6.6 -11.3 -5.55 -11.0 -4.7 -10.95 -4.5 -11.25 -3.85 L-11.25 -3.8 Q-12.95 -1.9 -13.85 0.55 -12.95 -1.9 -11.25 -3.8 L-11.25 -3.85 -10.95 -4.15 Q-8.9 -6.2 -7.4 -6.75" fill="url(#gradient0)" fill-rule="evenodd" stroke="none"/>
    <path d="M21.05 -16.25 Q21.35 -17.2 21.95 -17.95 22.8 -19.0 24.25 -19.65 25.55 -20.2 26.85 -20.2 28.3 -20.15 29.8 -19.4 32.35 -18.1 33.2 -15.5 34.1 -12.85 33.85 -9.75 33.55 -6.7 31.15 -5.05 28.75 -3.4 26.4 -4.55 L26.1 -4.65 24.4 -5.9 Q23.2 -6.65 22.65 -10.05 22.05 -13.45 21.0 -15.85 L21.05 -16.25 M26.7 -11.7 Q28.7 -12.85 30.1 -11.65 28.7 -12.85 26.7 -11.7 26.15 -10.35 26.05 -8.9 26.15 -10.35 26.7 -11.7 L27.8 -13.8 Q28.65 -15.0 30.0 -14.5 28.65 -15.0 27.8 -13.8 L26.7 -11.7" fill="url(#gradient1)" fill-rule="evenodd" stroke="none"/>
    <path d="M3.85 -5.2 L4.5 -5.0 4.6 -4.95 Q6.25 -4.35 8.05 -3.2 10.45 -1.65 13.45 -2.05 L15.0 -2.4 Q18.05 -1.2 19.7 0.7 20.85 2.05 21.3 3.95 21.95 6.85 21.15 9.7 20.4 12.6 18.4 14.8 16.5 16.85 15.2 19.4 14.25 21.15 13.75 23.05 L16.75 19.95 Q17.85 18.65 19.45 18.2 19.8 21.55 17.25 24.05 14.35 27.0 10.35 28.45 8.25 29.2 8.0 31.4 7.8 33.35 8.85 34.65 9.05 32.35 10.6 30.45 11.65 29.15 13.2 28.9 L14.85 28.7 16.75 29.05 Q14.5 30.8 13.25 33.05 12.6 34.25 13.6 34.85 L11.0 36.4 Q9.3 37.15 7.35 37.15 4.6 37.15 2.1 36.4 -0.7 35.5 -2.3 33.35 L-1.8 36.8 -6.75 33.95 Q-9.1 32.15 -10.95 29.95 -12.85 27.7 -14.05 25.65 -15.45 23.2 -16.5 20.55 L-18.15 15.15 Q-18.8 12.45 -18.65 9.45 L-18.25 3.7 -17.45 -1.7 -16.4 -7.3 -15.4 -7.3 -15.4 -2.05 -14.95 0.75 -14.2 3.55 -13.55 6.0 Q-12.85 7.4 -11.1 8.2 -8.5 9.4 -5.55 9.2 -2.65 9.0 -0.15 7.7 2.5 6.3 3.9 3.65 5.25 1.15 4.95 -1.85 4.75 -4.0 3.5 -5.3 L3.85 -5.2 M10.65 4.35 L10.5 6.2 Q9.8 8.6 7.35 10.3 5.2 11.75 2.15 11.55 5.2 11.75 7.35 10.3 9.8 8.6 10.5 6.2 L10.65 4.35 M-17.05 7.1 L-17.2 9.3 Q-17.4 12.3 -16.9 15.15 -16.35 18.0 -14.95 20.6 -13.55 23.1 -11.3 24.85 L-8.2 27.2 Q-7.15 27.95 -6.55 28.9 -6.4 27.7 -7.2 26.15 -7.9 24.85 -9.2 24.05 -11.15 22.8 -12.5 20.95 -13.4 19.75 -13.75 18.35 -12.95 20.1 -10.8 20.55 -8.75 20.95 -7.5 22.5 -7.9 19.65 -10.7 18.4 -13.5 17.1 -14.45 14.3 L-15.3 11.0 Q-15.7 9.0 -16.4 7.1 L-17.05 7.1" fill="url(#gradient2)" fill-rule="evenodd" stroke="none"/>
    <path d="M15.0 -2.4 Q16.9 -3.15 17.95 -5.1 19.1 -7.3 19.6 -10.2 20.15 -13.0 20.95 -15.85 L21.0 -15.85 Q22.05 -13.45 22.65 -10.05 23.2 -6.65 24.4 -5.9 L26.1 -4.65 26.45 -3.7 27.3 -1.05 Q28.0 1.5 28.25 4.2 L28.45 9.95 Q28.5 12.95 28.0 15.85 27.55 18.7 26.25 21.35 L24.95 23.35 Q24.65 24.5 19.95 27.05 L16.75 29.05 14.85 28.7 13.2 28.9 Q11.65 29.15 10.6 30.45 9.05 32.35 8.85 34.65 7.8 33.35 8.0 31.4 8.25 29.2 10.35 28.45 14.35 27.0 17.25 24.05 19.8 21.55 19.45 18.2 17.85 18.65 16.75 19.95 L13.75 23.05 Q14.25 21.15 15.2 19.4 16.5 16.85 18.4 14.8 20.4 12.6 21.15 9.7 21.95 6.85 21.3 3.95 20.85 2.05 19.7 0.7 18.05 -1.2 15.0 -2.4" fill="url(#gradient3)" fill-rule="evenodd" stroke="none"/>
    <path d="M-17.05 7.1 L-16.4 7.1 Q-15.7 9.0 -15.3 11.0 L-14.45 14.3 Q-13.5 17.1 -10.7 18.4 -7.9 19.65 -7.5 22.5 -8.75 20.95 -10.8 20.55 -12.95 20.1 -13.75 18.35 -13.4 19.75 -12.5 20.95 -11.15 22.8 -9.2 24.05 -7.9 24.85 -7.2 26.15 -6.4 27.7 -6.55 28.9 -7.15 27.95 -8.2 27.2 L-11.3 24.85 Q-13.55 23.1 -14.95 20.6 -16.35 18.0 -16.9 15.15 -17.4 12.3 -17.2 9.3 L-17.05 7.1" fill="url(#gradient4)" fill-rule="evenodd" stroke="none"/>
    <path d="M23.45 -27.55 L20.8 -29.25 Q18.15 -30.8 15.95 -31.55 19.2 -29.4 19.7 -25.7 L18.45 -26.8 Q16.25 -28.75 13.6 -30.05 L13.45 -29.75 Q16.6 -27.7 17.75 -24.05 L16.8 -24.7 Q14.0 -26.25 11.0 -27.2 L10.8 -26.6 Q12.8 -25.85 13.45 -23.75 L12.15 -24.1 6.9 -24.8 6.4 -24.8 Q2.75 -25.05 -0.2 -24.9 -11.0 -24.35 -13.4 -19.1 L-13.45 -19.0 -15.55 -18.95 Q-17.8 -18.55 -19.7 -17.2 L-21.4 -15.8 Q-22.8 -14.55 -23.6 -13.15 -23.5 -15.25 -22.3 -16.95 -20.55 -19.4 -18.2 -21.05 L-21.95 -20.8 -26.35 -19.7 Q-25.9 -20.7 -25.05 -21.05 -27.6 -20.85 -29.9 -19.7 -32.25 -18.45 -33.9 -16.6 -33.5 -18.6 -32.65 -20.4 -31.45 -22.9 -29.55 -24.85 L-25.45 -28.35 -20.8 -31.2 Q-18.15 -32.55 -15.25 -33.2 L-9.65 -33.8 -4.35 -33.6 Q-5.15 -35.9 -7.2 -37.1 L-5.4 -37.15 0.35 -36.9 6.0 -36.2 11.6 -34.95 16.9 -32.85 Q19.35 -31.75 21.2 -29.95 L23.45 -27.55 M-16.7 -31.2 Q-19.5 -30.2 -21.9 -28.55 L-22.95 -27.7 -22.6 -27.35 -23.6 -24.9 Q-22.3 -26.3 -19.9 -27.3 L-15.95 -28.8 Q-11.45 -30.25 -6.7 -30.35 L-6.5 -31.0 Q-8.8 -31.8 -11.15 -31.95 L-12.55 -31.95 Q-14.7 -31.9 -16.7 -31.2" fill="url(#gradient5)" fill-rule="evenodd" stroke="none"/>
    <path d="M13.45 -23.75 Q12.8 -25.85 10.8 -26.6 L11.0 -27.2 Q14.0 -26.25 16.8 -24.7 L17.75 -24.05 Q16.6 -27.7 13.45 -29.75 L13.6 -30.05 Q16.25 -28.75 18.45 -26.8 L19.7 -25.7 Q19.2 -29.4 15.95 -31.55 18.15 -30.8 20.8 -29.25 L23.45 -27.55 25.0 -25.5 Q26.6 -23.1 26.85 -20.2 25.55 -20.2 24.25 -19.65 22.8 -19.0 21.95 -17.95 21.35 -17.2 21.05 -16.25 L20.65 -17.55 Q19.9 -20.15 17.45 -21.85 15.65 -23.15 13.45 -23.75" fill="url(#gradient6)" fill-rule="evenodd" stroke="none"/>
    <path d="M-16.7 -31.2 Q-14.7 -31.9 -12.55 -31.95 L-11.15 -31.95 Q-8.8 -31.8 -6.5 -31.0 L-6.7 -30.35 Q-11.45 -30.25 -15.95 -28.8 L-19.9 -27.3 Q-22.3 -26.3 -23.6 -24.9 L-22.6 -27.35 -22.95 -27.7 -21.9 -28.55 Q-19.5 -30.2 -16.7 -31.2" fill="url(#gradient7)" fill-rule="evenodd" stroke="none"/>
    <path d="M21.05 -16.25 Q21.35 -17.2 21.95 -17.95 22.8 -19.0 24.25 -19.65 25.55 -20.2 26.85 -20.2 28.3 -20.15 29.8 -19.4 32.35 -18.1 33.2 -15.5 34.1 -12.85 33.85 -9.75 33.55 -6.7 31.15 -5.05 28.75 -3.4 26.4 -4.55 L26.1 -4.65 M20.95 -15.95 L21.05 -16.25 21.0 -15.85 M-14.2 3.55 L-13.55 6.0 Q-12.85 7.4 -11.1 8.2 -8.5 9.4 -5.55 9.2 -2.65 9.0 -0.15 7.7 2.5 6.3 3.9 3.65 5.25 1.15 4.95 -1.85 4.75 -4.0 3.5 -5.3 L2.3 -6.3 M26.05 -8.9 Q26.15 -10.35 26.7 -11.7 L27.8 -13.8 Q28.65 -15.0 30.0 -14.5 M30.1 -11.65 Q28.7 -12.85 26.7 -11.7 M-10.95 -4.15 Q-8.9 -6.2 -7.4 -6.75 M-13.85 0.55 Q-12.95 -1.9 -11.25 -3.8 L-11.25 -3.85 -10.95 -4.15 M-14.2 3.55 Q-14.35 2.05 -13.85 0.55" fill="none" stroke="#cc6633" stroke-linecap="round" stroke-linejoin="round" stroke-width="1.0"/>
    <path d="M13.45 -23.75 Q15.65 -23.15 17.45 -21.85 19.9 -20.15 20.65 -17.55 L21.05 -16.25 M26.85 -20.2 Q26.6 -23.1 25.0 -25.5 L23.45 -27.55 21.2 -29.95 Q19.35 -31.75 16.9 -32.85 L11.6 -34.95 6.0 -36.2 0.35 -36.9 -5.4 -37.15 -7.2 -37.1 Q-5.15 -35.9 -4.35 -33.6 L-9.65 -33.8 -15.25 -33.2 Q-18.15 -32.55 -20.8 -31.2 L-25.45 -28.35 -29.55 -24.85 Q-31.45 -22.9 -32.65 -20.4 -33.5 -18.6 -33.9 -16.6 -32.25 -18.45 -29.9 -19.7 -27.6 -20.85 -25.05 -21.05 -25.9 -20.7 -26.35 -19.7 L-21.95 -20.8 -18.2 -21.05 Q-20.55 -19.4 -22.3 -16.95 -23.5 -15.25 -23.6 -13.15 -22.8 -14.55 -21.4 -15.8 L-19.7 -17.2 Q-17.8 -18.55 -15.55 -18.95 L-13.45 -19.0 -13.4 -19.1 Q-11.0 -24.35 -0.2 -24.9 2.75 -25.05 6.4 -24.8 L6.9 -24.8 12.15 -24.1 13.45 -23.75 M3.85 -5.2 L4.5 -5.0 4.6 -4.95 Q6.25 -4.35 8.05 -3.2 10.45 -1.65 13.45 -2.05 L15.0 -2.4 Q16.9 -3.15 17.95 -5.1 19.1 -7.3 19.6 -10.2 20.15 -13.0 20.95 -15.85 L20.95 -15.95 21.0 -15.85 Q22.05 -13.45 22.65 -10.05 23.2 -6.65 24.4 -5.9 L26.1 -4.65 M3.5 -5.3 L3.85 -5.2 M24.95 23.35 Q24.65 24.5 19.95 27.05 L16.75 29.05 Q14.5 30.8 13.25 33.05 12.6 34.25 13.6 34.85 L11.0 36.4 Q9.3 37.15 7.35 37.15 4.6 37.15 2.1 36.4 -0.7 35.5 -2.3 33.35 L-1.8 36.8 -6.75 33.95 Q-9.1 32.15 -10.95 29.95 -12.85 27.7 -14.05 25.65 -15.45 23.2 -16.5 20.55 L-18.15 15.15 Q-18.8 12.45 -18.65 9.45 L-18.25 3.7 -17.45 -1.7 -16.4 -7.3 -16.3 -7.85 Q-15.8 -10.35 -14.85 -12.65 L-14.7 -13.35 -13.6 -18.6 -13.45 -19.0 M2.15 11.55 Q5.2 11.75 7.35 10.3 9.8 8.6 10.5 6.2 L10.65 4.35 M-15.4 -7.3 L-15.4 -7.6 Q-15.3 -10.2 -14.85 -12.65 M-16.4 -7.3 L-15.4 -7.3 -15.4 -2.05 -14.95 0.75 -14.2 3.55" fill="none" stroke="#666666" stroke-linecap="round" stroke-linejoin="round" stroke-width="1.0"/>
    <path d="M2.95 -6.25 L3.05 -6.1 3.1 -6.05 3.85 -5.2" fill="none" stroke="#cc6633" stroke-linecap="round" stroke-linejoin="round" stroke-width="0.25"/>
    <path d="M26.1 -4.65 L26.45 -3.7 27.3 -1.05 Q28.0 1.5 28.25 4.2 L28.45 9.95 Q28.5 12.95 28.0 15.85 27.55 18.7 26.25 21.35 L24.95 23.35" fill="none" stroke="#666666" stroke-linecap="round" stroke-linejoin="round" stroke-width="1.25"/>
    <path d="M8.2 -14.8 Q7.75 -17.3 6.35 -19.15 L5.1 -20.2 Q2.5 -21.4 1.3 -18.6 M-10.65 -17.9 L-12.3 -12.85" fill="none" stroke="#000000" stroke-linecap="round" stroke-linejoin="round" stroke-width="1.0"/>
    <path d="M-10.95 -6.65 L-11.2 -7.5 -10.9 -8.45 -10.25 -8.7 Q-9.85 -8.7 -9.65 -8.35 -9.35 -7.95 -9.4 -7.4 -9.5 -6.9 -9.75 -6.6 -10.0 -6.15 -10.4 -6.2 -10.75 -6.2 -10.95 -6.65" fill="#17255e" fill-rule="evenodd" stroke="none"/>
    <path d="M-10.25 -7.6 L-10.4 -7.25 -10.7 -7.05 -10.9 -7.3 -10.95 -7.75 -10.75 -8.15 -10.5 -8.3 -10.25 -8.1 -10.25 -7.6" fill="#65b1fe" fill-rule="evenodd" stroke="none"/>
    <path d="M-10.1 -7.15 L-10.2 -6.95 -10.35 -6.85 -10.45 -7.0 -10.45 -7.2 -10.35 -7.4 -10.25 -7.5 -10.1 -7.4 -10.1 -7.15" fill="#ffffff" fill-rule="evenodd" stroke="none"/>
    <path d="M2.8 -8.65 L2.5 -9.65 2.8 -10.75 Q3.15 -11.15 3.5 -11.15 4.0 -11.1 4.3 -10.75 L4.6 -9.7 Q4.6 -9.05 4.25 -8.65 3.95 -8.15 3.5 -8.2 3.15 -8.15 2.8 -8.65" fill="#17255e" fill-rule="evenodd" stroke="none"/>
    <path d="M3.55 -9.85 L3.4 -9.45 3.05 -9.2 2.8 -9.5 Q2.7 -9.7 2.75 -9.95 L2.9 -10.5 3.25 -10.65 3.5 -10.45 3.55 -9.85" fill="#65b1fe" fill-rule="evenodd" stroke="none"/>
    <path d="M3.7 -9.1 L3.5 -9.0 3.4 -9.15 3.35 -9.4 3.45 -9.65 3.6 -9.75 3.75 -9.65 3.75 -9.35 3.7 -9.1" fill="#ffffff" fill-rule="evenodd" stroke="none"/>
    <path d="M-15.45 -21.05 L-15.5 -21.0 -15.5 -21.05 -15.5 -21.4 -15.55 -21.65 -15.6 -21.8 Q-15.85 -22.6 -16.5 -23.15 -17.2 -23.7 -18.05 -23.75 L-22.45 -23.45 -22.5 -23.45 -23.45 -23.25 Q-24.25 -23.8 -25.25 -23.75 L-27.1 -23.5 -23.9 -26.15 -23.85 -26.15 Q-21.85 -27.65 -19.55 -28.8 -17.2 -30.0 -14.65 -30.55 L-9.65 -31.1 -4.55 -30.9 Q-3.65 -30.85 -2.85 -31.35 -2.1 -31.85 -1.8 -32.7 -1.5 -33.55 -1.75 -34.35 L0.1 -34.2 5.65 -33.5 10.8 -32.35 15.8 -30.4 15.8 -30.35 Q17.8 -29.5 19.35 -28.0 L19.35 -27.95 21.4 -25.85 22.75 -24.0 23.65 -22.3 23.2 -22.1 21.8 -21.4 Q20.7 -22.9 19.0 -24.05 16.8 -25.6 14.25 -26.35 L12.7 -26.75 12.65 -26.75 7.1 -27.5 7.0 -27.5 6.55 -27.5 Q2.75 -27.75 -0.35 -27.6 -11.65 -27.0 -15.05 -21.7 L-15.25 -21.4 -15.45 -21.05" fill="url(#gradient8)" fill-rule="evenodd" stroke="none"/>
    <path d="M23.8 -3.1 L23.9 -2.8 24.7 -0.3 Q24.75 -0.3 24.7 -0.25 25.35 2.0 25.55 4.4 L25.55 4.45 25.75 9.95 25.75 10.0 Q25.8 12.75 25.35 15.4 L25.35 15.45 Q24.95 17.85 23.85 20.15 L22.9 21.65 Q22.5 22.1 22.35 22.7 L18.65 24.65 Q16.8 25.65 15.15 26.9 L15.1 26.95 Q12.4 29.0 10.9 31.75 L10.85 31.85 Q10.3 32.9 10.2 33.8 L9.9 33.95 7.35 34.45 2.95 33.85 2.9 33.85 Q1.0 33.2 -0.1 31.75 -0.65 31.05 -1.5 30.8 L-3.2 30.85 Q-4.05 31.15 -4.55 31.9 L-4.65 32.1 -5.1 31.8 -8.85 28.2 -11.7 24.3 -13.95 19.6 -15.5 14.6 -15.5 14.55 Q-16.1 12.2 -15.95 9.6 L-15.95 9.55 -15.85 7.45 Q-14.8 9.5 -12.2 10.65 -9.0 12.15 -5.35 11.9 -1.9 11.65 1.1 10.1 4.5 8.3 6.3 4.9 7.65 2.5 7.7 -0.3 10.45 1.05 13.8 0.65 L15.95 0.1 16.0 0.1 Q18.8 -0.95 20.35 -3.8 L20.35 -3.85 21.15 -5.55 Q21.9 -4.05 23.05 -3.6 L23.8 -3.1" fill="url(#gradient9)" fill-rule="evenodd" stroke="none"/>
    <path d="M2.9 -2.0 L2.95 -1.65 3.0 -1.5 Q3.2 0.8 2.15 2.7 L2.15 2.75 Q1.0 4.8 -1.05 5.95 -3.2 7.05 -5.65 7.2 -8.1 7.35 -10.25 6.4 -11.3 5.95 -11.7 5.15 L-11.75 5.1 Q-12.2 4.25 -12.2 3.35 -12.35 2.3 -11.95 1.25 -11.75 0.55 -11.95 -0.1 -12.25 -0.8 -12.85 -1.15 L-13.05 -1.25 -13.3 -1.35 -13.4 -2.1 -13.4 -2.15 -13.4 -7.2 -13.45 -7.05 -13.4 -7.5 -12.85 -12.25 -12.9 -12.2 -12.75 -12.9 -12.75 -12.95 -11.7 -17.9 -11.7 -18.0 -11.55 -18.25 Q-9.35 -22.45 -0.1 -22.9 2.75 -23.05 6.3 -22.8 L6.75 -22.8 6.85 -22.8 11.8 -22.1 11.75 -22.15 12.9 -21.85 Q14.75 -21.3 16.3 -20.2 18.1 -18.95 18.7 -17.05 L18.75 -17.0 18.95 -16.2 Q18.15 -13.35 17.65 -10.55 17.25 -8.05 16.2 -6.05 15.5 -4.8 14.3 -4.25 L14.3 -4.3 13.2 -4.0 Q10.95 -3.75 9.15 -4.85 L9.15 -4.9 Q7.15 -6.1 5.4 -6.75 L5.2 -6.85 5.15 -6.85 4.85 -7.0 4.75 -7.15 3.55 -8.05 2.05 -7.85 Q1.3 -7.45 1.1 -6.65 0.9 -5.85 1.3 -5.15 L1.75 -4.35 1.95 -4.05 2.05 -3.95 2.2 -3.7 2.65 -2.95 2.65 -2.9 2.9 -2.0 M-12.65 -5.25 Q-13.25 -4.65 -13.25 -3.85 L-13.25 -3.8 Q-13.25 -3.2 -12.9 -2.7 L-12.45 -2.25 -11.95 -1.95 -10.75 -1.85 -9.75 -2.5 -9.5 -2.75 Q-8.95 -3.35 -8.95 -4.15 -8.95 -4.95 -9.45 -5.45 L-9.55 -5.55 Q-10.15 -6.15 -10.95 -6.15 -11.75 -6.15 -12.35 -5.55 L-12.65 -5.25" fill="url(#gradient10)" fill-rule="evenodd" stroke="none"/>
    <path d="M25.05 -17.8 Q25.9 -18.2 26.8 -18.2 L26.85 -18.2 Q27.85 -18.15 28.9 -17.6 30.7 -16.7 31.3 -14.85 32.05 -12.6 31.85 -9.95 L31.85 -9.9 Q31.65 -7.8 30.05 -6.7 28.65 -5.75 27.3 -6.35 L27.2 -6.4 25.45 -7.65 Q24.95 -8.2 24.6 -10.4 24.05 -13.6 23.1 -16.0 L23.5 -16.7 Q24.05 -17.4 25.05 -17.8" fill="url(#gradient11)" fill-rule="evenodd" stroke="none"/>
    <path d="M20.4 -29.05 L20.4 -29.1 Q18.65 -30.75 16.4 -31.75 L11.25 -33.8 5.85 -35.0 0.25 -35.7 -4.2 -35.95 -3.2 -34.0 -3.2 -33.2 -3.7 -32.6 Q-4.05 -32.35 -4.45 -32.4 L-9.65 -32.6 -14.95 -32.0 -15.0 -32.0 Q-17.75 -31.4 -20.25 -30.1 -22.6 -28.9 -24.75 -27.35 L-28.7 -24.0 Q-30.35 -22.35 -31.4 -20.2 L-30.45 -20.75 -30.4 -20.75 Q-27.9 -22.05 -25.15 -22.25 -24.7 -22.3 -24.35 -22.0 L-23.95 -21.55 -22.2 -21.95 -22.15 -21.95 -18.1 -22.25 -17.45 -22.0 -17.05 -21.35 -17.05 -20.65 Q-17.2 -20.3 -17.5 -20.05 L-18.6 -19.2 Q-17.25 -19.85 -15.75 -20.1 L-14.15 -20.25 Q-11.3 -25.55 -0.25 -26.1 2.75 -26.25 6.5 -26.0 L6.95 -26.0 7.0 -26.0 12.4 -25.25 13.8 -24.9 Q16.15 -24.2 18.15 -22.8 20.35 -21.3 21.35 -19.1 22.3 -20.1 23.8 -20.75 L25.5 -21.25 Q25.1 -23.2 24.0 -24.8 L22.55 -26.8 20.4 -29.05 M24.25 -25.0 Q25.45 -23.15 25.85 -21.0 L23.9 -20.45 Q22.25 -19.75 21.3 -18.55 20.4 -20.95 18.0 -22.55 16.05 -23.95 13.7 -24.65 L13.7 -24.6 12.35 -24.95 7.0 -25.7 6.95 -25.7 6.45 -25.7 Q2.75 -25.95 -0.25 -25.8 -11.25 -25.25 -14.0 -19.95 L-15.7 -19.8 Q-18.15 -19.4 -20.2 -17.9 L-20.65 -17.6 -17.65 -20.3 -17.35 -20.75 -17.3 -21.3 -17.65 -21.75 -18.15 -21.95 -22.1 -21.65 -24.15 -21.2 -24.15 -21.25 -24.5 -21.75 -25.1 -21.95 Q-27.85 -21.75 -30.3 -20.5 L-32.1 -19.4 -31.8 -20.0 -31.85 -20.0 Q-30.7 -22.35 -28.9 -24.2 -27.05 -26.1 -24.9 -27.6 -22.8 -29.2 -20.4 -30.4 -17.85 -31.7 -15.05 -32.3 L-9.65 -32.9 -4.4 -32.7 Q-4.1 -32.7 -3.85 -32.85 -3.6 -33.0 -3.5 -33.3 L-3.5 -33.9 Q-3.95 -35.25 -4.8 -36.25 L0.25 -36.0 5.9 -35.3 11.35 -34.1 16.55 -32.0 Q18.85 -31.0 20.6 -29.3 L22.75 -27.0 24.25 -25.0" fill="url(#gradient12)" fill-rule="evenodd" stroke="none"/>
    <path d="M20.4 -29.05 L22.55 -26.8 24.0 -24.8 Q25.1 -23.2 25.5 -21.25 L23.8 -20.75 Q22.3 -20.1 21.35 -19.1 20.35 -21.3 18.15 -22.8 16.15 -24.2 13.8 -24.9 L12.4 -25.25 7.0 -26.0 6.95 -26.0 6.5 -26.0 Q2.75 -26.25 -0.25 -26.1 -11.3 -25.55 -14.15 -20.25 L-15.75 -20.1 Q-17.25 -19.85 -18.6 -19.2 L-17.5 -20.05 Q-17.2 -20.3 -17.05 -20.65 L-17.05 -21.35 -17.45 -22.0 -18.1 -22.25 -22.15 -21.95 -22.2 -21.95 -23.95 -21.55 -24.35 -22.0 Q-24.7 -22.3 -25.15 -22.25 -27.9 -22.05 -30.4 -20.75 L-30.45 -20.75 -31.4 -20.2 Q-30.35 -22.35 -28.7 -24.0 L-24.75 -27.35 Q-22.6 -28.9 -20.25 -30.1 -17.75 -31.4 -15.0 -32.0 L-14.95 -32.0 -9.65 -32.6 -4.45 -32.4 Q-4.05 -32.35 -3.7 -32.6 L-3.2 -33.2 -3.2 -34.0 -4.2 -35.95 0.25 -35.7 5.85 -35.0 11.25 -33.8 16.4 -31.75 Q18.65 -30.75 20.4 -29.1 L20.4 -29.05 M-30.55 -21.05 Q-28.0 -22.35 -25.15 -22.55 -24.6 -22.6 -24.15 -22.25 L-23.8 -21.9 -22.25 -22.25 -22.2 -22.25 -18.1 -22.55 -17.25 -22.2 -16.75 -21.45 Q-16.6 -21.0 -16.75 -20.55 L-17.0 -20.15 -15.8 -20.4 -14.35 -20.55 Q-11.35 -25.85 -0.3 -26.4 2.75 -26.55 6.5 -26.3 L6.95 -26.3 7.0 -26.3 12.45 -25.55 13.9 -25.2 Q16.3 -24.5 18.3 -23.05 20.4 -21.65 21.45 -19.6 L23.65 -21.0 25.15 -21.5 Q24.75 -23.2 23.75 -24.65 L22.3 -26.6 20.2 -28.85 20.15 -28.85 Q18.5 -30.5 16.3 -31.45 L16.3 -31.5 11.15 -33.5 Q8.5 -34.35 5.8 -34.7 L0.2 -35.4 -3.65 -35.65 -2.9 -34.1 Q-2.75 -33.6 -2.9 -33.1 L-3.5 -32.35 -4.45 -32.1 -9.65 -32.3 -14.9 -31.7 Q-17.65 -31.15 -20.1 -29.85 L-24.55 -27.1 Q-26.65 -25.65 -28.45 -23.8 L-30.55 -21.05" fill="url(#gradient13)" fill-rule="evenodd" stroke="none"/>
    <path d="M11.4 -34.35 L5.95 -35.6 0.3 -36.3 -5.35 -36.55 -5.4 -36.55 -5.45 -36.55 Q-4.35 -35.4 -3.75 -33.8 L-3.75 -33.4 -4.0 -33.1 -4.4 -33.0 -9.65 -33.2 -15.1 -32.6 Q-17.95 -32.0 -20.5 -30.65 -22.95 -29.45 -25.1 -27.85 -27.25 -26.35 -29.1 -24.4 -30.95 -22.55 -32.1 -20.15 L-32.75 -18.5 Q-31.6 -19.5 -30.15 -20.2 -27.75 -21.45 -25.1 -21.65 L-24.7 -21.5 -24.45 -21.2 -24.5 -20.8 -22.05 -21.35 -22.05 -21.4 -18.15 -21.65 Q-18.0 -21.65 -17.8 -21.5 L-17.6 -21.2 -17.6 -20.85 -17.85 -20.55 Q-20.1 -18.95 -21.8 -16.6 L-22.25 -15.8 -21.8 -16.25 -20.05 -17.7 Q-18.05 -19.15 -15.65 -19.55 L-13.8 -19.65 Q-11.15 -24.95 -0.25 -25.5 2.75 -25.65 6.45 -25.4 L6.95 -25.4 12.3 -24.7 13.65 -24.35 Q15.9 -23.7 17.8 -22.35 20.35 -20.6 21.2 -17.9 L21.45 -18.3 Q22.4 -19.5 24.0 -20.2 L26.2 -20.75 Q25.85 -23.15 24.5 -25.15 L23.0 -27.2 20.8 -29.5 Q19.0 -31.25 16.65 -32.3 L11.45 -34.35 11.4 -34.35 M24.75 -25.3 Q26.2 -23.15 26.55 -20.5 25.3 -20.45 24.15 -19.9 22.6 -19.25 21.7 -18.15 L21.7 -18.1 21.1 -17.1 20.95 -17.6 Q20.15 -20.35 17.65 -22.1 15.75 -23.4 13.55 -24.05 L12.2 -24.4 6.95 -25.1 6.9 -25.1 6.45 -25.1 Q2.75 -25.35 -0.25 -25.2 -11.15 -24.65 -13.6 -19.3 L-15.6 -19.25 Q-17.9 -18.85 -19.85 -17.45 L-21.6 -16.05 -23.1 -14.35 Q-22.85 -15.65 -22.05 -16.75 -20.35 -19.2 -18.0 -20.8 L-17.9 -20.95 -17.9 -21.1 -18.0 -21.25 -18.15 -21.35 -22.0 -21.1 -25.7 -20.2 -24.9 -20.75 -24.75 -20.9 -24.75 -21.1 -24.85 -21.3 -25.05 -21.35 Q-27.7 -21.15 -30.0 -19.95 L-30.05 -19.95 -33.35 -17.6 -32.35 -20.25 Q-31.2 -22.75 -29.3 -24.65 -27.45 -26.55 -25.25 -28.1 -23.1 -29.7 -20.65 -30.9 -18.05 -32.25 -15.15 -32.9 L-9.65 -33.5 -4.35 -33.3 -4.15 -33.35 -4.05 -33.5 -4.05 -33.7 Q-4.75 -35.65 -6.25 -36.8 L-5.4 -36.85 -5.35 -36.85 0.35 -36.6 5.95 -35.9 11.5 -34.65 16.8 -32.55 Q19.2 -31.5 21.0 -29.7 L23.25 -27.35 24.75 -25.3" fill="url(#gradient14)" fill-rule="evenodd" stroke="none"/>
    <path d="M24.5 -25.15 Q25.85 -23.15 26.2 -20.75 L24.0 -20.2 Q22.4 -19.5 21.45 -18.3 L21.2 -17.9 Q20.35 -20.6 17.8 -22.35 15.9 -23.7 13.65 -24.35 L12.3 -24.7 6.95 -25.4 6.45 -25.4 Q2.75 -25.65 -0.25 -25.5 -11.15 -24.95 -13.8 -19.65 L-15.65 -19.55 Q-18.05 -19.15 -20.05 -17.7 L-21.8 -16.25 -22.25 -15.8 -21.8 -16.6 Q-20.1 -18.95 -17.85 -20.55 L-17.6 -20.85 -17.6 -21.2 -17.8 -21.5 Q-18.0 -21.65 -18.15 -21.65 L-22.05 -21.4 -22.05 -21.35 -24.5 -20.8 -24.45 -21.2 -24.7 -21.5 -25.1 -21.65 Q-27.75 -21.45 -30.15 -20.2 -31.6 -19.5 -32.75 -18.5 L-32.1 -20.15 Q-30.95 -22.55 -29.1 -24.4 -27.25 -26.35 -25.1 -27.85 -22.95 -29.45 -20.5 -30.65 -17.95 -32.0 -15.1 -32.6 L-9.65 -33.2 -4.4 -33.0 -4.0 -33.1 -3.75 -33.4 -3.75 -33.8 Q-4.35 -35.4 -5.45 -36.55 L-5.4 -36.55 -5.35 -36.55 0.3 -36.3 5.95 -35.6 11.4 -34.35 11.45 -34.35 16.65 -32.3 Q19.0 -31.25 20.8 -29.5 L23.0 -27.2 24.5 -25.15 M18.0 -22.55 Q20.4 -20.95 21.3 -18.55 22.25 -19.75 23.9 -20.45 L25.85 -21.0 Q25.45 -23.15 24.25 -25.0 L22.75 -27.0 20.6 -29.3 Q18.85 -31.0 16.55 -32.0 L11.35 -34.1 5.9 -35.3 0.25 -36.0 -4.8 -36.25 Q-3.95 -35.25 -3.5 -33.9 L-3.5 -33.3 Q-3.6 -33.0 -3.85 -32.85 -4.1 -32.7 -4.4 -32.7 L-9.65 -32.9 -15.05 -32.3 Q-17.85 -31.7 -20.4 -30.4 -22.8 -29.2 -24.9 -27.6 -27.05 -26.1 -28.9 -24.2 -30.7 -22.35 -31.85 -20.0 L-31.8 -20.0 -32.1 -19.4 -30.3 -20.5 Q-27.85 -21.75 -25.1 -21.95 L-24.5 -21.75 -24.15 -21.25 -24.15 -21.2 -22.1 -21.65 -18.15 -21.95 -17.65 -21.75 -17.3 -21.3 -17.35 -20.75 -17.65 -20.3 -20.65 -17.6 -20.2 -17.9 Q-18.15 -19.4 -15.7 -19.8 L-14.0 -19.95 Q-11.25 -25.25 -0.25 -25.8 2.75 -25.95 6.45 -25.7 L6.95 -25.7 7.0 -25.7 12.35 -24.95 13.7 -24.6 13.7 -24.65 Q16.05 -23.95 18.0 -22.55" fill="url(#gradient15)" fill-rule="evenodd" stroke="none"/>
    <path d="M24.75 -25.3 L23.25 -27.35 21.0 -29.7 Q19.2 -31.5 16.8 -32.55 L11.5 -34.65 5.95 -35.9 0.35 -36.6 -5.35 -36.85 -5.4 -36.85 -6.25 -36.8 Q-4.75 -35.65 -4.05 -33.7 L-4.05 -33.5 -4.15 -33.35 -4.35 -33.3 -9.65 -33.5 -15.15 -32.9 Q-18.05 -32.25 -20.65 -30.9 -23.1 -29.7 -25.25 -28.1 -27.45 -26.55 -29.3 -24.65 -31.2 -22.75 -32.35 -20.25 L-33.35 -17.6 -30.05 -19.95 -30.0 -19.95 Q-27.7 -21.15 -25.05 -21.35 L-24.85 -21.3 -24.75 -21.1 -24.75 -20.9 -24.9 -20.75 -25.7 -20.2 -22.0 -21.1 -18.15 -21.35 -18.0 -21.25 -17.9 -21.1 -17.9 -20.95 -18.0 -20.8 Q-20.35 -19.2 -22.05 -16.75 -22.85 -15.65 -23.1 -14.35 L-21.6 -16.05 -19.85 -17.45 Q-17.9 -18.85 -15.6 -19.25 L-13.6 -19.3 Q-11.15 -24.65 -0.25 -25.2 2.75 -25.35 6.45 -25.1 L6.9 -25.1 6.95 -25.1 12.2 -24.4 13.55 -24.05 Q15.75 -23.4 17.65 -22.1 20.15 -20.35 20.95 -17.6 L21.1 -17.1 21.7 -18.1 21.7 -18.15 Q22.6 -19.25 24.15 -19.9 25.3 -20.45 26.55 -20.5 26.2 -23.15 24.75 -25.3 M-13.45 -19.0 L-15.55 -18.95 Q-17.8 -18.55 -19.7 -17.2 L-21.4 -15.8 Q-22.8 -14.55 -23.6 -13.15 -23.5 -15.25 -22.3 -16.95 -20.55 -19.4 -18.2 -21.05 L-21.95 -20.8 -26.35 -19.7 Q-25.9 -20.7 -25.05 -21.05 -27.6 -20.85 -29.9 -19.7 -32.25 -18.45 -33.9 -16.6 -33.5 -18.6 -32.65 -20.4 -31.45 -22.9 -29.55 -24.85 L-25.45 -28.35 -20.8 -31.2 Q-18.15 -32.55 -15.25 -33.2 L-9.65 -33.8 -4.35 -33.6 Q-5.15 -35.9 -7.2 -37.1 L-5.4 -37.15 0.35 -36.9 6.0 -36.2 11.6 -34.95 16.9 -32.85 Q19.35 -31.75 21.2 -29.95 L23.45 -27.55 25.0 -25.5 Q26.6 -23.1 26.85 -20.2 25.55 -20.2 24.25 -19.65 22.8 -19.0 21.95 -17.95 21.35 -17.2 21.05 -16.25 L20.65 -17.55 Q19.9 -20.15 17.45 -21.85 15.65 -23.15 13.45 -23.75 L12.15 -24.1 6.9 -24.8 6.4 -24.8 Q2.75 -25.05 -0.2 -24.9 -11.0 -24.35 -13.4 -19.1 L-13.45 -19.0" fill="url(#gradient16)" fill-rule="evenodd" stroke="none"/>
    <path d="M10.85 -32.65 L5.7 -33.8 5.65 -33.8 0.1 -34.5 -2.15 -34.7 -2.05 -34.4 Q-1.8 -33.6 -2.05 -32.8 -2.35 -32.05 -3.0 -31.6 -3.7 -31.15 -4.55 -31.2 L-9.65 -31.4 -14.7 -30.85 -14.75 -30.85 Q-17.35 -30.25 -19.7 -29.05 -22.0 -27.9 -24.05 -26.4 L-27.8 -23.15 -28.0 -22.95 -25.25 -23.45 Q-24.35 -23.5 -23.6 -23.0 L-23.5 -22.9 -22.45 -23.15 -22.4 -23.15 -18.05 -23.45 Q-17.3 -23.4 -16.7 -22.9 -16.1 -22.45 -15.9 -21.7 L-15.8 -21.35 -15.5 -21.4 -15.5 -21.05 -15.9 -21.0 -16.1 -21.0 -16.15 -21.6 Q-16.35 -22.3 -16.9 -22.7 -17.45 -23.1 -18.1 -23.15 L-22.35 -22.85 -23.6 -22.55 -23.8 -22.75 -25.2 -23.15 -28.9 -22.35 -28.05 -23.35 -24.25 -26.6 -24.2 -26.65 Q-22.15 -28.15 -19.85 -29.3 -17.45 -30.55 -14.8 -31.15 L-9.65 -31.7 -4.5 -31.5 Q-3.8 -31.45 -3.2 -31.85 -2.6 -32.25 -2.35 -32.9 -2.15 -33.6 -2.35 -34.3 L-2.65 -35.0 0.15 -34.8 5.7 -34.1 10.95 -32.95 11.0 -32.95 16.05 -30.95 16.05 -30.9 Q18.15 -30.0 19.75 -28.45 L19.8 -28.4 21.85 -26.2 23.25 -24.3 24.4 -21.95 23.45 -21.55 23.4 -21.55 Q22.4 -21.15 21.6 -20.55 20.55 -22.25 18.65 -23.55 16.55 -25.05 14.05 -25.8 L12.6 -26.15 12.55 -26.15 7.05 -26.9 7.0 -26.9 6.55 -26.9 Q2.75 -27.15 -0.3 -27.0 -11.5 -26.45 -14.7 -21.15 L-15.45 -21.05 -15.25 -21.4 -14.85 -21.45 Q-11.6 -26.75 -0.35 -27.3 2.75 -27.45 6.55 -27.2 L7.0 -27.2 7.1 -27.2 12.6 -26.45 12.65 -26.45 14.15 -26.05 Q16.7 -25.3 18.85 -23.8 20.6 -22.6 21.7 -20.95 L23.3 -21.85 24.0 -22.1 23.0 -24.15 21.6 -26.05 19.6 -28.2 19.55 -28.2 Q18.0 -29.75 15.95 -30.65 L15.9 -30.65 10.9 -32.65 10.85 -32.65" fill="url(#gradient17)" fill-rule="evenodd" stroke="none"/>
    <path d="M-15.5 -21.4 L-15.8 -21.35 -15.9 -21.7 Q-16.1 -22.45 -16.7 -22.9 -17.3 -23.4 -18.05 -23.45 L-22.4 -23.15 -22.45 -23.15 -23.5 -22.9 -23.6 -23.0 Q-24.35 -23.5 -25.25 -23.45 L-28.0 -22.95 -27.8 -23.15 -24.05 -26.4 Q-22.0 -27.9 -19.7 -29.05 -17.35 -30.25 -14.75 -30.85 L-14.7 -30.85 -9.65 -31.4 -4.55 -31.2 Q-3.7 -31.15 -3.0 -31.6 -2.35 -32.05 -2.05 -32.8 -1.8 -33.6 -2.05 -34.4 L-2.15 -34.7 0.1 -34.5 5.65 -33.8 5.7 -33.8 10.85 -32.65 10.9 -32.65 15.9 -30.65 15.95 -30.65 Q18.0 -29.75 19.55 -28.2 L19.6 -28.2 21.6 -26.05 23.0 -24.15 24.0 -22.1 23.3 -21.85 21.7 -20.95 Q20.6 -22.6 18.85 -23.8 16.7 -25.3 14.15 -26.05 L12.65 -26.45 12.6 -26.45 7.1 -27.2 7.0 -27.2 6.55 -27.2 Q2.75 -27.45 -0.35 -27.3 -11.6 -26.75 -14.85 -21.45 L-15.25 -21.4 -15.05 -21.7 Q-11.65 -27.0 -0.35 -27.6 2.75 -27.75 6.55 -27.5 L7.0 -27.5 7.1 -27.5 12.65 -26.75 12.7 -26.75 14.25 -26.35 Q16.8 -25.6 19.0 -24.05 20.7 -22.9 21.8 -21.4 L23.2 -22.1 23.65 -22.3 22.75 -24.0 21.4 -25.85 19.35 -27.95 19.35 -28.0 Q17.8 -29.5 15.8 -30.35 L15.8 -30.4 10.8 -32.35 5.65 -33.5 0.1 -34.2 -1.75 -34.35 Q-1.5 -33.55 -1.8 -32.7 -2.1 -31.85 -2.85 -31.35 -3.65 -30.85 -4.55 -30.9 L-9.65 -31.1 -14.65 -30.55 Q-17.2 -30.0 -19.55 -28.8 -21.85 -27.65 -23.85 -26.15 L-23.9 -26.15 -27.1 -23.5 -25.25 -23.75 Q-24.25 -23.8 -23.45 -23.25 L-22.5 -23.45 -22.45 -23.45 -18.05 -23.75 Q-17.2 -23.7 -16.5 -23.15 -15.85 -22.6 -15.6 -21.8 L-15.55 -21.65 -15.5 -21.4" fill="url(#gradient18)" fill-rule="evenodd" stroke="none"/>
    <path d="M6.5 -26.3 Q2.75 -26.55 -0.3 -26.4 -11.35 -25.85 -14.35 -20.55 L-15.8 -20.4 -17.0 -20.15 -16.75 -20.55 Q-16.6 -21.0 -16.75 -21.45 L-17.25 -22.2 -18.1 -22.55 -22.2 -22.25 -22.25 -22.25 -23.8 -21.9 -24.15 -22.25 Q-24.6 -22.6 -25.15 -22.55 -28.0 -22.35 -30.55 -21.05 L-28.45 -23.8 Q-26.65 -25.65 -24.55 -27.1 L-20.1 -29.85 Q-17.65 -31.15 -14.9 -31.7 L-9.65 -32.3 -4.45 -32.1 -3.5 -32.35 -2.9 -33.1 Q-2.75 -33.6 -2.9 -34.1 L-3.65 -35.65 0.2 -35.4 5.8 -34.7 Q8.5 -34.35 11.15 -33.5 L16.3 -31.5 16.3 -31.45 Q18.5 -30.5 20.15 -28.85 L20.2 -28.85 22.3 -26.6 23.75 -24.65 Q24.75 -23.2 25.15 -21.5 L23.65 -21.0 21.45 -19.6 Q20.4 -21.65 18.3 -23.05 16.3 -24.5 13.9 -25.2 L12.45 -25.55 7.0 -26.3 6.95 -26.3 6.5 -26.3 M11.1 -33.2 L5.75 -34.4 0.15 -35.1 -3.1 -35.3 -2.65 -34.2 Q-2.45 -33.6 -2.65 -33.0 -2.85 -32.45 -3.35 -32.1 L-4.5 -31.8 -9.65 -32.0 -14.85 -31.45 Q-17.55 -30.85 -19.95 -29.6 -22.3 -28.4 -24.4 -26.9 L-24.4 -26.85 Q-26.5 -25.45 -28.25 -23.6 L-29.8 -21.7 Q-27.6 -22.65 -25.2 -22.85 L-24.0 -22.5 -23.7 -22.25 -22.3 -22.55 -22.25 -22.55 -18.1 -22.85 -17.05 -22.45 -16.45 -21.55 -16.45 -20.6 -15.85 -20.7 -14.5 -20.85 Q-11.45 -26.15 -0.3 -26.7 2.75 -26.85 6.5 -26.6 L7.0 -26.6 7.05 -26.6 12.5 -25.85 13.95 -25.5 14.0 -25.5 Q16.45 -24.75 18.5 -23.3 20.45 -21.95 21.55 -20.1 22.4 -20.8 23.55 -21.3 L24.75 -21.7 Q24.35 -23.2 23.5 -24.5 L22.1 -26.4 20.0 -28.6 19.95 -28.65 Q18.35 -30.25 16.2 -31.2 L16.15 -31.2 11.1 -33.2" fill="url(#gradient19)" fill-rule="evenodd" stroke="none"/>
    <path d="M7.0 -26.6 L6.5 -26.6 Q2.75 -26.85 -0.3 -26.7 -11.45 -26.15 -14.5 -20.85 L-15.85 -20.7 -16.45 -20.6 -16.45 -21.55 -17.05 -22.45 -18.1 -22.85 -22.25 -22.55 -22.3 -22.55 -23.7 -22.25 -24.0 -22.5 -25.2 -22.85 Q-27.6 -22.65 -29.8 -21.7 L-28.25 -23.6 Q-26.5 -25.45 -24.4 -26.85 L-24.4 -26.9 Q-22.3 -28.4 -19.95 -29.6 -17.55 -30.85 -14.85 -31.45 L-9.65 -32.0 -4.5 -31.8 -3.35 -32.1 Q-2.85 -32.45 -2.65 -33.0 -2.45 -33.6 -2.65 -34.2 L-3.1 -35.3 0.15 -35.1 5.75 -34.4 11.1 -33.2 16.15 -31.2 16.2 -31.2 Q18.35 -30.25 19.95 -28.65 L20.0 -28.6 22.1 -26.4 23.5 -24.5 Q24.35 -23.2 24.75 -21.7 L23.55 -21.3 Q22.4 -20.8 21.55 -20.1 20.45 -21.95 18.5 -23.3 16.45 -24.75 14.0 -25.5 L13.95 -25.5 12.5 -25.85 7.05 -26.6 7.0 -26.6 M-15.5 -21.05 L-15.5 -21.0 -15.45 -21.05 -14.7 -21.15 Q-11.5 -26.45 -0.3 -27.0 2.75 -27.15 6.55 -26.9 L7.0 -26.9 7.05 -26.9 12.55 -26.15 12.6 -26.15 14.05 -25.8 Q16.55 -25.05 18.65 -23.55 20.55 -22.25 21.6 -20.55 22.4 -21.15 23.4 -21.55 L23.45 -21.55 24.4 -21.95 23.25 -24.3 21.85 -26.2 19.8 -28.4 19.75 -28.45 Q18.15 -30.0 16.05 -30.9 L16.05 -30.95 11.0 -32.95 10.95 -32.95 5.7 -34.1 0.15 -34.8 -2.65 -35.0 -2.35 -34.3 Q-2.15 -33.6 -2.35 -32.9 -2.6 -32.25 -3.2 -31.85 -3.8 -31.45 -4.5 -31.5 L-9.65 -31.7 -14.8 -31.15 Q-17.45 -30.55 -19.85 -29.3 -22.15 -28.15 -24.2 -26.65 L-24.25 -26.6 -28.05 -23.35 -28.9 -22.35 -25.2 -23.15 -23.8 -22.75 -23.6 -22.55 -22.35 -22.85 -18.1 -23.15 Q-17.45 -23.1 -16.9 -22.7 -16.35 -22.3 -16.15 -21.6 L-16.1 -21.0 -15.9 -21.0 -15.5 -21.05" fill="url(#gradient20)" fill-rule="evenodd" stroke="none"/>
    <path d="M26.1 -4.65 L26.45 -3.7 27.3 -1.05 Q28.0 1.5 28.25 4.2 L28.45 9.95 Q28.5 12.95 28.0 15.85 27.55 18.7 26.25 21.35 L24.95 23.35 Q24.65 24.5 19.95 27.05 L16.75 29.05 Q14.5 30.8 13.25 33.05 12.6 34.25 13.6 34.85 L11.0 36.4 Q9.3 37.15 7.35 37.15 4.6 37.15 2.1 36.4 -0.7 35.5 -2.3 33.35 L-1.8 36.8 -6.75 33.95 Q-9.1 32.15 -10.95 29.95 -12.85 27.7 -14.05 25.65 -15.45 23.2 -16.5 20.55 L-18.15 15.15 Q-18.8 12.45 -18.65 9.45 L-18.25 3.7 -17.45 -1.7 -16.4 -7.3 -15.4 -7.3 -15.4 -2.05 -14.95 0.75 -14.2 3.55 -13.55 6.0 Q-12.85 7.4 -11.1 8.2 -8.5 9.4 -5.55 9.2 -2.65 9.0 -0.15 7.7 2.5 6.3 3.9 3.65 5.25 1.15 4.95 -1.85 4.75 -4.0 3.5 -5.3 L3.85 -5.2 4.5 -5.0 4.6 -4.95 Q6.25 -4.35 8.05 -3.2 10.45 -1.65 13.45 -2.05 L15.0 -2.4 Q16.9 -3.15 17.95 -5.1 19.1 -7.3 19.6 -10.2 20.15 -13.0 20.95 -15.85 L21.0 -15.85 Q22.05 -13.45 22.65 -10.05 23.2 -6.65 24.4 -5.9 L26.1 -4.65 M4.4 -4.7 L4.3 -4.75 Q5.1 -3.55 5.25 -1.85 5.55 1.2 4.2 3.8 2.75 6.55 0.0 8.0 -2.55 9.3 -5.5 9.5 -8.55 9.7 -11.2 8.5 -13.1 7.6 -13.8 6.15 L-14.5 3.65 -15.25 0.8 -15.7 -2.0 -15.7 -2.05 -15.75 -7.0 -16.15 -7.0 -17.15 -1.65 -17.95 3.75 -18.35 9.45 -18.35 9.5 Q-18.5 12.4 -17.85 15.1 L-16.2 20.45 Q-15.2 23.05 -13.8 25.5 L-10.7 29.75 Q-8.9 31.9 -6.55 33.7 L-2.2 36.3 -2.6 33.4 -2.55 33.2 -2.4 33.1 -2.2 33.1 -2.05 33.2 Q-0.5 35.25 2.2 36.15 L7.35 36.85 Q9.25 36.85 10.9 36.15 12.1 35.6 13.15 34.85 12.35 34.15 12.95 32.95 L13.0 32.9 Q14.25 30.6 16.6 28.85 L16.6 28.8 19.8 26.75 Q24.35 24.3 24.65 23.3 L24.75 23.15 26.0 21.25 Q27.25 18.6 27.7 15.8 28.2 12.9 28.15 9.95 L27.95 4.25 Q27.7 1.55 27.0 -0.95 L26.15 -3.6 25.85 -4.45 24.25 -5.65 Q22.9 -6.4 22.35 -10.0 21.85 -12.85 21.0 -15.0 L19.9 -10.15 Q19.4 -7.2 18.25 -4.95 17.1 -2.9 15.1 -2.15 L13.5 -1.75 Q10.4 -1.35 7.9 -2.95 6.1 -4.1 4.5 -4.65 L4.4 -4.7" fill="url(#gradient21)" fill-rule="evenodd" stroke="none"/>
    <path d="M4.4 -4.7 L4.5 -4.65 Q6.1 -4.1 7.9 -2.95 10.4 -1.35 13.5 -1.75 L15.1 -2.15 Q17.1 -2.9 18.25 -4.95 19.4 -7.2 19.9 -10.15 L21.0 -15.0 Q21.85 -12.85 22.35 -10.0 22.9 -6.4 24.25 -5.65 L25.85 -4.45 26.15 -3.6 27.0 -0.95 Q27.7 1.55 27.95 4.25 L28.15 9.95 Q28.2 12.9 27.7 15.8 27.25 18.6 26.0 21.25 L24.75 23.15 24.65 23.3 Q24.35 24.3 19.8 26.75 L16.6 28.8 16.6 28.85 Q14.25 30.6 13.0 32.9 L12.95 32.95 Q12.35 34.15 13.15 34.85 12.1 35.6 10.9 36.15 9.25 36.85 7.35 36.85 L2.2 36.15 Q-0.5 35.25 -2.05 33.2 L-2.2 33.1 -2.4 33.1 -2.55 33.2 -2.6 33.4 -2.2 36.3 -6.55 33.7 Q-8.9 31.9 -10.7 29.75 L-13.8 25.5 Q-15.2 23.05 -16.2 20.45 L-17.85 15.1 Q-18.5 12.4 -18.35 9.5 L-18.35 9.45 -17.95 3.75 -17.15 -1.65 -16.15 -7.0 -15.75 -7.0 -15.7 -2.05 -15.7 -2.0 -15.25 0.8 -14.5 3.65 -13.8 6.15 Q-13.1 7.6 -11.2 8.5 -8.55 9.7 -5.5 9.5 -2.55 9.3 0.0 8.0 2.75 6.55 4.2 3.8 5.55 1.2 5.25 -1.85 5.1 -3.55 4.3 -4.75 L4.4 -4.7 M26.75 -0.9 L25.85 -3.5 25.6 -4.3 Q25.15 -4.75 24.1 -5.4 22.65 -6.15 22.05 -9.95 L21.05 -14.0 Q20.55 -12.05 20.2 -10.1 L20.2 -10.05 Q19.65 -7.1 18.5 -4.8 17.3 -2.7 15.25 -1.85 L15.2 -1.85 13.55 -1.45 Q10.3 -1.0 7.75 -2.7 L5.0 -4.15 5.55 -1.9 Q5.85 1.3 4.45 3.95 2.95 6.75 0.15 8.25 -2.5 9.6 -5.5 9.8 -8.6 10.0 -11.35 8.75 -13.3 7.85 -14.05 6.3 L-14.1 6.25 Q-14.7 4.95 -14.8 3.65 L-15.5 0.85 -16.0 -2.0 -16.05 -5.75 -16.85 -1.55 -17.65 3.75 -17.65 3.8 -18.05 9.5 Q-18.2 12.4 -17.55 15.0 L-17.55 15.05 -15.95 20.35 Q-14.9 22.95 -13.5 25.35 L-10.5 29.6 Q-8.75 31.7 -6.4 33.5 L-6.35 33.5 Q-4.6 34.9 -2.6 35.8 L-2.9 33.4 -2.8 33.05 -2.5 32.8 -2.1 32.8 -1.8 33.0 Q-0.35 35.0 2.3 35.85 L7.35 36.55 Q9.15 36.55 10.75 35.85 L12.65 34.8 Q12.05 34.0 12.7 32.8 L12.7 32.75 Q14.0 30.4 16.4 28.6 17.9 27.4 19.65 26.5 24.05 24.15 24.4 23.2 L24.5 23.0 25.75 21.1 25.7 21.1 Q26.95 18.5 27.4 15.75 27.9 12.9 27.85 9.95 L27.65 4.25 Q27.45 1.65 26.75 -0.85 26.8 -0.9 26.75 -0.9" fill="url(#gradient22)" fill-rule="evenodd" stroke="none"/>
    <path d="M7.1 -1.7 Q10.0 0.2 13.7 -0.25 L15.65 -0.7 15.65 -0.75 Q18.15 -1.7 19.55 -4.2 L19.55 -4.25 Q20.55 -6.15 21.1 -8.5 21.85 -5.1 23.5 -4.35 L24.55 -3.65 24.75 -3.1 25.6 -0.55 26.45 4.35 26.45 4.4 26.65 9.95 26.65 10.0 Q26.7 12.8 26.25 15.55 L26.25 15.6 Q25.8 18.15 24.65 20.55 L23.6 22.2 23.2 22.9 Q22.75 23.45 19.1 25.45 17.25 26.4 15.7 27.65 L15.65 27.65 Q13.1 29.6 11.65 32.2 L11.65 32.25 Q11.05 33.4 11.15 34.35 L10.3 34.75 Q8.9 35.35 7.35 35.35 L2.65 34.7 Q0.45 33.95 -0.85 32.3 -1.2 31.8 -1.75 31.65 -2.35 31.45 -2.9 31.65 -3.5 31.85 -3.8 32.35 -4.15 32.85 -4.1 33.45 L-4.1 33.6 -5.65 32.55 -5.65 32.5 Q-7.85 30.85 -9.55 28.8 L-12.5 24.75 -12.45 24.75 -14.8 19.9 -16.4 14.75 Q-17.0 12.25 -16.85 9.55 L-16.85 9.5 -16.45 3.9 -16.3 2.7 -16.0 3.85 Q-15.85 5.25 -15.2 6.75 L-15.15 6.8 Q-14.25 8.75 -11.85 9.85 -8.85 11.2 -5.4 11.0 -2.15 10.75 0.7 9.3 3.85 7.65 5.5 4.5 7.05 1.6 6.8 -1.85 L7.1 -1.65 7.1 -1.7 M25.3 -0.5 L24.45 -3.0 24.3 -3.45 23.35 -4.1 Q21.9 -4.75 21.1 -7.35 L19.8 -4.1 Q18.35 -1.45 15.8 -0.45 L15.75 -0.45 13.75 0.05 Q10.05 0.5 7.1 -1.3 7.25 1.9 5.75 4.65 4.05 7.85 0.85 9.55 L0.85 9.6 Q-2.05 11.05 -5.4 11.3 -8.9 11.55 -11.95 10.1 -14.45 8.95 -15.4 6.95 L-15.45 6.9 -16.2 4.55 -16.55 9.55 Q-16.7 12.25 -16.1 14.65 L-16.1 14.7 -14.55 19.8 Q-13.55 22.3 -12.2 24.6 L-12.25 24.6 -9.35 28.6 Q-7.7 30.6 -5.5 32.3 L-5.45 32.3 -4.35 33.05 -4.05 32.2 -3.0 31.4 -1.7 31.35 Q-1.05 31.55 -0.6 32.1 0.6 33.7 2.7 34.4 L2.75 34.4 7.35 35.05 10.15 34.5 10.8 34.2 Q10.8 33.25 11.35 32.1 L11.4 32.05 Q12.85 29.4 15.45 27.4 L15.5 27.4 Q17.1 26.15 18.95 25.2 L22.95 22.85 23.35 22.0 24.4 20.45 24.4 20.4 Q25.6 18.05 25.95 15.55 L25.95 15.5 Q26.4 12.8 26.35 10.0 L26.35 9.95 26.15 4.4 26.15 4.35 Q25.95 1.9 25.3 -0.45 25.35 -0.5 25.3 -0.5" fill="url(#gradient23)" fill-rule="evenodd" stroke="none"/>
    <path d="M7.1 -1.7 L7.1 -1.65 6.8 -1.85 Q7.05 1.6 5.5 4.5 3.85 7.65 0.7 9.3 -2.15 10.75 -5.4 11.0 -8.85 11.2 -11.85 9.85 -14.25 8.75 -15.15 6.8 L-15.2 6.75 Q-15.85 5.25 -16.0 3.85 L-16.3 2.7 -16.45 3.9 -16.85 9.5 -16.85 9.55 Q-17.0 12.25 -16.4 14.75 L-14.8 19.9 -12.45 24.75 -12.5 24.75 -9.55 28.8 Q-7.85 30.85 -5.65 32.5 L-5.65 32.55 -4.1 33.6 -4.1 33.45 Q-4.15 32.85 -3.8 32.35 -3.5 31.85 -2.9 31.65 -2.35 31.45 -1.75 31.65 -1.2 31.8 -0.85 32.3 0.45 33.95 2.65 34.7 L7.35 35.35 Q8.9 35.35 10.3 34.75 L11.15 34.35 Q11.05 33.4 11.65 32.25 L11.65 32.2 Q13.1 29.6 15.65 27.65 L15.7 27.65 Q17.25 26.4 19.1 25.45 22.75 23.45 23.2 22.9 L23.6 22.2 24.65 20.55 Q25.8 18.15 26.25 15.6 L26.25 15.55 Q26.7 12.8 26.65 10.0 L26.65 9.95 26.45 4.4 26.45 4.35 25.6 -0.55 24.75 -3.1 24.55 -3.65 23.5 -4.35 Q21.85 -5.1 21.1 -8.5 20.55 -6.15 19.55 -4.25 L19.55 -4.2 Q18.15 -1.7 15.65 -0.75 L15.65 -0.7 13.7 -0.25 Q10.0 0.2 7.1 -1.7 M-16.4 1.1 L-15.7 3.85 Q-15.55 5.2 -14.9 6.65 L-14.9 6.7 Q-14.0 8.55 -11.7 9.6 L-11.7 9.55 Q-8.8 10.9 -5.45 10.7 -2.25 10.45 0.55 9.05 3.6 7.4 5.25 4.35 6.8 1.5 6.45 -2.0 L6.4 -2.45 7.25 -1.9 7.25 -1.95 Q10.1 -0.1 13.65 -0.55 L15.55 -1.0 Q17.95 -1.95 19.3 -4.35 L19.3 -4.4 Q20.55 -6.8 21.1 -9.9 L21.1 -9.95 21.15 -9.8 Q21.85 -5.45 23.65 -4.6 L24.8 -3.8 25.05 -3.2 25.85 -0.65 Q25.9 -0.65 25.85 -0.6 26.55 1.8 26.75 4.3 L26.75 4.35 26.95 9.95 26.95 10.0 Q27.0 12.85 26.55 15.6 L26.55 15.65 Q26.1 18.25 24.9 20.7 L23.8 22.4 23.5 23.0 Q23.1 23.65 19.25 25.7 17.45 26.65 15.85 27.85 L15.85 27.9 Q13.35 29.8 11.95 32.35 L11.9 32.4 Q11.3 33.55 11.5 34.5 L10.4 35.05 Q9.0 35.65 7.35 35.65 L2.55 35.0 Q0.25 34.25 -1.1 32.45 -1.4 32.05 -1.85 31.95 -2.35 31.8 -2.8 31.95 L-3.55 32.55 Q-3.85 32.95 -3.8 33.45 L-3.75 34.15 -5.85 32.75 Q-8.05 31.05 -9.8 29.0 L-12.75 24.9 Q-14.1 22.55 -15.1 20.0 L-16.65 14.85 -16.7 14.8 Q-17.3 12.3 -17.15 9.55 L-17.15 9.5 -16.75 3.85 -16.4 1.1" fill="url(#gradient24)" fill-rule="evenodd" stroke="none"/>
    <path d="M7.4 -2.2 Q10.15 -0.4 13.6 -0.85 L15.45 -1.3 Q17.75 -2.2 19.0 -4.5 L19.05 -4.55 Q20.25 -6.9 20.8 -9.95 L20.8 -10.0 21.1 -11.6 21.45 -9.85 Q22.1 -5.7 23.8 -4.9 L25.05 -4.0 25.3 -3.3 26.15 -0.7 Q26.8 1.7 27.05 4.3 L27.25 9.95 27.25 10.0 Q27.3 12.85 26.85 15.65 L26.85 15.7 Q26.4 18.35 25.2 20.85 L24.05 22.6 23.8 23.05 Q23.4 23.8 19.35 26.0 L16.05 28.1 Q13.55 30.0 12.2 32.45 L12.15 32.5 Q11.55 33.7 11.85 34.6 L10.55 35.3 Q10.55 35.35 10.5 35.3 9.05 35.95 7.35 35.95 L2.5 35.25 2.45 35.25 Q0.05 34.45 -1.3 32.65 L-1.95 32.2 -2.7 32.25 -3.3 32.7 -3.5 33.45 -3.4 34.7 Q-4.75 33.95 -6.0 33.0 -8.25 31.3 -10.0 29.2 L-13.0 25.05 -15.35 20.15 Q-15.4 20.15 -15.35 20.1 -16.45 17.5 -16.95 14.9 -17.6 12.35 -17.45 9.5 L-17.05 3.85 -17.05 3.8 -16.45 -0.6 -16.1 1.0 -15.4 3.75 Q-15.3 5.1 -14.65 6.5 L-14.6 6.55 Q-13.75 8.3 -11.6 9.3 -8.75 10.6 -5.45 10.4 -2.3 10.2 0.4 8.8 L0.4 8.75 Q3.4 7.2 4.95 4.2 6.5 1.4 6.15 -1.95 L6.0 -3.0 7.4 -2.15 7.4 -2.2 M5.25 4.35 Q3.6 7.4 0.55 9.05 -2.25 10.45 -5.45 10.7 -8.8 10.9 -11.7 9.55 L-11.7 9.6 Q-14.0 8.55 -14.9 6.7 L-14.9 6.65 Q-15.55 5.2 -15.7 3.85 L-16.4 1.1 -16.75 3.85 -17.15 9.5 -17.15 9.55 Q-17.3 12.3 -16.7 14.8 L-16.65 14.85 -15.1 20.0 Q-14.1 22.55 -12.75 24.9 L-9.8 29.0 Q-8.05 31.05 -5.85 32.75 L-3.75 34.15 -3.8 33.45 Q-3.85 32.95 -3.55 32.55 L-2.8 31.95 Q-2.35 31.8 -1.85 31.95 -1.4 32.05 -1.1 32.45 0.25 34.25 2.55 35.0 L7.35 35.65 Q9.0 35.65 10.4 35.05 L11.5 34.5 Q11.3 33.55 11.9 32.4 L11.95 32.35 Q13.35 29.8 15.85 27.9 L15.85 27.85 Q17.45 26.65 19.25 25.7 23.1 23.65 23.5 23.0 L23.8 22.4 24.9 20.7 Q26.1 18.25 26.55 15.65 L26.55 15.6 Q27.0 12.85 26.95 10.0 L26.95 9.95 26.75 4.35 26.75 4.3 Q26.55 1.8 25.85 -0.6 25.9 -0.65 25.85 -0.65 L25.05 -3.2 24.8 -3.8 23.65 -4.6 Q21.85 -5.45 21.15 -9.8 L21.1 -9.95 21.1 -9.9 Q20.55 -6.8 19.3 -4.4 L19.3 -4.35 Q17.95 -1.95 15.55 -1.0 L13.65 -0.55 Q10.1 -0.1 7.25 -1.95 L7.25 -1.9 6.4 -2.45 6.45 -2.0 Q6.8 1.5 5.25 4.35" fill="url(#gradient25)" fill-rule="evenodd" stroke="none"/>
    <path d="M2.4 35.55 Q4.8 36.25 7.35 36.25 L10.65 35.6 12.25 34.75 Q11.8 33.9 12.45 32.65 L12.45 32.6 Q13.8 30.2 16.2 28.35 17.75 27.15 19.5 26.25 23.7 24.0 24.1 23.15 24.1 22.95 24.25 22.8 L25.45 20.95 Q26.7 18.4 27.1 15.7 L27.15 15.7 Q27.6 12.9 27.55 10.0 L27.55 9.95 27.35 4.3 Q27.1 1.65 26.45 -0.8 L25.6 -3.4 25.3 -4.15 23.95 -5.15 Q22.4 -5.95 21.75 -9.9 L21.1 -12.85 20.5 -10.05 20.5 -10.0 Q19.95 -7.0 18.75 -4.65 17.5 -2.45 15.35 -1.55 L15.3 -1.55 13.6 -1.15 Q10.3 -0.75 7.6 -2.45 L7.55 -2.45 5.55 -3.55 5.85 -1.95 Q6.2 1.35 4.7 4.1 3.15 6.95 0.3 8.5 -2.4 9.9 -5.5 10.1 -8.7 10.3 -11.45 9.05 -13.55 8.1 -14.35 6.4 L-15.1 3.8 -15.1 3.75 -15.1 3.65 -15.8 0.95 -16.3 -2.0 -16.3 -2.75 -16.55 -1.5 -17.35 3.8 -17.75 9.5 Q-17.9 12.35 -17.25 14.95 -16.7 17.6 -15.65 20.25 -14.65 22.8 -13.25 25.2 -12.1 27.2 -10.25 29.4 L-6.2 33.25 -3.0 35.25 -3.2 33.4 -3.05 32.85 -2.6 32.5 -2.05 32.5 -1.55 32.85 Q-0.2 34.75 2.35 35.55 L2.4 35.55 M7.75 -2.7 Q10.3 -1.0 13.55 -1.45 L15.2 -1.85 15.25 -1.85 Q17.3 -2.7 18.5 -4.8 19.65 -7.1 20.2 -10.05 L20.2 -10.1 Q20.55 -12.05 21.05 -14.0 L22.05 -9.95 Q22.65 -6.15 24.1 -5.4 25.15 -4.75 25.6 -4.3 L25.85 -3.5 26.75 -0.9 Q26.8 -0.9 26.75 -0.85 27.45 1.65 27.65 4.25 L27.85 9.95 Q27.9 12.9 27.4 15.75 26.95 18.5 25.7 21.1 L25.75 21.1 24.5 23.0 24.4 23.2 Q24.05 24.15 19.65 26.5 17.9 27.4 16.4 28.6 14.0 30.4 12.7 32.75 L12.7 32.8 Q12.05 34.0 12.65 34.8 L10.75 35.85 Q9.15 36.55 7.35 36.55 L2.3 35.85 Q-0.35 35.0 -1.8 33.0 L-2.1 32.8 -2.5 32.8 -2.8 33.05 -2.9 33.4 -2.6 35.8 Q-4.6 34.9 -6.35 33.5 L-6.4 33.5 Q-8.75 31.7 -10.5 29.6 L-13.5 25.35 Q-14.9 22.95 -15.95 20.35 L-17.55 15.05 -17.55 15.0 Q-18.2 12.4 -18.05 9.5 L-17.65 3.8 -17.65 3.75 -16.85 -1.55 -16.05 -5.75 -16.0 -2.0 -15.5 0.85 -14.8 3.65 Q-14.7 4.95 -14.1 6.25 L-14.05 6.3 Q-13.3 7.85 -11.35 8.75 -8.6 10.0 -5.5 9.8 -2.5 9.6 0.15 8.25 2.95 6.75 4.45 3.95 5.85 1.3 5.55 -1.9 L5.0 -4.15 7.75 -2.7" fill="url(#gradient26)" fill-rule="evenodd" stroke="none"/>
    <path d="M10.55 35.3 L11.85 34.6 Q11.55 33.7 12.15 32.5 L12.2 32.45 Q13.55 30.0 16.05 28.1 L19.35 26.0 Q23.4 23.8 23.8 23.05 L24.05 22.6 25.2 20.85 Q26.4 18.35 26.85 15.7 L26.85 15.65 Q27.3 12.85 27.25 10.0 L27.25 9.95 27.05 4.3 Q26.8 1.7 26.15 -0.7 L25.3 -3.3 25.05 -4.0 23.8 -4.9 Q22.1 -5.7 21.45 -9.85 L21.1 -11.6 20.8 -10.0 20.8 -9.95 Q20.25 -6.9 19.05 -4.55 L19.0 -4.5 Q17.75 -2.2 15.45 -1.3 L13.6 -0.85 Q10.15 -0.4 7.4 -2.2 L7.4 -2.15 6.0 -3.0 6.15 -1.95 Q6.5 1.4 4.95 4.2 3.4 7.2 0.4 8.75 L0.4 8.8 Q-2.3 10.2 -5.45 10.4 -8.75 10.6 -11.6 9.3 -13.75 8.3 -14.6 6.55 L-14.65 6.5 Q-15.3 5.1 -15.4 3.75 L-16.1 1.0 -16.45 -0.6 -17.05 3.8 -17.05 3.85 -17.45 9.5 Q-17.6 12.35 -16.95 14.9 -16.45 17.5 -15.35 20.1 -15.4 20.15 -15.35 20.15 L-13.0 25.05 -10.0 29.2 Q-8.25 31.3 -6.0 33.0 -4.75 33.95 -3.4 34.7 L-3.5 33.45 -3.3 32.7 -2.7 32.25 -1.95 32.2 -1.3 32.65 Q0.05 34.45 2.45 35.25 L2.5 35.25 7.35 35.95 Q9.05 35.95 10.5 35.3 10.55 35.35 10.55 35.3 M7.6 -2.45 Q10.3 -0.75 13.6 -1.15 L15.3 -1.55 15.35 -1.55 Q17.5 -2.45 18.75 -4.65 19.95 -7.0 20.5 -10.0 L20.5 -10.05 21.1 -12.85 21.75 -9.9 Q22.4 -5.95 23.95 -5.15 L25.3 -4.15 25.6 -3.4 26.45 -0.8 Q27.1 1.65 27.35 4.3 L27.55 9.95 27.55 10.0 Q27.6 12.9 27.15 15.7 L27.1 15.7 Q26.7 18.4 25.45 20.95 L24.25 22.8 Q24.1 22.95 24.1 23.15 23.7 24.0 19.5 26.25 17.75 27.15 16.2 28.35 13.8 30.2 12.45 32.6 L12.45 32.65 Q11.8 33.9 12.25 34.75 L10.65 35.6 7.35 36.25 Q4.8 36.25 2.4 35.55 L2.35 35.55 Q-0.2 34.75 -1.55 32.85 L-2.05 32.5 -2.6 32.5 -3.05 32.85 -3.2 33.4 -3.0 35.25 -6.2 33.25 -10.25 29.4 Q-12.1 27.2 -13.25 25.2 -14.65 22.8 -15.65 20.25 -16.7 17.6 -17.25 14.95 -17.9 12.35 -17.75 9.5 L-17.35 3.8 -16.55 -1.5 -16.3 -2.75 -16.3 -2.0 -15.8 0.95 -15.1 3.65 -15.1 3.75 -15.1 3.8 -14.35 6.4 Q-13.55 8.1 -11.45 9.05 -8.7 10.3 -5.5 10.1 -2.4 9.9 0.3 8.5 3.15 6.95 4.7 4.1 6.2 1.35 5.85 -1.95 L5.55 -3.55 7.55 -2.45 7.6 -2.45" fill="url(#gradient27)" fill-rule="evenodd" stroke="none"/>
    <path d="M25.0 -0.4 L24.2 -2.9 24.05 -3.3 23.2 -3.85 Q21.9 -4.4 21.1 -6.35 L20.1 -4.0 20.05 -3.95 Q18.55 -1.25 15.9 -0.2 L15.85 -0.15 13.8 0.35 13.75 0.35 Q10.25 0.8 7.4 -0.75 7.4 2.2 6.0 4.8 L6.05 4.8 Q4.3 8.1 1.0 9.85 L0.95 9.85 Q-2.0 11.35 -5.35 11.6 L-5.4 11.6 Q-8.95 11.85 -12.1 10.4 -14.7 9.2 -15.7 7.1 L-15.7 7.0 -16.05 6.15 -16.25 9.55 -16.25 9.6 Q-16.4 12.2 -15.8 14.6 L-15.8 14.65 -14.25 19.7 Q-13.3 22.15 -11.95 24.45 L-9.1 28.4 Q-7.45 30.4 -5.3 32.05 L-4.55 32.6 -4.3 32.05 Q-3.85 31.35 -3.1 31.1 L-1.6 31.05 -0.35 31.95 Q0.8 33.45 2.8 34.1 L7.35 34.75 Q8.8 34.75 10.05 34.2 L10.5 34.0 Q10.5 33.05 11.1 32.0 L11.15 31.9 Q12.6 29.2 15.3 27.15 L18.8 24.9 22.65 22.75 Q22.75 22.25 23.1 21.85 L24.1 20.3 Q25.25 17.95 25.65 15.5 L25.65 15.45 Q26.1 12.75 26.05 10.0 L26.05 9.95 25.85 4.45 25.85 4.4 Q25.65 1.95 25.0 -0.35 25.05 -0.4 25.0 -0.4 M15.8 -0.45 Q18.35 -1.45 19.8 -4.1 L21.1 -7.35 Q21.9 -4.75 23.35 -4.1 L24.3 -3.45 24.45 -3.0 25.3 -0.5 Q25.35 -0.5 25.3 -0.45 25.95 1.9 26.15 4.35 L26.15 4.4 26.35 9.95 26.35 10.0 Q26.4 12.8 25.95 15.5 L25.95 15.55 Q25.6 18.05 24.4 20.4 L24.4 20.45 23.35 22.0 22.95 22.85 18.95 25.2 Q17.1 26.15 15.5 27.4 L15.45 27.4 Q12.85 29.4 11.4 32.05 L11.35 32.1 Q10.8 33.25 10.8 34.2 L10.15 34.5 7.35 35.05 2.75 34.4 2.7 34.4 Q0.6 33.7 -0.6 32.1 -1.05 31.55 -1.7 31.35 L-3.0 31.4 -4.05 32.2 -4.35 33.05 -5.45 32.3 -5.5 32.3 Q-7.7 30.6 -9.35 28.6 L-12.25 24.6 -12.2 24.6 Q-13.55 22.3 -14.55 19.8 L-16.1 14.7 -16.1 14.65 Q-16.7 12.25 -16.55 9.55 L-16.2 4.55 -15.45 6.9 -15.4 6.95 Q-14.45 8.95 -11.95 10.1 -8.9 11.55 -5.4 11.3 -2.05 11.05 0.85 9.6 L0.85 9.55 Q4.05 7.85 5.75 4.65 7.25 1.9 7.1 -1.3 10.05 0.5 13.75 0.05 L15.75 -0.45 15.8 -0.45" fill="url(#gradient28)" fill-rule="evenodd" stroke="none"/>
    <path d="M20.1 -4.0 L21.1 -6.35 Q21.9 -4.4 23.2 -3.85 L24.05 -3.3 24.2 -2.9 25.0 -0.4 Q25.05 -0.4 25.0 -0.35 25.65 1.95 25.85 4.4 L25.85 4.45 26.05 9.95 26.05 10.0 Q26.1 12.75 25.65 15.45 L25.65 15.5 Q25.25 17.95 24.1 20.3 L23.1 21.85 Q22.75 22.25 22.65 22.75 L18.8 24.9 15.3 27.15 Q12.6 29.2 11.15 31.9 L11.1 32.0 Q10.5 33.05 10.5 34.0 L10.05 34.2 Q8.8 34.75 7.35 34.75 L2.8 34.1 Q0.8 33.45 -0.35 31.95 L-1.6 31.05 -3.1 31.1 Q-3.85 31.35 -4.3 32.05 L-4.55 32.6 -5.3 32.05 Q-7.45 30.4 -9.1 28.4 L-11.95 24.45 Q-13.3 22.15 -14.25 19.7 L-15.8 14.65 -15.8 14.6 Q-16.4 12.2 -16.25 9.6 L-16.25 9.55 -16.05 6.15 -15.7 7.0 -15.7 7.1 Q-14.7 9.2 -12.1 10.4 -8.95 11.85 -5.4 11.6 L-5.35 11.6 Q-2.0 11.35 0.95 9.85 L1.0 9.85 Q4.3 8.1 6.05 4.8 L6.0 4.8 Q7.4 2.2 7.4 -0.75 10.25 0.8 13.75 0.35 L13.8 0.35 15.85 -0.15 15.9 -0.2 Q18.55 -1.25 20.05 -3.95 L20.1 -4.0 M24.7 -0.3 L23.9 -2.8 23.8 -3.1 23.05 -3.6 Q21.9 -4.05 21.15 -5.55 L20.35 -3.85 20.35 -3.8 Q18.8 -0.95 16.0 0.1 L15.95 0.1 13.8 0.65 Q10.45 1.05 7.7 -0.3 7.65 2.5 6.3 4.9 4.5 8.3 1.1 10.1 -1.9 11.65 -5.35 11.9 -9.0 12.15 -12.2 10.65 -14.8 9.5 -15.85 7.45 L-15.95 9.55 -15.95 9.6 Q-16.1 12.2 -15.5 14.55 L-15.5 14.6 -13.95 19.6 -11.7 24.3 -8.85 28.2 -5.1 31.8 -4.65 32.1 -4.55 31.9 Q-4.05 31.15 -3.2 30.85 L-1.5 30.8 Q-0.65 31.05 -0.1 31.75 1.0 33.2 2.9 33.85 L2.95 33.85 7.35 34.45 9.9 33.95 10.2 33.8 Q10.3 32.9 10.85 31.85 L10.9 31.75 Q12.4 29.0 15.1 26.95 L15.15 26.9 Q16.8 25.65 18.65 24.65 L22.35 22.7 Q22.5 22.1 22.9 21.65 L23.85 20.15 Q24.95 17.85 25.35 15.45 L25.35 15.4 Q25.8 12.75 25.75 10.0 L25.75 9.95 25.55 4.45 25.55 4.4 Q25.35 2.0 24.7 -0.25 24.75 -0.3 24.7 -0.3" fill="url(#gradient29)" fill-rule="evenodd" stroke="none"/>
    <path d="M2.65 -2.95 Q2.5 -3.35 2.65 -3.8 L2.9 -4.15 2.6 -4.5 2.45 -4.7 2.0 -5.5 Q1.75 -5.95 1.9 -6.45 2.0 -6.95 2.45 -7.15 L3.35 -7.25 4.05 -6.75 4.45 -6.3 4.9 -6.1 5.15 -6.0 Q6.85 -5.4 8.7 -4.2 10.75 -2.9 13.3 -3.25 L14.55 -3.55 Q14.6 -3.6 14.6 -3.55 16.1 -4.2 16.9 -5.65 17.95 -7.7 18.45 -10.4 L19.8 -16.2 19.8 -16.25 19.5 -17.2 19.5 -17.25 Q18.85 -19.5 16.8 -20.85 L16.75 -20.85 Q15.1 -22.05 13.1 -22.6 L11.95 -22.9 11.9 -22.9 6.85 -23.6 6.8 -23.6 6.35 -23.6 Q2.75 -23.85 -0.15 -23.7 -10.0 -23.2 -12.3 -18.6 L-12.35 -18.5 -12.45 -18.25 -13.5 -13.1 -13.65 -12.4 Q-14.1 -10.05 -14.2 -7.55 L-14.2 -7.5 -14.2 -7.15 -14.2 -2.1 -14.2 -2.05 -14.0 -0.6 -13.4 -0.55 -13.25 -0.45 Q-12.9 -0.25 -12.7 0.15 L-12.7 0.95 Q-13.15 2.2 -13.0 3.45 L-12.45 5.5 Q-11.95 6.5 -10.6 7.1 -8.25 8.2 -5.6 8.0 -3.0 7.8 -0.7 6.65 1.6 5.4 2.85 3.1 4.0 0.9 3.75 -1.7 L3.7 -2.1 3.35 -2.2 3.25 -2.25 2.65 -2.9 2.65 -2.95 M13.25 -23.0 Q15.3 -22.4 17.0 -21.2 19.2 -19.7 19.9 -17.35 L19.9 -17.3 20.2 -16.25 20.2 -16.15 20.15 -16.05 Q19.35 -13.2 18.85 -10.35 L18.8 -10.3 Q18.35 -7.55 17.25 -5.45 16.4 -3.85 14.75 -3.15 L14.7 -3.15 13.35 -2.85 Q10.65 -2.5 8.5 -3.85 6.65 -5.0 5.05 -5.6 L5.0 -5.65 4.75 -5.75 4.25 -5.9 3.75 -6.5 3.25 -6.9 2.65 -6.8 2.25 -6.3 Q2.15 -6.0 2.35 -5.7 L2.8 -4.9 2.9 -4.75 3.45 -4.05 3.05 -3.65 Q2.9 -3.35 3.05 -3.05 L3.45 -2.6 3.55 -2.55 4.05 -2.5 4.15 -1.75 Q4.45 1.0 3.2 3.3 1.9 5.7 -0.5 7.0 -2.85 8.2 -5.6 8.4 -8.35 8.6 -10.75 7.5 -12.25 6.8 -12.8 5.65 -13.35 4.55 -13.4 3.5 -13.55 2.15 -13.1 0.85 L-13.1 0.3 Q-13.2 0.0 -13.45 -0.15 L-13.55 -0.2 -13.95 -0.25 -14.35 -0.2 -14.6 -2.05 -14.6 -2.1 -14.6 -7.2 -14.6 -7.55 Q-14.5 -10.1 -14.05 -12.45 L-14.05 -12.5 -13.9 -13.15 -12.85 -18.3 -12.7 -18.65 -12.7 -18.7 -12.65 -18.75 Q-10.35 -23.6 -0.15 -24.1 2.75 -24.25 6.35 -24.0 L6.85 -24.0 6.9 -24.0 12.0 -23.3 13.25 -23.0 M-10.4 -4.7 Q-10.65 -4.95 -10.95 -4.95 L-11.5 -4.7 -11.8 -4.4 -12.05 -3.85 -12.05 -3.8 -11.9 -3.35 -11.75 -3.2 -11.5 -3.05 -11.05 -3.05 -10.65 -3.3 -10.35 -3.6 -10.15 -4.15 -10.35 -4.7 -10.4 -4.7 M-12.1 -4.7 L-11.75 -5.0 Q-11.45 -5.35 -10.95 -5.35 -10.45 -5.35 -10.1 -5.0 L-10.05 -4.95 Q-9.75 -4.65 -9.75 -4.15 -9.75 -3.7 -10.05 -3.3 L-10.35 -3.0 Q-10.6 -2.75 -10.95 -2.65 L-11.65 -2.7 -12.0 -2.9 -12.25 -3.15 -12.45 -3.8 -12.45 -3.85 -12.1 -4.7" fill="url(#gradient30)" fill-rule="evenodd" stroke="none"/>
    <path d="M-13.45 -19.0 L-13.4 -19.1 Q-11.0 -24.35 -0.2 -24.9 2.75 -25.05 6.4 -24.8 L6.9 -24.8 12.15 -24.1 13.45 -23.75 Q15.65 -23.15 17.45 -21.85 19.9 -20.15 20.65 -17.55 L21.05 -16.25 20.95 -15.95 20.95 -15.85 Q20.15 -13.0 19.6 -10.2 19.1 -7.3 17.95 -5.1 16.9 -3.15 15.0 -2.4 L13.45 -2.05 Q10.45 -1.65 8.05 -3.2 6.25 -4.35 4.6 -4.95 L4.5 -5.0 3.85 -5.2 3.1 -6.05 3.5 -5.3 Q4.75 -4.0 4.95 -1.85 5.25 1.15 3.9 3.65 2.5 6.3 -0.15 7.7 -2.65 9.0 -5.55 9.2 -8.5 9.4 -11.1 8.2 -12.85 7.4 -13.55 6.0 L-14.2 3.55 Q-14.35 2.05 -13.85 0.55 L-14.95 0.75 -15.4 -2.05 -15.4 -7.3 -15.4 -7.6 Q-15.3 -10.2 -14.85 -12.65 L-14.7 -13.35 -13.6 -18.6 -13.45 -19.0 M17.6 -5.3 Q18.75 -7.5 19.2 -10.25 L20.55 -15.95 20.55 -16.0 20.6 -16.05 20.65 -16.25 20.25 -17.45 20.3 -17.45 Q19.55 -19.9 17.25 -21.5 15.45 -22.75 13.35 -23.4 L12.1 -23.7 6.9 -24.4 6.4 -24.4 Q2.75 -24.65 -0.2 -24.5 -10.65 -23.95 -13.0 -18.9 L-13.05 -18.9 -13.05 -18.85 -13.2 -18.5 -14.3 -13.25 -14.45 -12.55 Q-14.9 -10.15 -15.0 -7.55 L-15.0 -7.25 -15.0 -2.05 -14.6 0.3 -13.9 0.15 -13.7 0.2 -13.65 0.2 -13.45 0.45 -13.45 0.7 Q-13.95 2.1 -13.8 3.5 L-13.15 5.85 Q-12.55 7.15 -10.9 7.85 -8.4 9.0 -5.55 8.8 -2.75 8.6 -0.3 7.35 2.2 6.0 3.55 3.5 L3.55 3.45 Q4.85 1.05 4.55 -1.8 L4.25 -3.2 4.2 -3.05 4.0 -2.9 3.7 -2.95 3.6 -3.0 3.4 -3.2 3.4 -3.5 3.6 -3.7 3.9 -3.7 4.0 -3.7 3.2 -5.05 3.15 -5.1 2.7 -5.9 2.65 -6.05 2.65 -6.2 2.85 -6.45 3.15 -6.5 3.4 -6.3 4.05 -5.55 4.6 -5.35 4.65 -5.35 4.7 -5.3 4.75 -5.3 Q6.45 -4.7 8.3 -3.55 L8.3 -3.5 Q10.55 -2.05 13.4 -2.45 L14.85 -2.8 Q16.6 -3.5 17.6 -5.3 M-11.55 -3.6 L-11.65 -3.8 -11.65 -3.85 -11.5 -4.1 -11.2 -4.4 -10.95 -4.55 -10.65 -4.4 -10.55 -4.15 -10.65 -3.85 -10.95 -3.55 -11.15 -3.4 -11.4 -3.45 -11.5 -3.5 -11.55 -3.6" fill="url(#gradient31)" fill-rule="evenodd" stroke="none"/>
    <path d="M-11.7 5.15 Q-11.3 5.95 -10.25 6.4 -8.1 7.35 -5.65 7.2 -3.2 7.05 -1.05 5.95 1.0 4.8 2.15 2.75 L2.15 2.7 Q3.2 0.8 3.0 -1.5 L2.95 -1.65 2.9 -2.0 3.05 -1.9 3.15 -1.85 3.35 -1.8 3.35 -1.7 Q3.6 0.8 2.5 2.9 1.3 5.1 -0.9 6.3 -3.1 7.4 -5.65 7.6 -8.2 7.8 -10.4 6.75 -11.6 6.2 -12.1 5.3 -12.6 4.35 -12.6 3.4 -12.75 2.25 -12.35 1.1 -12.15 0.55 -12.35 0.0 L-13.05 -0.8 -13.2 -0.9 -13.65 -1.05 -13.8 -2.1 -13.8 -7.1 -13.8 -7.5 -13.8 -7.55 Q-13.7 -10.0 -13.25 -12.3 L-13.25 -12.35 -13.1 -13.0 -12.05 -18.2 -12.0 -18.3 -11.95 -18.35 -11.95 -18.4 Q-9.7 -22.8 -0.15 -23.3 2.75 -23.45 6.3 -23.2 L6.8 -23.2 6.85 -23.2 11.85 -22.5 13.0 -22.25 Q14.9 -21.7 16.55 -20.55 L16.55 -20.5 Q18.5 -19.2 19.1 -17.15 L19.35 -16.25 Q18.55 -13.35 18.05 -10.5 L18.05 -10.45 Q17.55 -7.85 16.55 -5.85 15.8 -4.45 14.45 -3.9 L13.25 -3.6 Q10.85 -3.3 8.95 -4.55 L8.9 -4.55 Q7.0 -5.75 5.25 -6.4 L5.05 -6.5 4.6 -6.65 4.4 -6.95 3.45 -7.65 2.25 -7.5 Q1.65 -7.2 1.5 -6.55 1.3 -5.9 1.65 -5.35 L2.1 -4.55 2.3 -4.2 2.4 -4.15 2.3 -3.95 2.2 -3.7 2.05 -3.95 1.95 -4.05 1.75 -4.35 1.3 -5.15 Q0.9 -5.85 1.1 -6.65 1.3 -7.45 2.05 -7.85 L3.55 -8.05 4.75 -7.15 4.85 -7.0 5.15 -6.85 5.2 -6.85 5.4 -6.75 Q7.15 -6.1 9.15 -4.9 L9.15 -4.85 Q10.95 -3.75 13.2 -4.0 L14.3 -4.3 14.3 -4.25 Q15.5 -4.8 16.2 -6.05 17.25 -8.05 17.65 -10.55 18.15 -13.35 18.95 -16.2 L18.75 -17.0 18.7 -17.05 Q18.1 -18.95 16.3 -20.2 14.75 -21.3 12.9 -21.85 L11.75 -22.15 11.8 -22.1 6.85 -22.8 6.75 -22.8 6.3 -22.8 Q2.75 -23.05 -0.1 -22.9 -9.35 -22.45 -11.55 -18.25 L-11.7 -18.0 -11.7 -17.9 -12.75 -12.95 -12.75 -12.9 -12.9 -12.2 -12.85 -12.25 -13.4 -7.5 -13.45 -7.05 -13.4 -7.2 -13.4 -2.15 -13.4 -2.1 -13.3 -1.35 -13.05 -1.25 -12.85 -1.15 Q-12.25 -0.8 -11.95 -0.1 -11.75 0.55 -11.95 1.25 -12.35 2.3 -12.2 3.35 -12.2 4.25 -11.75 5.1 L-11.7 5.15 M-12.65 -5.25 L-12.35 -5.55 Q-11.75 -6.15 -10.95 -6.15 -10.15 -6.15 -9.55 -5.55 L-9.45 -5.45 Q-8.95 -4.95 -8.95 -4.15 -8.95 -3.35 -9.5 -2.75 L-9.75 -2.5 -10.75 -1.85 -11.95 -1.95 -12.45 -2.25 -12.9 -2.7 Q-13.25 -3.2 -13.25 -3.8 L-13.25 -3.85 Q-13.25 -4.65 -12.65 -5.25 M-12.4 -4.95 Q-12.85 -4.5 -12.85 -3.85 L-12.85 -3.8 -12.55 -2.9 -12.25 -2.55 -11.8 -2.3 -10.85 -2.25 -10.05 -2.75 -9.8 -3.05 Q-9.35 -3.5 -9.35 -4.15 -9.35 -4.8 -9.75 -5.2 L-9.8 -5.25 Q-10.3 -5.75 -10.95 -5.75 L-12.05 -5.3 -12.4 -4.95" fill="url(#gradient32)" fill-rule="evenodd" stroke="none"/>
    <path d="M14.55 -3.55 L13.3 -3.25 Q10.75 -2.9 8.7 -4.2 6.85 -5.4 5.15 -6.0 L4.9 -6.1 4.45 -6.3 4.05 -6.75 3.35 -7.25 2.45 -7.15 Q2.0 -6.95 1.9 -6.45 1.75 -5.95 2.0 -5.5 L2.45 -4.7 2.6 -4.5 2.9 -4.15 2.65 -3.8 Q2.5 -3.35 2.65 -2.95 L2.2 -3.7 2.3 -3.95 2.4 -4.15 2.3 -4.2 2.1 -4.55 1.65 -5.35 Q1.3 -5.9 1.5 -6.55 1.65 -7.2 2.25 -7.5 L3.45 -7.65 4.4 -6.95 4.6 -6.65 5.05 -6.5 5.25 -6.4 Q7.0 -5.75 8.9 -4.55 L8.95 -4.55 Q10.85 -3.3 13.25 -3.6 L14.45 -3.9 Q15.8 -4.45 16.55 -5.85 17.55 -7.85 18.05 -10.45 L18.05 -10.5 Q18.55 -13.35 19.35 -16.25 L19.1 -17.15 Q18.5 -19.2 16.55 -20.5 L16.55 -20.55 Q14.9 -21.7 13.0 -22.25 L11.85 -22.5 6.85 -23.2 6.8 -23.2 6.3 -23.2 Q2.75 -23.45 -0.15 -23.3 -9.7 -22.8 -11.95 -18.4 L-11.95 -18.35 -12.0 -18.3 -12.05 -18.2 -13.1 -13.0 -13.25 -12.35 -13.25 -12.3 Q-13.7 -10.0 -13.8 -7.55 L-13.8 -7.5 -13.8 -7.1 -13.8 -2.1 -13.65 -1.05 -13.2 -0.9 -13.05 -0.8 -12.35 0.0 Q-12.15 0.55 -12.35 1.1 -12.75 2.25 -12.6 3.4 -12.6 4.35 -12.1 5.3 -11.6 6.2 -10.4 6.75 -8.2 7.8 -5.65 7.6 -3.1 7.4 -0.9 6.3 1.3 5.1 2.5 2.9 3.6 0.8 3.35 -1.7 L3.35 -1.8 3.15 -1.85 3.05 -1.9 2.9 -2.0 2.65 -2.9 3.25 -2.25 3.35 -2.2 3.7 -2.1 3.75 -1.7 Q4.0 0.9 2.85 3.1 1.6 5.4 -0.7 6.65 -3.0 7.8 -5.6 8.0 -8.25 8.2 -10.6 7.1 -11.95 6.5 -12.45 5.5 L-13.0 3.45 Q-13.15 2.2 -12.7 0.95 L-12.7 0.15 Q-12.9 -0.25 -13.25 -0.45 L-13.4 -0.55 -14.0 -0.6 -14.2 -2.05 -14.2 -2.1 -14.2 -7.15 -14.2 -7.5 -14.2 -7.55 Q-14.1 -10.05 -13.65 -12.4 L-13.5 -13.1 -12.45 -18.25 -12.35 -18.5 -12.3 -18.6 Q-10.0 -23.2 -0.15 -23.7 2.75 -23.85 6.35 -23.6 L6.8 -23.6 6.85 -23.6 11.9 -22.9 11.95 -22.9 13.1 -22.6 Q15.1 -22.05 16.75 -20.85 L16.8 -20.85 Q18.85 -19.5 19.5 -17.25 L19.5 -17.2 19.8 -16.25 19.8 -16.2 18.45 -10.4 Q17.95 -7.7 16.9 -5.65 16.1 -4.2 14.6 -3.55 14.6 -3.6 14.55 -3.55 M-12.1 -4.7 L-12.45 -3.85 -12.45 -3.8 -12.25 -3.15 -12.0 -2.9 -11.65 -2.7 -10.95 -2.65 Q-10.6 -2.75 -10.35 -3.0 L-10.05 -3.3 Q-9.75 -3.7 -9.75 -4.15 -9.75 -4.65 -10.05 -4.95 L-10.1 -5.0 Q-10.45 -5.35 -10.95 -5.35 -11.45 -5.35 -11.75 -5.0 L-12.1 -4.7 M-12.4 -4.95 L-12.05 -5.3 -10.95 -5.75 Q-10.3 -5.75 -9.8 -5.25 L-9.75 -5.2 Q-9.35 -4.8 -9.35 -4.15 -9.35 -3.5 -9.8 -3.05 L-10.05 -2.75 -10.85 -2.25 -11.8 -2.3 -12.25 -2.55 -12.55 -2.9 -12.85 -3.8 -12.85 -3.85 Q-12.85 -4.5 -12.4 -4.95" fill="url(#gradient33)" fill-rule="evenodd" stroke="none"/>
    <path d="M19.9 -17.35 Q19.2 -19.7 17.0 -21.2 15.3 -22.4 13.25 -23.0 L12.0 -23.3 6.9 -24.0 6.85 -24.0 6.35 -24.0 Q2.75 -24.25 -0.15 -24.1 -10.35 -23.6 -12.65 -18.75 L-12.7 -18.7 -12.7 -18.65 -12.85 -18.3 -13.9 -13.15 -14.05 -12.5 -14.05 -12.45 Q-14.5 -10.1 -14.6 -7.55 L-14.6 -7.2 -14.6 -2.1 -14.6 -2.05 -14.35 -0.2 -13.95 -0.25 -13.55 -0.2 -13.45 -0.15 Q-13.2 0.0 -13.1 0.3 L-13.1 0.85 Q-13.55 2.15 -13.4 3.5 -13.35 4.55 -12.8 5.65 -12.25 6.8 -10.75 7.5 -8.35 8.6 -5.6 8.4 -2.85 8.2 -0.5 7.0 1.9 5.7 3.2 3.3 4.45 1.0 4.15 -1.75 L4.05 -2.5 3.55 -2.55 3.45 -2.6 3.05 -3.05 Q2.9 -3.35 3.05 -3.65 L3.45 -4.05 2.9 -4.75 2.8 -4.9 2.35 -5.7 Q2.15 -6.0 2.25 -6.3 L2.65 -6.8 3.25 -6.9 3.75 -6.5 4.25 -5.9 4.75 -5.75 5.0 -5.65 5.05 -5.6 Q6.65 -5.0 8.5 -3.85 10.65 -2.5 13.35 -2.85 L14.7 -3.15 14.75 -3.15 Q16.4 -3.85 17.25 -5.45 18.35 -7.55 18.8 -10.3 L18.85 -10.35 Q19.35 -13.2 20.15 -16.05 L20.2 -16.15 20.2 -16.25 19.9 -17.3 19.9 -17.35 M13.35 -23.4 Q15.45 -22.75 17.25 -21.5 19.55 -19.9 20.3 -17.45 L20.25 -17.45 20.65 -16.25 20.6 -16.05 20.55 -16.0 20.55 -15.95 19.2 -10.25 Q18.75 -7.5 17.6 -5.3 16.6 -3.5 14.85 -2.8 L13.4 -2.45 Q10.55 -2.05 8.3 -3.5 L8.3 -3.55 Q6.45 -4.7 4.75 -5.3 L4.7 -5.3 4.65 -5.35 4.6 -5.35 4.05 -5.55 3.4 -6.3 3.15 -6.5 2.85 -6.45 2.65 -6.2 2.65 -6.05 2.7 -5.9 3.15 -5.1 3.2 -5.05 4.0 -3.7 3.9 -3.7 3.6 -3.7 3.4 -3.5 3.4 -3.2 3.6 -3.0 3.7 -2.95 4.0 -2.9 4.2 -3.05 4.25 -3.2 4.55 -1.8 Q4.85 1.05 3.55 3.45 L3.55 3.5 Q2.2 6.0 -0.3 7.35 -2.75 8.6 -5.55 8.8 -8.4 9.0 -10.9 7.85 -12.55 7.15 -13.15 5.85 L-13.8 3.5 Q-13.95 2.1 -13.45 0.7 L-13.45 0.45 -13.65 0.2 -13.7 0.2 -13.9 0.15 -14.6 0.3 -15.0 -2.05 -15.0 -7.25 -15.0 -7.55 Q-14.9 -10.15 -14.45 -12.55 L-14.3 -13.25 -13.2 -18.5 -13.05 -18.85 -13.05 -18.9 -13.0 -18.9 Q-10.65 -23.95 -0.2 -24.5 2.75 -24.65 6.4 -24.4 L6.9 -24.4 12.1 -23.7 13.35 -23.4 M-10.4 -4.7 L-10.35 -4.7 -10.15 -4.15 -10.35 -3.6 -10.65 -3.3 -11.05 -3.05 -11.5 -3.05 -11.75 -3.2 -11.9 -3.35 -12.05 -3.8 -12.05 -3.85 -11.8 -4.4 -11.5 -4.7 -10.95 -4.95 Q-10.65 -4.95 -10.4 -4.7 M-11.55 -3.6 L-11.5 -3.5 -11.4 -3.45 -11.15 -3.4 -10.95 -3.55 -10.65 -3.85 -10.55 -4.15 -10.65 -4.4 -10.95 -4.55 -11.2 -4.4 -11.5 -4.1 -11.65 -3.85 -11.65 -3.8 -11.55 -3.6" fill="url(#gradient34)" fill-rule="evenodd" stroke="none"/>
    <path d="M25.05 -6.95 L26.75 -5.7 26.95 -5.6 Q28.7 -4.8 30.5 -6.05 32.4 -7.4 32.65 -9.85 32.9 -12.7 32.1 -15.1 L32.05 -15.1 Q31.35 -17.25 29.25 -18.3 28.05 -18.95 26.85 -19.0 L24.75 -18.55 Q23.6 -18.1 22.9 -17.2 L22.3 -16.15 22.25 -16.0 22.3 -15.95 Q23.25 -13.55 23.8 -10.25 24.25 -7.6 25.05 -6.95 M29.45 -18.7 L29.45 -18.65 Q31.7 -17.55 32.45 -15.25 33.3 -12.75 33.05 -9.8 32.8 -7.15 30.7 -5.7 28.7 -4.35 26.75 -5.25 L26.55 -5.35 24.8 -6.6 Q23.9 -7.25 23.45 -10.2 22.85 -13.45 21.85 -15.85 L21.9 -16.2 22.55 -17.45 Q23.3 -18.35 24.6 -18.9 L26.85 -19.4 Q28.15 -19.35 29.45 -18.7" fill="url(#gradient35)" fill-rule="evenodd" stroke="none"/>
    <path d="M32.1 -15.1 Q32.9 -12.7 32.65 -9.85 32.4 -7.4 30.5 -6.05 28.7 -4.8 26.95 -5.6 L26.75 -5.7 25.05 -6.95 Q24.25 -7.6 23.8 -10.25 23.25 -13.55 22.3 -15.95 L22.25 -16.0 22.3 -16.15 22.9 -17.2 Q23.6 -18.1 24.75 -18.55 L26.85 -19.0 Q28.05 -18.95 29.25 -18.3 31.35 -17.25 32.05 -15.1 L32.1 -15.1 M31.7 -14.95 L31.7 -15.0 Q31.0 -17.0 29.1 -17.95 27.95 -18.55 26.85 -18.6 L24.9 -18.15 Q23.8 -17.7 23.2 -16.95 L22.7 -16.15 22.65 -16.0 22.7 -15.9 Q23.65 -13.5 24.2 -10.3 24.6 -7.9 25.25 -7.3 L27.0 -6.0 27.1 -5.95 Q28.65 -5.25 30.25 -6.35 32.05 -7.6 32.25 -9.85 L32.25 -9.9 Q32.45 -12.65 31.7 -14.95" fill="url(#gradient36)" fill-rule="evenodd" stroke="none"/>
    <path d="M31.7 -14.95 Q32.45 -12.65 32.25 -9.9 L32.25 -9.85 Q32.05 -7.6 30.25 -6.35 28.65 -5.25 27.1 -5.95 L27.0 -6.0 25.25 -7.3 Q24.6 -7.9 24.2 -10.3 23.65 -13.5 22.7 -15.9 L22.65 -16.0 22.7 -16.15 23.2 -16.95 Q23.8 -17.7 24.9 -18.15 L26.85 -18.6 Q27.95 -18.55 29.1 -17.95 31.0 -17.0 31.7 -15.0 L31.7 -14.95 M25.05 -17.8 Q24.05 -17.4 23.5 -16.7 L23.1 -16.0 Q24.05 -13.6 24.6 -10.4 24.95 -8.2 25.45 -7.65 L27.2 -6.4 27.3 -6.35 Q28.65 -5.75 30.05 -6.7 31.65 -7.8 31.85 -9.9 L31.85 -9.95 Q32.05 -12.6 31.3 -14.85 30.7 -16.7 28.9 -17.6 27.85 -18.15 26.85 -18.2 L26.8 -18.2 Q25.9 -18.2 25.05 -17.8" fill="url(#gradient37)" fill-rule="evenodd" stroke="none"/>
    <path d="M21.05 -16.25 Q21.35 -17.2 21.95 -17.95 22.8 -19.0 24.25 -19.65 25.55 -20.2 26.85 -20.2 28.3 -20.15 29.8 -19.4 32.35 -18.1 33.2 -15.5 34.1 -12.85 33.85 -9.75 33.55 -6.7 31.15 -5.05 28.75 -3.4 26.4 -4.55 L26.1 -4.65 24.4 -5.9 Q23.2 -6.65 22.65 -10.05 22.05 -13.45 21.0 -15.85 L21.05 -16.25 M29.65 -19.05 Q28.25 -19.75 26.85 -19.8 25.6 -19.8 24.4 -19.25 23.05 -18.7 22.25 -17.7 L21.45 -16.2 21.45 -15.9 Q22.45 -13.5 23.05 -10.15 23.55 -7.0 24.6 -6.25 L26.3 -5.0 26.4 -4.95 26.6 -4.9 Q28.75 -3.85 30.95 -5.35 33.15 -6.9 33.45 -9.75 L33.45 -9.8 Q33.7 -12.8 32.85 -15.35 32.0 -17.8 29.65 -19.05" fill="url(#gradient38)" fill-rule="evenodd" stroke="none"/>
    <path d="M29.45 -18.7 Q28.15 -19.35 26.85 -19.4 L24.6 -18.9 Q23.3 -18.35 22.55 -17.45 L21.9 -16.2 21.85 -15.85 Q22.85 -13.45 23.45 -10.2 23.9 -7.25 24.8 -6.6 L26.55 -5.35 26.75 -5.25 Q28.7 -4.35 30.7 -5.7 32.8 -7.15 33.05 -9.8 33.3 -12.75 32.45 -15.25 31.7 -17.55 29.45 -18.65 L29.45 -18.7 M29.65 -19.05 Q32.0 -17.8 32.85 -15.35 33.7 -12.8 33.45 -9.8 L33.45 -9.75 Q33.15 -6.9 30.95 -5.35 28.75 -3.85 26.6 -4.9 L26.4 -4.95 26.3 -5.0 24.6 -6.25 Q23.55 -7.0 23.05 -10.15 22.45 -13.5 21.45 -15.9 L21.45 -16.2 22.25 -17.7 Q23.05 -18.7 24.4 -19.25 25.6 -19.8 26.85 -19.8 28.25 -19.75 29.65 -19.05" fill="url(#gradient39)" fill-rule="evenodd" stroke="none"/>
    <path d="M21.05 -16.25 Q21.35 -17.2 21.95 -17.95 22.8 -19.0 24.25 -19.65 25.55 -20.2 26.85 -20.2 28.3 -20.15 29.8 -19.4 32.35 -18.1 33.2 -15.5 34.1 -12.85 33.85 -9.75 33.55 -6.7 31.15 -5.05 28.75 -3.4 26.4 -4.55 L26.1 -4.65 M20.95 -15.95 L21.05 -16.25 21.0 -15.85" fill="none" stroke="#cc6633" stroke-linecap="round" stroke-linejoin="round" stroke-width="1.0"/>
    <path d="M26.85 -20.2 Q26.6 -23.1 25.0 -25.5 L23.45 -27.55 21.2 -29.95 Q19.35 -31.75 16.9 -32.85 L11.6 -34.95 6.0 -36.2 0.35 -36.9 -5.4 -37.15 -7.2 -37.1 Q-5.15 -35.9 -4.35 -33.6 L-9.65 -33.8 -15.25 -33.2 Q-18.15 -32.55 -20.8 -31.2 L-25.45 -28.35 -29.55 -24.85 Q-31.45 -22.9 -32.65 -20.4 -33.5 -18.6 -33.9 -16.6 -32.25 -18.45 -29.9 -19.7 -27.6 -20.85 -25.05 -21.05 -25.9 -20.7 -26.35 -19.7 L-21.95 -20.8 -18.2 -21.05 Q-20.55 -19.4 -22.3 -16.95 -23.5 -15.25 -23.6 -13.15 -22.8 -14.55 -21.4 -15.8 L-19.7 -17.2 Q-17.8 -18.55 -15.55 -18.95 L-13.45 -19.0 -13.4 -19.1 Q-11.0 -24.35 -0.2 -24.9 2.75 -25.05 6.4 -24.8 L6.9 -24.8 12.15 -24.1 13.45 -23.75 Q15.65 -23.15 17.45 -21.85 19.9 -20.15 20.65 -17.55 L21.05 -16.25 M24.95 23.35 Q24.65 24.5 19.95 27.05 L16.75 29.05 Q14.5 30.8 13.25 33.05 12.6 34.25 13.6 34.85 L11.0 36.4 Q9.3 37.15 7.35 37.15 4.6 37.15 2.1 36.4 -0.7 35.5 -2.3 33.35 L-1.8 36.8 -6.75 33.95 Q-9.1 32.15 -10.95 29.95 -12.85 27.7 -14.05 25.65 -15.45 23.2 -16.5 20.55 L-18.15 15.15 Q-18.8 12.45 -18.65 9.45 L-18.25 3.7 -17.45 -1.7 -16.4 -7.3 -16.3 -7.85 Q-15.8 -10.35 -14.85 -12.65 L-14.7 -13.35 -13.6 -18.6 -13.45 -19.0 M3.85 -5.2 L4.5 -5.0 4.6 -4.95 Q6.25 -4.35 8.05 -3.2 10.45 -1.65 13.45 -2.05 L15.0 -2.4 Q16.9 -3.15 17.95 -5.1 19.1 -7.3 19.6 -10.2 20.15 -13.0 20.95 -15.85 L20.95 -15.95 21.0 -15.85 Q22.05 -13.45 22.65 -10.05 23.2 -6.65 24.4 -5.9 L26.1 -4.65 M3.85 -5.2 L3.5 -5.3 M-14.2 3.55 L-14.95 0.75 -15.4 -2.05 -15.4 -7.3 -16.4 -7.3 M-15.4 -7.3 L-15.4 -7.6 Q-15.3 -10.2 -14.85 -12.65" fill="none" stroke="#666666" stroke-linecap="round" stroke-linejoin="round" stroke-width="1.0"/>
    <path d="M26.1 -4.65 L26.45 -3.7 27.3 -1.05 Q28.0 1.5 28.25 4.2 L28.45 9.95 Q28.5 12.95 28.0 15.85 27.55 18.7 26.25 21.35 L24.95 23.35" fill="none" stroke="#666666" stroke-linecap="round" stroke-linejoin="round" stroke-width="1.25"/>
    <path d="M23.6 -16.25 Q25.25 -18.85 28.5 -18.4 29.85 -18.2 30.85 -17.1 26.95 -16.95 24.7 -13.6 23.8 -15.0 23.6 -16.25 M-8.9 5.5 L-9.2 5.45 Q-11.55 4.75 -11.1 2.15 L-11.1 2.1 Q-10.85 0.55 -10.15 -0.55 L-9.9 2.6 Q-9.75 4.3 -8.9 5.5" fill="#ffe1c4" fill-rule="evenodd" stroke="none"/>
    <path d="M6.9 -9.2 Q6.9 -7.45 6.2 -6.25 5.55 -5.0 4.6 -4.95 L4.5 -5.0 3.85 -5.2 Q3.4 -5.5 3.05 -6.1 L2.95 -6.25 Q2.3 -7.45 2.3 -9.2 2.3 -10.95 2.95 -12.2 3.65 -13.4 4.6 -13.4 5.55 -13.4 6.2 -12.2 6.9 -10.95 6.9 -9.2 M-11.2 -30.95 L-16.25 -29.75 -20.25 -28.2 -20.3 -28.2 -21.2 -27.8 Q-18.95 -29.3 -16.35 -30.25 -14.5 -30.9 -12.55 -30.95 L-11.2 -30.95 M-21.4 -27.7 L-21.6 -27.5 -21.6 -27.55 -21.4 -27.7 M-10.95 -4.15 L-11.25 -3.85 Q-10.95 -4.5 -11.0 -4.7 -11.3 -5.55 -11.25 -6.6 -11.3 -8.2 -10.7 -9.3 -10.05 -10.35 -9.2 -10.35 -8.4 -10.35 -7.8 -9.3 -7.4 -8.6 -7.15 -7.2 -7.7 -7.3 -7.4 -6.75 -8.9 -6.2 -10.95 -4.15 M-14.6 17.9 L-14.7 18.6 Q-15.6 16.9 -15.9 15.0 L-15.9 14.95 -16.25 11.3 -15.4 14.6 -15.4 14.65 Q-14.85 16.2 -13.8 17.35 L-14.05 17.4 -14.6 17.9" fill="#ffffff" fill-rule="evenodd" stroke="none"/>
    <path d="M20.3 -28.4 L22.75 -26.85 24.2 -24.95 Q25.35 -23.2 25.75 -21.1 L23.85 -20.55 Q22.25 -19.9 21.3 -18.75 20.35 -21.05 18.05 -22.65 L17.3 -23.15 17.75 -23.05 18.35 -23.2 18.7 -23.7 18.7 -24.35 18.2 -25.7 19.05 -24.9 Q19.3 -24.75 19.6 -24.7 L20.2 -24.8 20.6 -25.25 20.7 -25.8 Q20.5 -27.35 19.9 -28.6 L20.3 -28.35 20.3 -28.4 M16.35 -23.8 L17.15 -23.25 14.25 -24.55 14.05 -24.95 16.3 -23.85 16.35 -23.8 M18.85 -4.6 Q20.05 -6.95 20.6 -10.0 L21.1 -12.45 21.65 -9.9 Q22.3 -5.85 23.9 -5.05 L25.25 -4.1 25.5 -3.35 26.35 -0.75 Q27.0 1.7 27.25 4.3 L27.45 9.95 27.45 10.0 Q27.5 12.85 27.05 15.7 L27.0 15.7 Q26.6 18.4 25.35 20.9 L24.2 22.7 24.0 23.1 Q23.6 23.95 19.45 26.15 17.95 26.95 16.6 27.95 L14.8 27.7 14.2 27.75 Q16.25 26.5 17.95 24.8 L18.0 24.75 Q20.85 21.9 20.45 18.1 L20.25 17.6 19.75 17.25 19.2 17.25 Q17.9 17.6 16.95 18.4 17.9 16.8 19.15 15.5 21.3 13.15 22.15 10.0 22.2 10.0 22.15 9.95 23.0 6.9 22.3 3.75 21.75 1.6 20.45 0.05 19.2 -1.45 17.15 -2.55 18.15 -3.35 18.85 -4.6" fill="#7c7c7c" fill-rule="evenodd" stroke="none"/>
    <path d="M21.15 -17.7 L21.55 -18.25 Q22.45 -19.4 24.05 -20.1 25.15 -20.6 26.3 -20.65 25.95 -23.15 24.6 -25.2 L23.15 -27.15 20.55 -28.8 18.5 -29.95 Q19.9 -28.15 20.2 -25.75 L20.15 -25.45 19.95 -25.25 19.65 -25.2 19.4 -25.3 18.15 -26.4 18.1 -26.4 16.3 -27.85 Q17.55 -26.3 18.25 -24.2 L18.25 -23.9 18.05 -23.65 17.75 -23.55 17.45 -23.65 16.55 -24.25 12.55 -26.15 Q13.4 -25.4 13.85 -24.15 15.95 -23.5 17.75 -22.25 20.35 -20.45 21.15 -17.7 M23.45 -27.55 L25.0 -25.5 Q26.6 -23.1 26.85 -20.2 25.55 -20.2 24.25 -19.65 22.8 -19.0 21.95 -17.95 21.35 -17.2 21.05 -16.25 L20.65 -17.55 Q19.9 -20.15 17.45 -21.85 15.65 -23.15 13.45 -23.75 12.8 -25.85 10.8 -26.6 L11.0 -27.2 Q14.0 -26.25 16.8 -24.7 L17.75 -24.05 Q16.6 -27.7 13.45 -29.75 L13.6 -30.05 Q16.25 -28.75 18.45 -26.8 L19.7 -25.7 Q19.2 -29.4 15.95 -31.55 18.15 -30.8 20.8 -29.25 L23.45 -27.55 M10.25 30.15 Q11.45 28.65 13.15 28.4 L14.85 28.2 16.7 28.5 Q18.1 27.45 19.7 26.6 24.15 24.2 24.5 23.25 L24.6 23.05 25.8 21.15 Q27.05 18.55 27.5 15.8 28.0 12.9 27.95 9.95 L27.75 4.25 Q27.5 1.6 26.85 -0.9 L25.95 -3.55 25.65 -4.35 24.15 -5.5 Q22.75 -6.25 22.15 -10.0 21.7 -12.45 21.05 -14.35 L20.1 -10.1 Q19.6 -7.15 18.4 -4.85 17.55 -3.3 16.2 -2.45 18.65 -1.3 20.1 0.4 21.3 1.8 21.8 3.85 22.45 6.85 21.65 9.85 20.85 12.85 18.8 15.15 16.9 17.15 15.65 19.65 L14.85 21.35 16.4 19.65 Q17.6 18.2 19.35 17.75 L19.6 17.75 19.85 17.9 19.95 18.15 Q20.35 21.75 17.6 24.4 14.65 27.45 10.55 28.95 8.7 29.55 8.5 31.45 8.4 32.35 8.65 33.15 9.1 31.5 10.25 30.15 M19.6 -10.2 L20.95 -15.95 21.0 -15.85 Q22.05 -13.45 22.65 -10.05 23.2 -6.65 24.4 -5.9 L26.1 -4.65 26.45 -3.7 27.3 -1.05 Q28.0 1.5 28.25 4.2 L28.45 9.95 Q28.5 12.95 28.0 15.85 27.55 18.7 26.25 21.35 L24.95 23.35 Q24.65 24.5 19.95 27.05 L16.75 29.05 14.85 28.7 13.2 28.9 Q11.65 29.15 10.6 30.45 9.05 32.35 8.85 34.65 7.8 33.35 8.0 31.4 8.25 29.2 10.35 28.45 14.35 27.0 17.25 24.05 19.8 21.55 19.45 18.2 17.85 18.65 16.75 19.95 L13.75 23.05 Q14.25 21.15 15.2 19.4 16.5 16.85 18.4 14.8 20.4 12.6 21.15 9.7 21.95 6.85 21.3 3.95 20.85 2.05 19.7 0.7 18.05 -1.2 15.0 -2.4 16.9 -3.15 17.95 -5.1 19.1 -7.3 19.6 -10.2" fill="#7c7c7c" fill-opacity="0.32941177" fill-rule="evenodd" stroke="none"/>
    <path d="M23.15 -27.15 L24.6 -25.2 Q25.95 -23.15 26.3 -20.65 25.15 -20.6 24.05 -20.1 22.45 -19.4 21.55 -18.25 L21.15 -17.7 Q20.35 -20.45 17.75 -22.25 15.95 -23.5 13.85 -24.15 13.4 -25.4 12.55 -26.15 L16.55 -24.25 17.45 -23.65 17.75 -23.55 18.05 -23.65 18.25 -23.9 18.25 -24.2 Q17.55 -26.3 16.3 -27.85 L18.1 -26.4 18.15 -26.4 19.4 -25.3 19.65 -25.2 19.95 -25.25 20.15 -25.45 20.2 -25.75 Q19.9 -28.15 18.5 -29.95 L20.55 -28.8 23.15 -27.15 M20.3 -28.4 L20.3 -28.35 19.9 -28.6 Q20.5 -27.35 20.7 -25.8 L20.6 -25.25 20.2 -24.8 19.6 -24.7 Q19.3 -24.75 19.05 -24.9 L18.2 -25.7 18.7 -24.35 18.7 -23.7 18.35 -23.2 17.75 -23.05 17.3 -23.15 18.05 -22.65 Q20.35 -21.05 21.3 -18.75 22.25 -19.9 23.85 -20.55 L25.75 -21.1 Q25.35 -23.2 24.2 -24.95 L22.75 -26.85 20.3 -28.4 M16.35 -23.8 L16.3 -23.85 14.05 -24.95 14.25 -24.55 17.15 -23.25 16.35 -23.8 M18.4 -4.85 Q19.6 -7.15 20.1 -10.1 L21.05 -14.35 Q21.7 -12.45 22.15 -10.0 22.75 -6.25 24.15 -5.5 L25.65 -4.35 25.95 -3.55 26.85 -0.9 Q27.5 1.6 27.75 4.25 L27.95 9.95 Q28.0 12.9 27.5 15.8 27.05 18.55 25.8 21.15 L24.6 23.05 24.5 23.25 Q24.15 24.2 19.7 26.6 18.1 27.45 16.7 28.5 L14.85 28.2 13.15 28.4 Q11.45 28.65 10.25 30.15 9.1 31.5 8.65 33.15 8.4 32.35 8.5 31.45 8.7 29.55 10.55 28.95 14.65 27.45 17.6 24.4 20.35 21.75 19.95 18.15 L19.85 17.9 19.6 17.75 19.35 17.75 Q17.6 18.2 16.4 19.65 L14.85 21.35 15.65 19.65 Q16.9 17.15 18.8 15.15 20.85 12.85 21.65 9.85 22.45 6.85 21.8 3.85 21.3 1.8 20.1 0.4 18.65 -1.3 16.2 -2.45 17.55 -3.3 18.4 -4.85 M22.15 10.0 Q21.3 13.15 19.15 15.5 17.9 16.8 16.95 18.4 17.9 17.6 19.2 17.25 L19.75 17.25 20.25 17.6 20.45 18.1 Q20.85 21.9 18.0 24.75 L17.95 24.8 Q16.25 26.5 14.2 27.75 L14.8 27.7 16.6 27.95 Q17.95 26.95 19.45 26.15 23.6 23.95 24.0 23.1 L24.2 22.7 25.35 20.9 Q26.6 18.4 27.0 15.7 L27.05 15.7 Q27.5 12.85 27.45 10.0 L27.45 9.95 27.25 4.3 Q27.0 1.7 26.35 -0.75 L25.5 -3.35 25.25 -4.1 23.9 -5.05 Q22.3 -5.85 21.65 -9.9 L21.1 -12.45 20.6 -10.0 Q20.05 -6.95 18.85 -4.6 18.15 -3.35 17.15 -2.55 19.2 -1.45 20.45 0.05 21.75 1.6 22.3 3.75 23.0 6.9 22.15 9.95 22.2 10.0 22.15 10.0" fill="#7c7c7c" fill-opacity="0.6627451" fill-rule="evenodd" stroke="none"/>
    <path d="M-12.55 -31.95 L-11.15 -31.95 Q-8.8 -31.8 -6.5 -31.0 L-6.7 -30.35 Q-11.45 -30.25 -15.95 -28.8 L-19.9 -27.3 Q-22.3 -26.3 -23.6 -24.9 L-22.6 -27.35 -22.95 -27.7 -21.9 -28.55 Q-19.5 -30.2 -16.7 -31.2 -14.7 -31.9 -12.55 -31.95 M-11.15 -31.45 L-12.55 -31.45 -16.5 -30.7 Q-19.25 -29.75 -21.6 -28.15 L-22.2 -27.65 -22.1 -27.45 -22.15 -27.15 -22.4 -26.55 -20.1 -27.75 -16.1 -29.25 Q-11.95 -30.6 -7.6 -30.8 L-11.15 -31.45 M-8.85 20.8 Q-7.7 21.35 -7.5 22.5 -8.75 20.95 -10.8 20.55 -12.95 20.1 -13.75 18.35 -13.4 19.75 -12.5 20.95 -11.15 22.8 -9.2 24.05 -7.9 24.85 -7.2 26.15 -6.4 27.7 -6.55 28.9 -7.15 27.95 -8.2 27.2 L-11.3 24.85 Q-13.55 23.1 -14.95 20.6 -16.35 18.0 -16.9 15.15 -17.4 12.3 -17.2 9.3 L-17.05 7.1 -16.4 7.1 Q-15.7 9.0 -15.3 11.0 L-14.45 14.3 Q-13.5 17.1 -10.7 18.4 -9.4 19.05 -9.15 20.35 -9.75 19.4 -10.9 18.85 -13.9 17.45 -14.9 14.45 L-15.8 11.1 -16.6 8.05 -16.7 9.35 Q-16.9 12.25 -16.4 15.05 L-16.4 15.1 Q-15.9 17.85 -14.5 20.35 -14.55 20.4 -14.5 20.4 -13.15 22.8 -11.0 24.45 L-10.95 24.5 -7.9 26.8 -7.25 27.35 -7.65 26.4 Q-8.3 25.2 -9.45 24.5 -11.5 23.15 -12.9 21.25 -13.85 19.95 -14.2 18.5 L-14.2 18.15 -13.9 17.9 -13.55 17.9 -13.3 18.15 Q-12.6 19.65 -10.7 20.05 -9.7 20.3 -8.85 20.8" fill="#ffffff" fill-opacity="0.32941177" fill-rule="evenodd" stroke="none"/>
    <path d="M-11.15 -31.45 L-7.6 -30.8 Q-11.95 -30.6 -16.1 -29.25 L-20.1 -27.75 -22.4 -26.55 -22.15 -27.15 -22.1 -27.45 -22.2 -27.65 -21.6 -28.15 Q-19.25 -29.75 -16.5 -30.7 L-12.55 -31.45 -11.15 -31.45 M-20.25 -28.2 L-16.25 -29.75 -11.2 -30.95 -12.55 -30.95 Q-14.5 -30.9 -16.35 -30.25 -18.95 -29.3 -21.2 -27.8 L-20.3 -28.2 -20.25 -28.2 M-21.4 -27.7 L-21.6 -27.55 -21.6 -27.5 -21.4 -27.7 M-16.6 8.05 L-15.8 11.1 -14.9 14.45 Q-13.9 17.45 -10.9 18.85 -9.75 19.4 -9.15 20.35 -8.75 20.55 -8.55 20.9 L-8.85 20.8 Q-9.7 20.3 -10.7 20.05 -12.6 19.65 -13.3 18.15 L-13.55 17.9 -13.9 17.9 -14.2 18.15 -14.2 18.5 Q-13.85 19.95 -12.9 21.25 -11.5 23.15 -9.45 24.5 -8.3 25.2 -7.65 26.4 L-7.25 27.35 -7.9 26.8 -10.95 24.5 -11.0 24.45 Q-13.15 22.8 -14.5 20.4 -14.55 20.4 -14.5 20.35 -15.9 17.85 -16.4 15.1 L-16.4 15.05 Q-16.9 12.25 -16.7 9.35 L-16.6 8.05 M-14.7 18.6 L-14.6 17.9 -14.05 17.4 -13.8 17.35 Q-14.85 16.2 -15.4 14.65 L-15.4 14.6 -16.25 11.3 -15.9 14.95 -15.9 15.0 Q-15.6 16.9 -14.7 18.6" fill="#ffffff" fill-opacity="0.6627451" fill-rule="evenodd" stroke="none"/>
    <path d="M-8.9 2.5 Q-8.7 5.25 -6.25 6.4 -7.85 6.85 -9.5 6.4 -12.7 5.5 -12.1 1.95 -11.6 -1.2 -9.45 -2.9 L-8.9 2.5 M-7.6 6.15 Q-9.25 4.85 -9.4 2.55 L-9.8 -1.85 Q-11.25 -0.35 -11.6 2.05 -12.15 5.1 -9.35 5.95 L-7.6 6.15" fill="#ffe1c4" fill-opacity="0.32941177" fill-rule="evenodd" stroke="none"/>
    <path d="M-8.9 5.5 Q-9.75 4.3 -9.9 2.6 L-10.15 -0.55 Q-10.85 0.55 -11.1 2.1 L-11.1 2.15 Q-11.55 4.75 -9.2 5.45 L-8.9 5.5 M-7.6 6.15 L-9.35 5.95 Q-12.15 5.1 -11.6 2.05 -11.25 -0.35 -9.8 -1.85 L-9.4 2.55 Q-9.25 4.85 -7.6 6.15" fill="#ffe1c4" fill-opacity="0.6627451" fill-rule="evenodd" stroke="none"/>
    <path d="M2.15 11.55 Q5.2 11.75 7.35 10.3 9.8 8.6 10.5 6.2 L10.65 4.35" fill="none" stroke="#666666" stroke-linecap="round" stroke-linejoin="round" stroke-width="1.0"/>
    <path d="M8.2 -14.8 Q7.75 -17.3 6.35 -19.15 L5.1 -20.2 Q2.5 -21.4 1.3 -18.6 M-10.65 -17.9 L-12.3 -12.85" fill="none" stroke="#000000" stroke-linecap="round" stroke-linejoin="round" stroke-width="1.0"/>
    <path d="M-11.25 -3.85 L-11.25 -3.8 Q-12.95 -1.9 -13.85 0.55 -14.35 2.05 -14.2 3.55 L-13.55 6.0 Q-12.85 7.4 -11.1 8.2 -8.5 9.4 -5.55 9.2 -2.65 9.0 -0.15 7.7 2.5 6.3 3.9 3.65 5.25 1.15 4.95 -1.85 4.75 -4.0 3.5 -5.3 L2.3 -6.3 M26.05 -8.9 Q26.15 -10.35 26.7 -11.7 L27.8 -13.8 Q28.65 -15.0 30.0 -14.5 M30.1 -11.65 Q28.7 -12.85 26.7 -11.7 M-7.4 -6.75 Q-8.9 -6.2 -10.95 -4.15" fill="none" stroke="#cc6633" stroke-linecap="round" stroke-linejoin="round" stroke-width="1.0"/>
    <path d="M-10.95 -6.65 L-11.2 -7.5 -10.9 -8.45 -10.25 -8.7 Q-9.85 -8.7 -9.65 -8.35 -9.35 -7.95 -9.4 -7.4 -9.5 -6.9 -9.75 -6.6 -10.0 -6.15 -10.4 -6.2 -10.75 -6.2 -10.95 -6.65" fill="#17255e" fill-rule="evenodd" stroke="none"/>
    <path d="M-10.25 -7.6 L-10.4 -7.25 -10.7 -7.05 -10.9 -7.3 -10.95 -7.75 -10.75 -8.15 -10.5 -8.3 -10.25 -8.1 -10.25 -7.6" fill="#65b1fe" fill-rule="evenodd" stroke="none"/>
    <path d="M-10.1 -7.15 L-10.2 -6.95 -10.35 -6.85 -10.45 -7.0 -10.45 -7.2 -10.35 -7.4 -10.25 -7.5 -10.1 -7.4 -10.1 -7.15" fill="#ffffff" fill-rule="evenodd" stroke="none"/>
    <path d="M2.8 -8.65 L2.5 -9.65 2.8 -10.75 Q3.15 -11.15 3.5 -11.15 4.0 -11.1 4.3 -10.75 L4.6 -9.7 Q4.6 -9.05 4.25 -8.65 3.95 -8.15 3.5 -8.2 3.15 -8.15 2.8 -8.65" fill="#17255e" fill-rule="evenodd" stroke="none"/>
    <path d="M3.55 -9.85 L3.4 -9.45 3.05 -9.2 2.8 -9.5 Q2.7 -9.7 2.75 -9.95 L2.9 -10.5 3.25 -10.65 3.5 -10.45 3.55 -9.85" fill="#65b1fe" fill-rule="evenodd" stroke="none"/>
    <path d="M3.7 -9.1 L3.5 -9.0 3.4 -9.15 3.35 -9.4 3.45 -9.65 3.6 -9.75 3.75 -9.65 3.75 -9.35 3.7 -9.1" fill="#ffffff" fill-rule="evenodd" stroke="none"/>
  </g>
  <defs>
    <linearGradient gradientTransform="matrix(0.0176, 0.0, 0.0, 0.0208, -1.05, -7.85)" gradientUnits="userSpaceOnUse" id="gradient0" spreadMethod="pad" x1="-819.2" x2="819.2">
      <stop offset="0.2196078431372549" stop-color="#ffe1c4"/>
      <stop offset="0.984313725490196" stop-color="#ba8125"/>
    </linearGradient>
    <linearGradient gradientTransform="matrix(0.008, 0.0047, -0.0045, 0.0077, 27.35, -12.35)" gradientUnits="userSpaceOnUse" id="gradient1" spreadMethod="pad" x1="-819.2" x2="819.2">
      <stop offset="0.2196078431372549" stop-color="#ffe1c4"/>
      <stop offset="0.984313725490196" stop-color="#ba8125"/>
    </linearGradient>
    <radialGradient cx="0" cy="0" gradientTransform="matrix(0.0526, 0.0, 0.0, 0.0526, 13.25, 23.95)" gradientUnits="userSpaceOnUse" id="gradient2" r="819.2" spreadMethod="pad">
      <stop offset="0.0" stop-color="#ffffff"/>
      <stop offset="0.49411764705882355" stop-color="#cccccc"/>
      <stop offset="0.8392156862745098" stop-color="#999999"/>
    </radialGradient>
    <radialGradient cx="0" cy="0" gradientTransform="matrix(0.0352, 0.0, 0.0, 0.0352, 24.1, 12.8)" gradientUnits="userSpaceOnUse" id="gradient3" r="819.2" spreadMethod="pad">
      <stop offset="0.0" stop-color="#ffffff"/>
      <stop offset="0.49411764705882355" stop-color="#cccccc"/>
      <stop offset="0.8392156862745098" stop-color="#999999"/>
    </radialGradient>
    <radialGradient cx="0" cy="0" gradientTransform="matrix(0.0248, 0.0, 0.0, 0.0248, -16.3, 11.1)" gradientUnits="userSpaceOnUse" id="gradient4" r="819.2" spreadMethod="pad">
      <stop offset="0.0" stop-color="#ffffff"/>
      <stop offset="0.49411764705882355" stop-color="#cccccc"/>
      <stop offset="0.8392156862745098" stop-color="#999999"/>
    </radialGradient>
    <radialGradient cx="0" cy="0" gradientTransform="matrix(0.0526, 0.0, 0.0, 0.0526, 7.3, -27.85)" gradientUnits="userSpaceOnUse" id="gradient5" r="819.2" spreadMethod="pad">
      <stop offset="0.0" stop-color="#ffffff"/>
      <stop offset="0.49411764705882355" stop-color="#cccccc"/>
      <stop offset="0.8392156862745098" stop-color="#999999"/>
    </radialGradient>
    <radialGradient cx="0" cy="0" gradientTransform="matrix(0.0181, 0.0, 0.0, 0.0181, 24.6, -21.5)" gradientUnits="userSpaceOnUse" id="gradient6" r="819.2" spreadMethod="pad">
      <stop offset="0.0" stop-color="#ffffff"/>
      <stop offset="0.49411764705882355" stop-color="#cccccc"/>
      <stop offset="0.8392156862745098" stop-color="#999999"/>
    </radialGradient>
    <radialGradient cx="0" cy="0" gradientTransform="matrix(0.0128, 0.0, 0.0, 0.0128, -16.9, -29.55)" gradientUnits="userSpaceOnUse" id="gradient7" r="819.2" spreadMethod="pad">
      <stop offset="0.0" stop-color="#ffffff"/>
      <stop offset="0.49411764705882355" stop-color="#cccccc"/>
      <stop offset="0.8392156862745098" stop-color="#999999"/>
    </radialGradient>
    <radialGradient cx="0" cy="0" gradientTransform="matrix(0.0523, 0.0, 0.0, 0.0523, -14.75, -30.45)" gradientUnits="userSpaceOnUse" id="gradient8" r="819.2" spreadMethod="pad">
      <stop offset="0.0196078431372549" stop-color="#ececec"/>
      <stop offset="0.23137254901960785" stop-color="#cccccc"/>
      <stop offset="0.6039215686274509" stop-color="#b2b2b2"/>
      <stop offset="0.8784313725490196" stop-color="#7c7c7c"/>
      <stop offset="0.9921568627450981" stop-color="#a7a7a7"/>
    </radialGradient>
    <radialGradient cx="0" cy="0" gradientTransform="matrix(0.0543, 0.0, 0.0, 0.0543, -15.3, 9.55)" gradientUnits="userSpaceOnUse" id="gradient9" r="819.2" spreadMethod="pad">
      <stop offset="0.0196078431372549" stop-color="#ececec"/>
      <stop offset="0.23137254901960785" stop-color="#cccccc"/>
      <stop offset="0.6039215686274509" stop-color="#b2b2b2"/>
      <stop offset="0.8784313725490196" stop-color="#7c7c7c"/>
      <stop offset="0.9921568627450981" stop-color="#a7a7a7"/>
    </radialGradient>
    <radialGradient cx="0" cy="0" gradientTransform="matrix(0.0414, 0.0, 0.0, 0.0414, -12.65, -17.65)" gradientUnits="userSpaceOnUse" id="gradient10" r="819.2" spreadMethod="pad">
      <stop offset="0.19607843137254902" stop-color="#ffe1c4"/>
      <stop offset="0.4588235294117647" stop-color="#ffcc99"/>
      <stop offset="0.7098039215686275" stop-color="#ffba75"/>
    </radialGradient>
    <radialGradient cx="0" cy="0" gradientTransform="matrix(0.0175, 0.0, 0.0, 0.0175, 25.55, -18.05)" gradientUnits="userSpaceOnUse" id="gradient11" r="819.2" spreadMethod="pad">
      <stop offset="0.19607843137254902" stop-color="#ffe1c4"/>
      <stop offset="0.4588235294117647" stop-color="#ffcc99"/>
      <stop offset="0.7098039215686275" stop-color="#ffba75"/>
    </radialGradient>
    <radialGradient cx="0" cy="0" gradientTransform="matrix(0.0523, 0.0, 0.0, 0.0523, -14.75, -30.45)" gradientUnits="userSpaceOnUse" id="gradient12" r="819.2" spreadMethod="pad">
      <stop offset="0.0196078431372549" stop-color="#ececec" stop-opacity="0.39607844"/>
      <stop offset="0.23137254901960785" stop-color="#cccccc" stop-opacity="0.39607844"/>
      <stop offset="0.6039215686274509" stop-color="#b2b2b2" stop-opacity="0.39607844"/>
      <stop offset="0.8784313725490196" stop-color="#7c7c7c" stop-opacity="0.39607844"/>
      <stop offset="0.9921568627450981" stop-color="#a7a7a7" stop-opacity="0.39607844"/>
    </radialGradient>
    <radialGradient cx="0" cy="0" gradientTransform="matrix(0.0523, 0.0, 0.0, 0.0523, -14.75, -30.45)" gradientUnits="userSpaceOnUse" id="gradient13" r="819.2" spreadMethod="pad">
      <stop offset="0.0196078431372549" stop-color="#ececec" stop-opacity="0.49803922"/>
      <stop offset="0.23137254901960785" stop-color="#cccccc" stop-opacity="0.49803922"/>
      <stop offset="0.6039215686274509" stop-color="#b2b2b2" stop-opacity="0.49803922"/>
      <stop offset="0.8784313725490196" stop-color="#7c7c7c" stop-opacity="0.49803922"/>
      <stop offset="0.9921568627450981" stop-color="#a7a7a7" stop-opacity="0.49803922"/>
    </radialGradient>
    <radialGradient cx="0" cy="0" gradientTransform="matrix(0.0523, 0.0, 0.0, 0.0523, -14.75, -30.45)" gradientUnits="userSpaceOnUse" id="gradient14" r="819.2" spreadMethod="pad">
      <stop offset="0.0196078431372549" stop-color="#ececec" stop-opacity="0.19607843"/>
      <stop offset="0.23137254901960785" stop-color="#cccccc" stop-opacity="0.19607843"/>
      <stop offset="0.6039215686274509" stop-color="#b2b2b2" stop-opacity="0.19607843"/>
      <stop offset="0.8784313725490196" stop-color="#7c7c7c" stop-opacity="0.19607843"/>
      <stop offset="0.9921568627450981" stop-color="#a7a7a7" stop-opacity="0.19607843"/>
    </radialGradient>
    <radialGradient cx="0" cy="0" gradientTransform="matrix(0.0523, 0.0, 0.0, 0.0523, -14.75, -30.45)" gradientUnits="userSpaceOnUse" id="gradient15" r="819.2" spreadMethod="pad">
      <stop offset="0.0196078431372549" stop-color="#ececec" stop-opacity="0.29411766"/>
      <stop offset="0.23137254901960785" stop-color="#cccccc" stop-opacity="0.29411766"/>
      <stop offset="0.6039215686274509" stop-color="#b2b2b2" stop-opacity="0.29411766"/>
      <stop offset="0.8784313725490196" stop-color="#7c7c7c" stop-opacity="0.29411766"/>
      <stop offset="0.9921568627450981" stop-color="#a7a7a7" stop-opacity="0.29411766"/>
    </radialGradient>
    <radialGradient cx="0" cy="0" gradientTransform="matrix(0.0523, 0.0, 0.0, 0.0523, -14.75, -30.45)" gradientUnits="userSpaceOnUse" id="gradient16" r="819.2" spreadMethod="pad">
      <stop offset="0.0196078431372549" stop-color="#ececec" stop-opacity="0.09411765"/>
      <stop offset="0.23137254901960785" stop-color="#cccccc" stop-opacity="0.09411765"/>
      <stop offset="0.6039215686274509" stop-color="#b2b2b2" stop-opacity="0.09411765"/>
      <stop offset="0.8784313725490196" stop-color="#7c7c7c" stop-opacity="0.09411765"/>
      <stop offset="0.9921568627450981" stop-color="#a7a7a7" stop-opacity="0.09411765"/>
    </radialGradient>
    <radialGradient cx="0" cy="0" gradientTransform="matrix(0.0523, 0.0, 0.0, 0.0523, -14.75, -30.45)" gradientUnits="userSpaceOnUse" id="gradient17" r="819.2" spreadMethod="pad">
      <stop offset="0.0196078431372549" stop-color="#ececec" stop-opacity="0.79607844"/>
      <stop offset="0.23137254901960785" stop-color="#cccccc" stop-opacity="0.79607844"/>
      <stop offset="0.6039215686274509" stop-color="#b2b2b2" stop-opacity="0.79607844"/>
      <stop offset="0.8784313725490196" stop-color="#7c7c7c" stop-opacity="0.79607844"/>
      <stop offset="0.9921568627450981" stop-color="#a7a7a7" stop-opacity="0.79607844"/>
    </radialGradient>
    <radialGradient cx="0" cy="0" gradientTransform="matrix(0.0523, 0.0, 0.0, 0.0523, -14.75, -30.45)" gradientUnits="userSpaceOnUse" id="gradient18" r="819.2" spreadMethod="pad">
      <stop offset="0.0196078431372549" stop-color="#ececec" stop-opacity="0.8980392"/>
      <stop offset="0.23137254901960785" stop-color="#cccccc" stop-opacity="0.8980392"/>
      <stop offset="0.6039215686274509" stop-color="#b2b2b2" stop-opacity="0.8980392"/>
      <stop offset="0.8784313725490196" stop-color="#7c7c7c" stop-opacity="0.8980392"/>
      <stop offset="0.9921568627450981" stop-color="#a7a7a7" stop-opacity="0.8980392"/>
    </radialGradient>
    <radialGradient cx="0" cy="0" gradientTransform="matrix(0.0523, 0.0, 0.0, 0.0523, -14.75, -30.45)" gradientUnits="userSpaceOnUse" id="gradient19" r="819.2" spreadMethod="pad">
      <stop offset="0.0196078431372549" stop-color="#ececec" stop-opacity="0.59607846"/>
      <stop offset="0.23137254901960785" stop-color="#cccccc" stop-opacity="0.59607846"/>
      <stop offset="0.6039215686274509" stop-color="#b2b2b2" stop-opacity="0.59607846"/>
      <stop offset="0.8784313725490196" stop-color="#7c7c7c" stop-opacity="0.59607846"/>
      <stop offset="0.9921568627450981" stop-color="#a7a7a7" stop-opacity="0.59607846"/>
    </radialGradient>
    <radialGradient cx="0" cy="0" gradientTransform="matrix(0.0523, 0.0, 0.0, 0.0523, -14.75, -30.45)" gradientUnits="userSpaceOnUse" id="gradient20" r="819.2" spreadMethod="pad">
      <stop offset="0.0196078431372549" stop-color="#ececec" stop-opacity="0.69803923"/>
      <stop offset="0.23137254901960785" stop-color="#cccccc" stop-opacity="0.69803923"/>
      <stop offset="0.6039215686274509" stop-color="#b2b2b2" stop-opacity="0.69803923"/>
      <stop offset="0.8784313725490196" stop-color="#7c7c7c" stop-opacity="0.69803923"/>
      <stop offset="0.9921568627450981" stop-color="#a7a7a7" stop-opacity="0.69803923"/>
    </radialGradient>
    <radialGradient cx="0" cy="0" gradientTransform="matrix(0.0543, 0.0, 0.0, 0.0543, -15.3, 9.55)" gradientUnits="userSpaceOnUse" id="gradient21" r="819.2" spreadMethod="pad">
      <stop offset="0.0196078431372549" stop-color="#ececec" stop-opacity="0.09411765"/>
      <stop offset="0.23137254901960785" stop-color="#cccccc" stop-opacity="0.09411765"/>
      <stop offset="0.6039215686274509" stop-color="#b2b2b2" stop-opacity="0.09411765"/>
      <stop offset="0.8784313725490196" stop-color="#7c7c7c" stop-opacity="0.09411765"/>
      <stop offset="0.9921568627450981" stop-color="#a7a7a7" stop-opacity="0.09411765"/>
    </radialGradient>
    <radialGradient cx="0" cy="0" gradientTransform="matrix(0.0543, 0.0, 0.0, 0.0543, -15.3, 9.55)" gradientUnits="userSpaceOnUse" id="gradient22" r="819.2" spreadMethod="pad">
      <stop offset="0.0196078431372549" stop-color="#ececec" stop-opacity="0.19607843"/>
      <stop offset="0.23137254901960785" stop-color="#cccccc" stop-opacity="0.19607843"/>
      <stop offset="0.6039215686274509" stop-color="#b2b2b2" stop-opacity="0.19607843"/>
      <stop offset="0.8784313725490196" stop-color="#7c7c7c" stop-opacity="0.19607843"/>
      <stop offset="0.9921568627450981" stop-color="#a7a7a7" stop-opacity="0.19607843"/>
    </radialGradient>
    <radialGradient cx="0" cy="0" gradientTransform="matrix(0.0543, 0.0, 0.0, 0.0543, -15.3, 9.55)" gradientUnits="userSpaceOnUse" id="gradient23" r="819.2" spreadMethod="pad">
      <stop offset="0.0196078431372549" stop-color="#ececec" stop-opacity="0.69803923"/>
      <stop offset="0.23137254901960785" stop-color="#cccccc" stop-opacity="0.69803923"/>
      <stop offset="0.6039215686274509" stop-color="#b2b2b2" stop-opacity="0.69803923"/>
      <stop offset="0.8784313725490196" stop-color="#7c7c7c" stop-opacity="0.69803923"/>
      <stop offset="0.9921568627450981" stop-color="#a7a7a7" stop-opacity="0.69803923"/>
    </radialGradient>
    <radialGradient cx="0" cy="0" gradientTransform="matrix(0.0543, 0.0, 0.0, 0.0543, -15.3, 9.55)" gradientUnits="userSpaceOnUse" id="gradient24" r="819.2" spreadMethod="pad">
      <stop offset="0.0196078431372549" stop-color="#ececec" stop-opacity="0.59607846"/>
      <stop offset="0.23137254901960785" stop-color="#cccccc" stop-opacity="0.59607846"/>
      <stop offset="0.6039215686274509" stop-color="#b2b2b2" stop-opacity="0.59607846"/>
      <stop offset="0.8784313725490196" stop-color="#7c7c7c" stop-opacity="0.59607846"/>
      <stop offset="0.9921568627450981" stop-color="#a7a7a7" stop-opacity="0.59607846"/>
    </radialGradient>
    <radialGradient cx="0" cy="0" gradientTransform="matrix(0.0543, 0.0, 0.0, 0.0543, -15.3, 9.55)" gradientUnits="userSpaceOnUse" id="gradient25" r="819.2" spreadMethod="pad">
      <stop offset="0.0196078431372549" stop-color="#ececec" stop-opacity="0.49803922"/>
      <stop offset="0.23137254901960785" stop-color="#cccccc" stop-opacity="0.49803922"/>
      <stop offset="0.6039215686274509" stop-color="#b2b2b2" stop-opacity="0.49803922"/>
      <stop offset="0.8784313725490196" stop-color="#7c7c7c" stop-opacity="0.49803922"/>
      <stop offset="0.9921568627450981" stop-color="#a7a7a7" stop-opacity="0.49803922"/>
    </radialGradient>
    <radialGradient cx="0" cy="0" gradientTransform="matrix(0.0543, 0.0, 0.0, 0.0543, -15.3, 9.55)" gradientUnits="userSpaceOnUse" id="gradient26" r="819.2" spreadMethod="pad">
      <stop offset="0.0196078431372549" stop-color="#ececec" stop-opacity="0.29411766"/>
      <stop offset="0.23137254901960785" stop-color="#cccccc" stop-opacity="0.29411766"/>
      <stop offset="0.6039215686274509" stop-color="#b2b2b2" stop-opacity="0.29411766"/>
      <stop offset="0.8784313725490196" stop-color="#7c7c7c" stop-opacity="0.29411766"/>
      <stop offset="0.9921568627450981" stop-color="#a7a7a7" stop-opacity="0.29411766"/>
    </radialGradient>
    <radialGradient cx="0" cy="0" gradientTransform="matrix(0.0543, 0.0, 0.0, 0.0543, -15.3, 9.55)" gradientUnits="userSpaceOnUse" id="gradient27" r="819.2" spreadMethod="pad">
      <stop offset="0.0196078431372549" stop-color="#ececec" stop-opacity="0.39607844"/>
      <stop offset="0.23137254901960785" stop-color="#cccccc" stop-opacity="0.39607844"/>
      <stop offset="0.6039215686274509" stop-color="#b2b2b2" stop-opacity="0.39607844"/>
      <stop offset="0.8784313725490196" stop-color="#7c7c7c" stop-opacity="0.39607844"/>
      <stop offset="0.9921568627450981" stop-color="#a7a7a7" stop-opacity="0.39607844"/>
    </radialGradient>
    <radialGradient cx="0" cy="0" gradientTransform="matrix(0.0543, 0.0, 0.0, 0.0543, -15.3, 9.55)" gradientUnits="userSpaceOnUse" id="gradient28" r="819.2" spreadMethod="pad">
      <stop offset="0.0196078431372549" stop-color="#ececec" stop-opacity="0.79607844"/>
      <stop offset="0.23137254901960785" stop-color="#cccccc" stop-opacity="0.79607844"/>
      <stop offset="0.6039215686274509" stop-color="#b2b2b2" stop-opacity="0.79607844"/>
      <stop offset="0.8784313725490196" stop-color="#7c7c7c" stop-opacity="0.79607844"/>
      <stop offset="0.9921568627450981" stop-color="#a7a7a7" stop-opacity="0.79607844"/>
    </radialGradient>
    <radialGradient cx="0" cy="0" gradientTransform="matrix(0.0543, 0.0, 0.0, 0.0543, -15.3, 9.55)" gradientUnits="userSpaceOnUse" id="gradient29" r="819.2" spreadMethod="pad">
      <stop offset="0.0196078431372549" stop-color="#ececec" stop-opacity="0.8980392"/>
      <stop offset="0.23137254901960785" stop-color="#cccccc" stop-opacity="0.8980392"/>
      <stop offset="0.6039215686274509" stop-color="#b2b2b2" stop-opacity="0.8980392"/>
      <stop offset="0.8784313725490196" stop-color="#7c7c7c" stop-opacity="0.8980392"/>
      <stop offset="0.9921568627450981" stop-color="#a7a7a7" stop-opacity="0.8980392"/>
    </radialGradient>
    <radialGradient cx="0" cy="0" gradientTransform="matrix(0.0414, 0.0, 0.0, 0.0414, -12.65, -17.65)" gradientUnits="userSpaceOnUse" id="gradient30" r="819.2" spreadMethod="pad">
      <stop offset="0.19607843137254902" stop-color="#ffe1c4" stop-opacity="0.49803922"/>
      <stop offset="0.4588235294117647" stop-color="#ffcc99" stop-opacity="0.49803922"/>
      <stop offset="0.7098039215686275" stop-color="#ffba75" stop-opacity="0.49803922"/>
    </radialGradient>
    <radialGradient cx="0" cy="0" gradientTransform="matrix(0.0414, 0.0, 0.0, 0.0414, -12.65, -17.65)" gradientUnits="userSpaceOnUse" id="gradient31" r="819.2" spreadMethod="pad">
      <stop offset="0.19607843137254902" stop-color="#ffe1c4" stop-opacity="0.16078432"/>
      <stop offset="0.4588235294117647" stop-color="#ffcc99" stop-opacity="0.16078432"/>
      <stop offset="0.7098039215686275" stop-color="#ffba75" stop-opacity="0.16078432"/>
    </radialGradient>
    <radialGradient cx="0" cy="0" gradientTransform="matrix(0.0414, 0.0, 0.0, 0.0414, -12.65, -17.65)" gradientUnits="userSpaceOnUse" id="gradient32" r="819.2" spreadMethod="pad">
      <stop offset="0.19607843137254902" stop-color="#ffe1c4" stop-opacity="0.83137256"/>
      <stop offset="0.4588235294117647" stop-color="#ffcc99" stop-opacity="0.83137256"/>
      <stop offset="0.7098039215686275" stop-color="#ffba75" stop-opacity="0.83137256"/>
    </radialGradient>
    <radialGradient cx="0" cy="0" gradientTransform="matrix(0.0414, 0.0, 0.0, 0.0414, -12.65, -17.65)" gradientUnits="userSpaceOnUse" id="gradient33" r="819.2" spreadMethod="pad">
      <stop offset="0.19607843137254902" stop-color="#ffe1c4" stop-opacity="0.6627451"/>
      <stop offset="0.4588235294117647" stop-color="#ffcc99" stop-opacity="0.6627451"/>
      <stop offset="0.7098039215686275" stop-color="#ffba75" stop-opacity="0.6627451"/>
    </radialGradient>
    <radialGradient cx="0" cy="0" gradientTransform="matrix(0.0414, 0.0, 0.0, 0.0414, -12.65, -17.65)" gradientUnits="userSpaceOnUse" id="gradient34" r="819.2" spreadMethod="pad">
      <stop offset="0.19607843137254902" stop-color="#ffe1c4" stop-opacity="0.32941177"/>
      <stop offset="0.4588235294117647" stop-color="#ffcc99" stop-opacity="0.32941177"/>
      <stop offset="0.7098039215686275" stop-color="#ffba75" stop-opacity="0.32941177"/>
    </radialGradient>
    <radialGradient cx="0" cy="0" gradientTransform="matrix(0.0175, 0.0, 0.0, 0.0175, 25.55, -18.05)" gradientUnits="userSpaceOnUse" id="gradient35" r="819.2" spreadMethod="pad">
      <stop offset="0.19607843137254902" stop-color="#ffe1c4" stop-opacity="0.49803922"/>
      <stop offset="0.4588235294117647" stop-color="#ffcc99" stop-opacity="0.49803922"/>
      <stop offset="0.7098039215686275" stop-color="#ffba75" stop-opacity="0.49803922"/>
    </radialGradient>
    <radialGradient cx="0" cy="0" gradientTransform="matrix(0.0175, 0.0, 0.0, 0.0175, 25.55, -18.05)" gradientUnits="userSpaceOnUse" id="gradient36" r="819.2" spreadMethod="pad">
      <stop offset="0.19607843137254902" stop-color="#ffe1c4" stop-opacity="0.6627451"/>
      <stop offset="0.4588235294117647" stop-color="#ffcc99" stop-opacity="0.6627451"/>
      <stop offset="0.7098039215686275" stop-color="#ffba75" stop-opacity="0.6627451"/>
    </radialGradient>
    <radialGradient cx="0" cy="0" gradientTransform="matrix(0.0175, 0.0, 0.0, 0.0175, 25.55, -18.05)" gradientUnits="userSpaceOnUse" id="gradient37" r="819.2" spreadMethod="pad">
      <stop offset="0.19607843137254902" stop-color="#ffe1c4" stop-opacity="0.83137256"/>
      <stop offset="0.4588235294117647" stop-color="#ffcc99" stop-opacity="0.83137256"/>
      <stop offset="0.7098039215686275" stop-color="#ffba75" stop-opacity="0.83137256"/>
    </radialGradient>
    <radialGradient cx="0" cy="0" gradientTransform="matrix(0.0175, 0.0, 0.0, 0.0175, 25.55, -18.05)" gradientUnits="userSpaceOnUse" id="gradient38" r="819.2" spreadMethod="pad">
      <stop offset="0.19607843137254902" stop-color="#ffe1c4" stop-opacity="0.16078432"/>
      <stop offset="0.4588235294117647" stop-color="#ffcc99" stop-opacity="0.16078432"/>
      <stop offset="0.7098039215686275" stop-color="#ffba75" stop-opacity="0.16078432"/>
    </radialGradient>
    <radialGradient cx="0" cy="0" gradientTransform="matrix(0.0175, 0.0, 0.0, 0.0175, 25.55, -18.05)" gradientUnits="userSpaceOnUse" id="gradient39" r="819.2" spreadMethod="pad">
      <stop offset="0.19607843137254902" stop-color="#ffe1c4" stop-opacity="0.32941177"/>
      <stop offset="0.4588235294117647" stop-color="#ffcc99" stop-opacity="0.32941177"/>
      <stop offset="0.7098039215686275" stop-color="#ffba75" stop-opacity="0.32941177"/>
    </radialGradient>
  </defs>
</svg>
