<?xml version="1.0" encoding="UTF-8" standalone="no"?>
<svg xmlns:xlink="http://www.w3.org/1999/xlink" height="52.8px" width="62.45px" xmlns="http://www.w3.org/2000/svg">
  <g transform="matrix(1.0, 0.0, 0.0, 1.0, 34.7, 42.65)">
    <path d="M-32.85 -1.0 L-31.15 -7.7 Q-24.25 -4.35 -18.7 -2.05 L-20.15 -0.85 -18.7 -0.1 -17.1 -1.4 -15.8 -2.5 Q-11.45 -6.2 -9.25 -8.95 -9.1 -9.15 -9.1 -9.4 -8.65 -15.2 -6.65 -18.5 L-6.6 -18.55 Q-3.95 -23.1 1.15 -26.5 L1.35 -26.7 Q5.05 -32.2 10.35 -36.3 14.5 -39.5 16.55 -39.45 11.25 -35.6 3.25 -26.95 3.0 -26.7 3.05 -26.4 L3.25 -25.9 Q3.5 -25.7 3.8 -25.7 4.1 -25.7 4.3 -25.9 12.95 -35.25 18.35 -38.85 23.15 -42.2 24.9 -40.7 27.0 -38.45 25.85 -36.0 L25.8 -36.05 Q21.4 -40.85 6.25 -25.85 L6.0 -25.3 6.2 -24.75 6.75 -24.55 7.3 -24.75 Q21.15 -38.5 24.75 -35.05 L24.75 -35.0 25.05 -34.7 25.4 -34.2 25.7 -33.75 25.7 -33.7 25.75 -33.65 25.8 -33.5 Q14.0 -22.15 8.8 -20.85 L7.4 -20.65 7.35 -20.55 7.25 -20.55 7.1 -20.55 7.05 -20.55 Q4.95 -20.9 3.2 -20.6 L2.7 -20.35 2.55 -19.8 2.85 -19.25 3.4 -19.15 6.9 -19.05 7.1 -19.0 7.55 -18.95 7.6 -18.95 8.85 -18.6 9.05 -18.5 Q8.9 -13.8 3.0 -12.15 -2.8 -10.5 -4.65 -7.1 L-4.85 -7.1 -4.9 -7.15 -5.15 -7.2 Q-5.9 -7.35 -6.5 -7.65 L-7.05 -7.7 -7.5 -7.3 -7.55 -6.75 -7.15 -6.3 -5.8 -5.85 -15.05 5.5 Q-22.4 3.9 -26.55 2.45 -32.6 0.3 -32.85 -1.0" fill="#ccff99" fill-rule="evenodd" stroke="none"/>
    <path d="M-33.8 2.9 L-32.85 -1.0 Q-32.6 0.3 -26.55 2.45 -22.4 3.9 -15.05 5.5 L-5.8 -5.85 -5.45 -5.75 -5.35 -5.75 -5.1 -5.65 Q-3.25 -5.3 -1.45 -6.2 L-10.25 3.95 -15.0 8.65 Q-22.15 7.15 -33.75 2.9 L-33.8 2.9 M8.8 -20.85 Q14.0 -22.15 25.8 -33.5 L26.0 -33.05 Q26.7 -30.3 22.9 -27.15 16.85 -22.35 13.5 -19.05 L12.4 -17.95 10.65 -19.45 10.6 -19.45 9.35 -20.0 9.3 -20.05 8.9 -20.15 8.8 -20.85 M-4.65 -7.1 Q-2.8 -10.5 3.0 -12.15 8.9 -13.8 9.05 -18.5 L9.9 -18.15 9.95 -18.1 Q11.0 -17.5 11.5 -16.5 L11.8 -15.65 11.9 -14.3 11.85 -14.3 Q11.65 -10.6 7.3 -10.75 L2.45 -10.2 2.4 -10.2 2.35 -10.2 2.3 -10.15 1.7 -9.95 -0.65 -8.55 Q-2.6 -6.85 -4.65 -7.1" fill="#bcee88" fill-rule="evenodd" stroke="none"/>
    <path d="M-31.15 -7.7 L-31.25 -7.75 -31.65 -8.2 -31.6 -8.75 -31.2 -9.15 -30.6 -9.1 Q-23.2 -5.55 -17.35 -3.15 -12.85 -6.95 -10.55 -9.75 -10.05 -15.8 -7.9 -19.3 -5.15 -24.1 0.15 -27.65 4.0 -33.25 9.45 -37.5 15.25 -42.0 17.85 -40.65 L18.1 -40.5 Q23.75 -44.25 25.95 -41.75 L26.0 -41.7 Q29.15 -38.4 26.85 -34.75 L27.05 -34.4 27.05 -34.35 27.4 -33.55 27.4 -33.5 Q28.65 -29.95 23.85 -26.0 L14.55 -18.0 13.1 -16.55 13.25 -16.15 13.25 -16.0 13.35 -14.25 13.4 -14.25 Q13.15 -9.05 7.25 -9.25 L2.95 -8.8 2.55 -8.55 -9.15 4.9 -14.95 10.15 Q-22.25 8.65 -34.25 4.3 -34.55 4.2 -34.65 3.95 L-34.7 3.35 -34.3 2.95 -33.8 2.9 -33.75 2.9 Q-22.15 7.15 -15.0 8.65 L-10.25 3.95 -1.45 -6.2 Q-3.25 -5.3 -5.1 -5.65 L-5.35 -5.75 -5.45 -5.75 -5.8 -5.85 -7.15 -6.3 -7.55 -6.75 -7.5 -7.3 -7.05 -7.7 -6.5 -7.65 Q-5.9 -7.35 -5.15 -7.2 L-4.9 -7.15 -4.85 -7.1 -4.65 -7.1 Q-2.6 -6.85 -0.65 -8.55 L1.7 -9.95 2.3 -10.15 2.35 -10.2 2.4 -10.2 2.45 -10.2 7.3 -10.75 Q11.65 -10.6 11.85 -14.3 L11.9 -14.3 11.8 -15.65 11.5 -16.5 Q11.0 -17.5 9.95 -18.1 L9.9 -18.15 9.05 -18.5 8.85 -18.6 7.6 -18.95 7.55 -18.95 7.1 -19.0 6.9 -19.05 3.4 -19.15 2.85 -19.25 2.55 -19.8 2.7 -20.35 3.2 -20.6 Q4.95 -20.9 7.05 -20.55 L7.1 -20.55 7.25 -20.55 7.35 -20.55 7.55 -20.45 7.85 -20.4 7.9 -20.4 8.9 -20.15 9.3 -20.05 9.35 -20.0 10.6 -19.45 10.65 -19.45 12.4 -17.95 13.5 -19.05 Q16.85 -22.35 22.9 -27.15 26.7 -30.3 26.0 -33.05 L25.8 -33.5 25.75 -33.65 25.7 -33.7 25.7 -33.75 25.4 -34.2 25.05 -34.7 24.75 -35.0 24.75 -35.05 Q21.15 -38.5 7.3 -24.75 L6.75 -24.55 6.2 -24.75 6.0 -25.3 6.25 -25.85 Q21.4 -40.85 25.8 -36.05 L25.85 -36.0 Q27.0 -38.45 24.9 -40.7 23.15 -42.2 18.35 -38.85 12.95 -35.25 4.3 -25.9 4.1 -25.7 3.8 -25.7 3.5 -25.7 3.25 -25.9 L3.05 -26.4 Q3.0 -26.7 3.25 -26.95 11.25 -35.6 16.55 -39.45 14.5 -39.5 10.35 -36.3 5.05 -32.2 1.35 -26.7 L1.15 -26.5 Q-3.95 -23.1 -6.6 -18.55 L-6.65 -18.5 Q-8.65 -15.2 -9.1 -9.4 -9.1 -9.15 -9.25 -8.95 -11.45 -6.2 -15.8 -2.5 L-17.1 -1.4 -18.7 -0.1 -20.15 -0.85 -18.7 -2.05 Q-24.25 -4.35 -31.15 -7.7" fill="#000000" fill-rule="evenodd" stroke="none"/>
  </g>
</svg>
