<?xml version="1.0" encoding="UTF-8" standalone="no"?>
<svg xmlns:xlink="http://www.w3.org/1999/xlink" height="122.75px" width="110.7px" xmlns="http://www.w3.org/2000/svg">
  <g transform="matrix(1.0, 0.0, 0.0, 1.0, 67.5, 4.05)">
    <path d="M-50.1 17.6 L-50.05 17.55 -49.85 17.25 -49.5 17.05 Q-47.2 14.8 -42.3 12.25 L-42.3 12.2 Q-34.65 8.1 -28.75 7.35 -34.55 13.4 -37.9 20.85 L-37.95 20.85 -38.05 21.1 Q-46.35 20.7 -43.7 25.3 L-43.85 25.45 -44.0 26.05 -43.7 26.5 -43.1 26.65 -39.85 25.9 Q-40.9 29.1 -41.55 32.6 L-41.55 33.0 -41.85 33.05 -41.7 33.55 -41.95 35.0 -41.9 34.95 -42.0 35.45 Q-42.75 41.3 -41.95 46.8 L-41.8 47.15 -41.85 47.55 -41.8 47.9 -42.3 48.2 -43.1 49.5 -43.05 49.5 -43.6 50.2 -44.55 50.45 Q-51.05 51.45 -56.0 49.45 -61.45 47.25 -65.1 41.35 L-66.0 39.45 -65.95 38.55 Q-65.9 38.35 -66.0 38.15 L-65.85 37.8 Q-65.45 35.0 -63.85 33.15 -61.85 30.6 -59.15 31.2 L-58.45 31.4 Q-57.3 31.85 -56.65 32.7 L-56.35 32.9 -56.25 33.15 Q-55.7 34.25 -55.9 35.95 -56.45 39.75 -57.4 41.7 L-57.45 42.3 -57.1 42.75 -56.5 42.8 -56.3 42.7 Q-56.5 44.85 -55.95 47.45 L-55.65 47.95 -55.1 48.05 -54.6 47.75 -54.5 47.15 Q-55.2 43.75 -54.55 41.2 L-54.55 40.8 -54.35 40.45 -53.95 39.35 Q-53.2 38.85 -52.35 38.5 -49.9 37.6 -47.4 37.9 L-47.1 38.5 -46.5 39.5 -46.0 39.85 -45.45 39.75 -45.1 39.3 -45.2 38.75 -45.35 38.45 Q-43.9 35.6 -46.95 29.65 L-47.15 29.3 Q-50.15 23.3 -50.1 17.6 M-55.65 31.5 Q-56.5 30.55 -57.9 30.0 L-58.05 29.95 Q-57.35 28.1 -55.15 27.6 -53.45 27.15 -52.1 27.9 L-51.55 29.35 Q-52.7 29.45 -53.8 30.0 -55.0 30.6 -55.65 31.5" fill="#ccff99" fill-rule="evenodd" stroke="none"/>
    <path d="M-38.05 21.1 L-38.25 21.55 -39.1 23.75 -39.1 24.15 -39.25 24.3 -39.75 24.3 -43.35 25.15 -43.7 25.3 Q-46.35 20.7 -38.05 21.1 M-43.6 50.2 Q-46.65 54.1 -52.15 54.2 -59.5 54.35 -64.25 49.3 -65.6 47.75 -66.0 42.0 L-66.0 41.75 -65.1 41.35 Q-61.45 47.25 -56.0 49.45 -51.05 51.45 -44.55 50.45 L-43.6 50.2 M-53.95 39.35 L-52.9 37.75 -52.75 37.45 -52.45 37.2 Q-51.3 35.9 -49.55 35.05 L-49.05 34.8 -47.4 37.9 Q-49.9 37.6 -52.35 38.5 -53.2 38.85 -53.95 39.35 M-45.35 38.45 L-45.8 37.75 -48.0 33.55 -48.0 33.5 -48.1 33.35 -50.05 29.05 -50.05 29.0 -50.15 28.85 -50.15 28.8 -50.75 27.25 -50.75 27.15 -51.55 23.95 -51.6 23.85 -51.6 23.8 -51.6 23.7 -51.75 21.85 -51.75 21.8 -51.65 20.35 -51.65 20.3 Q-51.45 19.05 -50.1 17.6 -50.15 23.3 -47.15 29.3 L-46.95 29.65 Q-43.9 35.6 -45.35 38.45 M-51.55 29.35 L-51.55 29.4 -51.5 29.45 -51.45 29.6 -51.4 29.65 -49.7 33.45 -50.2 33.7 -50.25 33.7 Q-52.2 34.7 -53.55 36.2 L-53.7 36.55 -54.05 36.8 -54.1 36.8 -54.45 36.55 -54.4 36.15 Q-54.1 33.95 -54.95 32.45 -55.05 32.2 -55.3 32.1 -55.3 31.9 -55.45 31.75 L-55.65 31.5 Q-55.0 30.6 -53.8 30.0 -52.7 29.45 -51.55 29.35" fill="#bcee88" fill-rule="evenodd" stroke="none"/>
    <path d="M-45.85 97.45 L-46.0 97.5 -45.95 97.45 -45.85 97.45 M-48.4 101.3 L-47.8 100.4 -47.8 100.35 Q-46.75 98.55 -45.45 97.3 L-45.4 97.25 -44.35 96.25 Q-39.85 95.05 -34.9 95.3 -28.45 95.6 -23.05 97.85 -21.4 98.5 -19.8 99.4 L-19.6 99.55 -19.55 99.5 -19.25 99.7 Q-17.15 101.0 -14.75 102.7 L-12.7 104.15 -12.1 104.3 -11.65 104.0 -11.5 103.45 -11.8 102.95 -12.75 102.25 Q-11.55 101.8 -10.75 101.25 -9.3 107.25 -9.0 111.75 L-9.0 111.8 -9.0 111.9 -9.0 111.95 -8.9 113.7 -14.3 115.2 -18.25 116.0 -23.05 116.0 Q-33.9 115.75 -39.65 113.35 -47.25 110.2 -48.3 102.25 L-48.4 101.3 M-8.55 96.1 L-8.55 96.0 -8.55 95.9 -8.85 94.5 -6.7 92.3 Q-5.1 90.65 -1.75 90.0 L-0.65 89.85 -0.35 89.75 0.0 89.85 0.7 89.9 0.8 89.9 Q1.35 90.05 1.95 90.35 L2.85 90.95 2.9 91.0 3.0 91.1 Q1.8 93.25 0.0 94.5 -3.25 96.75 -8.55 96.1 M0.15 99.7 L0.25 99.45 0.55 99.3 4.7 95.45 4.85 95.35 6.95 93.75 7.2 93.4 7.55 93.3 8.65 92.55 26.4 93.35 Q34.25 94.55 39.2 99.85 L41.55 102.85 41.45 103.85 41.55 104.25 41.4 104.55 40.85 107.95 Q40.25 110.7 39.1 113.3 L39.0 113.55 38.7 113.6 32.75 113.4 Q22.75 112.95 14.6 110.1 5.4 106.9 0.3 99.85 L0.15 99.7 M-15.1 91.95 L-12.95 92.45 -12.95 92.4 Q-11.65 92.85 -10.95 93.75 L-10.9 93.8 -10.8 94.0 -10.45 94.55 -10.45 94.65 -10.05 96.15 -10.05 97.1 -10.05 97.15 -10.2 98.45 -10.75 99.35 -10.8 99.4 Q-11.85 100.4 -14.2 101.25 L-18.25 98.55 Q-15.1 95.95 -15.1 91.95" fill="#3333cc" fill-rule="evenodd" stroke="none"/>
    <path d="M-18.25 116.0 L-22.4 116.7 -22.75 116.85 -23.05 116.8 -23.15 116.8 Q-38.25 118.75 -52.0 114.75 -51.85 108.3 -49.1 102.7 L-48.4 101.3 -48.3 102.25 Q-47.25 110.2 -39.65 113.35 -33.9 115.75 -23.05 116.0 L-18.25 116.0 M-18.25 98.55 L-18.4 98.45 -18.45 98.45 -21.9 96.25 -21.85 96.15 Q-21.05 94.05 -19.65 93.0 L-19.35 92.6 -19.0 92.4 -18.5 92.35 -15.2 91.95 -15.15 91.95 -15.1 91.95 Q-15.1 95.95 -18.25 98.55 M3.0 91.1 L3.2 91.25 3.25 91.3 Q4.35 92.55 3.7 94.35 L0.0 97.7 -0.5 98.25 -0.7 98.6 -0.95 98.7 -1.35 99.1 -3.4 99.55 Q-7.05 100.15 -8.65 98.35 L-8.55 97.2 -8.55 97.15 -8.55 96.1 Q-3.25 96.75 0.0 94.5 1.8 93.25 3.0 91.1 M38.7 113.6 L32.75 114.05 Q12.65 115.2 -7.55 111.15 -7.95 106.4 -9.45 100.15 L-9.25 99.9 Q-7.25 101.7 -3.15 101.05 L-2.6 100.95 -2.4 101.35 Q-2.2 101.55 -1.85 101.55 -1.55 101.55 -1.35 101.3 L-0.4 100.25 -0.3 100.15 -0.05 99.9 0.15 99.7 0.3 99.85 Q5.4 106.9 14.6 110.1 22.75 112.95 32.75 113.4 L38.7 113.6" fill="#1a1a9a" fill-rule="evenodd" stroke="none"/>
    <path d="M-44.35 96.25 Q-39.55 92.25 -32.15 93.45 L-29.0 94.2 Q-26.9 94.95 -23.45 97.05 L-23.05 97.15 -22.75 97.45 -19.55 99.5 -19.6 99.55 -19.8 99.4 Q-21.4 98.5 -23.05 97.85 -28.45 95.6 -34.9 95.3 -39.85 95.05 -44.35 96.25 M8.65 92.55 Q12.0 90.3 15.6 89.05 25.3 85.5 34.45 89.25 41.75 92.2 41.7 99.85 L41.7 100.1 41.55 102.85 39.2 99.85 Q34.25 94.55 26.4 93.35 L8.65 92.55" fill="#5c95e1" fill-rule="evenodd" stroke="none"/>
    <path d="M-2.55 75.35 L-4.25 77.85 -4.25 77.9 -5.4 79.9 -5.45 80.05 -6.15 81.4 Q-8.2 85.4 -10.1 90.75 L-10.55 92.05 Q-11.4 91.4 -12.5 91.0 -13.85 90.55 -15.0 90.45 -17.2 90.2 -18.95 90.9 -20.25 84.65 -22.6 78.8 L-22.6 78.75 -22.65 78.65 -22.95 78.0 -22.95 77.95 -25.15 73.25 Q-22.65 74.55 -19.8 75.4 L-19.2 75.3 -18.85 74.85 -18.85 74.7 -4.4 75.55 -4.35 75.55 -2.55 75.35" fill="url(#gradient0)" fill-rule="evenodd" stroke="none"/>
    <path d="M-0.25 75.75 L0.0 75.75 0.15 75.75 Q4.0 75.1 7.4 73.7 L7.45 73.7 7.55 73.65 5.0 77.55 4.75 78.05 4.8 77.85 Q0.65 84.7 0.15 88.35 L0.0 88.35 -0.35 88.45 -0.8 88.35 -2.0 88.5 -2.05 88.55 Q-5.9 89.35 -7.75 91.25 L-7.75 91.2 -9.15 92.6 -8.7 91.3 -8.7 91.25 Q-6.8 86.0 -4.8 82.05 L-4.2 80.8 -4.0 80.5 -2.95 78.65 -1.1 75.95 -0.6 75.85 -0.25 75.75" fill="url(#gradient1)" fill-rule="evenodd" stroke="none"/>
    <path d="M-18.85 74.7 L-18.95 74.3 -19.4 73.95 Q-22.65 73.0 -25.4 71.35 L-25.95 71.3 -26.15 71.35 -26.5 70.8 -26.7 70.55 Q-30.05 68.25 -32.6 64.85 -34.7 62.1 -36.2 59.25 L-36.6 58.5 Q-38.9 54.1 -39.95 49.45 L-40.35 47.35 -40.5 47.0 -40.45 46.6 Q-41.25 41.3 -40.5 35.65 L-40.5 35.55 -40.45 35.3 -40.45 35.2 -40.2 33.65 -40.25 33.25 -40.1 32.9 Q-39.35 28.75 -37.95 24.95 L-37.9 24.6 -37.7 24.25 -36.85 22.15 -36.55 21.45 Q-33.15 13.85 -27.05 7.8 L-26.85 7.25 -26.85 7.2 -26.7 7.2 Q-26.4 7.2 -26.2 7.0 L-26.0 6.65 -25.65 6.45 -24.25 5.15 -24.25 5.1 Q-21.85 2.95 -19.3 1.5 L-18.9 1.25 -18.6 0.95 -18.25 0.85 Q-7.55 -5.15 5.3 -0.85 4.15 2.4 4.5 5.4 4.8 7.75 6.0 9.9 L6.3 10.15 6.35 10.45 6.75 10.85 Q10.05 12.25 12.9 14.25 17.9 17.75 21.5 23.05 L22.95 25.35 Q25.0 28.95 26.15 32.65 L27.2 37.55 Q27.9 42.7 26.75 48.0 25.95 51.4 24.4 54.95 22.85 58.4 20.85 61.25 L20.0 62.35 Q15.65 68.1 9.35 71.3 9.15 71.35 9.05 71.5 L8.65 71.6 7.25 72.2 7.2 72.2 6.95 72.3 6.9 72.3 Q3.65 73.55 0.0 74.25 L-0.1 74.25 -0.45 74.4 -0.8 74.35 -1.6 74.45 -2.1 74.75 -2.55 75.35 -4.35 75.55 -4.4 75.55 -18.85 74.7" fill="url(#gradient2)" fill-rule="evenodd" stroke="none"/>
    <path d="M-53.1 20.05 Q-52.95 18.4 -51.15 16.5 L-50.75 16.3 -50.55 15.95 Q-48.1 13.6 -43.0 10.9 -33.7 5.9 -26.9 5.7 L-26.7 5.4 -25.25 4.0 Q-22.55 1.6 -19.65 -0.05 L-19.3 -0.15 -19.0 -0.45 Q-7.5 -6.9 6.3 -2.1 L6.85 -1.8 7.05 -1.3 6.85 -0.75 6.8 -0.7 6.8 -0.65 Q5.7 2.45 6.0 5.2 L6.0 5.25 Q6.25 7.25 7.3 9.15 L7.4 9.5 Q10.8 10.95 13.75 13.0 19.0 16.65 22.75 22.2 L24.25 24.6 Q26.4 28.35 27.6 32.2 28.35 34.75 28.7 37.35 29.4 42.8 28.2 48.35 27.35 51.9 25.75 55.55 24.15 59.1 22.1 62.1 L21.9 62.35 Q17.1 69.05 10.0 72.65 L9.95 72.65 9.85 73.0 6.25 78.4 6.15 78.5 6.1 78.65 Q2.1 85.2 1.6 88.6 L2.55 88.95 2.6 89.0 3.8 89.8 4.3 90.25 Q5.4 91.45 5.45 92.95 L6.1 92.5 6.4 92.35 6.7 92.05 Q10.75 89.15 15.1 87.65 25.3 83.9 35.0 87.85 43.25 91.2 43.2 99.85 L43.2 100.15 42.95 104.0 42.85 104.35 42.9 104.75 42.3 108.25 Q41.65 111.2 40.5 113.9 L40.2 114.6 39.95 114.9 39.6 115.0 32.85 115.55 Q12.75 116.7 -7.45 112.7 L-7.4 114.25 -7.55 114.7 -7.95 115.0 -13.95 116.65 -22.2 118.2 -22.6 118.15 -22.95 118.3 Q-38.65 120.3 -53.0 116.05 L-53.4 115.75 -53.55 115.3 Q-53.45 108.2 -50.45 102.05 L-49.05 99.55 Q-47.95 97.6 -46.5 96.25 L-46.45 96.2 Q-40.95 90.5 -31.95 91.95 L-31.9 91.95 Q-30.15 92.2 -28.5 92.8 -26.45 93.5 -23.2 95.45 -22.2 93.0 -20.55 91.8 L-20.3 91.7 Q-21.55 85.35 -23.95 79.4 L-24.05 79.25 -24.05 79.2 -24.35 78.55 Q-25.8 75.0 -27.7 71.7 -31.15 69.3 -33.8 65.75 -36.25 62.6 -37.95 59.25 L-37.95 59.2 Q-40.3 54.6 -41.4 49.8 L-41.45 49.75 -41.8 50.3 -41.8 50.35 Q-45.35 55.55 -52.1 55.7 -60.2 55.85 -65.35 50.3 -67.0 48.55 -67.5 42.1 -67.65 40.05 -67.45 38.35 L-67.3 38.0 -67.35 37.6 Q-66.85 34.3 -65.0 32.2 -62.65 29.2 -59.5 29.6 L-59.5 29.5 Q-58.55 26.85 -55.5 26.15 L-52.65 26.05 -53.0 24.3 -53.05 24.2 -53.1 23.9 -53.25 21.9 -53.25 21.85 -53.1 20.05 M7.25 72.2 L8.65 71.6 9.05 71.5 Q9.15 71.35 9.35 71.3 15.65 68.1 20.0 62.35 L20.85 61.25 Q22.85 58.4 24.4 54.95 25.95 51.4 26.75 48.0 27.9 42.7 27.2 37.55 L26.15 32.65 Q25.0 28.95 22.95 25.35 L21.5 23.05 Q17.9 17.75 12.9 14.25 10.05 12.25 6.75 10.85 L6.35 10.45 6.3 10.15 6.0 9.9 Q4.8 7.75 4.5 5.4 4.15 2.4 5.3 -0.85 -7.55 -5.15 -18.25 0.85 L-18.6 0.95 -18.9 1.25 -19.3 1.5 Q-21.85 2.95 -24.25 5.1 L-24.25 5.15 -25.65 6.45 -26.0 6.65 -26.2 7.0 Q-26.4 7.2 -26.7 7.2 L-26.85 7.2 -26.85 7.25 -27.05 7.8 Q-33.15 13.85 -36.55 21.45 L-36.85 22.15 -37.7 24.25 -37.9 24.6 -37.95 24.95 Q-39.35 28.75 -40.1 32.9 L-40.25 33.25 -40.2 33.65 -40.45 35.2 -40.45 35.3 -40.5 35.55 -40.5 35.65 Q-41.25 41.3 -40.45 46.6 L-40.5 47.0 -40.35 47.35 -39.95 49.45 Q-38.9 54.1 -36.6 58.5 L-36.2 59.25 Q-34.7 62.1 -32.6 64.85 -30.05 68.25 -26.7 70.55 L-26.5 70.8 -26.15 71.35 -25.95 71.3 -25.4 71.35 Q-22.65 73.0 -19.4 73.95 L-18.95 74.3 -18.85 74.7 -18.85 74.85 -19.2 75.3 -19.8 75.4 Q-22.65 74.55 -25.15 73.25 L-22.95 77.95 -22.95 78.0 -22.65 78.65 -22.6 78.75 -22.6 78.8 Q-20.25 84.65 -18.95 90.9 -17.2 90.2 -15.0 90.45 -13.85 90.55 -12.5 91.0 -11.4 91.4 -10.55 92.05 L-10.1 90.75 Q-8.2 85.4 -6.15 81.4 L-5.45 80.05 -5.4 79.9 -4.25 77.9 -4.25 77.85 -2.55 75.35 -2.1 74.75 -1.6 74.45 -0.8 74.35 -0.45 74.4 -0.1 74.25 0.0 74.25 Q3.65 73.55 6.9 72.3 L6.95 72.3 7.2 72.2 7.25 72.2 M-38.05 21.1 L-37.95 20.85 -37.9 20.85 Q-34.55 13.4 -28.75 7.35 -34.65 8.1 -42.3 12.2 L-42.3 12.25 Q-47.2 14.8 -49.5 17.05 L-49.85 17.25 -50.05 17.55 -50.1 17.6 Q-51.45 19.05 -51.65 20.3 L-51.65 20.35 -51.75 21.8 -51.75 21.85 -51.6 23.7 -51.6 23.8 -51.6 23.85 -51.55 23.95 -50.75 27.15 -50.75 27.25 -50.15 28.8 -50.15 28.85 -50.05 29.0 -50.05 29.05 -48.1 33.35 -48.0 33.5 -48.0 33.55 -45.8 37.75 -45.35 38.45 -45.2 38.75 -45.1 39.3 -45.45 39.75 -46.0 39.85 -46.5 39.5 -47.1 38.5 -47.4 37.9 -49.05 34.8 -49.55 35.05 Q-51.3 35.9 -52.45 37.2 L-52.75 37.45 -52.9 37.75 -53.95 39.35 -54.35 40.45 -54.55 40.8 -54.55 41.2 Q-55.2 43.75 -54.5 47.15 L-54.6 47.75 -55.1 48.05 -55.65 47.95 -55.95 47.45 Q-56.5 44.85 -56.3 42.7 L-56.5 42.8 -57.1 42.75 -57.45 42.3 -57.4 41.7 Q-56.45 39.75 -55.9 35.95 -55.7 34.25 -56.25 33.15 L-56.35 32.9 -56.65 32.7 Q-57.3 31.85 -58.45 31.4 L-59.15 31.2 Q-61.85 30.6 -63.85 33.15 -65.45 35.0 -65.85 37.8 L-66.0 38.15 Q-65.9 38.35 -65.95 38.55 L-66.0 39.45 -66.0 41.75 -66.0 42.0 Q-65.6 47.75 -64.25 49.3 -59.5 54.35 -52.15 54.2 -46.65 54.1 -43.6 50.2 L-43.05 49.5 -43.1 49.5 -42.3 48.2 -41.8 47.9 -41.85 47.55 -41.8 47.15 -41.95 46.8 Q-42.75 41.3 -42.0 35.45 L-41.9 34.95 -41.95 35.0 -41.7 33.55 -41.65 33.35 -41.55 33.05 -41.55 33.0 -41.55 32.6 Q-40.9 29.1 -39.85 25.9 L-43.1 26.65 -43.7 26.5 -44.0 26.05 -43.85 25.45 -43.7 25.3 -43.35 25.15 -39.75 24.3 -39.25 24.3 -39.1 24.15 -39.1 23.75 -38.25 21.55 -38.05 21.1 M-54.1 36.8 L-54.05 36.8 -53.7 36.55 -53.55 36.2 Q-52.2 34.7 -50.25 33.7 L-50.2 33.7 -49.7 33.45 -51.4 29.65 -51.45 29.6 -51.5 29.45 -51.55 29.4 -51.55 29.35 -52.1 27.9 Q-53.45 27.15 -55.15 27.6 -57.35 28.1 -58.05 29.95 L-57.9 30.0 Q-56.5 30.55 -55.65 31.5 L-55.45 31.75 Q-55.3 31.9 -55.3 32.1 -55.05 32.2 -54.95 32.45 -54.1 33.95 -54.4 36.15 L-54.45 36.55 -54.6 37.45 -54.1 36.8 M-44.35 96.25 L-45.4 97.25 -45.45 97.3 Q-46.75 98.55 -47.8 100.35 L-47.8 100.4 -48.4 101.3 -49.1 102.7 Q-51.85 108.3 -52.0 114.75 -38.25 118.75 -23.15 116.8 L-23.05 116.8 -22.75 116.85 -22.4 116.7 -18.25 116.0 -14.3 115.2 -8.9 113.7 -9.0 111.95 -9.0 111.9 -9.0 111.8 -9.0 111.75 Q-9.3 107.25 -10.75 101.25 -11.55 101.8 -12.75 102.25 L-11.8 102.95 -11.5 103.45 -11.65 104.0 -12.1 104.3 -12.7 104.15 -14.75 102.7 Q-17.15 101.0 -19.25 99.7 L-19.55 99.5 -22.75 97.45 -23.05 97.15 -23.45 97.05 Q-26.9 94.95 -29.0 94.2 L-32.15 93.45 Q-39.55 92.25 -44.35 96.25 M-45.85 97.45 L-45.95 97.45 -46.0 97.5 -45.85 97.45 M-18.4 98.45 L-18.25 98.55 -14.2 101.25 Q-11.85 100.4 -10.8 99.4 L-10.75 99.35 -10.2 98.45 -10.05 97.15 -10.05 97.1 -10.05 96.15 -10.45 94.65 -10.45 94.55 -10.8 94.0 -10.9 93.8 -10.95 93.75 Q-11.65 92.85 -12.95 92.4 L-12.95 92.45 -15.1 91.95 -15.15 91.95 -15.2 91.95 -18.5 92.35 -19.0 92.4 -19.35 92.6 -19.65 93.0 Q-21.05 94.05 -21.85 96.15 L-21.9 96.25 -18.45 98.45 -18.4 98.45 M7.4 73.7 Q4.0 75.1 0.15 75.75 L0.0 75.75 -0.25 75.75 -0.6 75.85 -1.1 75.95 -2.95 78.65 -4.0 80.5 -4.2 80.8 -4.8 82.05 Q-6.8 86.0 -8.7 91.25 L-8.7 91.3 -9.15 92.6 -7.75 91.2 -7.75 91.25 Q-5.9 89.35 -2.05 88.55 L-2.0 88.5 -0.8 88.35 -0.35 88.45 0.0 88.35 0.15 88.35 Q0.65 84.7 4.8 77.85 L4.75 78.05 5.0 77.55 7.55 73.65 7.45 73.7 7.4 73.7 M3.0 91.1 L2.9 91.0 2.85 90.95 1.95 90.35 Q1.35 90.05 0.8 89.9 L0.7 89.9 0.0 89.85 -0.35 89.75 -0.65 89.85 -1.75 90.0 Q-5.1 90.65 -6.7 92.3 L-8.85 94.5 -8.55 95.9 -8.55 96.0 -8.55 96.1 -8.55 97.15 -8.55 97.2 -8.65 98.35 Q-7.05 100.15 -3.4 99.55 L-1.35 99.1 -0.95 98.7 -0.7 98.6 -0.5 98.25 0.0 97.7 3.7 94.35 Q4.35 92.55 3.25 91.3 L3.2 91.25 3.0 91.1 M0.15 99.7 L-0.05 99.9 -0.3 100.15 -0.4 100.25 -1.35 101.3 Q-1.55 101.55 -1.85 101.55 -2.2 101.55 -2.4 101.35 L-2.6 100.95 -3.15 101.05 Q-7.25 101.7 -9.25 99.9 L-9.45 100.15 Q-7.95 106.4 -7.55 111.15 12.65 115.2 32.75 114.05 L38.7 113.6 39.0 113.55 39.1 113.3 Q40.25 110.7 40.85 107.95 L41.4 104.55 41.55 104.25 41.45 103.85 41.55 102.85 41.7 100.1 41.7 99.85 Q41.75 92.2 34.45 89.25 25.3 85.5 15.6 89.05 12.0 90.3 8.65 92.55 L7.55 93.3 7.2 93.4 6.95 93.75 4.85 95.35 4.7 95.45 0.55 99.3 0.25 99.45 0.15 99.7" fill="#000000" fill-rule="evenodd" stroke="none"/>
  </g>
  <defs>
    <linearGradient gradientTransform="matrix(-0.0041, -0.0153, 0.014, -0.0038, -12.35, 80.6)" gradientUnits="userSpaceOnUse" id="gradient0" spreadMethod="pad" x1="-819.2" x2="819.2">
      <stop offset="0.3254901960784314" stop-color="#ccffca"/>
      <stop offset="0.7529411764705882" stop-color="#70d042"/>
    </linearGradient>
    <linearGradient gradientTransform="matrix(-0.0023, -0.0087, 0.0137, -0.0037, 0.3, 82.1)" gradientUnits="userSpaceOnUse" id="gradient1" spreadMethod="pad" x1="-819.2" x2="819.2">
      <stop offset="0.3254901960784314" stop-color="#ccffca"/>
      <stop offset="0.9803921568627451" stop-color="#70d042"/>
    </linearGradient>
    <radialGradient cx="0" cy="0" gradientTransform="matrix(0.0727, 0.0, 0.0, 0.0727, 7.15, 22.55)" gradientUnits="userSpaceOnUse" id="gradient2" r="819.2" spreadMethod="pad">
      <stop offset="0.5215686274509804" stop-color="#e0feb4"/>
      <stop offset="0.8509803921568627" stop-color="#8ade69"/>
      <stop offset="0.984313725490196" stop-color="#a3ea8d"/>
    </radialGradient>
  </defs>
</svg>
