<?xml version="1.0" encoding="UTF-8" standalone="no"?>
<svg xmlns:xlink="http://www.w3.org/1999/xlink" height="191.8px" width="252.55px" xmlns="http://www.w3.org/2000/svg">
  <g transform="matrix(1.0, 0.0, 0.0, 1.0, 126.25, 95.95)">
    <path d="M-120.55 54.75 Q-111.9 44.6 -100.75 36.35 -90.05 28.25 -80.75 20.45 L-80.7 20.4 Q-74.35 14.85 -69.9 10.2 -81.3 3.95 -87.05 -8.25 -92.95 -20.55 -92.7 -35.0 -92.6 -41.6 -89.4 -44.2 -86.3 -47.1 -80.15 -45.8 L-80.1 -45.8 Q-67.85 -43.2 -59.55 -30.8 -57.3 -39.05 -49.85 -49.95 -23.15 -89.15 18.9 -94.55 L18.9 -94.5 31.75 -95.95 47.7 -95.3 47.75 -95.3 Q69.5 -92.45 81.75 -68.45 94.65 -72.45 103.1 -81.75 106.6 -85.6 109.3 -85.2 112.25 -85.2 114.0 -80.6 L114.0 -80.55 Q119.15 -67.3 117.45 -53.3 L117.45 -53.25 Q117.2 -50.4 116.3 -47.85 124.55 -37.15 126.3 -21.5 L126.3 -21.4 Q126.95 -4.75 122.65 7.35 L122.6 7.4 Q117.8 23.05 102.95 30.8 L102.9 30.8 Q98.45 32.85 94.3 35.7 80.4 45.6 68.55 57.65 49.2 77.55 -18.1 66.85 -18.15 66.9 -18.15 66.85 -26.5 65.9 -33.35 64.0 -40.15 72.8 -51.05 81.15 -62.0 89.2 -74.45 93.15 -87.95 97.25 -102.85 95.8 -118.65 94.25 -124.25 80.25 -130.1 65.25 -120.6 54.8 L-120.55 54.75 M41.8 -42.45 Q40.55 -45.05 40.55 -48.45 L40.55 -48.5 Q40.5 -52.0 41.8 -54.55 L41.8 -54.6 Q43.3 -57.9 45.7 -57.7 L45.8 -57.7 Q48.2 -57.9 49.8 -54.6 51.05 -52.05 51.05 -48.5 51.05 -45.05 49.8 -42.45 48.2 -39.2 45.75 -39.35 43.35 -39.15 41.8 -42.45 M50.75 62.3 L47.25 65.15 Q59.7 62.15 66.4 55.55 78.45 43.3 92.6 33.25 L92.6 33.2 Q96.9 30.3 101.55 28.15 L101.6 28.15 101.65 28.1 Q115.35 20.9 119.8 6.5 L119.8 6.4 Q123.95 -5.2 123.3 -21.15 121.6 -36.3 113.5 -46.55 L113.45 -46.65 113.35 -46.75 Q102.65 -60.05 80.9 -65.15 L80.5 -65.2 80.45 -65.25 Q67.9 -68.05 52.0 -68.2 L51.9 -68.2 48.55 -68.4 48.2 -65.55 47.55 -64.65 Q47.0 -64.3 46.45 -64.4 45.85 -64.55 45.5 -65.05 44.45 -66.5 43.5 -68.15 L43.45 -68.25 43.25 -68.55 36.75 -68.35 Q36.15 -67.65 35.9 -66.6 L35.45 -65.85 34.6 -65.5 Q34.1 -65.45 33.7 -65.7 33.25 -65.95 33.1 -66.4 32.65 -67.35 32.55 -68.05 L27.95 -67.5 28.4 -66.0 Q28.55 -65.45 28.3 -64.95 L27.55 -64.2 26.5 -64.15 24.7 -64.75 24.65 -64.75 17.75 -65.2 Q15.9 -65.0 15.6 -63.15 15.0 -60.2 13.45 -57.9 13.1 -57.4 12.55 -57.25 11.95 -57.15 11.45 -57.45 L10.75 -58.35 Q10.05 -60.8 9.65 -63.35 -24.1 -52.95 -57.9 -21.65 -64.5 -4.15 -66.15 9.75 L-66.15 9.9 -66.15 10.1 Q-70.85 50.15 -33.65 60.8 L-33.5 60.8 Q-26.45 62.85 -17.75 63.85 L-17.7 63.9 Q10.85 68.4 30.5 67.4 26.45 66.7 23.45 63.9 21.5 62.1 20.3 59.75 20.0 59.2 20.2 58.6 20.35 58.0 20.95 57.75 L22.05 57.65 Q22.65 57.8 22.95 58.4 23.9 60.3 25.45 61.7 L25.5 61.7 Q27.9 63.95 31.2 64.5 L38.2 64.95 38.25 64.95 Q41.25 64.9 43.95 63.6 L43.95 63.65 Q46.65 62.25 48.65 60.2 L53.7 55.4 Q54.15 54.95 54.8 55.0 55.4 55.05 55.8 55.5 56.2 55.95 56.2 56.6 56.15 57.2 55.7 57.65 L50.8 62.3 50.75 62.3 M48.35 -71.45 L52.15 -71.2 Q66.55 -71.05 78.2 -68.75 66.85 -89.7 47.3 -92.35 L32.0 -92.95 19.35 -91.55 19.3 -91.55 Q-21.45 -86.25 -47.35 -48.25 -55.95 -35.65 -57.4 -26.8 L-57.45 -26.45 -57.5 -26.1 Q-24.15 -56.25 9.25 -66.4 9.05 -69.95 11.2 -72.75 13.85 -76.25 18.25 -76.6 22.85 -77.0 25.4 -72.9 L26.75 -70.35 32.45 -71.05 Q33.0 -76.6 38.3 -79.2 43.05 -81.55 45.85 -77.4 47.8 -74.5 48.35 -71.45 M25.5 -36.15 Q22.95 -38.45 21.45 -42.25 19.95 -46.2 20.25 -49.45 L20.25 -49.5 Q20.65 -53.6 23.3 -54.45 25.85 -55.65 29.0 -52.85 31.45 -50.65 33.0 -46.75 34.5 -42.9 34.15 -39.55 33.8 -35.5 31.15 -34.55 L31.1 -34.55 Q28.5 -33.4 25.5 -36.15 M52.75 -35.6 Q29.55 -27.3 20.6 -17.05 12.15 -7.35 17.05 4.15 29.45 20.05 69.0 4.2 96.8 -8.55 94.9 -21.85 87.35 -45.7 52.75 -35.6 M51.8 -38.45 L51.9 -38.5 Q89.9 -49.55 97.8 -22.5 L97.85 -22.35 Q100.7 -7.05 70.25 6.95 L70.15 6.95 Q27.85 23.95 14.65 5.95 L14.4 5.55 Q8.55 -7.8 18.3 -19.0 27.6 -29.75 51.8 -38.45 M105.3 -79.7 L105.3 -79.75 Q97.55 -71.15 86.25 -66.8 104.05 -61.7 114.0 -50.6 L114.45 -53.55 114.45 -53.6 Q116.05 -66.9 111.2 -79.5 110.3 -81.9 109.05 -82.2 107.55 -82.15 105.3 -79.7 M-40.95 15.5 L-34.25 13.35 Q-33.05 12.9 -31.95 12.25 L-31.8 12.15 -31.75 12.15 -31.75 12.1 -31.65 12.05 -30.95 11.55 -30.9 11.55 -25.95 7.05 -24.25 4.95 Q-22.3 2.1 -21.3 -0.45 L-20.5 -1.3 -19.35 -1.35 -18.5 -0.55 Q-18.25 0.0 -18.5 0.6 -19.6 3.5 -21.75 6.65 L-23.85 9.15 -23.85 9.2 -28.0 13.0 Q-18.5 16.7 -8.2 18.95 -6.55 19.05 -4.25 19.8 L-3.9 19.95 Q36.75 28.65 64.85 18.75 L64.9 18.75 64.95 18.75 Q75.8 14.85 84.8 8.15 85.3 7.8 85.95 7.9 86.55 7.95 86.9 8.45 87.25 8.95 87.2 9.6 87.1 10.2 86.6 10.55 77.25 17.5 65.95 21.55 L65.9 21.6 62.1 22.85 61.0 24.05 Q59.0 26.4 57.45 29.1 56.2 31.15 55.3 36.0 L55.35 36.0 56.0 35.5 Q55.35 37.1 54.85 38.75 L54.15 41.55 54.15 41.6 52.55 48.7 52.6 48.7 Q51.7 52.65 49.05 55.65 47.0 58.0 43.45 58.05 L43.4 58.05 Q39.7 58.05 36.3 57.1 L36.25 57.1 Q32.65 55.95 30.1 53.35 L30.1 53.3 25.3 48.4 20.55 43.2 20.5 43.15 Q18.05 40.6 16.0 37.85 L13.05 34.45 13.0 34.45 11.6 33.15 6.65 29.45 0.75 25.85 Q-2.15 24.1 -4.9 22.8 L-8.75 21.95 -8.8 21.9 Q-20.3 19.35 -30.85 15.1 -32.05 15.75 -33.3 16.2 L-33.35 16.2 -40.1 18.35 Q-43.0 19.2 -44.45 21.7 -45.85 24.0 -45.55 26.85 -45.5 27.45 -45.85 27.95 -46.3 28.45 -46.9 28.5 L-48.0 28.2 -48.55 27.15 Q-48.95 23.3 -47.0 20.15 L-47.05 20.15 -47.05 20.1 Q-45.05 16.75 -41.0 15.5 -41.0 15.55 -40.95 15.5 M37.1 54.2 Q40.1 55.05 43.4 55.05 45.55 55.0 46.8 53.65 48.9 51.25 49.65 48.05 L51.2 40.95 Q51.9 37.6 53.2 34.4 L53.25 34.25 Q53.25 31.65 51.05 30.1 48.5 28.45 45.45 28.35 L45.4 28.35 Q42.15 28.1 39.8 29.65 L39.75 29.7 39.45 29.9 Q41.45 31.95 41.45 37.95 41.45 38.55 41.0 39.0 40.55 39.45 39.95 39.45 39.35 39.45 38.9 39.0 38.45 38.55 38.45 37.95 38.45 32.75 36.85 31.8 L36.55 31.65 36.35 31.45 36.3 31.45 Q34.75 29.85 32.65 29.35 L25.7 28.25 19.35 28.4 Q18.5 28.5 18.05 28.9 16.1 30.45 15.65 32.85 L18.4 36.05 22.7 41.1 22.75 41.15 27.5 46.35 32.2 51.2 32.25 51.2 Q34.25 53.35 37.1 54.2 M-87.4 -41.95 Q-89.6 -39.9 -89.7 -34.95 -89.95 -21.25 -84.35 -9.55 -79.1 1.55 -68.85 7.35 -67.0 -6.15 -60.65 -22.75 L-60.45 -26.5 Q-68.4 -40.15 -80.75 -42.85 -85.15 -43.75 -87.4 -41.95 M-69.55 14.05 Q-73.5 18.05 -78.75 22.7 L-98.95 38.75 Q-109.8 46.8 -118.3 56.75 L-118.35 56.75 Q-126.6 65.9 -121.45 79.15 -116.55 91.45 -102.55 92.8 -88.25 94.25 -75.35 90.3 -63.4 86.5 -52.85 78.75 -42.85 71.1 -36.45 63.1 -71.95 51.85 -69.55 14.05 M54.85 38.75 L54.8 36.1 54.7 36.1 54.85 38.75" fill="#000000" fill-rule="evenodd" stroke="none"/>
    <path d="M48.35 -71.45 Q47.8 -74.5 45.85 -77.4 43.05 -81.55 38.3 -79.2 33.0 -76.6 32.45 -71.05 L26.75 -70.35 25.4 -72.9 Q22.85 -77.0 18.25 -76.6 13.85 -76.25 11.2 -72.75 9.05 -69.95 9.25 -66.4 -24.15 -56.25 -57.5 -26.1 L-57.45 -26.45 -57.4 -26.8 Q-55.95 -35.65 -47.35 -48.25 -21.45 -86.25 19.3 -91.55 L19.35 -91.55 32.0 -92.95 47.3 -92.35 Q66.85 -89.7 78.2 -68.75 66.55 -71.05 52.15 -71.2 L48.35 -71.45" fill="url(#gradient0)" fill-rule="evenodd" stroke="none"/>
    <path d="M-69.55 14.05 Q-71.95 51.85 -36.45 63.1 -42.85 71.1 -52.85 78.75 -63.4 86.5 -75.35 90.3 -88.25 94.25 -102.55 92.8 -116.55 91.45 -121.45 79.15 -126.6 65.9 -118.35 56.75 L-118.3 56.75 Q-109.8 46.8 -98.95 38.75 L-78.75 22.7 Q-73.5 18.05 -69.55 14.05" fill="url(#gradient1)" fill-rule="evenodd" stroke="none"/>
    <path d="M53.2 34.4 Q51.9 37.6 51.2 40.95 L49.65 48.05 Q48.9 51.25 46.8 53.65 45.55 55.0 43.4 55.05 40.1 55.05 37.1 54.2 34.25 53.35 32.25 51.2 L32.2 51.2 27.5 46.35 22.75 41.15 22.7 41.1 18.4 36.05 15.65 32.85 Q16.1 30.45 18.05 28.9 18.5 28.5 19.35 28.4 L25.7 28.25 32.65 29.35 Q34.75 29.85 36.3 31.45 L36.35 31.45 36.55 31.65 36.85 31.8 Q38.45 32.75 38.45 37.95 38.45 38.55 38.9 39.0 39.35 39.45 39.95 39.45 40.55 39.45 41.0 39.0 41.45 38.55 41.45 37.95 41.45 31.95 39.45 29.9 L39.75 29.7 39.8 29.65 Q42.15 28.1 45.4 28.35 L45.45 28.35 Q48.5 28.45 51.05 30.1 53.25 31.65 53.25 34.25 L53.2 34.4 M54.85 38.75 L54.7 36.1 54.8 36.1 54.85 38.75" fill="url(#gradient2)" fill-rule="evenodd" stroke="none"/>
    <path d="M-87.4 -41.95 Q-85.15 -43.75 -80.75 -42.85 -68.4 -40.15 -60.45 -26.5 L-60.65 -22.75 Q-67.0 -6.15 -68.85 7.35 -79.1 1.55 -84.35 -9.55 -89.95 -21.25 -89.7 -34.95 -89.6 -39.9 -87.4 -41.95" fill="url(#gradient3)" fill-rule="evenodd" stroke="none"/>
    <path d="M105.3 -79.7 Q107.55 -82.15 109.05 -82.2 110.3 -81.9 111.2 -79.5 116.05 -66.9 114.45 -53.6 L114.45 -53.55 114.0 -50.6 Q104.05 -61.7 86.25 -66.8 97.55 -71.15 105.3 -79.75 L105.3 -79.7" fill="url(#gradient4)" fill-rule="evenodd" stroke="none"/>
    <path d="M52.0 -68.2 Q67.9 -68.05 80.45 -65.25 L80.5 -65.2 80.9 -65.15 Q102.65 -60.05 113.35 -46.75 L113.45 -46.65 113.5 -46.55 Q121.6 -36.3 123.3 -21.15 123.95 -5.2 119.8 6.4 L119.8 6.5 Q115.35 20.9 101.65 28.1 L101.6 28.15 101.55 28.15 Q96.9 30.3 92.6 33.2 L92.6 33.25 Q78.45 43.3 66.4 55.55 59.7 62.15 47.25 65.15 L50.75 62.3 50.8 62.3 55.7 57.65 Q56.15 57.2 56.2 56.6 56.2 55.95 55.8 55.5 55.4 55.05 54.8 55.0 54.15 54.95 53.7 55.4 L48.65 60.2 Q46.65 62.25 43.95 63.65 L43.95 63.6 Q41.25 64.9 38.25 64.95 L38.2 64.95 31.2 64.5 Q27.9 63.95 25.5 61.7 L25.45 61.7 Q23.9 60.3 22.95 58.4 22.65 57.8 22.05 57.65 L20.95 57.75 Q20.35 58.0 20.2 58.6 20.0 59.2 20.3 59.75 21.5 62.1 23.45 63.9 26.45 66.7 30.5 67.4 10.85 68.4 -17.7 63.9 L-17.75 63.85 Q-26.45 62.85 -33.5 60.8 L-33.65 60.8 Q-70.85 50.15 -66.15 10.1 L-66.15 9.9 -66.15 9.75 Q-64.5 -4.15 -57.9 -21.65 -24.1 -52.95 9.65 -63.35 10.05 -60.8 10.75 -58.35 L11.45 -57.45 Q11.95 -57.15 12.55 -57.25 13.1 -57.4 13.45 -57.9 15.0 -60.2 15.6 -63.15 15.9 -65.0 17.75 -65.2 L24.65 -64.75 24.7 -64.75 26.5 -64.15 27.55 -64.2 28.3 -64.95 Q28.55 -65.45 28.4 -66.0 L27.95 -67.5 32.55 -68.05 Q32.65 -67.35 33.1 -66.4 33.25 -65.95 33.7 -65.7 34.1 -65.45 34.6 -65.5 L35.45 -65.85 35.9 -66.6 Q36.15 -67.65 36.75 -68.35 L43.25 -68.55 43.45 -68.25 43.5 -68.15 Q44.45 -66.5 45.5 -65.05 45.85 -64.55 46.45 -64.4 47.0 -64.3 47.55 -64.65 L48.2 -65.55 48.55 -68.4 51.9 -68.2 52.0 -68.2 M45.7 -57.7 Q43.3 -57.9 41.8 -54.6 L41.8 -54.55 Q40.5 -52.0 40.55 -48.5 L40.55 -48.45 Q40.55 -45.05 41.8 -42.45 43.35 -39.15 45.75 -39.35 48.2 -39.2 49.8 -42.45 51.05 -45.05 51.05 -48.5 51.05 -52.05 49.8 -54.6 48.2 -57.9 45.8 -57.7 L45.7 -57.7 M23.3 -54.45 Q20.65 -53.6 20.25 -49.5 L20.25 -49.45 Q19.95 -46.2 21.45 -42.25 22.95 -38.45 25.5 -36.15 28.5 -33.4 31.1 -34.55 L31.15 -34.55 Q33.8 -35.5 34.15 -39.55 34.5 -42.9 33.0 -46.75 31.45 -50.65 29.0 -52.85 25.85 -55.65 23.3 -54.45 M51.8 -38.45 Q27.6 -29.75 18.3 -19.0 8.55 -7.8 14.4 5.55 L14.65 5.95 Q27.85 23.95 70.15 6.95 L70.25 6.95 Q100.7 -7.05 97.85 -22.35 L97.8 -22.5 Q89.9 -49.55 51.9 -38.5 L51.8 -38.45 M54.85 38.75 Q55.35 37.1 56.0 35.5 L55.35 36.0 55.3 36.0 Q56.2 31.15 57.45 29.1 59.0 26.4 61.0 24.05 L62.1 22.85 65.9 21.6 65.95 21.55 Q77.25 17.5 86.6 10.55 87.1 10.2 87.2 9.6 87.25 8.95 86.9 8.45 86.55 7.95 85.95 7.9 85.3 7.8 84.8 8.15 75.8 14.85 64.95 18.75 L64.9 18.75 64.85 18.75 Q36.75 28.65 -3.9 19.95 L-4.25 19.8 Q-6.55 19.05 -8.2 18.95 -18.5 16.7 -28.0 13.0 L-23.85 9.2 -23.85 9.15 -21.75 6.65 Q-19.6 3.5 -18.5 0.6 -18.25 0.0 -18.5 -0.55 L-19.35 -1.35 -20.5 -1.3 -21.3 -0.45 Q-22.3 2.1 -24.25 4.95 L-25.95 7.05 -30.9 11.55 -30.95 11.55 -31.65 12.05 -31.75 12.1 -31.75 12.15 -31.8 12.15 -31.95 12.25 Q-33.05 12.9 -34.25 13.35 L-40.95 15.5 Q-41.0 15.55 -41.0 15.5 -45.05 16.75 -47.05 20.1 L-47.05 20.15 -47.0 20.15 Q-48.95 23.3 -48.55 27.15 L-48.0 28.2 -46.9 28.5 Q-46.3 28.45 -45.85 27.95 -45.5 27.45 -45.55 26.85 -45.85 24.0 -44.45 21.7 -43.0 19.2 -40.1 18.35 L-33.35 16.2 -33.3 16.2 Q-32.05 15.75 -30.85 15.1 -20.3 19.35 -8.8 21.9 L-8.75 21.95 -4.9 22.8 Q-2.15 24.1 0.75 25.85 L6.65 29.45 11.6 33.15 13.0 34.45 13.05 34.45 16.0 37.85 Q18.05 40.6 20.5 43.15 L20.55 43.2 25.3 48.4 30.1 53.3 30.1 53.35 Q32.65 55.95 36.25 57.1 L36.3 57.1 Q39.7 58.05 43.4 58.05 L43.45 58.05 Q47.0 58.0 49.05 55.65 51.7 52.65 52.6 48.7 L52.55 48.7 54.15 41.6 54.15 41.55 54.85 38.75" fill="url(#gradient5)" fill-rule="evenodd" stroke="none"/>
    <path d="M52.75 -35.6 Q87.35 -45.7 94.9 -21.85 96.8 -8.55 69.0 4.2 29.45 20.05 17.05 4.15 12.15 -7.35 20.6 -17.05 29.55 -27.3 52.75 -35.6" fill="url(#gradient6)" fill-rule="evenodd" stroke="none"/>
  </g>
  <defs>
    <linearGradient gradientTransform="matrix(0.0, 0.0437, -0.0855, 0.0, 10.9, -58.4)" gradientUnits="userSpaceOnUse" id="gradient0" spreadMethod="pad" x1="-819.2" x2="819.2">
      <stop offset="0.0" stop-color="#4ea2e2"/>
      <stop offset="0.2823529411764706" stop-color="#004d9a"/>
    </linearGradient>
    <radialGradient cx="0" cy="0" gradientTransform="matrix(0.0893, 0.0, 0.0, 0.0893, -107.1, 63.5)" gradientUnits="userSpaceOnUse" id="gradient1" r="819.2" spreadMethod="pad">
      <stop offset="0.0" stop-color="#858585"/>
      <stop offset="0.803921568627451" stop-color="#525252"/>
    </radialGradient>
    <radialGradient cx="0" cy="0" gradientTransform="matrix(0.0416, 0.0, 0.0, 0.0416, 48.15, 32.7)" gradientUnits="userSpaceOnUse" id="gradient2" r="819.2" spreadMethod="pad">
      <stop offset="0.25882352941176473" stop-color="#ffb6b6"/>
      <stop offset="0.8156862745098039" stop-color="#d36e6c"/>
    </radialGradient>
    <radialGradient cx="0" cy="0" gradientTransform="matrix(0.0585, 0.0, 0.0, 0.0585, -75.5, -36.75)" gradientUnits="userSpaceOnUse" id="gradient3" r="819.2" spreadMethod="pad">
      <stop offset="0.25882352941176473" stop-color="#dfffca"/>
      <stop offset="0.8156862745098039" stop-color="#70d042"/>
    </radialGradient>
    <radialGradient cx="0" cy="0" gradientTransform="matrix(0.036, 0.0, 0.0, 0.036, 106.95, -75.45)" gradientUnits="userSpaceOnUse" id="gradient4" r="819.2" spreadMethod="pad">
      <stop offset="0.25882352941176473" stop-color="#dfffca"/>
      <stop offset="0.8156862745098039" stop-color="#70d042"/>
    </radialGradient>
    <radialGradient cx="0" cy="0" gradientTransform="matrix(0.1906, 0.0, 0.0, 0.1906, 54.4, -58.7)" gradientUnits="userSpaceOnUse" id="gradient5" r="819.2" spreadMethod="pad">
      <stop offset="0.5215686274509804" stop-color="#e0feb4"/>
      <stop offset="0.8509803921568627" stop-color="#8ade69"/>
      <stop offset="0.984313725490196" stop-color="#a3ea8d"/>
    </radialGradient>
    <radialGradient cx="0" cy="0" gradientTransform="matrix(0.0848, 0.0, 0.0, 0.0848, 71.15, -33.85)" gradientUnits="userSpaceOnUse" id="gradient6" r="819.2" spreadMethod="pad">
      <stop offset="0.21176470588235294" stop-color="#e0feb4"/>
      <stop offset="0.7803921568627451" stop-color="#70d042"/>
      <stop offset="0.984313725490196" stop-color="#a3ea8d"/>
    </radialGradient>
  </defs>
</svg>
