<?xml version="1.0" encoding="UTF-8" standalone="no"?>
<svg xmlns:xlink="http://www.w3.org/1999/xlink" height="43.45px" width="36.45px" xmlns="http://www.w3.org/2000/svg">
  <g transform="matrix(1.0, 0.0, 0.0, 1.0, 19.05, 25.9)">
    <path d="M-0.5 -2.15 L-0.9 -25.4 16.9 -6.2 -0.5 -2.15" fill="url(#gradient0)" fill-rule="evenodd" stroke="none"/>
    <path d="M-18.3 -6.15 L-0.5 -2.15 -0.15 17.05 -18.55 -5.9 -18.3 -6.15" fill="url(#gradient1)" fill-rule="evenodd" stroke="none"/>
    <path d="M-0.5 -2.15 L16.9 -6.2 -0.15 17.05 -0.5 -2.15" fill="#a7111a" fill-rule="evenodd" stroke="none"/>
    <path d="M-0.9 -25.4 L-0.5 -2.15 -18.3 -6.15 -0.9 -25.4" fill="url(#gradient2)" fill-rule="evenodd" stroke="none"/>
    <path d="M-0.9 -25.4 L-18.3 -6.15 -18.55 -5.9 -0.15 17.05 16.9 -6.2 -0.9 -25.4" fill="none" stroke="#ff0000" stroke-linecap="round" stroke-linejoin="round" stroke-width="1.0"/>
    <path d="M-0.5 -2.15 L-0.9 -25.4 M-18.3 -6.15 L-0.5 -2.15 16.9 -6.2 M-0.15 17.05 L-0.5 -2.15" fill="none" stroke="#fe7878" stroke-linecap="round" stroke-linejoin="round" stroke-width="0.75"/>
  </g>
  <defs>
    <linearGradient gradientTransform="matrix(0.0133, 0.0075, -0.006, 0.0106, 4.95, -10.55)" gradientUnits="userSpaceOnUse" id="gradient0" spreadMethod="pad" x1="-819.2" x2="819.2">
      <stop offset="0.0" stop-color="#ffffff"/>
      <stop offset="0.13725490196078433" stop-color="#fea0a0"/>
      <stop offset="0.403921568627451" stop-color="#ff0000"/>
      <stop offset="1.0" stop-color="#941620"/>
    </linearGradient>
    <linearGradient gradientTransform="matrix(0.0202, 0.0053, -0.0041, 0.0157, -3.0, 2.25)" gradientUnits="userSpaceOnUse" id="gradient1" spreadMethod="pad" x1="-819.2" x2="819.2">
      <stop offset="0.0" stop-color="#ffffff"/>
      <stop offset="0.13725490196078433" stop-color="#fea0a0"/>
      <stop offset="0.403921568627451" stop-color="#ff0000"/>
      <stop offset="1.0" stop-color="#941620"/>
    </linearGradient>
    <linearGradient gradientTransform="matrix(0.0072, 0.0072, -0.0112, 0.0112, -4.15, -10.35)" gradientUnits="userSpaceOnUse" id="gradient2" spreadMethod="pad" x1="-819.2" x2="819.2">
      <stop offset="0.0" stop-color="#ffeeee"/>
      <stop offset="0.25882352941176473" stop-color="#fea0a0"/>
      <stop offset="0.6" stop-color="#ff0000"/>
      <stop offset="1.0" stop-color="#941620"/>
    </linearGradient>
  </defs>
</svg>
