<?xml version="1.0" encoding="UTF-8" standalone="no"?>
<svg xmlns:xlink="http://www.w3.org/1999/xlink" height="13.95px" width="22.45px" xmlns="http://www.w3.org/2000/svg">
  <g transform="matrix(1.0, 0.0, 0.0, 1.0, 9.05, 20.6)">
    <path d="M9.05 -18.5 Q8.9 -13.8 3.0 -12.15 -2.8 -10.5 -4.65 -7.1 L-4.7 -7.15 -5.0 -7.2 -5.15 -7.2 -5.2 -7.2 Q-6.95 -8.7 -9.05 -9.65 -8.6 -15.25 -6.65 -18.5 L-6.6 -18.55 -5.9 -19.65 -3.0 -19.85 -3.0 -19.8 -2.3 -19.9 2.65 -20.25 2.55 -19.8 2.85 -19.25 3.4 -19.15 6.9 -19.05 7.1 -19.0 7.55 -18.95 7.6 -18.95 8.85 -18.6 9.05 -18.5" fill="#ccff99" fill-rule="evenodd" stroke="none"/>
    <path d="M-4.65 -7.1 Q-2.8 -10.5 3.0 -12.15 8.9 -13.8 9.05 -18.5 L9.9 -18.15 9.95 -18.1 Q11.0 -17.5 11.5 -16.5 L11.8 -15.65 11.9 -14.3 11.85 -14.3 Q11.65 -10.6 7.3 -10.75 L2.45 -10.2 2.4 -10.2 2.35 -10.2 2.3 -10.15 1.7 -9.95 -0.65 -8.55 Q-2.5 -6.95 -4.5 -7.05 L-4.65 -7.1" fill="#bcee88" fill-rule="evenodd" stroke="none"/>
    <path d="M2.65 -20.25 L2.7 -20.35 3.2 -20.6 Q4.95 -20.9 7.05 -20.55 L7.1 -20.55 7.25 -20.55 7.35 -20.55 7.55 -20.45 7.85 -20.4 7.9 -20.4 8.9 -20.15 9.3 -20.05 9.35 -20.0 10.6 -19.45 10.65 -19.45 Q11.7 -18.85 13.1 -16.55 L13.25 -16.15 13.25 -16.0 13.35 -14.25 13.4 -14.25 Q13.15 -9.05 7.25 -9.25 L2.95 -8.8 2.55 -8.55 1.45 -7.3 0.25 -6.65 -4.5 -7.05 Q-2.5 -6.95 -0.65 -8.55 L1.7 -9.95 2.3 -10.15 2.35 -10.2 2.4 -10.2 2.45 -10.2 7.3 -10.75 Q11.65 -10.6 11.85 -14.3 L11.9 -14.3 11.8 -15.65 11.5 -16.5 Q11.0 -17.5 9.95 -18.1 L9.9 -18.15 9.05 -18.5 8.85 -18.6 7.6 -18.95 7.55 -18.95 7.1 -19.0 6.9 -19.05 3.4 -19.15 2.85 -19.25 2.55 -19.8 2.65 -20.25" fill="#000000" fill-rule="evenodd" stroke="none"/>
  </g>
</svg>
