<?xml version="1.0" encoding="UTF-8" standalone="no"?>
<svg xmlns:xlink="http://www.w3.org/1999/xlink" height="69.2px" width="487.05px" xmlns="http://www.w3.org/2000/svg">
  <g transform="matrix(1.0, 0.0, 0.0, 1.0, 237.05, -1.15)">
    <path d="M159.15 1.65 L239.5 1.65 Q243.65 1.65 246.55 4.55 249.5 7.5 249.5 11.65 L249.5 59.85 Q249.5 64.0 246.55 66.9 243.65 69.85 239.5 69.85 L159.15 69.85 159.15 1.65" fill="url(#gradient0)" fill-rule="evenodd" stroke="none"/>
    <path d="M-185.4 69.85 L-226.55 69.85 Q-230.7 69.85 -233.65 66.9 -236.55 64.0 -236.55 59.85 L-236.55 11.65 Q-236.55 7.5 -233.65 4.55 -230.7 1.65 -226.55 1.65 L-185.4 1.65 -185.4 69.85" fill="url(#gradient1)" fill-rule="evenodd" stroke="none"/>
    <path d="M159.15 1.65 L159.15 69.85 -185.4 69.85 -185.4 1.65 159.15 1.65" fill="url(#gradient2)" fill-rule="evenodd" stroke="none"/>
    <path d="M243.5 59.85 Q243.5 61.5 242.35 62.65 L242.3 62.7 Q241.15 63.85 239.5 63.85 L-226.55 63.85 Q-228.2 63.85 -229.4 62.65 -230.55 61.5 -230.55 59.85 L-230.55 11.65 Q-230.55 10.0 -229.45 8.85 L-229.35 8.75 Q-228.2 7.65 -226.55 7.65 L239.5 7.65 Q241.15 7.65 242.3 8.8 243.5 10.0 243.5 11.65 L243.5 59.85" fill="#c99701" fill-rule="evenodd" stroke="none"/>
    <path d="M246.5 11.65 Q246.5 8.75 244.45 6.7 242.4 4.65 239.5 4.65 L-226.55 4.65 Q-229.45 4.65 -231.5 6.65 L-231.55 6.7 Q-233.55 8.75 -233.55 11.65 L-233.55 59.85 Q-233.55 62.75 -231.5 64.8 -229.45 66.85 -226.55 66.85 L239.5 66.85 Q242.4 66.85 244.4 64.8 L244.45 64.75 Q246.5 62.75 246.5 59.85 L246.5 11.65 M246.9 11.65 L246.9 59.85 Q246.85 62.9 244.7 65.05 242.55 67.2 239.5 67.25 L-226.55 67.25 Q-229.6 67.25 -231.8 65.05 -233.95 62.9 -233.9 59.85 L-233.9 11.65 Q-233.9 8.6 -231.8 6.45 L-231.75 6.4 Q-229.6 4.3 -226.55 4.3 L239.5 4.3 Q242.55 4.25 244.7 6.4 246.9 8.6 246.9 11.65" fill="#c99701" fill-opacity="0.46666667" fill-rule="evenodd" stroke="none"/>
    <path d="M246.5 11.65 L246.5 59.85 Q246.5 62.75 244.45 64.75 L244.4 64.8 Q242.4 66.85 239.5 66.85 L-226.55 66.85 Q-229.45 66.85 -231.5 64.8 -233.55 62.75 -233.55 59.85 L-233.55 11.65 Q-233.55 8.75 -231.55 6.7 L-231.5 6.65 Q-229.45 4.65 -226.55 4.65 L239.5 4.65 Q242.4 4.65 244.45 6.7 246.5 8.75 246.5 11.65 M246.15 11.65 Q246.15 8.9 244.2 6.95 242.25 5.0 239.5 5.05 L-226.55 5.05 Q-229.3 5.0 -231.25 6.95 -233.2 8.9 -233.15 11.65 L-233.15 59.85 Q-233.2 62.6 -231.25 64.55 -229.3 66.5 -226.55 66.5 L239.5 66.5 Q242.25 66.45 244.15 64.55 L244.2 64.5 Q246.1 62.6 246.15 59.85 L246.15 11.65" fill="#c99701" fill-opacity="0.5254902" fill-rule="evenodd" stroke="none"/>
    <path d="M246.9 11.65 Q246.9 8.6 244.7 6.4 242.55 4.25 239.5 4.3 L-226.55 4.3 Q-229.6 4.3 -231.75 6.4 L-231.8 6.45 Q-233.9 8.6 -233.9 11.65 L-233.9 59.85 Q-233.95 62.9 -231.8 65.05 -229.6 67.25 -226.55 67.25 L239.5 67.25 Q242.55 67.2 244.7 65.05 246.85 62.9 246.9 59.85 L246.9 11.65 M247.25 11.65 L247.25 59.85 Q247.25 63.05 245.0 65.3 L244.95 65.35 Q242.7 67.6 239.5 67.6 L-226.55 67.6 Q-229.75 67.6 -232.05 65.3 -234.3 63.05 -234.3 59.85 L-234.3 11.65 Q-234.3 8.45 -232.05 6.15 -229.75 3.9 -226.55 3.9 L239.5 3.9 Q242.7 3.9 244.95 6.15 247.25 8.45 247.25 11.65" fill="#c99701" fill-opacity="0.40784314" fill-rule="evenodd" stroke="none"/>
    <path d="M247.25 11.65 Q247.25 8.45 244.95 6.15 242.7 3.9 239.5 3.9 L-226.55 3.9 Q-229.75 3.9 -232.05 6.15 -234.3 8.45 -234.3 11.65 L-234.3 59.85 Q-234.3 63.05 -232.05 65.3 -229.75 67.6 -226.55 67.6 L239.5 67.6 Q242.7 67.6 244.95 65.35 L245.0 65.3 Q247.25 63.05 247.25 59.85 L247.25 11.65 M247.65 11.65 L247.65 59.85 Q247.6 63.2 245.25 65.6 242.85 67.95 239.5 68.0 L-226.55 68.0 Q-229.95 67.95 -232.3 65.6 -234.7 63.2 -234.65 59.85 L-234.65 11.65 Q-234.7 8.25 -232.3 5.9 -229.95 3.5 -226.55 3.55 L239.5 3.55 Q242.85 3.5 245.25 5.9 247.6 8.25 247.65 11.65" fill="#c99701" fill-opacity="0.34901962" fill-rule="evenodd" stroke="none"/>
    <path d="M248.0 11.65 L248.0 59.85 Q248.0 63.35 245.5 65.85 243.0 68.35 239.5 68.35 L-226.55 68.35 Q-230.1 68.35 -232.6 65.85 -235.05 63.4 -235.05 59.85 L-235.05 11.65 Q-235.05 8.15 -232.6 5.65 L-232.55 5.6 Q-230.05 3.15 -226.55 3.15 L239.5 3.15 Q243.05 3.15 245.5 5.6 248.0 8.1 248.0 11.65 M247.65 11.65 Q247.6 8.25 245.25 5.9 242.85 3.5 239.5 3.55 L-226.55 3.55 Q-229.95 3.5 -232.3 5.9 -234.7 8.25 -234.65 11.65 L-234.65 59.85 Q-234.7 63.2 -232.3 65.6 -229.95 67.95 -226.55 68.0 L239.5 68.0 Q242.85 67.95 245.25 65.6 247.6 63.2 247.65 59.85 L247.65 11.65" fill="#c99701" fill-opacity="0.2901961" fill-rule="evenodd" stroke="none"/>
    <path d="M246.55 4.55 Q249.5 7.5 249.5 11.65 L249.5 59.85 Q249.5 64.0 246.55 66.9 243.65 69.85 239.5 69.85 L-226.55 69.85 Q-230.7 69.85 -233.65 66.9 -236.55 64.0 -236.55 59.85 L-236.55 11.65 Q-236.55 7.5 -233.65 4.55 -230.7 1.65 -226.55 1.65 L239.5 1.65 Q243.65 1.65 246.55 4.55 M249.15 11.65 Q249.1 7.65 246.3 4.85 243.5 2.05 239.5 2.05 L-226.55 2.05 Q-230.55 2.05 -233.35 4.85 -236.15 7.65 -236.15 11.65 L-236.15 59.85 Q-236.15 63.85 -233.35 66.65 -230.55 69.45 -226.55 69.5 L239.5 69.5 Q243.5 69.45 246.3 66.65 249.1 63.85 249.15 59.85 L249.15 11.65" fill="#c99701" fill-opacity="0.05490196" fill-rule="evenodd" stroke="none"/>
    <path d="M248.75 11.65 Q248.75 7.8 246.05 5.1 243.35 2.4 239.5 2.4 L-226.55 2.4 Q-230.4 2.4 -233.1 5.1 -235.8 7.8 -235.8 11.65 L-235.8 59.85 Q-235.8 63.7 -233.1 66.4 -230.4 69.1 -226.55 69.1 L239.5 69.1 Q243.35 69.1 246.05 66.4 248.75 63.7 248.75 59.85 L248.75 11.65 M249.15 11.65 L249.15 59.85 Q249.1 63.85 246.3 66.65 243.5 69.45 239.5 69.5 L-226.55 69.5 Q-230.55 69.45 -233.35 66.65 -236.15 63.85 -236.15 59.85 L-236.15 11.65 Q-236.15 7.65 -233.35 4.85 -230.55 2.05 -226.55 2.05 L239.5 2.05 Q243.5 2.05 246.3 4.85 249.1 7.65 249.15 11.65" fill="#c99701" fill-opacity="0.11372549" fill-rule="evenodd" stroke="none"/>
    <path d="M248.4 11.65 Q248.35 7.95 245.75 5.35 243.2 2.8 239.5 2.8 L-226.55 2.8 Q-230.25 2.75 -232.85 5.35 -235.45 7.95 -235.4 11.65 L-235.4 59.85 Q-235.4 63.55 -232.85 66.1 -230.25 68.7 -226.55 68.75 L239.5 68.75 Q243.2 68.7 245.75 66.1 248.35 63.55 248.4 59.85 L248.4 11.65 M248.75 11.65 L248.75 59.85 Q248.75 63.7 246.05 66.4 243.35 69.1 239.5 69.1 L-226.55 69.1 Q-230.4 69.1 -233.1 66.4 -235.8 63.7 -235.8 59.85 L-235.8 11.65 Q-235.8 7.8 -233.1 5.1 -230.4 2.4 -226.55 2.4 L239.5 2.4 Q243.35 2.4 246.05 5.1 248.75 7.8 248.75 11.65" fill="#c99701" fill-opacity="0.17254902" fill-rule="evenodd" stroke="none"/>
    <path d="M248.4 11.65 L248.4 59.85 Q248.35 63.55 245.75 66.1 243.2 68.7 239.5 68.75 L-226.55 68.75 Q-230.25 68.7 -232.85 66.1 -235.4 63.55 -235.4 59.85 L-235.4 11.65 Q-235.45 7.95 -232.85 5.35 -230.25 2.75 -226.55 2.8 L239.5 2.8 Q243.2 2.8 245.75 5.35 248.35 7.95 248.4 11.65 M248.0 11.65 Q248.0 8.1 245.5 5.6 243.05 3.15 239.5 3.15 L-226.55 3.15 Q-230.05 3.15 -232.55 5.6 L-232.6 5.65 Q-235.05 8.15 -235.05 11.65 L-235.05 59.85 Q-235.05 63.4 -232.6 65.85 -230.1 68.35 -226.55 68.35 L239.5 68.35 Q243.0 68.35 245.5 65.85 248.0 63.35 248.0 59.85 L248.0 11.65" fill="#c99701" fill-opacity="0.23137255" fill-rule="evenodd" stroke="none"/>
    <path d="M246.15 11.65 L246.15 59.85 Q246.1 62.6 244.2 64.5 L244.15 64.55 Q242.25 66.45 239.5 66.5 L-226.55 66.5 Q-229.3 66.5 -231.25 64.55 -233.2 62.6 -233.15 59.85 L-233.15 11.65 Q-233.2 8.9 -231.25 6.95 -229.3 5.0 -226.55 5.05 L239.5 5.05 Q242.25 5.0 244.2 6.95 246.15 8.9 246.15 11.65 M245.75 11.65 Q245.75 9.05 243.9 7.2 242.1 5.4 239.5 5.4 L-226.55 5.4 Q-229.15 5.4 -230.95 7.2 L-231.0 7.25 Q-232.8 9.05 -232.8 11.65 L-232.8 59.85 Q-232.8 62.45 -231.0 64.25 -229.15 66.1 -226.55 66.1 L239.5 66.1 Q242.1 66.1 243.9 64.3 L243.95 64.25 Q245.75 62.45 245.75 59.85 L245.75 11.65" fill="#c99701" fill-opacity="0.58431375" fill-rule="evenodd" stroke="none"/>
    <path d="M245.75 11.65 L245.75 59.85 Q245.75 62.45 243.95 64.25 L243.9 64.3 Q242.1 66.1 239.5 66.1 L-226.55 66.1 Q-229.15 66.1 -231.0 64.25 -232.8 62.45 -232.8 59.85 L-232.8 11.65 Q-232.8 9.05 -231.0 7.25 L-230.95 7.2 Q-229.15 5.4 -226.55 5.4 L239.5 5.4 Q242.1 5.4 243.9 7.2 245.75 9.05 245.75 11.65 M245.4 11.65 Q245.35 9.2 243.65 7.5 241.95 5.75 239.5 5.8 L-226.55 5.8 Q-228.95 5.8 -230.7 7.45 L-230.75 7.5 Q-232.4 9.25 -232.4 11.65 L-232.4 59.85 Q-232.45 62.3 -230.7 64.0 -229.0 65.7 -226.55 65.75 L239.5 65.75 Q241.9 65.7 243.6 64.0 L243.65 63.95 Q245.35 62.25 245.4 59.85 L245.4 11.65" fill="#c99701" fill-opacity="0.6431373" fill-rule="evenodd" stroke="none"/>
    <path d="M245.0 11.65 Q245.0 9.35 243.4 7.75 241.8 6.15 239.5 6.15 L-226.55 6.15 Q-228.8 6.15 -230.45 7.7 L-230.5 7.75 Q-232.05 9.4 -232.05 11.65 L-232.05 59.85 Q-232.05 62.15 -230.45 63.75 -228.85 65.35 -226.55 65.35 L239.5 65.35 Q241.75 65.35 243.35 63.75 L243.4 63.7 Q245.0 62.1 245.0 59.85 L245.0 11.65 M245.4 11.65 L245.4 59.85 Q245.35 62.25 243.65 63.95 L243.6 64.0 Q241.9 65.7 239.5 65.75 L-226.55 65.75 Q-229.0 65.7 -230.7 64.0 -232.45 62.3 -232.4 59.85 L-232.4 11.65 Q-232.4 9.25 -230.75 7.5 L-230.7 7.45 Q-228.95 5.8 -226.55 5.8 L239.5 5.8 Q241.95 5.75 243.65 7.5 245.35 9.2 245.4 11.65" fill="#c99701" fill-opacity="0.7019608" fill-rule="evenodd" stroke="none"/>
    <path d="M245.0 11.65 L245.0 59.85 Q245.0 62.1 243.4 63.7 L243.35 63.75 Q241.75 65.35 239.5 65.35 L-226.55 65.35 Q-228.85 65.35 -230.45 63.75 -232.05 62.15 -232.05 59.85 L-232.05 11.65 Q-232.05 9.4 -230.5 7.75 L-230.45 7.7 Q-228.8 6.15 -226.55 6.15 L239.5 6.15 Q241.8 6.15 243.4 7.75 245.0 9.35 245.0 11.65 M244.65 11.65 Q244.6 9.5 243.1 8.0 241.6 6.5 239.5 6.55 L-226.55 6.55 Q-228.65 6.5 -230.15 8.0 L-230.2 8.05 Q-231.7 9.55 -231.65 11.65 L-231.65 59.85 Q-231.7 61.95 -230.2 63.45 -228.7 64.95 -226.55 65.0 L239.5 65.0 Q241.6 64.95 243.1 63.5 L243.15 63.45 Q244.6 61.95 244.65 59.85 L244.65 11.65" fill="#c99701" fill-opacity="0.7607843" fill-rule="evenodd" stroke="none"/>
    <path d="M244.65 11.65 L244.65 59.85 Q244.6 61.95 243.15 63.45 L243.1 63.5 Q241.6 64.95 239.5 65.0 L-226.55 65.0 Q-228.7 64.95 -230.2 63.45 -231.7 61.95 -231.65 59.85 L-231.65 11.65 Q-231.7 9.55 -230.2 8.05 L-230.15 8.0 Q-228.65 6.5 -226.55 6.55 L239.5 6.55 Q241.6 6.5 243.1 8.0 244.6 9.5 244.65 11.65 M244.25 59.85 L244.25 11.65 Q244.25 9.65 242.85 8.25 241.45 6.9 239.5 6.9 L-226.55 6.9 Q-228.5 6.9 -229.9 8.25 L-229.95 8.3 Q-231.3 9.7 -231.3 11.65 L-231.3 59.85 Q-231.3 61.8 -229.95 63.2 -228.55 64.6 -226.55 64.6 L239.5 64.6 Q241.45 64.6 242.8 63.25 L242.9 63.15 Q244.25 61.8 244.25 59.85" fill="#c99701" fill-opacity="0.81960785" fill-rule="evenodd" stroke="none"/>
    <path d="M244.25 59.85 Q244.25 61.8 242.9 63.15 L242.8 63.25 Q241.45 64.6 239.5 64.6 L-226.55 64.6 Q-228.55 64.6 -229.95 63.2 -231.3 61.8 -231.3 59.85 L-231.3 11.65 Q-231.3 9.7 -229.95 8.3 L-229.9 8.25 Q-228.5 6.9 -226.55 6.9 L239.5 6.9 Q241.45 6.9 242.85 8.25 244.25 9.65 244.25 11.65 L244.25 59.85 M243.9 59.85 L243.9 11.65 Q243.85 9.8 242.6 8.55 241.3 7.25 239.5 7.3 L-226.55 7.3 Q-228.35 7.25 -229.65 8.5 L-229.7 8.55 Q-230.95 9.85 -230.9 11.65 L-230.9 59.85 Q-230.95 61.65 -229.65 62.95 -228.4 64.2 -226.55 64.25 L239.5 64.25 Q241.3 64.2 242.55 62.95 L242.6 62.9 Q243.85 61.65 243.9 59.85" fill="#c99701" fill-opacity="0.8784314" fill-rule="evenodd" stroke="none"/>
    <path d="M243.5 59.85 L243.5 11.65 Q243.5 10.0 242.3 8.8 241.15 7.65 239.5 7.65 L-226.55 7.65 Q-228.2 7.65 -229.35 8.75 L-229.45 8.85 Q-230.55 10.0 -230.55 11.65 L-230.55 59.85 Q-230.55 61.5 -229.4 62.65 -228.2 63.85 -226.55 63.85 L239.5 63.85 Q241.15 63.85 242.3 62.7 L242.35 62.65 Q243.5 61.5 243.5 59.85 M243.9 59.85 Q243.85 61.65 242.6 62.9 L242.55 62.95 Q241.3 64.2 239.5 64.25 L-226.55 64.25 Q-228.4 64.2 -229.65 62.95 -230.95 61.65 -230.9 59.85 L-230.9 11.65 Q-230.95 9.85 -229.7 8.55 L-229.65 8.5 Q-228.35 7.25 -226.55 7.3 L239.5 7.3 Q241.3 7.25 242.6 8.55 243.85 9.8 243.9 11.65 L243.9 59.85" fill="#c99701" fill-opacity="0.9372549" fill-rule="evenodd" stroke="none"/>
    <path d="M246.55 4.55 Q243.65 1.65 239.5 1.65 L-226.55 1.65 Q-230.7 1.65 -233.65 4.55 -236.55 7.5 -236.55 11.65 L-236.55 59.85 Q-236.55 64.0 -233.65 66.9 -230.7 69.85 -226.55 69.85 L239.5 69.85 Q243.65 69.85 246.55 66.9 249.5 64.0 249.5 59.85 L249.5 11.65 Q249.5 7.5 246.55 4.55 Z" fill="none" stroke="#764629" stroke-linecap="round" stroke-linejoin="round" stroke-width="1.0"/>
  </g>
  <defs>
    <linearGradient gradientTransform="matrix(0.0, 0.0416, -0.1204, 0.0, 150.9, 35.75)" gradientUnits="userSpaceOnUse" id="gradient0" spreadMethod="pad" x1="-819.2" x2="819.2">
      <stop offset="0.23921568627450981" stop-color="#ffffcc"/>
      <stop offset="0.6" stop-color="#8f7001"/>
    </linearGradient>
    <linearGradient gradientTransform="matrix(0.0, 0.0416, -0.1204, 0.0, -137.9, 35.75)" gradientUnits="userSpaceOnUse" id="gradient1" spreadMethod="pad" x1="-819.2" x2="819.2">
      <stop offset="0.23921568627450981" stop-color="#ffffcc"/>
      <stop offset="0.6" stop-color="#8f7001"/>
    </linearGradient>
    <linearGradient gradientTransform="matrix(0.0, 0.0416, -1.0974, 0.0, 207.9, 35.75)" gradientUnits="userSpaceOnUse" id="gradient2" spreadMethod="pad" x1="-819.2" x2="819.2">
      <stop offset="0.23921568627450981" stop-color="#ffffcc"/>
      <stop offset="0.6" stop-color="#8f7001"/>
    </linearGradient>
  </defs>
</svg>
