<?xml version="1.0" encoding="UTF-8" standalone="no"?>
<svg xmlns:xlink="http://www.w3.org/1999/xlink" height="28.0px" width="223.7px" xmlns="http://www.w3.org/2000/svg">
  <g transform="matrix(1.0, 0.0, 0.0, 1.0, 132.95, 14.0)">
    <path d="M88.75 -12.05 Q90.25 -10.55 90.25 -8.5 L90.25 8.5 Q90.25 10.55 88.75 12.0 87.3 13.5 85.25 13.5 L-127.45 13.5 Q-129.5 13.5 -131.0 12.0 -132.45 10.55 -132.45 8.5 L-132.45 -8.5 Q-132.45 -10.55 -131.0 -12.05 -129.5 -13.5 -127.45 -13.5 L85.25 -13.5 Q87.3 -13.5 88.75 -12.05" fill="#ffff99" fill-rule="evenodd" stroke="none"/>
    <path d="M85.85 -9.1 L86.15 -8.5 86.15 8.5 85.9 9.05 85.8 9.15 85.25 9.4 -127.45 9.4 Q-127.8 9.35 -128.05 9.1 L-128.3 8.5 -128.3 -8.5 -128.05 -9.1 -127.45 -9.35 85.25 -9.35 85.85 -9.1 M85.75 -8.5 L85.6 -8.85 85.25 -9.0 -127.45 -9.0 -127.8 -8.85 -127.95 -8.5 -127.95 8.5 -127.8 8.85 -127.45 9.0 85.25 9.0 85.55 8.9 85.65 8.8 85.75 8.5 85.75 -8.5" fill="#ffcc00" fill-opacity="0.92156863" fill-rule="evenodd" stroke="none"/>
    <path d="M86.5 -8.5 L86.5 8.5 86.15 9.3 86.05 9.4 Q85.7 9.75 85.25 9.75 L-127.45 9.75 Q-127.95 9.75 -128.35 9.35 -128.7 9.0 -128.7 8.5 L-128.7 -8.5 -128.4 -9.35 -128.35 -9.4 -128.3 -9.45 -127.45 -9.75 85.25 -9.75 86.1 -9.4 86.5 -8.5 M85.85 -9.1 L85.25 -9.35 -127.45 -9.35 -128.05 -9.1 -128.3 -8.5 -128.3 8.5 -128.05 9.1 Q-127.8 9.35 -127.45 9.4 L85.25 9.4 85.8 9.15 85.9 9.05 86.15 8.5 86.15 -8.5 85.85 -9.1" fill="#ffcc00" fill-opacity="0.84313726" fill-rule="evenodd" stroke="none"/>
    <path d="M89.15 -8.5 Q89.1 -10.1 87.95 -11.25 86.85 -12.35 85.25 -12.35 L-127.45 -12.35 Q-129.05 -12.4 -130.2 -11.25 -131.35 -10.1 -131.3 -8.5 L-131.3 8.5 Q-131.3 10.1 -130.2 11.2 -129.05 12.35 -127.45 12.4 L85.25 12.4 Q86.85 12.4 87.95 11.25 L88.0 11.2 Q89.15 10.1 89.15 8.5 L89.15 -8.5 M89.5 -8.5 L89.5 8.5 Q89.5 10.25 88.25 11.45 L88.2 11.5 Q87.0 12.75 85.25 12.75 L-127.45 12.75 Q-129.2 12.75 -130.45 11.5 -131.7 10.25 -131.7 8.5 L-131.7 -8.5 Q-131.7 -10.25 -130.45 -11.5 -129.2 -12.75 -127.45 -12.75 L85.25 -12.75 Q87.0 -12.75 88.25 -11.5 89.5 -10.25 89.5 -8.5" fill="#ffcc00" fill-opacity="0.22745098" fill-rule="evenodd" stroke="none"/>
    <path d="M88.75 -8.5 Q88.75 -9.95 87.7 -11.0 86.7 -12.0 85.25 -12.0 L-127.45 -12.0 Q-128.9 -12.0 -129.9 -11.0 L-129.95 -10.95 Q-130.95 -9.95 -130.95 -8.5 L-130.95 8.5 Q-130.95 9.95 -129.95 10.95 -128.9 12.0 -127.45 12.0 L85.25 12.0 Q86.65 12.0 87.7 10.95 88.75 9.9 88.75 8.5 L88.75 -8.5 M89.15 -8.5 L89.15 8.5 Q89.15 10.1 88.0 11.2 L87.95 11.25 Q86.85 12.4 85.25 12.4 L-127.45 12.4 Q-129.05 12.35 -130.2 11.2 -131.3 10.1 -131.3 8.5 L-131.3 -8.5 Q-131.35 -10.1 -130.2 -11.25 -129.05 -12.4 -127.45 -12.35 L85.25 -12.35 Q86.85 -12.35 87.95 -11.25 89.1 -10.1 89.15 -8.5" fill="#ffcc00" fill-opacity="0.3019608" fill-rule="evenodd" stroke="none"/>
    <path d="M88.75 -8.5 L88.75 8.5 Q88.75 9.9 87.7 10.95 86.65 12.0 85.25 12.0 L-127.45 12.0 Q-128.9 12.0 -129.95 10.95 -130.95 9.95 -130.95 8.5 L-130.95 -8.5 Q-130.95 -9.95 -129.95 -10.95 L-129.9 -11.0 Q-128.9 -12.0 -127.45 -12.0 L85.25 -12.0 Q86.7 -12.0 87.7 -11.0 88.75 -9.95 88.75 -8.5 M88.4 -8.5 Q88.35 -9.8 87.45 -10.7 86.5 -11.65 85.25 -11.6 L-127.45 -11.6 Q-128.7 -11.6 -129.65 -10.75 L-129.7 -10.7 Q-130.55 -9.75 -130.55 -8.5 L-130.55 8.5 Q-130.6 9.75 -129.65 10.7 -128.75 11.6 -127.45 11.65 L85.25 11.65 Q86.5 11.6 87.4 10.7 L87.45 10.65 Q88.35 9.75 88.4 8.5 L88.4 -8.5" fill="#ffcc00" fill-opacity="0.38039216" fill-rule="evenodd" stroke="none"/>
    <path d="M88.0 -8.5 Q88.0 -9.6 87.15 -10.45 86.35 -11.25 85.25 -11.25 L-127.45 -11.25 Q-128.55 -11.25 -129.35 -10.45 L-129.4 -10.4 Q-130.2 -9.6 -130.2 -8.5 L-130.2 8.5 Q-130.2 9.6 -129.4 10.4 -128.55 11.25 -127.45 11.25 L85.25 11.25 Q86.35 11.25 87.15 10.45 L87.2 10.4 Q88.0 9.6 88.0 8.5 L88.0 -8.5 M88.4 -8.5 L88.4 8.5 Q88.35 9.75 87.45 10.65 L87.4 10.7 Q86.5 11.6 85.25 11.65 L-127.45 11.65 Q-128.75 11.6 -129.65 10.7 -130.6 9.75 -130.55 8.5 L-130.55 -8.5 Q-130.55 -9.75 -129.7 -10.7 L-129.65 -10.75 Q-128.7 -11.6 -127.45 -11.6 L85.25 -11.6 Q86.5 -11.65 87.45 -10.7 88.35 -9.8 88.4 -8.5" fill="#ffcc00" fill-opacity="0.45882353" fill-rule="evenodd" stroke="none"/>
    <path d="M87.65 -8.5 Q87.6 -9.5 86.9 -10.2 86.2 -10.9 85.25 -10.85 L-127.45 -10.85 Q-128.4 -10.85 -129.1 -10.2 L-129.15 -10.15 Q-129.8 -9.45 -129.8 -8.5 L-129.8 8.5 Q-129.85 9.45 -129.15 10.15 -128.45 10.85 -127.45 10.9 L85.25 10.9 Q86.2 10.85 86.9 10.2 L86.95 10.15 Q87.6 9.45 87.65 8.5 L87.65 -8.5 M88.0 -8.5 L88.0 8.5 Q88.0 9.6 87.2 10.4 L87.15 10.45 Q86.35 11.25 85.25 11.25 L-127.45 11.25 Q-128.55 11.25 -129.4 10.4 -130.2 9.6 -130.2 8.5 L-130.2 -8.5 Q-130.2 -9.6 -129.4 -10.4 L-129.35 -10.45 Q-128.55 -11.25 -127.45 -11.25 L85.25 -11.25 Q86.35 -11.25 87.15 -10.45 88.0 -9.6 88.0 -8.5" fill="#ffcc00" fill-opacity="0.53333336" fill-rule="evenodd" stroke="none"/>
    <path d="M87.25 -8.5 Q87.25 -9.3 86.65 -9.9 86.05 -10.5 85.25 -10.5 L-127.45 -10.5 Q-128.25 -10.5 -128.85 -9.95 L-128.9 -9.9 Q-129.45 -9.3 -129.45 -8.5 L-129.45 8.5 Q-129.45 9.3 -128.85 9.9 -128.25 10.5 -127.45 10.5 L85.25 10.5 Q86.05 10.5 86.6 9.95 L86.7 9.85 Q87.25 9.3 87.25 8.5 L87.25 -8.5 M87.65 -8.5 L87.65 8.5 Q87.6 9.45 86.95 10.15 L86.9 10.2 Q86.2 10.85 85.25 10.9 L-127.45 10.9 Q-128.45 10.85 -129.15 10.15 -129.85 9.45 -129.8 8.5 L-129.8 -8.5 Q-129.8 -9.45 -129.15 -10.15 L-129.1 -10.2 Q-128.4 -10.85 -127.45 -10.85 L85.25 -10.85 Q86.2 -10.9 86.9 -10.2 87.6 -9.5 87.65 -8.5" fill="#ffcc00" fill-opacity="0.6117647" fill-rule="evenodd" stroke="none"/>
    <path d="M87.25 -8.5 L87.25 8.5 Q87.25 9.3 86.7 9.85 L86.6 9.95 Q86.05 10.5 85.25 10.5 L-127.45 10.5 Q-128.25 10.5 -128.85 9.9 -129.45 9.3 -129.45 8.5 L-129.45 -8.5 Q-129.45 -9.3 -128.9 -9.9 L-128.85 -9.95 Q-128.25 -10.5 -127.45 -10.5 L85.25 -10.5 Q86.05 -10.5 86.65 -9.9 87.25 -9.3 87.25 -8.5 M86.9 -8.5 Q86.85 -9.15 86.4 -9.65 85.9 -10.15 85.25 -10.1 L-127.45 -10.1 Q-128.1 -10.1 -128.55 -9.7 L-128.65 -9.6 Q-129.05 -9.15 -129.05 -8.5 L-129.05 8.5 Q-129.1 9.15 -128.6 9.65 -128.1 10.1 -127.45 10.15 L85.25 10.15 Q85.9 10.1 86.35 9.65 L86.4 9.6 Q86.85 9.15 86.9 8.5 L86.9 -8.5" fill="#ffcc00" fill-opacity="0.6901961" fill-rule="evenodd" stroke="none"/>
    <path d="M86.9 -8.5 L86.9 8.5 Q86.85 9.15 86.4 9.6 L86.35 9.65 Q85.9 10.1 85.25 10.15 L-127.45 10.15 Q-128.1 10.1 -128.6 9.65 -129.1 9.15 -129.05 8.5 L-129.05 -8.5 Q-129.05 -9.15 -128.65 -9.6 L-128.55 -9.7 Q-128.1 -10.1 -127.45 -10.1 L85.25 -10.1 Q85.9 -10.15 86.4 -9.65 86.85 -9.15 86.9 -8.5 M86.5 -8.5 L86.1 -9.4 85.25 -9.75 -127.45 -9.75 -128.3 -9.45 -128.35 -9.4 -128.4 -9.35 -128.7 -8.5 -128.7 8.5 Q-128.7 9.0 -128.35 9.35 -127.95 9.75 -127.45 9.75 L85.25 9.75 Q85.7 9.75 86.05 9.4 L86.15 9.3 86.5 8.5 86.5 -8.5" fill="#ffcc00" fill-opacity="0.7647059" fill-rule="evenodd" stroke="none"/>
    <path d="M88.75 -12.05 Q90.25 -10.55 90.25 -8.5 L90.25 8.5 Q90.25 10.55 88.75 12.0 87.3 13.5 85.25 13.5 L-127.45 13.5 Q-129.5 13.5 -131.0 12.0 -132.45 10.55 -132.45 8.5 L-132.45 -8.5 Q-132.45 -10.55 -131.0 -12.05 -129.5 -13.5 -127.45 -13.5 L85.25 -13.5 Q87.3 -13.5 88.75 -12.05 M89.9 -8.5 Q89.85 -10.4 88.5 -11.75 87.15 -13.1 85.25 -13.1 L-127.45 -13.1 Q-129.35 -13.1 -130.7 -11.8 L-130.75 -11.75 Q-132.05 -10.4 -132.05 -8.5 L-132.05 8.5 Q-132.05 10.4 -130.7 11.75 -129.35 13.1 -127.45 13.15 L85.25 13.15 Q87.15 13.15 88.5 11.75 89.9 10.4 89.9 8.5 L89.9 -8.5" fill="#ffcc00" fill-opacity="0.07058824" fill-rule="evenodd" stroke="none"/>
    <path d="M89.9 -8.5 L89.9 8.5 Q89.9 10.4 88.5 11.75 87.15 13.15 85.25 13.15 L-127.45 13.15 Q-129.35 13.1 -130.7 11.75 -132.05 10.4 -132.05 8.5 L-132.05 -8.5 Q-132.05 -10.4 -130.75 -11.75 L-130.7 -11.8 Q-129.35 -13.1 -127.45 -13.1 L85.25 -13.1 Q87.15 -13.1 88.5 -11.75 89.85 -10.4 89.9 -8.5 M89.5 -8.5 Q89.5 -10.25 88.25 -11.5 87.0 -12.75 85.25 -12.75 L-127.45 -12.75 Q-129.2 -12.75 -130.45 -11.5 -131.7 -10.25 -131.7 -8.5 L-131.7 8.5 Q-131.7 10.25 -130.45 11.5 -129.2 12.75 -127.45 12.75 L85.25 12.75 Q87.0 12.75 88.2 11.5 L88.25 11.45 Q89.5 10.25 89.5 8.5 L89.5 -8.5" fill="#ffcc00" fill-opacity="0.14901961" fill-rule="evenodd" stroke="none"/>
    <path d="M85.75 -8.5 L85.75 8.5 85.65 8.8 85.55 8.9 85.25 9.0 -127.45 9.0 -127.8 8.85 -127.95 8.5 -127.95 -8.5 -127.8 -8.85 -127.45 -9.0 85.25 -9.0 85.6 -8.85 85.75 -8.5" fill="#ffcc00" fill-rule="evenodd" stroke="none"/>
    <path d="M88.75 -12.05 Q87.3 -13.5 85.25 -13.5 L-127.45 -13.5 Q-129.5 -13.5 -131.0 -12.05 -132.45 -10.55 -132.45 -8.5 L-132.45 8.5 Q-132.45 10.55 -131.0 12.0 -129.5 13.5 -127.45 13.5 L85.25 13.5 Q87.3 13.5 88.75 12.0 90.25 10.55 90.25 8.5 L90.25 -8.5 Q90.25 -10.55 88.75 -12.05 Z" fill="none" stroke="#000000" stroke-linecap="round" stroke-linejoin="round" stroke-width="1.0"/>
  </g>
</svg>
