<?xml version="1.0" encoding="UTF-8" standalone="no"?>
<svg xmlns:xlink="http://www.w3.org/1999/xlink" height="39.55px" width="30.8px" xmlns="http://www.w3.org/2000/svg">
  <g transform="matrix(1.0, 0.0, 0.0, 1.0, 15.75, 17.0)">
    <path d="M-7.35 -16.5 Q-1.0 -15.75 5.45 -14.45 11.25 -13.25 14.05 -8.9 14.75 -7.8 14.55 -6.25 11.95 -0.4 7.2 4.25 6.6 2.7 4.9 1.8 2.4 0.4 -0.55 0.1 L-6.2 0.05 -2.85 -4.7 -10.85 -5.6 -7.35 -16.5 M-2.45 -9.3 Q-3.2 -7.3 -2.8 -4.8 L-2.8 -4.75 -2.8 -4.8 -2.6 -5.0 -2.8 -4.8 Q-3.2 -7.3 -2.45 -9.3 M3.95 -8.0 Q0.3 -8.5 -1.6 -6.25 L-2.4 -5.25 -2.5 -5.15 -2.5 -5.1 -2.6 -5.0 -2.5 -5.1 -2.5 -5.15 -2.4 -5.25 -1.6 -6.25 Q0.3 -8.5 3.95 -8.0" fill="#d6883a" fill-rule="evenodd" stroke="none"/>
    <path d="M7.2 4.25 Q7.5 5.15 7.45 6.25 7.35 9.25 4.2 10.05 3.05 10.35 2.55 9.8 L3.05 9.15 Q3.45 8.5 3.3 7.65 L3.05 7.35 3.05 7.3 Q-1.25 2.75 -7.45 3.95 L-8.65 4.25 Q-9.25 1.75 -6.2 0.05 L-0.55 0.1 Q2.4 0.4 4.9 1.8 6.6 2.7 7.2 4.25" fill="#dea063" fill-rule="evenodd" stroke="none"/>
    <path d="M2.55 9.8 L2.3 10.3 Q1.35 12.1 -0.8 12.6 -0.2 13.15 0.9 13.45 3.45 14.1 2.35 16.0 1.3 17.85 -0.65 17.45 L-1.35 17.3 Q-1.05 17.7 -1.1 18.05 -1.6 20.05 -3.15 20.35 L-3.4 20.4 -5.5 19.85 Q-7.25 19.2 -8.35 18.0 L-8.4 18.95 Q-8.7 20.95 -10.3 22.05 -12.05 23.2 -13.05 20.85 -13.85 19.0 -13.9 17.05 -13.95 15.65 -13.65 14.3 L-13.45 13.6 -15.05 12.15 Q-15.5 11.35 -15.25 10.7 -14.6 8.95 -13.1 7.7 -11.75 6.55 -10.0 5.65 L-9.1 4.5 -9.05 4.55 -8.65 4.5 -7.45 3.95 Q-1.25 2.75 3.05 7.3 L3.05 7.35 3.3 7.65 Q3.45 8.5 3.05 9.15 L2.55 9.8 M-12.25 10.6 L-12.3 10.65 Q-13.6 11.95 -13.45 13.5 L-12.1 10.4 -12.25 10.6 M-1.5 11.65 L-0.8 12.6 -1.5 11.65 M-9.55 14.25 Q-9.8 16.35 -8.45 17.9 L-8.35 18.0 -8.45 17.9 Q-9.8 16.35 -9.55 14.25 M-6.1 12.95 Q-6.05 15.05 -4.25 16.1 -2.85 16.9 -1.35 17.3 -2.85 16.9 -4.25 16.1 -6.05 15.05 -6.1 12.95 M-13.45 13.6 L-13.45 13.5 -13.45 13.6 M-12.1 10.4 L-10.9 7.55 -10.0 5.65 -10.9 7.55 -12.1 10.4" fill="#ffcc99" fill-rule="evenodd" stroke="none"/>
    <path d="M-7.35 -16.5 Q-1.0 -15.75 5.45 -14.45 11.25 -13.25 14.05 -8.9 14.75 -7.8 14.55 -6.25 11.95 -0.4 7.2 4.25 7.5 5.15 7.45 6.25 7.35 9.25 4.2 10.05 3.05 10.35 2.55 9.8 L2.3 10.3 Q1.35 12.1 -0.8 12.6 -0.2 13.15 0.9 13.45 3.45 14.1 2.35 16.0 1.3 17.85 -0.65 17.45 L-1.35 17.3 Q-1.05 17.7 -1.1 18.05 -1.6 20.05 -3.15 20.35 L-3.4 20.4 -5.5 19.85 Q-7.25 19.2 -8.35 18.0 L-8.4 18.95 Q-8.7 20.95 -10.3 22.05 -12.05 23.2 -13.05 20.85 -13.85 19.0 -13.9 17.05 -13.95 15.65 -13.65 14.3 L-13.45 13.6 -15.05 12.15 Q-15.5 11.35 -15.25 10.7 -14.6 8.95 -13.1 7.7 -11.75 6.55 -10.0 5.65 L-9.1 4.5 -9.0 4.45 -8.95 4.45 -8.9 4.35 -8.65 4.25 Q-9.25 1.75 -6.2 0.05 L-2.85 -4.7 -10.85 -5.6 M-2.6 -5.0 L-2.5 -5.1 -2.5 -5.15 -2.4 -5.25 -1.6 -6.25 Q0.3 -8.5 3.95 -8.0 M-2.8 -4.75 L-2.8 -4.8 -2.6 -5.0 M-2.8 -4.8 Q-3.2 -7.3 -2.45 -9.3 M-7.45 3.95 L-8.65 4.5 -9.05 4.55 -9.0 4.45 M-8.65 4.25 L-7.45 3.95 Q-1.25 2.75 3.05 7.3 M3.05 7.35 L3.3 7.65 Q3.45 8.5 3.05 9.15 L2.55 9.8 M7.2 4.25 Q6.6 2.7 4.9 1.8 2.4 0.4 -0.55 0.1 L-6.2 0.05 M-13.45 13.5 L-12.1 10.4 -12.25 10.6 M-10.0 5.65 L-10.9 7.55 -12.1 10.4 M-13.45 13.5 L-13.45 13.6 M-1.35 17.3 Q-2.85 16.9 -4.25 16.1 -6.05 15.05 -6.1 12.95 M-8.35 18.0 L-8.45 17.9 Q-9.8 16.35 -9.55 14.25 M-0.8 12.6 L-1.5 11.65" fill="none" stroke="#92581f" stroke-linecap="round" stroke-linejoin="round" stroke-width="1.0"/>
  </g>
</svg>
