<?xml version="1.0" encoding="UTF-8" standalone="no"?>
<svg xmlns:xlink="http://www.w3.org/1999/xlink" height="107.35px" width="87.95px" xmlns="http://www.w3.org/2000/svg">
  <g transform="matrix(1.0, 0.0, 0.0, 1.0, 43.8, 67.4)">
    <path d="M39.5 15.85 L40.35 16.4 Q43.35 19.0 43.4 23.2 43.45 27.5 39.6 29.35 36.2 31.05 32.55 32.15 L25.35 34.25 18.45 35.8 11.95 37.1 4.75 38.35 -2.7 38.65 -9.2 39.05 Q-12.45 39.4 -15.7 39.2 L-22.8 38.25 Q-26.7 37.45 -30.3 35.7 -33.5 34.1 -36.55 32.2 -39.3 30.45 -39.45 27.45 -39.6 23.65 -38.75 18.7 -36.45 22.3 -31.4 24.3 -24.4 27.05 -16.45 27.95 L4.0 28.95 Q16.5 29.05 21.7 27.05 L31.2 23.15 Q34.55 21.65 37.15 19.2 38.75 17.7 39.5 15.85" fill="#ffff99" fill-rule="evenodd" stroke="none"/>
    <path d="M0.9 3.5 Q0.15 3.2 -0.2 2.4 -1.7 -0.9 -1.3 -4.9 L-0.55 -11.6 Q-0.15 -15.45 0.0 -19.35 0.1 -22.75 0.65 -26.15 L1.65 -33.1 Q2.0 -36.45 2.0 -42.45 23.6 -89.25 36.45 -45.75 L37.55 -34.45 Q38.5 -30.75 38.55 -26.8 38.65 -23.1 39.35 -19.45 L40.65 -12.3 Q41.3 -8.5 41.35 -4.65 41.35 -0.85 40.8 2.85 40.65 4.05 38.65 4.4 L38.25 4.5 30.95 5.0 23.7 5.0 16.45 4.7 8.85 4.1 1.75 3.7 0.9 3.5" fill="#009900" fill-rule="evenodd" stroke="none"/>
    <path d="M0.9 3.5 L1.75 3.7 8.85 4.1 16.45 4.7 23.7 5.0 30.95 5.0 38.25 4.5 Q39.05 5.75 39.5 7.2 40.55 10.3 40.1 13.5 L39.5 15.85 Q38.75 17.7 37.15 19.2 34.55 21.65 31.2 23.15 L21.7 27.05 Q16.5 29.05 4.0 28.95 L-16.45 27.95 Q-24.4 27.05 -31.4 24.3 -36.45 22.3 -38.75 18.7 L-38.85 18.45 Q-39.7 17.15 -40.15 15.6 -41.9 9.65 -43.05 4.0 -44.25 -2.2 -41.55 -7.9 -39.45 -12.25 -36.15 -15.7 -32.05 -20.05 -26.15 -21.15 -20.95 -22.1 -17.55 -20.3 -20.8 -19.0 -23.2 -16.5 -25.85 -13.7 -27.35 -10.15 -29.0 -6.35 -26.65 -3.0 -24.4 0.2 -21.0 1.9 L-17.15 3.45 -14.05 4.2 -8.75 4.85 -6.6 4.85 Q-3.7 4.8 -0.95 4.05 L0.9 3.5 M-4.75 12.2 Q-5.15 11.75 -5.2 11.1 -5.45 6.85 -8.75 4.85 -5.45 6.85 -5.2 11.1 -5.15 11.75 -4.75 12.2 M-15.15 10.9 Q-15.0 6.8 -17.15 3.45 -15.0 6.8 -15.15 10.9 M3.65 10.35 L3.35 9.2 Q2.5 5.4 -0.95 4.05 2.5 5.4 3.35 9.2 L3.65 10.35" fill="#7fcb7f" fill-rule="evenodd" stroke="none"/>
    <path d="M39.5 15.85 L40.35 16.4 Q43.35 19.0 43.4 23.2 43.45 27.5 39.6 29.35 36.2 31.05 32.55 32.15 L25.35 34.25 18.45 35.8 11.95 37.1 4.75 38.35 -2.7 38.65 -9.2 39.05 Q-12.45 39.4 -15.7 39.2 L-22.8 38.25 Q-26.7 37.45 -30.3 35.7 -33.5 34.1 -36.55 32.2 -39.3 30.45 -39.45 27.45 -39.6 23.65 -38.75 18.7 M-0.95 4.05 Q2.5 5.4 3.35 9.2 L3.65 10.35 M-17.15 3.45 Q-15.0 6.8 -15.15 10.9 M-8.75 4.85 Q-5.45 6.85 -5.2 11.1 -5.15 11.75 -4.75 12.2" fill="none" stroke="#d6c258" stroke-linecap="round" stroke-linejoin="round" stroke-width="1.0"/>
    <path d="M38.25 4.5 L38.65 4.4 Q40.65 4.05 40.8 2.85 41.35 -0.85 41.35 -4.65 41.3 -8.5 40.65 -12.3 L39.35 -19.45 Q38.65 -23.1 38.55 -26.8 38.5 -30.75 37.55 -34.45 L36.45 -45.75 Q23.6 -89.25 2.0 -42.45 2.0 -36.45 1.65 -33.1 L0.65 -26.15 Q0.1 -22.75 0.0 -19.35 -0.15 -15.45 -0.55 -11.6 L-1.3 -4.9 Q-1.7 -0.9 -0.2 2.4 0.15 3.2 0.9 3.5 L1.75 3.7 8.85 4.1 16.45 4.7 23.7 5.0 30.95 5.0 38.25 4.5 Q39.05 5.75 39.5 7.2 40.55 10.3 40.1 13.5 L39.5 15.85 Q38.75 17.7 37.15 19.2 34.55 21.65 31.2 23.15 L21.7 27.05 Q16.5 29.05 4.0 28.95 L-16.45 27.95 Q-24.4 27.05 -31.4 24.3 -36.45 22.3 -38.75 18.7 L-38.85 18.45 Q-39.7 17.15 -40.15 15.6 -41.9 9.65 -43.05 4.0 -44.25 -2.2 -41.55 -7.9 -39.45 -12.25 -36.15 -15.7 -32.05 -20.05 -26.15 -21.15 -20.95 -22.1 -17.55 -20.3 -20.8 -19.0 -23.2 -16.5 -25.85 -13.7 -27.35 -10.15 -29.0 -6.35 -26.65 -3.0 -24.4 0.2 -21.0 1.9 L-17.15 3.45 -14.05 4.2 -8.75 4.85 -6.6 4.85 Q-3.7 4.8 -0.95 4.05 L0.9 3.5" fill="none" stroke="#003300" stroke-linecap="round" stroke-linejoin="round" stroke-width="1.5"/>
  </g>
</svg>
