<?xml version="1.0" encoding="UTF-8" standalone="no"?>
<svg xmlns:xlink="http://www.w3.org/1999/xlink" height="67.25px" width="57.85px" xmlns="http://www.w3.org/2000/svg">
  <g transform="matrix(1.0, 0.0, 0.0, 1.0, 29.0, 33.6)">
    <path d="M-6.5 7.75 L-5.6 9.45 -1.05 15.55 Q0.6 17.7 2.85 18.4 3.15 23.05 0.25 26.1 -2.45 28.95 -6.55 28.95 L-8.0 28.95 Q-7.7 32.8 -10.1 32.9 -14.95 33.2 -12.9 28.3 L-14.0 28.05 -14.8 27.85 Q-16.45 29.8 -18.6 30.85 L-20.2 30.75 Q-24.15 28.25 -19.6 25.25 L-20.65 24.25 -22.4 21.8 -25.8 22.1 Q-28.05 22.0 -28.25 19.9 -28.6 15.75 -23.3 15.85 -22.85 12.9 -20.6 10.65 -17.8 7.8 -13.8 7.95 L-6.5 7.75" fill="#ffb9b9" fill-rule="evenodd" stroke="none"/>
    <path d="M-6.5 7.75 Q-7.15 5.65 -4.3 3.05 L1.3 -2.3 Q4.1 -5.1 6.65 -9.4 7.6 -12.95 7.8 -16.75 L8.0 -24.45 Q9.65 -32.45 16.85 -32.85 29.8 -33.9 28.1 -19.25 L27.7 -14.9 27.0 -7.2 Q26.65 -3.45 25.75 0.2 25.4 1.55 24.35 2.8 22.0 5.8 19.0 8.35 L13.3 13.45 Q10.45 16.1 7.15 18.2 6.4 18.65 5.5 18.7 L2.85 18.4 Q0.6 17.7 -1.05 15.55 L-5.6 9.45 -6.5 7.75" fill="#009900" fill-rule="evenodd" stroke="none"/>
    <path d="M-6.5 7.75 L-13.8 7.95 Q-17.8 7.8 -20.6 10.65 -22.85 12.9 -23.3 15.85 -28.6 15.75 -28.25 19.9 -28.05 22.0 -25.8 22.1 L-22.4 21.8 -20.65 24.25 -19.6 25.25 Q-24.15 28.25 -20.2 30.75 L-18.6 30.85 Q-16.45 29.8 -14.8 27.85 L-14.0 28.05 -12.9 28.3 Q-14.95 33.2 -10.1 32.9 -7.7 32.8 -8.0 28.95 L-6.55 28.95 Q-2.45 28.95 0.25 26.1 3.15 23.05 2.85 18.4" fill="none" stroke="#db7e6f" stroke-linecap="round" stroke-linejoin="round" stroke-width="1.5"/>
    <path d="M8.0 -24.45 L7.8 -16.75 Q7.6 -12.95 6.65 -9.4 4.1 -5.1 1.3 -2.3 L-4.3 3.05 Q-7.15 5.65 -6.5 7.75 L-5.6 9.45 -1.05 15.55 Q0.6 17.7 2.85 18.4 L5.5 18.7 Q6.4 18.65 7.15 18.2 10.45 16.1 13.3 13.45 L19.0 8.35 Q22.0 5.8 24.35 2.8 25.4 1.55 25.75 0.2 26.65 -3.45 27.0 -7.2 L27.7 -14.9 28.1 -19.25" fill="none" stroke="#003300" stroke-linecap="round" stroke-linejoin="round" stroke-width="1.5"/>
  </g>
</svg>
