<?xml version="1.0" encoding="UTF-8" standalone="no"?>
<svg xmlns:xlink="http://www.w3.org/1999/xlink" height="90.5px" width="91.65px" xmlns="http://www.w3.org/2000/svg">
  <g transform="matrix(1.0, 0.0, 0.0, 1.0, 45.4, 40.95)">
    <path d="M41.8 14.45 Q44.95 14.75 45.5 17.3 46.3 21.3 43.3 24.3 L37.8 29.4 31.8 33.95 26.15 37.6 Q23.25 39.4 20.1 40.8 L13.55 43.35 7.5 45.55 Q3.8 46.95 -0.15 47.5 L-5.3 48.25 -7.25 48.45 -14.0 48.8 -20.35 48.6 -20.7 48.5 -20.75 48.55 -28.5 47.55 Q-31.45 47.0 -31.95 44.05 -32.3 41.7 -31.55 39.85 -30.95 38.5 -29.75 37.4 L-28.15 38.3 -27.2 38.75 Q-25.05 39.65 -22.55 40.0 L-21.85 40.05 -19.45 40.1 -15.55 40.25 -12.95 39.9 -8.15 39.0 -5.85 38.55 -1.8 37.5 5.0 35.6 11.9 33.35 17.9 31.15 24.9 28.0 31.5 24.7 Q35.05 23.05 37.95 20.5 40.55 18.25 41.6 15.05 L41.8 14.45" fill="#ffff99" fill-rule="evenodd" stroke="none"/>
    <path d="M-26.65 -25.0 L-24.65 -26.35 -19.3 -29.75 -12.7 -33.5 Q-9.7 -35.1 -6.5 -36.15 -3.6 -37.25 -0.55 -38.0 L6.1 -39.1 13.9 -40.2 21.35 -39.65 Q25.0 -39.2 28.05 -36.95 31.15 -34.65 33.5 -31.65 L37.55 -25.95 41.2 -19.55 Q42.65 -16.6 43.6 -13.45 L44.4 -9.75 44.7 -6.0 44.75 0.8 Q44.7 4.65 43.7 8.3 L41.8 14.45 41.6 15.05 Q40.55 18.25 37.95 20.5 35.05 23.05 31.5 24.7 L24.9 28.0 17.9 31.15 11.9 33.35 5.0 35.6 -1.8 37.5 -5.85 38.55 -8.15 39.0 -12.95 39.9 Q-13.2 36.95 -14.5 33.2 -15.7 29.65 -17.5 26.4 -19.35 22.9 -20.35 19.05 L-22.4 11.4 -24.6 4.0 -26.65 -3.0 Q-27.55 -6.4 -27.75 -9.95 -28.0 -13.75 -27.2 -17.5 -26.45 -21.0 -26.65 -25.0 M-29.75 37.4 L-31.6 36.3 Q-34.1 34.65 -35.75 32.1 -37.4 29.65 -38.55 26.85 L-38.95 25.9 -41.45 18.75 -43.25 12.05 Q-44.1 8.3 -44.45 4.55 -44.8 0.6 -44.65 -3.35 L-44.5 -5.2 Q-43.35 -14.9 -34.85 -19.8 L-33.55 -20.6 Q-35.7 -18.05 -36.1 -14.3 -36.45 -10.65 -36.05 -7.05 -35.65 -3.4 -34.5 0.15 -33.3 3.85 -32.45 7.65 L-30.5 14.9 -28.15 21.6 Q-26.85 25.05 -24.6 27.95 -22.35 30.95 -21.4 34.4 -20.6 37.7 -19.45 40.1 L-21.85 40.05 -22.55 40.0 Q-25.05 39.65 -27.2 38.75 L-28.15 38.3 -29.75 37.4" fill="#009900" fill-rule="evenodd" stroke="none"/>
    <path d="M-33.55 -20.6 Q-30.05 -22.75 -26.65 -25.0 -26.45 -21.0 -27.2 -17.5 -28.0 -13.75 -27.75 -9.95 -27.55 -6.4 -26.65 -3.0 L-24.6 4.0 -22.4 11.4 -20.35 19.05 Q-19.35 22.9 -17.5 26.4 -15.7 29.65 -14.5 33.2 -13.2 36.95 -12.95 39.9 L-15.55 40.25 -19.45 40.1 Q-20.6 37.7 -21.4 34.4 -22.35 30.95 -24.6 27.95 -26.85 25.05 -28.15 21.6 L-30.5 14.9 -32.45 7.65 Q-33.3 3.85 -34.5 0.15 -35.65 -3.4 -36.05 -7.05 -36.45 -10.65 -36.1 -14.3 -35.7 -18.05 -33.55 -20.6" fill="#7fcb7f" fill-rule="evenodd" stroke="none"/>
    <path d="M-26.65 -25.0 L-24.65 -26.35 -19.3 -29.75 -12.7 -33.5 Q-9.7 -35.1 -6.5 -36.15 -3.6 -37.25 -0.55 -38.0 L6.1 -39.1 13.9 -40.2 21.35 -39.65 Q25.0 -39.2 28.05 -36.95 31.15 -34.65 33.5 -31.65 L37.55 -25.95 41.2 -19.55 Q42.65 -16.6 43.6 -13.45 L44.4 -9.75 44.7 -6.0 44.75 0.8 Q44.7 4.65 43.7 8.3 L41.8 14.45 Q44.95 14.75 45.5 17.3 46.3 21.3 43.3 24.3 L37.8 29.4 31.8 33.95 26.15 37.6 Q23.25 39.4 20.1 40.8 L13.55 43.35 7.5 45.55 Q3.8 46.95 -0.15 47.5 L-5.3 48.25 -7.25 48.45 -14.0 48.8 -20.35 48.6 -20.75 48.55 -28.5 47.55 Q-31.45 47.0 -31.95 44.05 -32.3 41.7 -31.55 39.85 -30.95 38.5 -29.75 37.4 L-31.6 36.3 Q-34.1 34.65 -35.75 32.1 -37.4 29.65 -38.55 26.85 L-38.95 25.9 -41.45 18.75 -43.25 12.05 Q-44.1 8.3 -44.45 4.55 -44.8 0.6 -44.65 -3.35 L-44.5 -5.2 Q-43.35 -14.9 -34.85 -19.8 L-33.55 -20.6 Q-30.05 -22.75 -26.65 -25.0 -26.45 -21.0 -27.2 -17.5 -28.0 -13.75 -27.75 -9.95 -27.55 -6.4 -26.65 -3.0 L-24.6 4.0 -22.4 11.4 -20.35 19.05 Q-19.35 22.9 -17.5 26.4 -15.7 29.65 -14.5 33.2 -13.2 36.95 -12.95 39.9 L-8.15 39.0 -5.85 38.55 -1.8 37.5 5.0 35.6 11.9 33.35 17.9 31.15 24.9 28.0 31.5 24.7 Q35.05 23.05 37.95 20.5 40.55 18.25 41.6 15.05 L41.8 14.45 M-33.55 -20.6 Q-35.7 -18.05 -36.1 -14.3 -36.45 -10.65 -36.05 -7.05 -35.65 -3.4 -34.5 0.15 -33.3 3.85 -32.45 7.65 L-30.5 14.9 -28.15 21.6 Q-26.85 25.05 -24.6 27.95 -22.35 30.95 -21.4 34.4 -20.6 37.7 -19.45 40.1 L-15.55 40.25 -12.95 39.9 M-19.45 40.1 L-21.85 40.05 -22.55 40.0 Q-25.05 39.65 -27.2 38.75 L-28.15 38.3 -29.75 37.4 M-20.7 48.5 L-20.35 48.6" fill="none" stroke="#003300" stroke-linecap="round" stroke-linejoin="round" stroke-width="1.5"/>
  </g>
</svg>
