<?xml version="1.0" encoding="UTF-8" standalone="no"?>
<svg xmlns:xlink="http://www.w3.org/1999/xlink" height="89.3px" width="54.75px" xmlns="http://www.w3.org/2000/svg">
  <g transform="matrix(1.0, 0.0, 0.0, 1.0, 27.4, 44.65)">
    <path d="M9.45 -30.9 Q-21.65 -32.95 -26.65 -18.65 -25.65 -33.35 -14.6 -39.45 -10.55 -41.55 -6.0 -42.6 -0.6 -43.95 5.05 -43.85 L15.75 -43.85 26.25 -43.9 26.4 -40.65 26.6 -36.55 Q26.85 -32.8 26.15 -29.15 25.7 -30.0 24.75 -30.35 23.15 -30.95 21.4 -30.95 L17.8 -30.95 17.55 -30.9 9.45 -30.9 M11.1 -38.65 Q11.1 -37.8 11.7 -37.2 12.35 -36.55 13.2 -36.55 14.05 -36.55 14.65 -37.2 15.3 -37.8 15.3 -38.65 15.3 -39.5 14.65 -40.15 14.05 -40.75 13.2 -40.75 12.35 -40.75 11.7 -40.15 11.1 -39.5 11.1 -38.65" fill="#cccccc" fill-rule="evenodd" stroke="none"/>
    <path d="M11.1 -38.65 Q11.1 -39.5 11.7 -40.15 12.35 -40.75 13.2 -40.75 14.05 -40.75 14.65 -40.15 15.3 -39.5 15.3 -38.65 15.3 -37.8 14.65 -37.2 14.05 -36.55 13.2 -36.55 12.35 -36.55 11.7 -37.2 11.1 -37.8 11.1 -38.65" fill="#999999" fill-rule="evenodd" stroke="none"/>
    <path d="M17.55 -30.9 L17.55 41.7 Q12.95 46.1 9.45 41.7 L9.45 -30.9 17.55 -30.9" fill="#9e6036" fill-rule="evenodd" stroke="none"/>
    <path d="M9.45 -30.9 Q-21.65 -32.95 -26.65 -18.65 -25.65 -33.35 -14.6 -39.45 -10.55 -41.55 -6.0 -42.6 -0.6 -43.95 5.05 -43.85 L15.75 -43.85 26.25 -43.9 26.4 -40.65 26.6 -36.55 Q26.85 -32.8 26.15 -29.15 25.7 -30.0 24.75 -30.35 23.15 -30.95 21.4 -30.95 L17.8 -30.95 M9.45 -30.9 L17.55 -30.9 M11.1 -38.65 Q11.1 -39.5 11.7 -40.15 12.35 -40.75 13.2 -40.75 14.05 -40.75 14.65 -40.15 15.3 -39.5 15.3 -38.65 15.3 -37.8 14.65 -37.2 14.05 -36.55 13.2 -36.55 12.35 -36.55 11.7 -37.2 11.1 -37.8 11.1 -38.65" fill="none" stroke="#666666" stroke-linecap="round" stroke-linejoin="round" stroke-width="1.5"/>
    <path d="M17.55 -30.9 L17.55 41.7 Q12.95 46.1 9.45 41.7 L9.45 -30.9 Z" fill="none" stroke="#57351e" stroke-linecap="round" stroke-linejoin="round" stroke-width="1.5"/>
  </g>
</svg>
