<?xml version="1.0" encoding="UTF-8" standalone="no"?>
<svg xmlns:xlink="http://www.w3.org/1999/xlink" height="131.7px" width="134.2px" xmlns="http://www.w3.org/2000/svg">
  <g transform="matrix(1.0, 0.0, 0.0, 1.0, 67.15, 65.85)">
    <path d="M-47.45 -39.6 Q-24.2 -74.5 33.0 -61.7 51.25 -55.35 55.5 -46.15 68.85 -17.2 65.9 8.9 63.7 50.7 21.55 62.9 -24.65 71.95 -38.1 44.55 L-43.4 46.2 Q-47.5 47.3 -52.35 47.45 -57.4 47.65 -62.0 45.85 -67.05 43.85 -66.4 38.5 -65.8 33.65 -62.35 29.9 -59.15 26.5 -55.3 23.8 L-47.0 18.7 Q-43.8 16.95 -40.4 15.7 -43.45 12.6 -45.55 7.65 -47.35 3.4 -48.4 -1.1 L-50.25 -10.05 Q-51.1 -14.8 -51.0 -19.7 L-50.65 -28.95 Q-50.35 -33.75 -47.45 -39.6 M-28.85 11.75 L-38.05 14.85 -40.4 15.7 -38.05 14.85 -28.85 11.75 M-25.95 40.15 L-34.25 43.15 -38.1 44.55 -34.25 43.15 -25.95 40.15 M26.65 11.3 Q17.85 41.65 -5.35 43.3 17.85 41.65 26.65 11.3" fill="#ffb9b9" fill-rule="evenodd" stroke="none"/>
    <path d="M-47.45 -39.6 Q-24.2 -74.5 33.0 -61.7 51.25 -55.35 55.5 -46.15 68.85 -17.2 65.9 8.9 63.7 50.7 21.55 62.9 -24.65 71.95 -38.1 44.55 L-43.4 46.2 Q-47.5 47.3 -52.35 47.45 -57.4 47.65 -62.0 45.85 -67.05 43.85 -66.4 38.5 -65.8 33.65 -62.35 29.9 -59.15 26.5 -55.3 23.8 L-47.0 18.7 Q-43.8 16.95 -40.4 15.7 -43.45 12.6 -45.55 7.65 -47.35 3.4 -48.4 -1.1 L-50.25 -10.05 Q-51.1 -14.8 -51.0 -19.7 L-50.65 -28.95 Q-50.35 -33.75 -47.45 -39.6 M-38.1 44.55 L-34.25 43.15 -25.95 40.15 M-40.4 15.7 L-38.05 14.85 -28.85 11.75" fill="none" stroke="#db7e6f" stroke-linecap="round" stroke-linejoin="round" stroke-width="1.5"/>
    <path d="M-5.35 43.3 Q17.85 41.65 26.65 11.3" fill="none" stroke="#cf543f" stroke-linecap="round" stroke-linejoin="round" stroke-width="1.5"/>
  </g>
</svg>
