<?xml version="1.0" encoding="UTF-8" standalone="no"?>
<svg xmlns:xlink="http://www.w3.org/1999/xlink" height="119.0px" width="175.7px" xmlns="http://www.w3.org/2000/svg">
  <g transform="matrix(1.0, 0.0, 0.0, 1.0, 87.85, 59.45)">
    <path d="M-84.6 47.05 Q-29.9 29.55 40.75 44.45 L38.85 56.0 Q-25.8 43.65 -87.1 58.8 L-84.6 47.05" fill="#ffff99" fill-rule="evenodd" stroke="none"/>
    <path d="M44.55 -12.2 Q43.85 -24.6 41.45 -34.3 43.85 -24.6 44.55 -12.2 45.8 11.3 40.75 44.45 -29.9 29.55 -84.6 47.05 -69.8 -13.1 -18.6 -42.8 20.55 -63.75 57.85 -57.15 76.2 -52.85 81.2 -32.25 L87.1 12.4 Q86.95 20.9 77.85 12.4 L44.55 -12.2" fill="#009900" fill-rule="evenodd" stroke="none"/>
    <path d="M41.45 -34.3 Q43.85 -24.6 44.55 -12.2 L77.85 12.4 Q86.95 20.9 87.1 12.4 L81.2 -32.25 Q76.2 -52.85 57.85 -57.15 20.55 -63.75 -18.6 -42.8 -69.8 -13.1 -84.6 47.05 -29.9 29.55 40.75 44.45 45.8 11.3 44.55 -12.2 M40.75 44.45 L38.85 56.0 Q-25.8 43.65 -87.1 58.8 L-84.6 47.05" fill="none" stroke="#003300" stroke-linecap="round" stroke-linejoin="round" stroke-width="1.5"/>
  </g>
</svg>
