<?xml version="1.0" encoding="UTF-8" standalone="no"?>
<svg xmlns:xlink="http://www.w3.org/1999/xlink" height="69.25px" width="76.45px" xmlns="http://www.w3.org/2000/svg">
  <g transform="matrix(1.0, 0.0, 0.0, 1.0, 38.2, 34.6)">
    <path d="M-37.45 -7.85 Q-33.95 -10.7 -31.95 -15.15 -30.05 -19.35 -26.9 -22.75 -23.65 -26.2 -19.5 -28.45 -15.1 -30.85 -10.35 -32.3 -5.9 -33.7 -1.0 -33.85 L8.25 -33.3 Q13.05 -32.6 17.55 -30.55 L25.65 -26.8 Q29.95 -24.7 33.85 -22.0 36.6 -20.15 37.5 -17.1 L28.0 -18.2 Q23.45 -18.5 19.35 -16.65 15.05 -14.75 11.9 -11.1 8.65 -7.35 7.55 -2.5 6.5 2.35 5.95 7.3 5.4 12.15 3.85 16.8 L0.45 25.8 Q-1.25 29.85 -5.05 31.85 -9.15 34.05 -13.8 33.9 -18.7 33.7 -22.85 31.3 L-26.15 29.1 Q-25.7 28.1 -26.0 26.75 -26.95 22.05 -29.6 17.8 -32.15 13.8 -33.6 9.2 -35.0 4.85 -35.75 0.35 L-37.45 -7.85 M-0.5 -16.55 Q-3.8 -16.85 -6.95 -15.9 -11.85 -14.4 -14.5 -10.0 -17.0 -5.75 -17.9 -0.9 -18.6 2.9 -18.05 6.65 -18.6 2.9 -17.9 -0.9 -17.0 -5.75 -14.5 -10.0 -11.85 -14.4 -6.95 -15.9 -3.8 -16.85 -0.5 -16.55 M-18.05 6.65 L-17.95 7.15 -18.0 6.65 -18.05 6.65 M-14.35 17.8 Q-16.6 13.3 -17.7 8.55 L-17.95 7.15 -17.7 8.55 Q-16.6 13.3 -14.35 17.8 M-18.0 6.65 Q-14.2 2.6 -9.5 0.75 -5.2 -0.95 -0.5 -0.9 -5.2 -0.95 -9.5 0.75 -14.2 2.6 -18.0 6.65" fill="#ffb9b9" fill-rule="evenodd" stroke="none"/>
    <path d="M-37.45 -7.85 Q-33.95 -10.7 -31.95 -15.15 -30.05 -19.35 -26.9 -22.75 -23.65 -26.2 -19.5 -28.45 -15.1 -30.85 -10.35 -32.3 -5.9 -33.7 -1.0 -33.85 L8.25 -33.3 Q13.05 -32.6 17.55 -30.55 L25.65 -26.8 Q29.95 -24.7 33.85 -22.0 36.6 -20.15 37.5 -17.1 L28.0 -18.2 Q23.45 -18.5 19.35 -16.65 15.05 -14.75 11.9 -11.1 8.65 -7.35 7.55 -2.5 6.5 2.35 5.95 7.3 5.4 12.15 3.85 16.8 L0.45 25.8 Q-1.25 29.85 -5.05 31.85 -9.15 34.05 -13.8 33.9 -18.7 33.7 -22.85 31.3 L-26.15 29.1 M-18.05 6.65 Q-18.6 2.9 -17.9 -0.9 -17.0 -5.75 -14.5 -10.0 -11.85 -14.4 -6.95 -15.9 -3.8 -16.85 -0.5 -16.55 M-18.05 6.65 L-17.95 7.15 -18.0 6.65 Q-14.2 2.6 -9.5 0.75 -5.2 -0.95 -0.5 -0.9 M-17.95 7.15 L-17.7 8.55 Q-16.6 13.3 -14.35 17.8" fill="none" stroke="#db7e6f" stroke-linecap="round" stroke-linejoin="round" stroke-width="1.5"/>
  </g>
</svg>
