<?xml version="1.0" encoding="UTF-8" standalone="no"?>
<svg xmlns:xlink="http://www.w3.org/1999/xlink" height="42.8px" width="39.55px" xmlns="http://www.w3.org/2000/svg">
  <g transform="matrix(1.0, 0.0, 0.0, 1.0, 19.75, 21.4)">
    <path d="M1.4 5.25 Q3.25 3.1 6.35 3.1 9.35 3.1 12.05 2.15 15.35 1.0 13.85 -2.2 14.85 -1.9 15.6 -1.0 17.5 1.25 16.2 4.05 L15.55 5.15 Q14.1 6.8 11.6 6.3 L6.3 5.45 1.4 5.25 M10.75 -7.55 L8.25 -7.75 Q7.15 -7.65 6.3 -7.1 3.85 -5.65 1.0 -5.55 3.2 -6.7 5.0 -8.4 6.95 -10.35 7.3 -13.25 L8.0 -10.7 Q8.35 -9.3 9.25 -8.75 L10.75 -7.55" fill="#8a532f" fill-rule="evenodd" stroke="none"/>
    <path d="M3.65 -20.9 L4.85 -18.65 Q6.35 -16.15 7.3 -13.25 6.95 -10.35 5.0 -8.4 3.2 -6.7 1.0 -5.55 3.85 -5.65 6.3 -7.1 7.15 -7.65 8.25 -7.75 L10.75 -7.55 Q11.75 -6.4 12.0 -4.85 12.25 -3.4 11.85 -2.3 L13.85 -2.2 Q15.35 1.0 12.05 2.15 9.35 3.1 6.35 3.1 3.25 3.1 1.4 5.25 L0.4 5.3 -2.4 5.65 -5.05 6.3 Q-7.4 7.1 -9.9 7.3 L-10.1 7.3 Q-11.0 7.3 -11.55 6.8 -14.05 4.65 -12.2 2.0 -11.15 0.55 -12.5 -0.95 L-16.05 -5.35 -19.25 -9.45 Q-11.95 -19.45 3.65 -20.9" fill="#9e6036" fill-rule="evenodd" stroke="none"/>
    <path d="M-10.1 7.3 L-9.9 7.3 Q-7.4 7.1 -5.05 6.3 L-2.4 5.65 0.3 5.75 1.2 5.95 1.4 5.25 6.3 5.45 11.6 6.3 Q14.1 6.8 15.55 5.15 17.35 6.75 17.8 8.8 18.1 10.15 17.65 10.95 17.25 11.6 16.25 11.8 L10.7 13.05 5.15 14.65 -0.05 15.8 -5.85 16.55 -12.4 16.8 Q-13.55 14.1 -13.2 11.1 -12.85 8.05 -10.1 7.3 M7.1 10.05 Q5.55 7.65 2.75 6.45 L1.2 5.95 2.75 6.45 Q5.55 7.65 7.1 10.05 M-6.6 8.55 Q-9.75 8.45 -11.15 11.1 -12.2 13.0 -11.1 14.85 -9.8 11.35 -6.25 10.4 -5.5 10.2 -5.8 9.1 -6.05 8.35 -6.6 8.55" fill="#9a804e" fill-rule="evenodd" stroke="none"/>
    <path d="M-12.4 16.8 L-5.85 16.55 -0.05 15.8 5.15 14.65 10.7 13.05 16.25 11.8 Q17.25 11.6 17.65 10.95 18.85 12.9 19.3 15.25 L17.35 15.3 11.55 16.3 5.9 18.0 0.7 19.45 -4.7 20.4 -10.35 20.9 Q-10.9 20.95 -11.2 20.65 -12.3 19.45 -12.4 16.8" fill="#ffffcc" fill-rule="evenodd" stroke="none"/>
    <path d="M-6.6 8.55 Q-6.05 8.35 -5.8 9.1 -5.5 10.2 -6.25 10.4 -9.8 11.35 -11.1 14.85 -12.2 13.0 -11.15 11.1 -9.75 8.45 -6.6 8.55" fill="#b89f72" fill-rule="evenodd" stroke="none"/>
    <path d="M7.3 -13.25 Q6.35 -16.15 4.85 -18.65 L3.65 -20.9 M-19.25 -9.45 L-16.05 -5.35 -12.5 -0.95 Q-11.15 0.55 -12.2 2.0 -14.05 4.65 -11.55 6.8 -11.0 7.3 -10.1 7.3 L-9.9 7.3 Q-7.4 7.1 -5.05 6.3 L-2.4 5.65 0.4 5.3 1.4 5.25 6.3 5.45 11.6 6.3 Q14.1 6.8 15.55 5.15 L16.2 4.05 Q17.5 1.25 15.6 -1.0 14.85 -1.9 13.85 -2.2 L11.85 -2.3 Q12.25 -3.4 12.0 -4.85 11.75 -6.4 10.75 -7.55 L9.25 -8.75 Q8.35 -9.3 8.0 -10.7 L7.3 -13.25" fill="none" stroke="#663333" stroke-linecap="round" stroke-linejoin="round" stroke-width="1.0"/>
    <path d="M-12.4 16.8 L-5.85 16.55 -0.05 15.8 5.15 14.65 10.7 13.05 16.25 11.8 Q17.25 11.6 17.65 10.95 18.1 10.15 17.8 8.8 17.35 6.75 15.55 5.15 M1.2 5.95 L2.75 6.45 Q5.55 7.65 7.1 10.05 M-2.4 5.65 L0.3 5.75 1.2 5.95 M17.65 10.95 Q18.85 12.9 19.3 15.25 L17.35 15.3 11.55 16.3 5.9 18.0 0.7 19.45 -4.7 20.4 -10.35 20.9 Q-10.9 20.95 -11.2 20.65 -12.3 19.45 -12.4 16.8 -13.55 14.1 -13.2 11.1 -12.85 8.05 -10.1 7.3" fill="none" stroke="#685635" stroke-linecap="round" stroke-linejoin="round" stroke-width="0.75"/>
  </g>
</svg>
