<?xml version="1.0" encoding="UTF-8" standalone="no"?>
<svg xmlns:xlink="http://www.w3.org/1999/xlink" height="16.2px" width="9.4px" xmlns="http://www.w3.org/2000/svg">
  <g transform="matrix(1.0, 0.0, 0.0, 1.0, 4.7, 8.1)">
    <path d="M3.3 -5.75 Q4.7 -3.35 4.7 0.0 4.7 3.35 3.3 5.7 1.95 8.1 0.0 8.1 -1.95 8.1 -3.35 5.7 -4.7 3.35 -4.7 0.0 -4.7 -3.35 -3.35 -5.75 -1.95 -8.1 0.0 -8.1 1.95 -8.1 3.3 -5.75 M-1.6 -3.75 L-2.15 -3.3 Q-2.65 -2.2 -2.05 -1.4 L-1.8 -1.15 -0.35 -1.35 Q0.15 -1.9 0.15 -2.5 0.15 -3.05 -0.2 -3.3 L-0.65 -3.65 -1.6 -3.75" fill="#18628d" fill-rule="evenodd" stroke="none"/>
    <path d="M-1.6 -3.75 L-0.65 -3.65 -0.2 -3.3 Q0.15 -3.05 0.15 -2.5 0.15 -1.9 -0.35 -1.35 L-1.8 -1.15 -2.05 -1.4 Q-2.65 -2.2 -2.15 -3.3 L-1.6 -3.75" fill="#ffffff" fill-rule="evenodd" stroke="none"/>
  </g>
</svg>
