<?xml version="1.0" encoding="UTF-8" standalone="no"?>
<svg xmlns:xlink="http://www.w3.org/1999/xlink" height="337.1px" width="556.0px" xmlns="http://www.w3.org/2000/svg">
  <g transform="matrix(1.0, 0.0, 0.0, 1.0, 278.0, 168.55)">
    <path d="M277.5 -72.5 L253.35 -71.4 Q236.1 -69.7 218.75 -67.1 201.55 -64.55 183.8 -64.6 166.15 -64.6 148.7 -66.45 132.0 -68.2 116.3 -73.65 99.4 -79.5 80.95 -78.5 63.8 -77.6 47.35 -74.9 30.1 -72.05 12.65 -74.0 -4.8 -76.0 -22.6 -72.85 -38.55 -69.95 -54.3 -65.25 -70.8 -60.25 -88.25 -62.05 -104.55 -63.75 -120.15 -68.9 -135.15 -73.8 -151.3 -75.95 -166.8 -78.0 -181.35 -83.95 -196.05 -89.95 -212.7 -88.85 -227.55 -87.9 -242.35 -88.05 -260.2 -88.2 -277.5 -90.55 L-277.5 -168.05 277.5 -168.05 277.5 -72.5" fill="url(#gradient0)" fill-rule="evenodd" stroke="none"/>
    <path d="M-277.5 -90.55 Q-260.2 -88.2 -242.35 -88.05 -227.55 -87.9 -212.7 -88.85 -196.05 -89.95 -181.35 -83.95 -166.8 -78.0 -151.3 -75.95 -135.15 -73.8 -120.15 -68.9 -104.55 -63.75 -88.25 -62.05 -70.8 -60.25 -54.3 -65.25 -38.55 -69.95 -22.6 -72.85 -4.8 -76.0 12.65 -74.0 30.1 -72.05 47.35 -74.9 63.8 -77.6 80.95 -78.5 99.4 -79.5 116.3 -73.65 132.0 -68.2 148.7 -66.45 166.15 -64.6 183.8 -64.6 201.55 -64.55 218.75 -67.1 236.1 -69.7 253.35 -71.4 L277.5 -72.5 277.5 26.5 Q258.7 24.8 247.55 37.45 242.15 43.65 234.8 48.55 221.4 57.5 207.3 64.6 197.75 69.4 186.5 69.6 L156.7 70.7 Q140.1 71.7 124.7 77.5 108.9 83.45 92.15 86.6 76.55 89.55 60.3 89.0 42.65 88.45 25.15 89.3 8.45 90.05 -8.1 90.25 -23.65 90.4 -39.65 89.95 -56.8 89.45 -73.7 90.85 -92.1 92.4 -106.35 85.1 -116.85 79.65 -128.85 80.35 -145.0 81.3 -161.2 83.85 -177.25 86.35 -193.6 84.85 L-227.95 83.3 Q-245.55 83.35 -263.05 82.35 -269.9 81.95 -277.5 82.45 L-277.5 -90.55" fill="url(#gradient1)" fill-rule="evenodd" stroke="none"/>
    <path d="M-277.5 82.45 Q-269.9 81.95 -263.05 82.35 -245.55 83.35 -227.95 83.3 L-193.6 84.85 Q-177.25 86.35 -161.2 83.85 -145.0 81.3 -128.85 80.35 -116.85 79.65 -106.35 85.1 -92.1 92.4 -73.7 90.85 -56.8 89.45 -39.65 89.95 -23.65 90.4 -8.1 90.25 8.45 90.05 25.15 89.3 42.65 88.45 60.3 89.0 76.55 89.55 92.15 86.6 108.9 83.45 124.7 77.5 140.1 71.7 156.7 70.7 L186.5 69.6 Q197.75 69.4 207.3 64.6 221.4 57.5 234.8 48.55 242.15 43.65 247.55 37.45 258.7 24.8 277.5 26.5 L277.5 168.05 -277.5 168.05 -277.5 82.45" fill="url(#gradient2)" fill-rule="evenodd" stroke="none"/>
    <path d="M-277.5 -90.55 Q-260.2 -88.2 -242.35 -88.05 -227.55 -87.9 -212.7 -88.85 -196.05 -89.95 -181.35 -83.95 -166.8 -78.0 -151.3 -75.95 -135.15 -73.8 -120.15 -68.9 -104.55 -63.75 -88.25 -62.05 -70.8 -60.25 -54.3 -65.25 -38.55 -69.95 -22.6 -72.85 -4.8 -76.0 12.65 -74.0 30.1 -72.05 47.35 -74.9 63.8 -77.6 80.95 -78.5 99.4 -79.5 116.3 -73.65 132.0 -68.2 148.7 -66.45 166.15 -64.6 183.8 -64.6 201.55 -64.55 218.75 -67.1 236.1 -69.7 253.35 -71.4 L277.5 -72.5 M-277.5 82.45 Q-269.9 81.95 -263.05 82.35 -245.55 83.35 -227.95 83.3 L-193.6 84.85 Q-177.25 86.35 -161.2 83.85 -145.0 81.3 -128.85 80.35 -116.85 79.65 -106.35 85.1 -92.1 92.4 -73.7 90.85 -56.8 89.45 -39.65 89.95 -23.65 90.4 -8.1 90.25 8.45 90.05 25.15 89.3 42.65 88.45 60.3 89.0 76.55 89.55 92.15 86.6 108.9 83.45 124.7 77.5 140.1 71.7 156.7 70.7 L186.5 69.6 Q197.75 69.4 207.3 64.6 221.4 57.5 234.8 48.55 242.15 43.65 247.55 37.45 258.7 24.8 277.5 26.5" fill="none" stroke="#e8c190" stroke-linecap="round" stroke-linejoin="round" stroke-width="1.0"/>
    <path d="M277.5 -72.5 L277.5 -168.05 M-277.5 -168.05 L-277.5 -90.55 -277.5 82.45 -277.5 168.05 277.5 168.05 277.5 26.5 277.5 -72.5" fill="none" stroke="#000000" stroke-linecap="round" stroke-linejoin="round" stroke-width="1.0"/>
  </g>
  <defs>
    <linearGradient gradientTransform="matrix(0.0053, -0.0793, 0.3411, 0.0227, 0.1, -121.35)" gradientUnits="userSpaceOnUse" id="gradient0" spreadMethod="pad" x1="-819.2" x2="819.2">
      <stop offset="0.2196078431372549" stop-color="#ffe1c4"/>
      <stop offset="0.984313725490196" stop-color="#ba8125"/>
    </linearGradient>
    <linearGradient gradientTransform="matrix(0.0845, 0.1892, -0.3176, 0.1419, -12.5, -23.05)" gradientUnits="userSpaceOnUse" id="gradient1" spreadMethod="pad" x1="-819.2" x2="819.2">
      <stop offset="0.2196078431372549" stop-color="#deb776"/>
      <stop offset="0.984313725490196" stop-color="#8f7001"/>
    </linearGradient>
    <linearGradient gradientTransform="matrix(0.0222, 0.1139, -0.3426, 0.0667, 5.25, 124.2)" gradientUnits="userSpaceOnUse" id="gradient2" spreadMethod="pad" x1="-819.2" x2="819.2">
      <stop offset="0.027450980392156862" stop-color="#ffe1c4"/>
      <stop offset="0.8117647058823529" stop-color="#9b7b13"/>
    </linearGradient>
  </defs>
</svg>
