<?xml version="1.0" encoding="UTF-8" standalone="no"?>
<svg xmlns:xlink="http://www.w3.org/1999/xlink" height="63.05px" width="555.0px" xmlns="http://www.w3.org/2000/svg">
  <g transform="matrix(1.0, 0.0, 0.0, 1.0, 277.5, 31.5)">
    <path d="M23.85 -26.95 L22.85 -26.95 20.6 -27.6 273.6 -27.6 273.6 27.65 94.95 27.65 94.95 27.35 273.3 27.35 273.3 -27.25 22.9 -27.25 23.85 -26.95 M-12.25 -26.95 L-13.25 -26.95 -12.35 -27.25 -273.25 -27.25 -273.25 27.35 -65.05 27.35 -65.05 27.65 -273.6 27.65 -273.6 -27.6 -10.05 -27.6 -12.25 -26.95" fill="#17255e" fill-opacity="0.8627451" fill-rule="evenodd" stroke="none"/>
    <path d="M23.85 -26.95 L22.9 -27.25 273.3 -27.25 273.3 27.35 94.95 27.35 94.95 27.0 272.95 27.0 272.95 -26.95 23.85 -26.95 M-13.25 -26.95 L-272.95 -26.95 -272.95 27.0 -65.05 27.0 -65.05 27.35 -273.25 27.35 -273.25 -27.25 -12.35 -27.25 -13.25 -26.95" fill="#17255e" fill-opacity="0.92941177" fill-rule="evenodd" stroke="none"/>
    <path d="M-48.05 29.5 L-47.7 29.5 -47.65 31.55 -277.5 31.55 -277.5 -30.15 -277.4 -31.5 277.5 -31.5 277.5 31.55 58.25 31.55 58.35 29.5 58.65 29.5 58.6 31.25 277.2 31.25 277.2 -31.15 -277.1 -31.15 -277.15 31.25 -48.0 31.25 -48.05 29.5" fill="#17255e" fill-opacity="0.0627451" fill-rule="evenodd" stroke="none"/>
    <path d="M-48.4 29.5 L-48.05 29.5 -48.0 31.25 -277.15 31.25 -277.1 -31.15 277.2 -31.15 277.2 31.25 58.6 31.25 58.65 29.5 59.0 29.5 58.95 30.9 276.85 30.9 276.85 -30.85 -276.8 -30.85 -276.85 -30.15 -276.85 30.9 -48.35 30.9 -48.4 29.5" fill="#17255e" fill-opacity="0.12941177" fill-rule="evenodd" stroke="none"/>
    <path d="M-48.7 29.5 L-48.4 29.5 -48.35 30.9 -276.85 30.9 -276.85 -30.15 -276.8 -30.85 276.85 -30.85 276.85 30.9 58.95 30.9 59.0 29.5 59.35 29.5 59.3 30.6 276.55 30.6 276.55 -30.5 -276.5 -30.5 -276.5 30.6 -48.7 30.6 -48.7 29.5" fill="#17255e" fill-opacity="0.19607843" fill-rule="evenodd" stroke="none"/>
    <path d="M-49.05 29.5 L-48.7 29.5 -48.7 30.6 -276.5 30.6 -276.5 -30.5 276.55 -30.5 276.55 30.6 59.3 30.6 59.35 29.5 59.7 29.5 59.65 30.25 276.2 30.25 276.2 -30.2 -276.2 -30.2 -276.2 30.25 -49.05 30.25 -49.05 29.5" fill="#17255e" fill-opacity="0.2627451" fill-rule="evenodd" stroke="none"/>
    <path d="M11.5 -26.95 L-0.9 -26.95 5.3 -27.25 11.5 -26.95 M-49.4 29.5 L-49.05 29.5 -49.05 30.25 -276.2 30.25 -276.2 -30.2 276.2 -30.2 276.2 30.25 59.65 30.25 59.7 29.5 59.95 29.5 59.95 29.95 275.9 29.95 275.9 -29.85 -275.85 -29.85 -275.85 29.95 -49.4 29.95 -49.4 29.5" fill="#17255e" fill-opacity="0.32941177" fill-rule="evenodd" stroke="none"/>
    <path d="M14.15 -26.95 L11.5 -26.95 5.3 -27.25 -0.9 -26.95 -3.55 -26.95 5.3 -27.6 14.15 -26.95 M-49.7 29.5 L-49.4 29.5 -49.4 29.95 -275.85 29.95 -275.85 -29.85 275.9 -29.85 275.9 29.95 59.95 29.95 59.95 29.5 60.3 29.5 60.3 29.6 275.55 29.6 275.55 -29.55 -275.55 -29.55 -275.55 29.6 -49.7 29.6 -49.7 29.5" fill="#17255e" fill-opacity="0.39607844" fill-rule="evenodd" stroke="none"/>
    <path d="M16.0 -26.95 L14.15 -26.95 5.3 -27.6 -3.55 -26.95 -5.4 -26.95 5.3 -27.9 16.0 -26.95 M-65.05 29.3 L-65.05 29.5 -49.7 29.5 -49.7 29.6 -275.55 29.6 -275.55 -29.55 275.55 -29.55 275.55 29.6 60.3 29.6 60.3 29.5 94.95 29.5 94.95 29.3 275.25 29.3 275.25 -29.2 -275.2 -29.2 -275.2 29.3 -65.05 29.3" fill="#17255e" fill-opacity="0.4627451" fill-rule="evenodd" stroke="none"/>
    <path d="M17.8 -26.95 L16.0 -26.95 5.3 -27.9 -5.4 -26.95 -7.15 -26.95 Q-1.2 -28.25 5.3 -28.25 11.8 -28.25 17.8 -26.95 M-65.05 28.95 L-65.05 29.3 -275.2 29.3 -275.2 -29.2 275.25 -29.2 275.25 29.3 94.95 29.3 94.95 28.95 274.9 28.95 274.9 -28.9 -274.9 -28.9 -274.9 28.95 -65.05 28.95" fill="#17255e" fill-opacity="0.5294118" fill-rule="evenodd" stroke="none"/>
    <path d="M19.2 -26.95 L17.8 -26.95 Q11.8 -28.25 5.3 -28.25 -1.2 -28.25 -7.15 -26.95 L-8.6 -26.95 Q-2.65 -28.4 3.85 -28.55 L-274.55 -28.55 -274.55 28.65 -65.05 28.65 -65.05 28.95 -274.9 28.95 -274.9 -28.9 274.9 -28.9 274.9 28.95 94.95 28.95 94.95 28.65 274.6 28.65 274.6 -28.55 6.75 -28.55 Q13.25 -28.4 19.2 -26.95" fill="#17255e" fill-opacity="0.59607846" fill-rule="evenodd" stroke="none"/>
    <path d="M20.5 -26.95 L19.2 -26.95 Q13.25 -28.4 6.75 -28.55 L274.6 -28.55 274.6 28.65 94.95 28.65 94.95 28.3 274.25 28.3 274.25 -28.25 14.3 -28.25 20.5 -26.95 M-8.6 -26.95 L-9.9 -26.95 -3.7 -28.25 -274.25 -28.25 -274.25 28.3 -65.05 28.3 -65.05 28.65 -274.55 28.65 -274.55 -28.55 3.85 -28.55 Q-2.65 -28.4 -8.6 -26.95" fill="#17255e" fill-opacity="0.6627451" fill-rule="evenodd" stroke="none"/>
    <path d="M21.7 -26.95 L20.5 -26.95 14.3 -28.25 274.25 -28.25 274.25 28.3 94.95 28.3 94.95 28.0 273.95 28.0 273.95 -27.9 17.9 -27.9 21.7 -26.95 M-9.9 -26.95 L-11.1 -26.95 -7.3 -27.9 -273.9 -27.9 -273.9 28.0 -65.05 28.0 -65.05 28.3 -274.25 28.3 -274.25 -28.25 -3.7 -28.25 -9.9 -26.95" fill="#17255e" fill-opacity="0.7294118" fill-rule="evenodd" stroke="none"/>
    <path d="M94.95 27.65 L273.6 27.65 273.6 -27.6 20.6 -27.6 22.85 -26.95 21.7 -26.95 17.9 -27.9 273.95 -27.9 273.95 28.0 94.95 28.0 94.95 27.65 M-11.1 -26.95 L-12.25 -26.95 -10.05 -27.6 -273.6 -27.6 -273.6 27.65 -65.05 27.65 -65.05 28.0 -273.9 28.0 -273.9 -27.9 -7.3 -27.9 -11.1 -26.95" fill="#17255e" fill-opacity="0.79607844" fill-rule="evenodd" stroke="none"/>
    <path d="M22.85 -26.95 L23.85 -26.95 272.95 -26.95 272.95 27.0 94.95 27.0 94.95 27.35 94.95 27.65 94.95 28.0 94.95 28.3 94.95 28.65 94.95 28.95 94.95 29.3 94.95 29.5 60.3 29.5 59.95 29.5 59.7 29.5 59.35 29.5 59.0 29.5 58.65 29.5 58.35 29.5 -47.7 29.5 -48.05 29.5 -48.4 29.5 -48.7 29.5 -49.05 29.5 -49.4 29.5 -49.7 29.5 -65.05 29.5 -65.05 29.3 -65.05 28.95 -65.05 28.65 -65.05 28.3 -65.05 28.0 -65.05 27.65 -65.05 27.35 -65.05 27.0 -272.95 27.0 -272.95 -26.95 -13.25 -26.95 -12.25 -26.95 -11.1 -26.95 -9.9 -26.95 -8.6 -26.95 -7.15 -26.95 -5.4 -26.95 -3.55 -26.95 -0.9 -26.95 11.5 -26.95 14.15 -26.95 16.0 -26.95 17.8 -26.95 19.2 -26.95 20.5 -26.95 21.7 -26.95 22.85 -26.95" fill="#17255e" fill-rule="evenodd" stroke="none"/>
  </g>
</svg>
