<?xml version="1.0" encoding="UTF-8" standalone="no"?>
<svg xmlns:xlink="http://www.w3.org/1999/xlink" height="75.5px" width="183.1px" xmlns="http://www.w3.org/2000/svg">
  <g transform="matrix(1.0, 0.0, 0.0, 1.0, -47.55, -304.05)">
    <path d="M48.05 313.7 Q48.05 309.9 50.45 307.2 52.9 304.55 56.35 304.55 L221.9 304.55 Q225.3 304.55 227.7 307.2 230.15 309.9 230.15 313.7 L230.15 369.95 Q230.15 373.7 227.7 376.35 225.3 379.05 221.9 379.05 L56.35 379.05 Q52.9 379.05 50.45 376.35 48.05 373.7 48.05 369.95 L48.05 313.7" fill="#b58d01" fill-rule="evenodd" stroke="none"/>
    <path d="M48.05 313.7 L48.05 369.95 Q48.05 373.7 50.45 376.35 52.9 379.05 56.35 379.05 L221.9 379.05 Q225.3 379.05 227.7 376.35 230.15 373.7 230.15 369.95 L230.15 313.7 Q230.15 309.9 227.7 307.2 225.3 304.55 221.9 304.55 L56.35 304.55 Q52.9 304.55 50.45 307.2 48.05 309.9 48.05 313.7 Z" fill="none" stroke="#92581f" stroke-linecap="round" stroke-linejoin="round" stroke-width="1.0"/>
  </g>
</svg>
