<?xml version="1.0" encoding="UTF-8" standalone="no"?>
<svg xmlns:xlink="http://www.w3.org/1999/xlink" height="42.4px" width="57.45px" xmlns="http://www.w3.org/2000/svg">
  <g transform="matrix(1.0, 0.0, 0.0, 1.0, 28.75, 21.2)">
    <path d="M26.35 -10.7 L26.35 10.7 Q26.3 14.05 23.95 16.45 21.55 18.8 18.2 18.85 L-18.25 18.85 Q-21.65 18.8 -24.0 16.45 -26.4 14.05 -26.35 10.7 L-26.35 -10.7 Q-26.4 -14.1 -24.0 -16.45 -21.65 -18.85 -18.25 -18.8 L18.2 -18.8 Q21.55 -18.85 23.95 -16.45 26.3 -14.1 26.35 -10.7 M25.95 -10.7 Q25.95 -13.9 23.65 -16.2 21.4 -18.45 18.2 -18.45 L-18.25 -18.45 Q-21.45 -18.45 -23.75 -16.2 -26.0 -13.9 -26.0 -10.7 L-26.0 10.7 Q-26.0 13.9 -23.75 16.15 -21.45 18.45 -18.25 18.45 L18.2 18.45 Q21.4 18.45 23.65 16.2 L23.7 16.15 Q25.95 13.9 25.95 10.7 L25.95 -10.7" fill="url(#gradient0)" fill-rule="evenodd" stroke="none"/>
    <path d="M25.95 -10.7 L25.95 10.7 Q25.95 13.9 23.7 16.15 L23.65 16.2 Q21.4 18.45 18.2 18.45 L-18.25 18.45 Q-21.45 18.45 -23.75 16.15 -26.0 13.9 -26.0 10.7 L-26.0 -10.7 Q-26.0 -13.9 -23.75 -16.2 -21.45 -18.45 -18.25 -18.45 L18.2 -18.45 Q21.4 -18.45 23.65 -16.2 25.95 -13.9 25.95 -10.7 M25.6 -10.7 Q25.6 -13.75 23.4 -15.95 21.25 -18.1 18.2 -18.05 L-18.25 -18.05 Q-21.3 -18.05 -23.45 -15.95 L-23.5 -15.9 Q-25.6 -13.75 -25.6 -10.7 L-25.6 10.7 Q-25.65 13.75 -23.5 15.9 -21.3 18.1 -18.25 18.1 L18.2 18.1 Q21.25 18.05 23.4 15.9 25.55 13.75 25.6 10.7 L25.6 -10.7" fill="url(#gradient1)" fill-rule="evenodd" stroke="none"/>
    <path d="M24.1 -10.7 L24.1 10.7 Q24.05 13.1 22.35 14.8 L22.3 14.85 Q20.6 16.55 18.2 16.6 L-18.25 16.6 Q-20.7 16.55 -22.4 14.85 -24.15 13.15 -24.1 10.7 L-24.1 -10.7 Q-24.1 -13.1 -22.45 -14.85 L-22.4 -14.9 Q-20.65 -16.55 -18.25 -16.55 L18.2 -16.55 Q20.65 -16.6 22.35 -14.85 24.05 -13.15 24.1 -10.7 M23.7 -10.7 Q23.7 -13.0 22.1 -14.6 20.5 -16.2 18.2 -16.2 L-18.25 -16.2 Q-20.5 -16.2 -22.15 -14.65 L-22.2 -14.6 Q-23.75 -12.95 -23.75 -10.7 L-23.75 10.7 Q-23.75 13.0 -22.15 14.6 -20.55 16.2 -18.25 16.2 L18.2 16.2 Q20.45 16.2 22.05 14.6 L22.1 14.55 Q23.7 12.95 23.7 10.7 L23.7 -10.7" fill="url(#gradient2)" fill-rule="evenodd" stroke="none"/>
    <path d="M23.7 -10.7 L23.7 10.7 Q23.7 12.95 22.1 14.55 L22.05 14.6 Q20.45 16.2 18.2 16.2 L-18.25 16.2 Q-20.55 16.2 -22.15 14.6 -23.75 13.0 -23.75 10.7 L-23.75 -10.7 Q-23.75 -12.95 -22.2 -14.6 L-22.15 -14.65 Q-20.5 -16.2 -18.25 -16.2 L18.2 -16.2 Q20.5 -16.2 22.1 -14.6 23.7 -13.0 23.7 -10.7" fill="url(#gradient3)" fill-rule="evenodd" stroke="none"/>
    <path d="M24.45 -10.7 L24.45 10.7 Q24.45 13.3 22.65 15.1 L22.6 15.15 Q20.8 16.95 18.2 16.95 L-18.25 16.95 Q-20.85 16.95 -22.7 15.1 -24.5 13.3 -24.5 10.7 L-24.5 -10.7 Q-24.5 -13.3 -22.7 -15.1 L-22.65 -15.15 Q-20.85 -16.95 -18.25 -16.95 L18.2 -16.95 Q20.8 -16.95 22.6 -15.15 24.45 -13.3 24.45 -10.7 M24.1 -10.7 Q24.05 -13.15 22.35 -14.85 20.65 -16.6 18.2 -16.55 L-18.25 -16.55 Q-20.65 -16.55 -22.4 -14.9 L-22.45 -14.85 Q-24.1 -13.1 -24.1 -10.7 L-24.1 10.7 Q-24.15 13.15 -22.4 14.85 -20.7 16.55 -18.25 16.6 L18.2 16.6 Q20.6 16.55 22.3 14.85 L22.35 14.8 Q24.05 13.1 24.1 10.7 L24.1 -10.7" fill="url(#gradient4)" fill-rule="evenodd" stroke="none"/>
    <path d="M24.85 -10.7 L24.85 10.7 Q24.8 13.45 22.9 15.35 L22.85 15.4 Q20.95 17.3 18.2 17.35 L-18.25 17.35 Q-21.0 17.35 -22.95 15.4 -24.9 13.45 -24.85 10.7 L-24.85 -10.7 Q-24.9 -13.45 -22.95 -15.4 -21.0 -17.35 -18.25 -17.3 L18.2 -17.3 Q20.95 -17.35 22.9 -15.4 24.85 -13.45 24.85 -10.7 M24.45 -10.7 Q24.45 -13.3 22.6 -15.15 20.8 -16.95 18.2 -16.95 L-18.25 -16.95 Q-20.85 -16.95 -22.65 -15.15 L-22.7 -15.1 Q-24.5 -13.3 -24.5 -10.7 L-24.5 10.7 Q-24.5 13.3 -22.7 15.1 -20.85 16.95 -18.25 16.95 L18.2 16.95 Q20.8 16.95 22.6 15.15 L22.65 15.1 Q24.45 13.3 24.45 10.7 L24.45 -10.7" fill="url(#gradient5)" fill-rule="evenodd" stroke="none"/>
    <path d="M24.85 -10.7 Q24.85 -13.45 22.9 -15.4 20.95 -17.35 18.2 -17.3 L-18.25 -17.3 Q-21.0 -17.35 -22.95 -15.4 -24.9 -13.45 -24.85 -10.7 L-24.85 10.7 Q-24.9 13.45 -22.95 15.4 -21.0 17.35 -18.25 17.35 L18.2 17.35 Q20.95 17.3 22.85 15.4 L22.9 15.35 Q24.8 13.45 24.85 10.7 L24.85 -10.7 M25.2 -10.7 L25.2 10.7 Q25.2 13.6 23.15 15.6 L23.1 15.65 Q21.1 17.7 18.2 17.7 L-18.25 17.7 Q-21.15 17.7 -23.2 15.65 -25.25 13.6 -25.25 10.7 L-25.25 -10.7 Q-25.25 -13.6 -23.25 -15.65 L-23.2 -15.7 Q-21.15 -17.7 -18.25 -17.7 L18.2 -17.7 Q21.1 -17.7 23.15 -15.65 25.2 -13.6 25.2 -10.7" fill="url(#gradient6)" fill-rule="evenodd" stroke="none"/>
    <path d="M25.6 -10.7 L25.6 10.7 Q25.55 13.75 23.4 15.9 21.25 18.05 18.2 18.1 L-18.25 18.1 Q-21.3 18.1 -23.5 15.9 -25.65 13.75 -25.6 10.7 L-25.6 -10.7 Q-25.6 -13.75 -23.5 -15.9 L-23.45 -15.95 Q-21.3 -18.05 -18.25 -18.05 L18.2 -18.05 Q21.25 -18.1 23.4 -15.95 25.6 -13.75 25.6 -10.7 M25.2 -10.7 Q25.2 -13.6 23.15 -15.65 21.1 -17.7 18.2 -17.7 L-18.25 -17.7 Q-21.15 -17.7 -23.2 -15.7 L-23.25 -15.65 Q-25.25 -13.6 -25.25 -10.7 L-25.25 10.7 Q-25.25 13.6 -23.2 15.65 -21.15 17.7 -18.25 17.7 L18.2 17.7 Q21.1 17.7 23.1 15.65 L23.15 15.6 Q25.2 13.6 25.2 10.7 L25.2 -10.7" fill="url(#gradient7)" fill-rule="evenodd" stroke="none"/>
    <path d="M26.7 -10.7 Q26.7 -14.25 24.2 -16.75 21.75 -19.2 18.2 -19.2 L-18.25 -19.2 Q-21.75 -19.2 -24.25 -16.75 L-24.3 -16.7 Q-26.75 -14.2 -26.75 -10.7 L-26.75 10.7 Q-26.75 14.25 -24.3 16.7 -21.8 19.2 -18.25 19.2 L18.2 19.2 Q21.7 19.2 24.2 16.7 26.7 14.2 26.7 10.7 L26.7 -10.7 M27.1 -10.7 L27.1 10.7 Q27.05 14.4 24.45 16.95 21.9 19.55 18.2 19.6 L-18.25 19.6 Q-21.95 19.55 -24.55 16.95 -27.1 14.4 -27.1 10.7 L-27.1 -10.7 Q-27.15 -14.4 -24.55 -17.0 -21.95 -19.6 -18.25 -19.55 L18.2 -19.55 Q21.9 -19.55 24.45 -17.0 27.05 -14.4 27.1 -10.7" fill="url(#gradient8)" fill-rule="evenodd" stroke="none"/>
    <path d="M26.7 -10.7 L26.7 10.7 Q26.7 14.2 24.2 16.7 21.7 19.2 18.2 19.2 L-18.25 19.2 Q-21.8 19.2 -24.3 16.7 -26.75 14.25 -26.75 10.7 L-26.75 -10.7 Q-26.75 -14.2 -24.3 -16.7 L-24.25 -16.75 Q-21.75 -19.2 -18.25 -19.2 L18.2 -19.2 Q21.75 -19.2 24.2 -16.75 26.7 -14.25 26.7 -10.7 M26.35 -10.7 Q26.3 -14.1 23.95 -16.45 21.55 -18.85 18.2 -18.8 L-18.25 -18.8 Q-21.65 -18.85 -24.0 -16.45 -26.4 -14.1 -26.35 -10.7 L-26.35 10.7 Q-26.4 14.05 -24.0 16.45 -21.65 18.8 -18.25 18.85 L18.2 18.85 Q21.55 18.8 23.95 16.45 26.3 14.05 26.35 10.7 L26.35 -10.7" fill="url(#gradient9)" fill-rule="evenodd" stroke="none"/>
    <path d="M27.1 -10.7 Q27.05 -14.4 24.45 -17.0 21.9 -19.55 18.2 -19.55 L-18.25 -19.55 Q-21.95 -19.6 -24.55 -17.0 -27.15 -14.4 -27.1 -10.7 L-27.1 10.7 Q-27.1 14.4 -24.55 16.95 -21.95 19.55 -18.25 19.6 L18.2 19.6 Q21.9 19.55 24.45 16.95 27.05 14.4 27.1 10.7 L27.1 -10.7 M27.45 -10.7 L27.45 10.7 Q27.45 14.55 24.75 17.25 22.05 19.95 18.2 19.95 L-18.25 19.95 Q-22.1 19.95 -24.8 17.25 -27.5 14.55 -27.5 10.7 L-27.5 -10.7 Q-27.5 -14.55 -24.8 -17.25 -22.1 -19.95 -18.25 -19.95 L18.2 -19.95 Q22.05 -19.95 24.75 -17.25 27.45 -14.55 27.45 -10.7" fill="url(#gradient10)" fill-rule="evenodd" stroke="none"/>
    <path d="M27.45 -10.7 Q27.45 -14.55 24.75 -17.25 22.05 -19.95 18.2 -19.95 L-18.25 -19.95 Q-22.1 -19.95 -24.8 -17.25 -27.5 -14.55 -27.5 -10.7 L-27.5 10.7 Q-27.5 14.55 -24.8 17.25 -22.1 19.95 -18.25 19.95 L18.2 19.95 Q22.05 19.95 24.75 17.25 27.45 14.55 27.45 10.7 L27.45 -10.7 M27.85 -10.7 L27.85 10.7 Q27.8 14.7 25.0 17.5 22.2 20.3 18.2 20.35 L-18.25 20.35 Q-22.25 20.3 -25.05 17.5 -27.85 14.7 -27.85 10.7 L-27.85 -10.7 Q-27.85 -14.7 -25.05 -17.5 -22.25 -20.3 -18.25 -20.3 L18.2 -20.3 Q22.2 -20.3 25.0 -17.5 27.8 -14.7 27.85 -10.7" fill="url(#gradient11)" fill-rule="evenodd" stroke="none"/>
    <path d="M27.85 -10.7 Q27.8 -14.7 25.0 -17.5 22.2 -20.3 18.2 -20.3 L-18.25 -20.3 Q-22.25 -20.3 -25.05 -17.5 -27.85 -14.7 -27.85 -10.7 L-27.85 10.7 Q-27.85 14.7 -25.05 17.5 -22.25 20.3 -18.25 20.35 L18.2 20.35 Q22.2 20.3 25.0 17.5 27.8 14.7 27.85 10.7 L27.85 -10.7 M25.25 -17.8 Q28.2 -14.85 28.2 -10.7 L28.2 10.7 Q28.2 14.85 25.25 17.75 22.35 20.7 18.2 20.7 L-18.25 20.7 Q-22.4 20.7 -25.35 17.75 -28.25 14.85 -28.25 10.7 L-28.25 -10.7 Q-28.25 -14.85 -25.35 -17.8 -22.4 -20.7 -18.25 -20.7 L18.2 -20.7 Q22.35 -20.7 25.25 -17.8" fill="url(#gradient12)" fill-rule="evenodd" stroke="none"/>
    <path d="M25.25 -17.8 Q22.35 -20.7 18.2 -20.7 L-18.25 -20.7 Q-22.4 -20.7 -25.35 -17.8 -28.25 -14.85 -28.25 -10.7 L-28.25 10.7 Q-28.25 14.85 -25.35 17.75 -22.4 20.7 -18.25 20.7 L18.2 20.7 Q22.35 20.7 25.25 17.75 28.2 14.85 28.2 10.7 L28.2 -10.7 Q28.2 -14.85 25.25 -17.8 Z" fill="none" stroke="#fee100" stroke-linecap="round" stroke-linejoin="round" stroke-width="1.0"/>
  </g>
  <defs>
    <radialGradient cx="0" cy="0" gradientTransform="matrix(0.0646, 0.0, 0.0, 0.0646, -17.25, -13.5)" gradientUnits="userSpaceOnUse" id="gradient0" r="819.2" spreadMethod="pad">
      <stop offset="0.0" stop-color="#ffffcc" stop-opacity="0.45882353"/>
      <stop offset="0.14901960784313725" stop-color="#ffff00" stop-opacity="0.45882353"/>
      <stop offset="0.40784313725490196" stop-color="#febe01" stop-opacity="0.45882353"/>
      <stop offset="0.9921568627450981" stop-color="#eeb301" stop-opacity="0.45882353"/>
    </radialGradient>
    <radialGradient cx="0" cy="0" gradientTransform="matrix(0.0646, 0.0, 0.0, 0.0646, -17.25, -13.5)" gradientUnits="userSpaceOnUse" id="gradient1" r="819.2" spreadMethod="pad">
      <stop offset="0.0" stop-color="#ffffcc" stop-opacity="0.53333336"/>
      <stop offset="0.14901960784313725" stop-color="#ffff00" stop-opacity="0.53333336"/>
      <stop offset="0.40784313725490196" stop-color="#febe01" stop-opacity="0.53333336"/>
      <stop offset="0.9921568627450981" stop-color="#eeb301" stop-opacity="0.53333336"/>
    </radialGradient>
    <radialGradient cx="0" cy="0" gradientTransform="matrix(0.0646, 0.0, 0.0, 0.0646, -17.25, -13.5)" gradientUnits="userSpaceOnUse" id="gradient2" r="819.2" spreadMethod="pad">
      <stop offset="0.0" stop-color="#ffffcc" stop-opacity="0.92156863"/>
      <stop offset="0.14901960784313725" stop-color="#ffff00" stop-opacity="0.92156863"/>
      <stop offset="0.40784313725490196" stop-color="#febe01" stop-opacity="0.92156863"/>
      <stop offset="0.9921568627450981" stop-color="#eeb301" stop-opacity="0.92156863"/>
    </radialGradient>
    <radialGradient cx="0" cy="0" gradientTransform="matrix(0.0646, 0.0, 0.0, 0.0646, -17.25, -13.5)" gradientUnits="userSpaceOnUse" id="gradient3" r="819.2" spreadMethod="pad">
      <stop offset="0.0" stop-color="#ffffcc"/>
      <stop offset="0.14901960784313725" stop-color="#ffff00"/>
      <stop offset="0.40784313725490196" stop-color="#febe01"/>
      <stop offset="0.9921568627450981" stop-color="#eeb301"/>
    </radialGradient>
    <radialGradient cx="0" cy="0" gradientTransform="matrix(0.0646, 0.0, 0.0, 0.0646, -17.25, -13.5)" gradientUnits="userSpaceOnUse" id="gradient4" r="819.2" spreadMethod="pad">
      <stop offset="0.0" stop-color="#ffffcc" stop-opacity="0.84313726"/>
      <stop offset="0.14901960784313725" stop-color="#ffff00" stop-opacity="0.84313726"/>
      <stop offset="0.40784313725490196" stop-color="#febe01" stop-opacity="0.84313726"/>
      <stop offset="0.9921568627450981" stop-color="#eeb301" stop-opacity="0.84313726"/>
    </radialGradient>
    <radialGradient cx="0" cy="0" gradientTransform="matrix(0.0646, 0.0, 0.0, 0.0646, -17.25, -13.5)" gradientUnits="userSpaceOnUse" id="gradient5" r="819.2" spreadMethod="pad">
      <stop offset="0.0" stop-color="#ffffcc" stop-opacity="0.7647059"/>
      <stop offset="0.14901960784313725" stop-color="#ffff00" stop-opacity="0.7647059"/>
      <stop offset="0.40784313725490196" stop-color="#febe01" stop-opacity="0.7647059"/>
      <stop offset="0.9921568627450981" stop-color="#eeb301" stop-opacity="0.7647059"/>
    </radialGradient>
    <radialGradient cx="0" cy="0" gradientTransform="matrix(0.0646, 0.0, 0.0, 0.0646, -17.25, -13.5)" gradientUnits="userSpaceOnUse" id="gradient6" r="819.2" spreadMethod="pad">
      <stop offset="0.0" stop-color="#ffffcc" stop-opacity="0.6901961"/>
      <stop offset="0.14901960784313725" stop-color="#ffff00" stop-opacity="0.6901961"/>
      <stop offset="0.40784313725490196" stop-color="#febe01" stop-opacity="0.6901961"/>
      <stop offset="0.9921568627450981" stop-color="#eeb301" stop-opacity="0.6901961"/>
    </radialGradient>
    <radialGradient cx="0" cy="0" gradientTransform="matrix(0.0646, 0.0, 0.0, 0.0646, -17.25, -13.5)" gradientUnits="userSpaceOnUse" id="gradient7" r="819.2" spreadMethod="pad">
      <stop offset="0.0" stop-color="#ffffcc" stop-opacity="0.6117647"/>
      <stop offset="0.14901960784313725" stop-color="#ffff00" stop-opacity="0.6117647"/>
      <stop offset="0.40784313725490196" stop-color="#febe01" stop-opacity="0.6117647"/>
      <stop offset="0.9921568627450981" stop-color="#eeb301" stop-opacity="0.6117647"/>
    </radialGradient>
    <radialGradient cx="0" cy="0" gradientTransform="matrix(0.0646, 0.0, 0.0, 0.0646, -17.25, -13.5)" gradientUnits="userSpaceOnUse" id="gradient8" r="819.2" spreadMethod="pad">
      <stop offset="0.0" stop-color="#ffffcc" stop-opacity="0.3019608"/>
      <stop offset="0.14901960784313725" stop-color="#ffff00" stop-opacity="0.3019608"/>
      <stop offset="0.40784313725490196" stop-color="#febe01" stop-opacity="0.3019608"/>
      <stop offset="0.9921568627450981" stop-color="#eeb301" stop-opacity="0.3019608"/>
    </radialGradient>
    <radialGradient cx="0" cy="0" gradientTransform="matrix(0.0646, 0.0, 0.0, 0.0646, -17.25, -13.5)" gradientUnits="userSpaceOnUse" id="gradient9" r="819.2" spreadMethod="pad">
      <stop offset="0.0" stop-color="#ffffcc" stop-opacity="0.38039216"/>
      <stop offset="0.14901960784313725" stop-color="#ffff00" stop-opacity="0.38039216"/>
      <stop offset="0.40784313725490196" stop-color="#febe01" stop-opacity="0.38039216"/>
      <stop offset="0.9921568627450981" stop-color="#eeb301" stop-opacity="0.38039216"/>
    </radialGradient>
    <radialGradient cx="0" cy="0" gradientTransform="matrix(0.0646, 0.0, 0.0, 0.0646, -17.25, -13.5)" gradientUnits="userSpaceOnUse" id="gradient10" r="819.2" spreadMethod="pad">
      <stop offset="0.0" stop-color="#ffffcc" stop-opacity="0.22745098"/>
      <stop offset="0.14901960784313725" stop-color="#ffff00" stop-opacity="0.22745098"/>
      <stop offset="0.40784313725490196" stop-color="#febe01" stop-opacity="0.22745098"/>
      <stop offset="0.9921568627450981" stop-color="#eeb301" stop-opacity="0.22745098"/>
    </radialGradient>
    <radialGradient cx="0" cy="0" gradientTransform="matrix(0.0646, 0.0, 0.0, 0.0646, -17.25, -13.5)" gradientUnits="userSpaceOnUse" id="gradient11" r="819.2" spreadMethod="pad">
      <stop offset="0.0" stop-color="#ffffcc" stop-opacity="0.14901961"/>
      <stop offset="0.14901960784313725" stop-color="#ffff00" stop-opacity="0.14901961"/>
      <stop offset="0.40784313725490196" stop-color="#febe01" stop-opacity="0.14901961"/>
      <stop offset="0.9921568627450981" stop-color="#eeb301" stop-opacity="0.14901961"/>
    </radialGradient>
    <radialGradient cx="0" cy="0" gradientTransform="matrix(0.0646, 0.0, 0.0, 0.0646, -17.25, -13.5)" gradientUnits="userSpaceOnUse" id="gradient12" r="819.2" spreadMethod="pad">
      <stop offset="0.0" stop-color="#ffffcc" stop-opacity="0.07058824"/>
      <stop offset="0.14901960784313725" stop-color="#ffff00" stop-opacity="0.07058824"/>
      <stop offset="0.40784313725490196" stop-color="#febe01" stop-opacity="0.07058824"/>
      <stop offset="0.9921568627450981" stop-color="#eeb301" stop-opacity="0.07058824"/>
    </radialGradient>
  </defs>
</svg>
