<?xml version="1.0" encoding="UTF-8" standalone="no"?>
<svg xmlns:xlink="http://www.w3.org/1999/xlink" height="53.7px" width="45.65px" xmlns="http://www.w3.org/2000/svg">
  <g transform="matrix(1.0, 0.0, 0.0, 1.0, 22.9, 29.3)">
    <path d="M-10.75 -14.25 L-11.45 -13.75 Q-11.95 -13.4 -12.5 -13.45 L-13.5 -13.6 Q-15.95 -14.15 -15.7 -16.6 L-14.85 -15.65 Q-14.3 -15.25 -13.5 -15.3 L-12.55 -15.65 Q-11.45 -16.4 -10.2 -16.55 -10.4 -16.1 -9.8 -15.5 L-10.75 -14.25 M-6.95 -17.5 Q-6.45 -16.8 -6.55 -15.8 L-6.6 -15.5 -6.55 -15.8 Q-6.45 -16.8 -6.95 -17.5 L7.25 -17.5 Q10.0 -16.7 8.5 -15.6 L-6.6 -15.5 -6.8 -15.05 Q-7.15 -14.4 -7.7 -14.25 L-8.05 -14.3 -9.15 -15.5 Q-9.5 -16.3 -9.25 -17.3 L-8.5 -17.5 -9.05 -17.85 -9.05 -17.9 -9.0 -17.95 -7.7 -18.15 -7.5 -18.0 -6.95 -17.5" fill="#ffffff" fill-rule="evenodd" stroke="none"/>
    <path d="M8.5 -15.6 Q11.55 -11.2 15.3 -8.55 21.05 -4.5 22.25 3.1 23.45 10.7 16.65 17.3 9.85 23.9 0.2 23.9 -9.45 23.9 -16.25 17.3 -23.05 10.7 -22.4 3.35 -21.75 -4.05 -15.6 -9.35 -12.75 -11.8 -10.75 -14.25 L-9.7 -15.5 -9.15 -15.5 -8.05 -14.3 -7.7 -14.25 Q-7.15 -14.4 -6.8 -15.05 L-6.6 -15.5 8.5 -15.6" fill="url(#gradient0)" fill-rule="evenodd" stroke="none"/>
    <path d="M-6.95 -17.5 L-7.5 -18.0 -7.7 -18.15 -9.0 -17.95 -9.05 -17.9 -16.1 -23.15 Q-16.95 -29.35 -5.1 -20.35 L-5.1 -24.4 Q-2.25 -24.4 0.6 -20.75 6.75 -36.75 5.6 -20.95 16.65 -27.4 10.95 -20.75 L7.25 -17.5 -6.95 -17.5" fill="url(#gradient1)" fill-rule="evenodd" stroke="none"/>
    <path d="M8.5 -15.6 Q11.55 -11.2 15.3 -8.55 21.05 -4.5 22.25 3.1 23.45 10.7 16.65 17.3 9.85 23.9 0.2 23.9 -9.45 23.9 -16.25 17.3 -23.05 10.7 -22.4 3.35 -21.75 -4.05 -15.6 -9.35 -12.75 -11.8 -10.75 -14.25 L-11.45 -13.75 Q-11.95 -13.4 -12.5 -13.45 L-13.5 -13.6 Q-15.95 -14.15 -15.7 -16.6 L-14.85 -15.65 Q-14.3 -15.25 -13.5 -15.3 L-12.55 -15.65 Q-11.45 -16.4 -10.2 -16.55 -10.1 -16.9 -9.55 -17.15 L-9.25 -17.3 -9.15 -17.55 -9.05 -17.85 -9.05 -17.9 -16.1 -23.15 Q-16.95 -29.35 -5.1 -20.35 L-5.1 -24.4 Q-2.25 -24.4 0.6 -20.75 6.75 -36.75 5.6 -20.95 16.65 -27.4 10.95 -20.75 L7.25 -17.5 Q10.0 -16.7 8.5 -15.6 L-6.6 -15.5 -6.8 -15.05 Q-7.15 -14.4 -7.7 -14.25 L-8.05 -14.3 -9.15 -15.5 -9.7 -15.5 -10.75 -14.25 -9.8 -15.5 Q-10.4 -16.1 -10.2 -16.55 M-6.6 -15.5 L-6.55 -15.8 Q-6.45 -16.8 -6.95 -17.5 L-7.5 -18.0 -7.7 -18.15 -9.0 -17.95 M-9.7 -15.5 L-9.5 -16.0 -9.4 -16.6 -9.55 -17.15 M7.25 -17.5 L-6.95 -17.5 M-9.05 -17.85 L-8.5 -17.5 -9.25 -17.3 Q-9.5 -16.3 -9.15 -15.5" fill="none" stroke="#412718" stroke-linecap="round" stroke-linejoin="round" stroke-width="1.0"/>
    <path d="M-9.05 -17.9 L-9.0 -17.95 M-9.8 -15.5 L-9.7 -15.5" fill="none" stroke="#544130" stroke-linecap="round" stroke-linejoin="round" stroke-width="1.0"/>
  </g>
  <defs>
    <radialGradient cx="0" cy="0" gradientTransform="matrix(0.0453, 0.0, 0.0, 0.0453, -9.9, -8.6)" gradientUnits="userSpaceOnUse" id="gradient0" r="819.2" spreadMethod="pad">
      <stop offset="0.0196078431372549" stop-color="#ffffcc"/>
      <stop offset="0.47843137254901963" stop-color="#f8da9c"/>
      <stop offset="1.0" stop-color="#996600"/>
    </radialGradient>
    <radialGradient cx="0" cy="0" gradientTransform="matrix(0.0345, 0.0, 0.0, 0.0345, -14.55, -20.85)" gradientUnits="userSpaceOnUse" id="gradient1" r="819.2" spreadMethod="pad">
      <stop offset="0.0196078431372549" stop-color="#ffffcc"/>
      <stop offset="0.47843137254901963" stop-color="#f8da9c"/>
      <stop offset="1.0" stop-color="#996600"/>
    </radialGradient>
  </defs>
</svg>
