<?xml version="1.0" encoding="UTF-8" standalone="no"?>
<svg xmlns:xlink="http://www.w3.org/1999/xlink" height="53.2px" width="63.8px" xmlns="http://www.w3.org/2000/svg">
  <g transform="matrix(1.0, 0.0, 0.0, 1.0, 30.6, 39.05)">
    <path d="M2.7 -35.3 L2.7 -34.95 Q2.45 -33.45 2.95 -32.2 L3.25 -31.65 Q5.0 -29.4 7.75 -28.95 10.45 -28.5 12.7 -26.9 15.15 -25.2 14.7 -21.9 14.6 -21.1 14.8 -20.4 15.05 -19.25 15.6 -18.0 L16.3 -16.2 Q17.3 -13.4 20.0 -13.45 L18.05 -18.05 Q17.7 -18.8 17.6 -19.65 17.3 -23.05 17.15 -26.5 17.1 -27.45 16.55 -28.2 13.95 -31.55 9.95 -33.25 7.9 -34.15 6.55 -35.75 L6.5 -36.05 Q8.45 -36.65 10.4 -37.65 15.0 -40.05 18.15 -36.45 22.65 -31.25 28.25 -27.3 30.65 -25.6 31.3 -23.0 L31.35 -22.75 27.1 -15.8 Q26.5 -14.8 26.5 -13.45 26.5 -11.7 26.1 -10.1 25.95 -9.2 25.2 -8.6 L23.5 -7.2 18.4 -3.15 Q17.2 -2.1 16.9 -0.75 20.35 -1.65 23.25 -4.0 L24.9 -5.1 26.95 -6.05 Q27.5 -6.25 27.8 -7.25 28.25 -8.75 28.25 -10.35 28.25 -11.2 28.65 -12.0 L29.3 -13.4 29.65 -13.75 Q30.5 -14.15 30.95 -14.95 30.75 -9.3 32.5 -3.8 35.45 5.45 27.45 7.85 L19.6 10.0 Q11.95 11.6 4.25 11.7 L3.0 11.75 1.7 10.9 -1.25 9.0 Q-3.1 7.7 -4.15 5.9 -4.2 5.75 -4.6 5.75 L-10.4 5.6 -11.05 5.3 Q-13.85 2.6 -16.5 0.75 -14.1 6.75 -7.75 7.95 L-6.5 8.3 Q-5.95 8.45 -5.6 8.75 L-5.0 9.6 -3.8 12.6 -8.0 13.6 Q-12.55 14.95 -17.05 13.65 -24.35 11.5 -28.25 5.15 -32.15 -1.25 -27.85 -8.75 L-26.55 -11.1 Q-25.05 -11.25 -23.85 -12.0 L-22.95 -12.5 Q-20.9 -13.3 -18.45 -13.15 -12.2 -12.7 -6.6 -10.25 L-5.5 -9.5 -4.15 -8.6 -3.55 -8.25 Q-2.85 -7.85 -2.3 -7.8 0.25 -7.5 2.3 -8.45 L1.15 -8.9 -0.45 -9.45 Q-1.55 -9.8 -2.4 -10.45 -3.05 -10.95 -3.4 -11.9 -3.65 -12.65 -4.1 -12.9 -7.4 -14.55 -11.15 -15.3 L-13.45 -15.55 -20.35 -16.1 -20.9 -16.35 Q-22.5 -18.65 -23.05 -21.15 L-22.7 -22.9 Q-21.35 -30.0 -16.05 -34.95 -12.65 -38.1 -9.45 -37.3 L-4.6 -36.0 Q-0.9 -34.95 2.7 -35.3" fill="#7d7d7d" fill-rule="evenodd" stroke="none"/>
    <path d="M2.7 -35.3 L6.5 -36.05 6.55 -35.75 Q7.9 -34.15 9.95 -33.25 13.95 -31.55 16.55 -28.2 17.1 -27.45 17.15 -26.5 17.3 -23.05 17.6 -19.65 17.7 -18.8 18.05 -18.05 L20.0 -13.45 Q17.3 -13.4 16.3 -16.2 L15.6 -18.0 Q15.05 -19.25 14.8 -20.4 14.6 -21.1 14.7 -21.9 15.15 -25.2 12.7 -26.9 10.45 -28.5 7.75 -28.95 5.0 -29.4 3.25 -31.65 L2.95 -32.2 Q2.45 -33.45 2.7 -34.95 L2.7 -35.3 M31.35 -22.75 Q31.65 -21.15 31.35 -19.2 L31.0 -15.35 30.95 -14.95 Q30.5 -14.15 29.65 -13.75 L29.3 -13.4 28.65 -12.0 Q28.25 -11.2 28.25 -10.35 28.25 -8.75 27.8 -7.25 27.5 -6.25 26.95 -6.05 L24.9 -5.1 23.25 -4.0 Q20.35 -1.65 16.9 -0.75 17.2 -2.1 18.4 -3.15 L23.5 -7.2 25.2 -8.6 Q25.95 -9.2 26.1 -10.1 26.5 -11.7 26.5 -13.45 26.5 -14.8 27.1 -15.8 L31.35 -22.75 M3.0 11.75 L-3.8 12.6 -5.0 9.6 -5.6 8.75 Q-5.95 8.45 -6.5 8.3 L-7.75 7.95 Q-14.1 6.75 -16.5 0.75 -13.85 2.6 -11.05 5.3 L-10.4 5.6 -4.6 5.75 Q-4.2 5.75 -4.15 5.9 -3.1 7.7 -1.25 9.0 L1.7 10.9 3.0 11.75 M-26.55 -11.1 Q-24.25 -15.8 -23.05 -21.15 -22.5 -18.65 -20.9 -16.35 L-20.35 -16.1 -13.45 -15.55 -11.15 -15.3 Q-7.4 -14.55 -4.1 -12.9 -3.65 -12.65 -3.4 -11.9 -3.05 -10.95 -2.4 -10.45 -1.55 -9.8 -0.45 -9.45 L1.15 -8.9 2.3 -8.45 Q0.25 -7.5 -2.3 -7.8 -2.85 -7.85 -3.55 -8.25 L-4.15 -8.6 -5.5 -9.5 -6.6 -10.25 Q-12.2 -12.7 -18.45 -13.15 -20.9 -13.3 -22.95 -12.5 L-23.85 -12.0 Q-25.05 -11.25 -26.55 -11.1" fill="#626262" fill-rule="evenodd" stroke="none"/>
    <path d="M6.5 -36.05 L2.7 -35.3 Q-0.9 -34.95 -4.6 -36.0 L-9.45 -37.3 Q-12.65 -38.1 -16.05 -34.95 -21.35 -30.0 -22.7 -22.9 L-23.05 -21.15 Q-24.25 -15.8 -26.55 -11.1 L-27.85 -8.75 Q-32.15 -1.25 -28.25 5.15 -24.35 11.5 -17.05 13.65 -12.55 14.95 -8.0 13.6 L-3.8 12.6 3.0 11.75 4.25 11.7 Q11.95 11.6 19.6 10.0 L27.45 7.85 Q35.45 5.45 32.5 -3.8 30.75 -9.3 30.95 -14.95 L31.0 -15.35 31.35 -19.2 Q31.65 -21.15 31.35 -22.75 L31.3 -23.0 Q30.65 -25.6 28.25 -27.3 22.65 -31.25 18.15 -36.45 15.0 -40.05 10.4 -37.65 8.45 -36.65 6.5 -36.05 Z" fill="none" stroke="#666666" stroke-linecap="round" stroke-linejoin="round" stroke-width="1.0"/>
  </g>
</svg>
