<?xml version="1.0" encoding="UTF-8" standalone="no"?>
<svg xmlns:xlink="http://www.w3.org/1999/xlink" height="59.85px" width="67.35px" xmlns="http://www.w3.org/2000/svg">
  <g transform="matrix(1.0, 0.0, 0.0, 1.0, 33.55, 29.9)">
    <path d="M-15.3 25.85 L-18.45 25.95 Q-23.0 26.2 -27.25 24.75 -32.15 23.05 -32.9 18.0 -33.6 13.55 -33.05 9.1 -32.4 3.85 -28.7 0.2 -25.15 -3.2 -22.1 -7.1 -20.15 -9.6 -17.8 -11.8 -14.35 -15.05 -11.3 -18.75 L-5.1 -25.9 Q-1.7 -29.65 3.65 -29.4 7.95 -29.25 11.8 -27.85 14.85 -26.8 17.0 -24.45 L18.5 -22.85 18.65 -22.7 Q18.35 -20.95 19.1 -19.2 20.9 -15.0 21.1 -10.1 21.15 -8.5 9.5 -1.75 21.25 -3.8 21.15 -0.7 21.0 3.25 3.9 10.5 18.75 7.5 17.2 10.1 15.6 12.6 11.4 16.95 7.2 21.2 -0.85 21.2 L-17.7 21.4 Q-11.4 22.95 -15.3 25.85" fill="#919191" fill-rule="evenodd" stroke="none"/>
    <path d="M-15.3 25.85 Q-11.4 22.95 -17.7 21.4 L-0.85 21.2 Q7.2 21.2 11.4 16.95 15.6 12.6 17.2 10.1 18.75 7.5 3.9 10.5 21.0 3.25 21.15 -0.7 21.25 -3.8 9.5 -1.75 21.15 -8.5 21.1 -10.1 20.9 -15.0 19.1 -19.2 18.35 -20.95 18.65 -22.7 L23.15 -17.85 Q25.85 -14.95 27.3 -11.05 28.9 -6.75 31.0 -2.7 33.05 1.45 33.3 6.05 33.55 10.75 32.35 15.25 L29.85 24.65 Q28.45 29.75 22.85 29.45 18.25 29.2 13.8 28.05 9.15 26.85 4.45 26.8 L0.75 26.4 -0.55 26.05 -1.3 26.05 -8.8 25.85 -15.3 25.85" fill="#7a7885" fill-rule="evenodd" stroke="none"/>
    <path d="M18.65 -22.7 L18.5 -22.85 17.0 -24.45 Q14.85 -26.8 11.8 -27.85 7.95 -29.25 3.65 -29.4 -1.7 -29.65 -5.1 -25.9 L-11.3 -18.75 Q-14.35 -15.05 -17.8 -11.8 -20.15 -9.6 -22.1 -7.1 -25.15 -3.2 -28.7 0.2 -32.4 3.85 -33.05 9.1 -33.6 13.55 -32.9 18.0 -32.15 23.05 -27.25 24.75 -23.0 26.2 -18.45 25.95 L-15.3 25.85 -8.8 25.85 -1.3 26.05 -0.55 26.05 0.75 26.4 4.45 26.8 Q9.15 26.85 13.8 28.05 18.25 29.2 22.85 29.45 28.45 29.75 29.85 24.65 L32.35 15.25 Q33.55 10.75 33.3 6.05 33.05 1.45 31.0 -2.7 28.9 -6.75 27.3 -11.05 25.85 -14.95 23.15 -17.85 L18.65 -22.7 Z" fill="none" stroke="#666666" stroke-linecap="round" stroke-linejoin="round" stroke-width="1.0"/>
  </g>
</svg>
