<?xml version="1.0" encoding="UTF-8" standalone="no"?>
<svg xmlns:xlink="http://www.w3.org/1999/xlink" height="41.75px" width="61.75px" xmlns="http://www.w3.org/2000/svg">
  <g transform="matrix(1.0, 0.0, 0.0, 1.0, 30.85, 20.85)">
    <path d="M-18.85 -20.2 Q-20.45 -20.0 -21.7 -17.2 L-22.7 -14.3 Q-24.35 -8.45 -24.35 -0.15 -24.35 8.15 -22.7 14.05 L-21.5 17.3 Q-20.3 19.8 -18.75 19.9 L-24.3 20.25 -24.5 20.25 Q-26.9 20.25 -28.55 14.4 -30.25 8.5 -30.2 0.2 -30.25 -8.1 -28.55 -13.95 -27.0 -19.65 -24.7 -19.85 L-18.85 -20.2 M15.45 -16.35 Q16.75 -19.7 18.5 -19.85 L24.35 -20.2 Q22.75 -20.0 21.5 -17.2 L20.5 -14.3 Q18.85 -8.45 18.85 -0.15 18.85 8.15 20.5 14.05 L21.7 17.3 Q22.9 19.8 24.45 19.9 L18.9 20.25 18.7 20.25 Q16.65 20.25 15.15 16.0 L14.65 14.4 Q12.95 8.5 13.0 0.2 12.95 -8.1 14.65 -13.95 L15.45 -16.35" fill="#bf7544" fill-rule="evenodd" stroke="none"/>
    <path d="M-18.75 19.9 Q-20.3 19.8 -21.5 17.3 L-22.7 14.05 Q-24.35 8.15 -24.35 -0.15 -24.35 -8.45 -22.7 -14.3 L-21.7 -17.2 Q-20.45 -20.0 -18.85 -20.2 L-18.65 -20.2 Q-16.75 -20.2 -15.25 -16.35 -16.95 -17.5 -18.8 -16.35 -24.2 0.3 -18.8 16.4 -17.3 19.1 -15.4 16.35 -16.7 19.6 -18.35 19.85 L-18.65 19.9 -18.75 19.9 M24.35 -20.2 L24.55 -20.2 Q26.9 -20.2 28.6 -14.3 30.25 -8.45 30.25 -0.15 30.25 8.15 28.6 14.05 27.0 19.5 24.85 19.85 L24.55 19.9 24.45 19.9 Q22.9 19.8 21.7 17.3 L20.5 14.05 Q18.85 8.15 18.85 -0.15 18.85 -8.45 20.5 -14.3 L21.5 -17.2 Q22.75 -20.0 24.35 -20.2" fill="#9e6036" fill-rule="evenodd" stroke="none"/>
    <path d="M-15.4 16.35 Q-17.3 19.1 -18.8 16.4 -24.2 0.3 -18.8 -16.35 -16.95 -17.5 -15.25 -16.35 L-15.2 -16.3 Q-20.55 0.25 -15.25 16.3 L-15.4 16.35" fill="url(#gradient0)" fill-rule="evenodd" stroke="none"/>
    <path d="M-10.4 16.3 Q-12.75 19.05 -15.2 16.35 L-15.25 16.3 Q-20.55 0.25 -15.2 -16.3 L-15.2 -16.35 Q-12.6 -18.15 -10.4 -16.35 -15.75 0.25 -10.4 16.3" fill="url(#gradient1)" fill-rule="evenodd" stroke="none"/>
    <path d="M4.0 -16.35 Q6.5 -18.8 8.8 -16.35 3.45 0.15 8.7 16.1 6.4 18.5 3.95 16.15 -1.35 0.15 4.0 -16.35" fill="url(#gradient2)" fill-rule="evenodd" stroke="none"/>
    <path d="M0.8 -16.35 Q2.7 -18.5 4.0 -16.35 -1.35 0.15 3.95 16.15 2.25 18.2 0.75 16.2 -4.55 0.2 0.8 -16.35" fill="url(#gradient3)" fill-rule="evenodd" stroke="none"/>
    <path d="M-2.4 -16.35 Q-0.5 -18.3 0.8 -16.35 -4.55 0.2 0.75 16.2 -0.75 18.05 -2.45 16.2 -7.75 0.2 -2.4 -16.35" fill="url(#gradient4)" fill-rule="evenodd" stroke="none"/>
    <path d="M-5.6 -16.35 Q-3.8 -18.3 -2.4 -16.35 -7.75 0.2 -2.45 16.2 -3.9 18.35 -5.65 16.25 -10.95 0.2 -5.6 -16.35" fill="url(#gradient5)" fill-rule="evenodd" stroke="none"/>
    <path d="M-5.65 16.25 Q-7.7 20.0 -10.4 16.3 -15.75 0.25 -10.4 -16.35 -7.15 -19.0 -5.6 -16.35 -10.95 0.2 -5.65 16.25" fill="url(#gradient6)" fill-rule="evenodd" stroke="none"/>
    <path d="M12.0 -16.35 Q14.0 -18.45 15.45 -16.35 L14.65 -13.95 Q12.95 -8.1 13.0 0.2 12.95 8.5 14.65 14.4 L15.15 16.0 Q13.6 17.5 11.9 16.05 6.65 0.1 12.0 -16.35" fill="url(#gradient7)" fill-rule="evenodd" stroke="none"/>
    <path d="M8.8 -16.35 Q10.7 -18.45 12.0 -16.35 6.65 0.1 11.9 16.05 10.3 17.95 8.7 16.1 3.45 0.15 8.8 -16.35" fill="url(#gradient8)" fill-rule="evenodd" stroke="none"/>
    <path d="M-18.75 19.9 Q-20.3 19.8 -21.5 17.3 L-22.7 14.05 Q-24.35 8.15 -24.35 -0.15 -24.35 -8.45 -22.7 -14.3 L-21.7 -17.2 Q-20.45 -20.0 -18.85 -20.2 L-24.7 -19.85 Q-27.0 -19.65 -28.55 -13.95 -30.25 -8.1 -30.2 0.2 -30.25 8.5 -28.55 14.4 -26.9 20.25 -24.5 20.25 L-24.3 20.25 -18.75 19.9 -18.65 19.9 -18.35 19.85 Q-16.7 19.6 -15.4 16.35 M-15.25 -16.35 Q-16.75 -20.2 -18.65 -20.2 L-18.85 -20.2 M15.45 -16.35 Q16.75 -19.7 18.5 -19.85 L24.35 -20.2 24.55 -20.2 Q26.9 -20.2 28.6 -14.3 30.25 -8.45 30.25 -0.15 30.25 8.15 28.6 14.05 27.0 19.5 24.85 19.85 L24.55 19.9 24.45 19.9 18.9 20.25 18.7 20.25 Q16.65 20.25 15.15 16.0 L14.65 14.4 Q12.95 8.5 13.0 0.2 12.95 -8.1 14.65 -13.95 L15.45 -16.35 M-15.25 -16.35 L-15.2 -16.35 M24.35 -20.2 Q22.75 -20.0 21.5 -17.2 L20.5 -14.3 Q18.85 -8.45 18.85 -0.15 18.85 8.15 20.5 14.05 L21.7 17.3 Q22.9 19.8 24.45 19.9" fill="none" stroke="#663300" stroke-linecap="round" stroke-linejoin="round" stroke-width="1.0"/>
    <path d="M-15.4 16.35 Q-17.3 19.1 -18.8 16.4 -24.2 0.3 -18.8 -16.35 -16.95 -17.5 -15.25 -16.35 M-5.6 -16.35 Q-3.8 -18.3 -2.4 -16.35 -0.5 -18.3 0.8 -16.35 2.7 -18.5 4.0 -16.35 6.5 -18.8 8.8 -16.35 10.7 -18.45 12.0 -16.35 14.0 -18.45 15.45 -16.35 M15.15 16.0 Q13.6 17.5 11.9 16.05 10.3 17.95 8.7 16.1 6.4 18.5 3.95 16.15 2.25 18.2 0.75 16.2 -0.75 18.05 -2.45 16.2 -3.9 18.35 -5.65 16.25 -7.7 20.0 -10.4 16.3 -12.75 19.05 -15.2 16.35 L-15.4 16.35 M-15.25 16.3 Q-20.55 0.25 -15.2 -16.3 L-15.2 -16.35 Q-12.6 -18.15 -10.4 -16.35 -7.15 -19.0 -5.6 -16.35 -10.95 0.2 -5.65 16.25 M-15.25 16.3 L-15.2 16.35 M-10.4 16.3 Q-15.75 0.25 -10.4 -16.35 M12.0 -16.35 Q6.65 0.1 11.9 16.05 M8.8 -16.35 Q3.45 0.15 8.7 16.1 M0.75 16.2 Q-4.55 0.2 0.8 -16.35 M4.0 -16.35 Q-1.35 0.15 3.95 16.15 M-2.4 -16.35 Q-7.75 0.2 -2.45 16.2" fill="none" stroke="#333333" stroke-linecap="round" stroke-linejoin="round" stroke-width="1.25"/>
  </g>
  <defs>
    <linearGradient gradientTransform="matrix(0.0, -0.02, 0.0038, 0.0, -18.35, 0.05)" gradientUnits="userSpaceOnUse" id="gradient0" spreadMethod="pad" x1="-819.2" x2="819.2">
      <stop offset="0.0" stop-color="#000000"/>
      <stop offset="1.0" stop-color="#666666"/>
    </linearGradient>
    <linearGradient gradientTransform="matrix(0.0, -0.02, 0.0046, 0.0, -14.15, 0.0)" gradientUnits="userSpaceOnUse" id="gradient1" spreadMethod="pad" x1="-819.2" x2="819.2">
      <stop offset="0.0" stop-color="#000000"/>
      <stop offset="1.0" stop-color="#666666"/>
    </linearGradient>
    <linearGradient gradientTransform="matrix(0.0, -0.0198, 0.0046, 0.0, 5.05, -0.1)" gradientUnits="userSpaceOnUse" id="gradient2" spreadMethod="pad" x1="-819.2" x2="819.2">
      <stop offset="0.0" stop-color="#000000"/>
      <stop offset="1.0" stop-color="#666666"/>
    </linearGradient>
    <linearGradient gradientTransform="matrix(0.0, -0.0199, 0.0036, 0.0, 1.05, -0.05)" gradientUnits="userSpaceOnUse" id="gradient3" spreadMethod="pad" x1="-819.2" x2="819.2">
      <stop offset="0.0" stop-color="#000000"/>
      <stop offset="1.0" stop-color="#666666"/>
    </linearGradient>
    <linearGradient gradientTransform="matrix(0.0, -0.0199, 0.0036, 0.0, -2.15, -0.05)" gradientUnits="userSpaceOnUse" id="gradient4" spreadMethod="pad" x1="-819.2" x2="819.2">
      <stop offset="0.0" stop-color="#000000"/>
      <stop offset="1.0" stop-color="#666666"/>
    </linearGradient>
    <linearGradient gradientTransform="matrix(0.0054, -0.019, 0.007, 0.002, -4.05, -0.1)" gradientUnits="userSpaceOnUse" id="gradient5" spreadMethod="pad" x1="-819.2" x2="819.2">
      <stop offset="0.0" stop-color="#000000"/>
      <stop offset="1.0" stop-color="#666666"/>
    </linearGradient>
    <linearGradient gradientTransform="matrix(0.0, -0.0199, 0.0046, 0.0, -9.35, 0.0)" gradientUnits="userSpaceOnUse" id="gradient6" spreadMethod="pad" x1="-819.2" x2="819.2">
      <stop offset="0.0" stop-color="#000000"/>
      <stop offset="1.0" stop-color="#666666"/>
    </linearGradient>
    <linearGradient gradientTransform="matrix(0.0091, -0.0157, 0.01, 0.0058, 13.55, -0.15)" gradientUnits="userSpaceOnUse" id="gradient7" spreadMethod="pad" x1="-819.2" x2="819.2">
      <stop offset="0.0" stop-color="#000000"/>
      <stop offset="1.0" stop-color="#666666"/>
    </linearGradient>
    <linearGradient gradientTransform="matrix(0.0, -0.0198, 0.0036, 0.0, 9.05, -0.1)" gradientUnits="userSpaceOnUse" id="gradient8" spreadMethod="pad" x1="-819.2" x2="819.2">
      <stop offset="0.0" stop-color="#000000"/>
      <stop offset="1.0" stop-color="#666666"/>
    </linearGradient>
  </defs>
</svg>
