<?xml version="1.0" encoding="UTF-8" standalone="no"?>
<svg xmlns:xlink="http://www.w3.org/1999/xlink" height="24.65px" width="33.45px" xmlns="http://www.w3.org/2000/svg">
  <g transform="matrix(1.0, 0.0, 0.0, 1.0, 16.7, 12.35)">
    <path d="M-2.85 -5.3 Q-4.2 -5.3 -5.15 -6.25 -6.1 -7.2 -6.1 -8.55 L-6.1 -8.6 Q-6.1 -9.95 -5.15 -10.9 -4.2 -11.85 -2.85 -11.85 L13.0 -11.85 Q14.35 -11.85 15.3 -10.9 16.25 -9.95 16.25 -8.6 L16.25 -8.55 Q16.25 -7.2 15.3 -6.25 14.35 -5.3 13.0 -5.3 L0.5 -5.3 -2.85 -5.3" fill="#ff6600" fill-rule="evenodd" stroke="none"/>
    <path d="M-2.85 -5.3 L0.5 -5.3 0.5 6.75 0.5 10.8 Q-1.15 12.85 -2.85 10.8 L-2.85 6.75 -2.85 -5.3" fill="#999999" fill-rule="evenodd" stroke="none"/>
    <path d="M0.5 6.75 Q3.35 6.65 3.35 8.65 3.35 10.95 0.5 10.8 L0.5 6.75 M-2.85 10.8 L-15.2 10.8 Q-17.2 8.8 -15.2 6.75 L-2.85 6.75 -2.85 10.8" fill="#666666" fill-rule="evenodd" stroke="none"/>
    <path d="M0.5 -5.3 L13.0 -5.3 Q14.35 -5.3 15.3 -6.25 16.25 -7.2 16.25 -8.55 L16.25 -8.6 Q16.25 -9.95 15.3 -10.9 14.35 -11.85 13.0 -11.85 L-2.85 -11.85 Q-4.2 -11.85 -5.15 -10.9 -6.1 -9.95 -6.1 -8.6 L-6.1 -8.55 Q-6.1 -7.2 -5.15 -6.25 -4.2 -5.3 -2.85 -5.3 L0.5 -5.3" fill="none" stroke="#cc3300" stroke-linecap="round" stroke-linejoin="round" stroke-width="1.0"/>
    <path d="M0.5 6.75 Q3.35 6.65 3.35 8.65 3.35 10.95 0.5 10.8 M-2.85 10.8 L-15.2 10.8 Q-17.2 8.8 -15.2 6.75 L-2.85 6.75" fill="none" stroke="#4f4f4f" stroke-linecap="round" stroke-linejoin="round" stroke-width="1.0"/>
    <path d="M0.5 -5.3 L0.5 6.75 0.5 10.8 Q-1.15 12.85 -2.85 10.8 L-2.85 6.75 -2.85 -5.3" fill="none" stroke="#585858" stroke-linecap="round" stroke-linejoin="round" stroke-width="1.0"/>
  </g>
</svg>
