<?xml version="1.0" encoding="UTF-8" standalone="no"?>
<svg xmlns:xlink="http://www.w3.org/1999/xlink" height="33.9px" width="30.1px" xmlns="http://www.w3.org/2000/svg">
  <g transform="matrix(1.0, 0.0, 0.0, 1.0, 15.05, 17.0)">
    <path d="M-7.35 -16.5 Q-1.0 -15.75 5.45 -14.45 11.25 -13.25 14.05 -8.9 14.75 -7.8 14.55 -6.25 11.95 -0.4 7.2 4.25 6.6 2.7 4.9 1.8 2.4 0.4 -0.55 0.1 L-6.2 0.05 -2.85 -4.7 -10.85 -5.6 -7.35 -16.5 M3.95 -8.0 Q0.3 -8.5 -1.6 -6.25 L-2.4 -5.25 -2.5 -5.15 -2.5 -5.1 -2.6 -5.0 -2.5 -5.1 -2.5 -5.15 -2.4 -5.25 -1.6 -6.25 Q0.3 -8.5 3.95 -8.0 M-2.45 -9.3 Q-3.2 -7.3 -2.8 -4.8 -3.2 -7.3 -2.45 -9.3" fill="#d6883a" fill-rule="evenodd" stroke="none"/>
    <path d="M7.2 4.25 Q7.5 5.15 7.45 6.25 7.35 9.25 4.2 10.05 2.2 10.6 2.2 8.5 L3.3 7.65 3.05 7.35 3.05 7.3 Q-1.25 2.75 -7.45 3.95 L-8.65 4.25 Q-9.25 1.75 -6.2 0.05 L-0.55 0.1 Q2.4 0.4 4.9 1.8 6.6 2.7 7.2 4.25" fill="#dea063" fill-rule="evenodd" stroke="none"/>
    <path d="M3.05 7.3 Q-4.1 7.7 0.0 12.95 -0.05 19.1 -5.0 14.65 -5.65 18.1 -9.95 14.85 -14.1 18.8 -14.55 12.2 -15.0 5.55 -9.05 4.55 L-8.65 4.5 -7.45 3.95 Q-1.25 2.75 3.05 7.3" fill="#ffcc99" fill-rule="evenodd" stroke="none"/>
    <path d="M-7.35 -16.5 Q-1.0 -15.75 5.45 -14.45 11.25 -13.25 14.05 -8.9 14.75 -7.8 14.55 -6.25 11.95 -0.4 7.2 4.25 7.5 5.15 7.45 6.25 7.35 9.25 4.2 10.05 2.2 10.6 2.2 8.5 L3.05 7.35 M3.05 7.3 Q-4.1 7.7 0.0 12.95 -0.05 19.1 -5.0 14.65 -5.65 18.1 -9.95 14.85 -14.1 18.8 -14.55 12.2 -15.0 5.55 -9.05 4.55 L-8.65 4.25 Q-9.25 1.75 -6.2 0.05 L-2.85 -4.7 -10.85 -5.6 M-2.8 -4.8 Q-3.2 -7.3 -2.45 -9.3 M-2.6 -5.0 L-2.5 -5.1 -2.5 -5.15 -2.4 -5.25 -1.6 -6.25 Q0.3 -8.5 3.95 -8.0 M-7.45 3.95 L-8.65 4.5 -9.05 4.55 M-8.65 4.25 L-7.45 3.95 Q-1.25 2.75 3.05 7.3 M7.2 4.25 Q6.6 2.7 4.9 1.8 2.4 0.4 -0.55 0.1 L-6.2 0.05 M3.3 7.65 L2.2 8.5" fill="none" stroke="#92581f" stroke-linecap="round" stroke-linejoin="round" stroke-width="1.0"/>
  </g>
</svg>
