<?xml version="1.0" encoding="UTF-8" standalone="no"?>
<svg xmlns:xlink="http://www.w3.org/1999/xlink" height="10.05px" width="10.25px" xmlns="http://www.w3.org/2000/svg">
  <g transform="matrix(1.0, 0.0, 0.0, 1.0, 5.15, 5.0)">
    <path d="M4.1 -3.5 L4.1 3.55 3.95 3.9 3.65 4.05 -3.65 4.05 -4.0 3.9 -4.15 3.6 -4.15 -3.5 -4.0 -3.85 -3.65 -4.0 3.65 -4.0 3.95 -3.85 4.1 -3.5" fill="#ff0000" fill-rule="evenodd" stroke="none"/>
    <path d="M4.65 -4.55 Q5.1 -4.1 5.1 -3.5 L5.1 3.55 Q5.1 4.15 4.65 4.6 4.2 5.05 3.65 5.05 L-3.65 5.05 Q-4.25 5.05 -4.7 4.6 L-5.15 3.6 -5.15 -3.5 Q-5.15 -4.1 -4.7 -4.55 -4.25 -5.0 -3.65 -5.0 L3.65 -5.0 Q4.2 -5.0 4.65 -4.55 M4.1 -3.5 L3.95 -3.85 3.65 -4.0 -3.65 -4.0 -4.0 -3.85 -4.15 -3.5 -4.15 3.6 -4.0 3.9 -3.65 4.05 3.65 4.05 3.95 3.9 4.1 3.55 4.1 -3.5" fill="#7e0101" fill-rule="evenodd" stroke="none"/>
    <path d="M2.25 -0.65 L0.7 -0.65 0.7 3.2 -0.7 3.2 -0.7 -0.65 -2.25 -0.65 0.0 -3.55 2.25 -0.65" fill="#ffffff" fill-rule="evenodd" stroke="none"/>
  </g>
</svg>
