<?xml version="1.0" encoding="UTF-8" standalone="no"?>
<svg xmlns:xlink="http://www.w3.org/1999/xlink" height="18.5px" width="33.45px" xmlns="http://www.w3.org/2000/svg">
  <g transform="matrix(1.0, 0.0, 0.0, 1.0, 16.7, 6.2)">
    <path d="M-2.85 0.85 Q-4.2 0.85 -5.15 -0.1 -6.1 -1.05 -6.1 -2.4 L-6.1 -2.45 Q-6.1 -3.8 -5.15 -4.75 -4.2 -5.7 -2.85 -5.7 L13.0 -5.7 Q14.35 -5.7 15.3 -4.75 16.25 -3.8 16.25 -2.45 L16.25 -2.4 Q16.25 -1.05 15.3 -0.1 14.35 0.85 13.0 0.85 L0.5 0.85 -2.85 0.85" fill="#ff6600" fill-rule="evenodd" stroke="none"/>
    <path d="M-2.85 0.85 L0.5 0.85 0.5 6.75 0.5 10.8 Q-1.15 12.85 -2.85 10.8 L-2.85 6.75 -2.85 0.85" fill="#999999" fill-rule="evenodd" stroke="none"/>
    <path d="M0.5 6.75 Q3.35 6.65 3.35 8.65 3.35 10.95 0.5 10.8 L0.5 6.75 M-2.85 10.8 L-15.2 10.8 Q-17.2 8.8 -15.2 6.75 L-2.85 6.75 -2.85 10.8" fill="#666666" fill-rule="evenodd" stroke="none"/>
    <path d="M0.5 0.85 L13.0 0.85 Q14.35 0.85 15.3 -0.1 16.25 -1.05 16.25 -2.4 L16.25 -2.45 Q16.25 -3.8 15.3 -4.75 14.35 -5.7 13.0 -5.7 L-2.85 -5.7 Q-4.2 -5.7 -5.15 -4.75 -6.1 -3.8 -6.1 -2.45 L-6.1 -2.4 Q-6.1 -1.05 -5.15 -0.1 -4.2 0.85 -2.85 0.85 L0.5 0.85" fill="none" stroke="#cc3300" stroke-linecap="round" stroke-linejoin="round" stroke-width="1.0"/>
    <path d="M0.5 6.75 Q3.35 6.65 3.35 8.65 3.35 10.95 0.5 10.8 M-2.85 10.8 L-15.2 10.8 Q-17.2 8.8 -15.2 6.75 L-2.85 6.75" fill="none" stroke="#4f4f4f" stroke-linecap="round" stroke-linejoin="round" stroke-width="1.0"/>
    <path d="M0.5 0.85 L0.5 6.75 0.5 10.8 Q-1.15 12.85 -2.85 10.8 L-2.85 6.75 -2.85 0.85" fill="none" stroke="#585858" stroke-linecap="round" stroke-linejoin="round" stroke-width="1.0"/>
  </g>
</svg>
