<?xml version="1.0" encoding="UTF-8" standalone="no"?>
<svg xmlns:xlink="http://www.w3.org/1999/xlink" height="59.7px" width="24.75px" xmlns="http://www.w3.org/2000/svg">
  <g transform="matrix(1.0, 0.0, 0.0, 1.0, 13.75, 16.2)">
    <path d="M-9.65 -1.65 L-5.8 -15.7 Q1.9 -12.7 5.95 -6.8 10.3 -0.5 10.5 7.45 10.65 15.4 6.55 24.05 5.35 22.95 3.45 22.85 0.55 22.7 -2.2 23.75 -4.9 24.75 -7.3 26.15 -8.05 23.05 -4.75 5.25 L-4.7 4.85 Q-7.75 0.3 -9.65 -1.65 M-3.35 3.75 Q-4.25 4.3 -4.75 5.25 -4.25 4.3 -3.35 3.75" fill="#d6883a" fill-rule="evenodd" stroke="none"/>
    <path d="M6.55 24.05 Q7.2 24.7 7.65 25.75 8.9 28.45 6.45 30.55 L4.25 30.5 4.15 30.4 Q4.3 29.35 4.6 28.8 L4.2 28.6 4.2 28.65 Q-1.65 26.4 -6.7 30.2 L-6.8 30.3 -7.65 31.0 -8.05 30.45 Q-9.0 28.65 -7.3 26.15 -4.9 24.75 -2.2 23.75 0.55 22.7 3.45 22.85 5.35 22.95 6.55 24.05" fill="#dea063" fill-rule="evenodd" stroke="none"/>
    <path d="M4.25 30.5 Q3.75 32.55 4.5 34.15 L4.75 34.5 Q-2.35 34.0 1.1 39.7 0.3 45.8 -4.1 40.8 -5.15 44.15 -9.05 40.4 -13.6 43.9 -13.25 37.3 -12.95 31.3 -8.05 30.45 L-7.65 31.0 -6.8 30.3 -6.7 30.3 -6.7 30.2 Q-1.65 26.4 4.2 28.65 L4.2 28.6 4.6 28.8 Q4.3 29.35 4.15 30.4 L4.25 30.5" fill="#ffcc99" fill-rule="evenodd" stroke="none"/>
    <path d="M-5.8 -15.7 Q1.9 -12.7 5.95 -6.8 10.3 -0.5 10.5 7.45 10.65 15.4 6.55 24.05 7.2 24.7 7.65 25.75 8.9 28.45 6.45 30.55 L4.25 30.5 Q3.75 32.55 4.5 34.15 M4.75 34.5 Q-2.35 34.0 1.1 39.7 0.3 45.8 -4.1 40.8 -5.15 44.15 -9.05 40.4 -13.6 43.9 -13.25 37.3 -12.95 31.3 -8.05 30.45 -9.0 28.65 -7.3 26.15 -8.05 23.05 -4.75 5.25 L-4.7 4.85 Q-7.75 0.3 -9.65 -1.65 M-4.75 5.25 Q-4.25 4.3 -3.35 3.75 M-6.7 30.2 L-6.8 30.3 -6.7 30.3 M-6.8 30.3 L-7.65 31.0 -8.05 30.45 M6.55 24.05 Q5.35 22.95 3.45 22.85 0.55 22.7 -2.2 23.75 -4.9 24.75 -7.3 26.15 M4.6 28.8 Q4.3 29.35 4.15 30.4 L4.25 30.5 M-6.7 30.2 Q-1.65 26.4 4.2 28.65" fill="none" stroke="#92581f" stroke-linecap="round" stroke-linejoin="round" stroke-width="1.0"/>
  </g>
</svg>
