<?xml version="1.0" encoding="UTF-8" standalone="no"?>
<svg xmlns:xlink="http://www.w3.org/1999/xlink" height="65.65px" width="22.6px" xmlns="http://www.w3.org/2000/svg">
  <g transform="matrix(1.0, 0.0, 0.0, 1.0, 13.55, 16.2)">
    <path d="M-9.65 -1.65 L-5.8 -15.7 Q1.9 -12.7 5.95 -6.8 9.35 -1.9 8.5 12.4 L8.55 12.7 Q9.25 20.6 5.75 29.55 4.5 28.5 2.6 28.55 -0.3 28.6 -2.95 29.85 -5.6 31.05 -7.85 32.6 -8.85 29.65 -6.95 12.7 -7.85 0.2 -9.65 -1.65" fill="#d6883a" fill-rule="evenodd" stroke="none"/>
    <path d="M5.75 29.55 L7.0 31.15 Q8.45 33.75 6.15 36.0 4.85 37.25 3.95 36.1 L3.8 36.05 Q3.9 34.95 4.15 34.4 L3.75 34.25 Q-2.25 32.45 -7.0 36.6 L-7.1 36.7 -7.9 37.45 -8.3 36.9 Q-9.4 35.2 -7.85 32.6 -5.6 31.05 -2.95 29.85 -0.3 28.6 2.6 28.55 4.5 28.5 5.75 29.55" fill="#dea063" fill-rule="evenodd" stroke="none"/>
    <path d="M3.95 36.1 Q3.6 38.2 4.45 39.75 L4.7 40.05 Q-2.4 40.1 1.45 45.55 1.1 51.65 -3.65 47.0 -4.45 50.4 -8.6 46.95 -12.9 50.7 -13.05 44.1 -13.15 38.1 -8.3 36.9 L-7.9 37.45 -7.1 36.7 -7.0 36.7 -7.0 36.6 Q-2.25 32.45 3.75 34.25 L4.15 34.4 Q3.9 34.95 3.8 36.05 L3.95 36.1" fill="#ffcc99" fill-rule="evenodd" stroke="none"/>
    <path d="M-5.8 -15.7 Q1.9 -12.7 5.95 -6.8 9.35 -1.9 8.5 12.4 L8.55 12.7 Q9.25 20.6 5.75 29.55 L7.0 31.15 Q8.45 33.75 6.15 36.0 4.85 37.25 3.95 36.1 3.6 38.2 4.45 39.75 M4.7 40.05 Q-2.4 40.1 1.45 45.55 1.1 51.65 -3.65 47.0 -4.45 50.4 -8.6 46.95 -12.9 50.7 -13.05 44.1 -13.15 38.1 -8.3 36.9 -9.4 35.2 -7.85 32.6 -8.85 29.65 -6.95 12.7 -7.85 0.2 -9.65 -1.65 M5.75 29.55 Q4.5 28.5 2.6 28.55 -0.3 28.6 -2.95 29.85 -5.6 31.05 -7.85 32.6 M-7.0 36.7 L-7.1 36.7 -7.9 37.45 -8.3 36.9 M-7.1 36.7 L-7.0 36.6 Q-2.25 32.45 3.75 34.25 M4.15 34.4 Q3.9 34.95 3.8 36.05 L3.95 36.1" fill="none" stroke="#92581f" stroke-linecap="round" stroke-linejoin="round" stroke-width="1.0"/>
  </g>
</svg>
