<?xml version="1.0" encoding="UTF-8" standalone="no"?>
<svg xmlns:xlink="http://www.w3.org/1999/xlink" height="75.6px" width="69.05px" xmlns="http://www.w3.org/2000/svg">
  <g transform="matrix(1.0, 0.0, 0.0, 1.0, 34.55, 37.8)">
    <path d="M-13.45 -19.0 L-13.4 -19.1 Q-11.0 -24.35 -0.2 -24.9 2.0 -23.85 4.55 -23.6 7.55 -23.35 10.25 -22.15 13.05 -20.9 13.35 -17.9 13.6 -14.95 12.6 -12.35 11.55 -9.7 9.85 -7.4 8.35 -5.35 8.05 -3.2 6.25 -4.35 4.6 -4.95 L4.5 -5.0 3.85 -5.2 3.7 -5.25 3.5 -5.3 Q0.35 -5.85 -1.5 -3.5 -3.2 -1.35 -4.55 1.1 -5.9 3.6 -9.1 4.1 -12.4 4.65 -14.2 3.55 L-14.95 0.75 -15.4 -2.05 -15.4 -7.3 -15.4 -7.6 Q-15.3 -10.2 -14.85 -12.65 L-14.7 -13.35 -13.6 -18.6 -13.45 -19.0 M21.05 -16.25 Q21.35 -17.2 21.95 -17.95 22.8 -19.0 24.25 -19.65 25.55 -20.2 26.85 -20.2 28.3 -20.15 29.8 -19.4 32.35 -18.1 33.2 -15.5 34.1 -12.85 33.85 -9.75 33.55 -6.7 31.15 -5.05 28.75 -3.4 26.4 -4.55 L26.1 -4.65 24.4 -5.9 Q23.2 -6.65 22.65 -10.05 22.05 -13.45 21.0 -15.85 L21.05 -16.25 M23.6 -16.25 Q23.8 -15.0 24.7 -13.6 26.95 -16.95 30.85 -17.1 29.85 -18.2 28.5 -18.4 25.25 -18.85 23.6 -16.25 M26.7 -11.7 Q28.7 -12.85 30.1 -11.65 28.7 -12.85 26.7 -11.7 26.15 -10.35 26.05 -8.9 26.15 -10.35 26.7 -11.7 L27.8 -13.8 Q28.65 -15.0 30.0 -14.5 28.65 -15.0 27.8 -13.8 L26.7 -11.7" fill="#ffcc99" fill-rule="evenodd" stroke="none"/>
    <path d="M23.45 -27.55 L20.8 -29.25 Q18.15 -30.8 15.95 -31.55 19.2 -29.4 19.7 -25.7 L18.45 -26.8 Q16.25 -28.75 13.6 -30.05 L13.45 -29.75 Q16.6 -27.7 17.75 -24.05 L16.8 -24.7 Q14.0 -26.25 11.0 -27.2 L10.8 -26.6 Q12.8 -25.85 13.45 -23.75 L12.15 -24.1 6.9 -24.8 6.4 -24.8 Q2.75 -25.05 -0.2 -24.9 -11.0 -24.35 -13.4 -19.1 L-13.45 -19.0 -15.55 -18.95 Q-17.8 -18.55 -19.7 -17.2 L-21.4 -15.8 -22.3 -16.95 Q-20.55 -19.4 -18.2 -21.05 L-21.95 -20.8 -26.35 -19.7 Q-25.9 -20.7 -25.05 -21.05 -27.6 -20.85 -29.9 -19.7 -32.25 -18.45 -33.9 -16.6 -33.5 -18.6 -32.65 -20.4 -31.45 -22.9 -29.55 -24.85 L-25.45 -28.35 -20.8 -31.2 Q-18.15 -32.55 -15.25 -33.2 L-9.65 -33.8 -4.35 -33.6 Q-5.15 -35.9 -7.2 -37.1 L-5.4 -37.15 0.35 -36.9 6.0 -36.2 11.6 -34.95 16.9 -32.85 Q19.35 -31.75 21.2 -29.95 L23.45 -27.55 M8.05 -3.2 Q10.45 -1.65 13.45 -2.05 L15.0 -2.4 Q18.05 -1.2 19.7 0.7 20.85 2.05 21.3 3.95 21.95 6.85 21.15 9.7 20.4 12.6 18.4 14.8 16.5 16.85 15.2 19.4 14.25 21.15 13.75 23.05 L16.75 19.95 Q17.85 18.65 19.45 18.2 19.8 21.55 17.25 24.05 14.35 27.0 10.35 28.45 8.25 29.2 8.0 31.4 7.8 33.35 8.85 34.65 9.05 32.35 10.6 30.45 11.65 29.15 13.2 28.9 L14.85 28.7 16.75 29.05 Q14.5 30.8 13.25 33.05 12.6 34.25 13.6 34.85 L11.0 36.4 Q9.3 37.15 7.35 37.15 4.6 37.15 2.1 36.4 -0.7 35.5 -2.3 33.35 L-1.8 36.8 -6.75 33.95 Q-9.1 32.15 -10.95 29.95 -12.85 27.7 -14.05 25.65 -15.45 23.2 -16.5 20.55 L-18.15 15.15 Q-18.8 12.45 -18.65 9.45 L-18.25 3.7 -17.45 -1.7 -16.4 -7.3 -15.4 -7.3 -15.4 -2.05 -14.95 0.75 -14.2 3.55 Q-12.4 4.65 -9.1 4.1 -5.9 3.6 -4.55 1.1 -3.2 -1.35 -1.5 -3.5 0.35 -5.85 3.5 -5.3 L3.7 -5.25 3.85 -5.2 4.5 -5.0 4.6 -4.95 Q6.25 -4.35 8.05 -3.2 M-16.7 -31.2 Q-19.5 -30.2 -21.9 -28.55 L-22.95 -27.7 -22.6 -27.35 -23.6 -24.9 Q-22.3 -26.3 -19.9 -27.3 L-15.95 -28.8 Q-11.45 -30.25 -6.7 -30.35 L-6.5 -31.0 Q-8.8 -31.8 -11.15 -31.95 L-12.55 -31.95 Q-14.7 -31.9 -16.7 -31.2 M-17.05 7.1 L-17.2 9.3 Q-17.4 12.3 -16.9 15.15 -16.35 18.0 -14.95 20.6 -13.55 23.1 -11.3 24.85 L-8.2 27.2 Q-7.15 27.95 -6.55 28.9 -6.4 27.7 -7.2 26.15 -7.9 24.85 -9.2 24.05 -11.15 22.8 -12.5 20.95 -13.4 19.75 -13.75 18.35 -12.95 20.1 -10.8 20.55 -8.75 20.95 -7.5 22.5 -7.9 19.65 -10.7 18.4 -13.5 17.1 -14.45 14.3 L-15.3 11.0 Q-15.7 9.0 -16.4 7.1 L-17.05 7.1" fill="#cccccc" fill-rule="evenodd" stroke="none"/>
    <path d="M23.6 -16.25 Q25.25 -18.85 28.5 -18.4 29.85 -18.2 30.85 -17.1 26.95 -16.95 24.7 -13.6 23.8 -15.0 23.6 -16.25" fill="#ffe1c4" fill-rule="evenodd" stroke="none"/>
    <path d="M-0.2 -24.9 Q2.75 -25.05 6.4 -24.8 L6.9 -24.8 12.15 -24.1 13.45 -23.75 Q15.65 -23.15 17.45 -21.85 19.9 -20.15 20.65 -17.55 L21.05 -16.25 20.95 -15.95 19.6 -10.2 Q19.1 -7.3 17.95 -5.1 16.9 -3.15 15.0 -2.4 L13.45 -2.05 Q10.45 -1.65 8.05 -3.2 8.35 -5.35 9.85 -7.4 11.55 -9.7 12.6 -12.35 13.6 -14.95 13.35 -17.9 13.05 -20.9 10.25 -22.15 7.55 -23.35 4.55 -23.6 2.0 -23.85 -0.2 -24.9" fill="#ffba75" fill-rule="evenodd" stroke="none"/>
    <path d="M13.45 -23.75 Q12.8 -25.85 10.8 -26.6 L11.0 -27.2 Q14.0 -26.25 16.8 -24.7 L17.75 -24.05 Q16.6 -27.7 13.45 -29.75 L13.6 -30.05 Q16.25 -28.75 18.45 -26.8 L19.7 -25.7 Q19.2 -29.4 15.95 -31.55 18.15 -30.8 20.8 -29.25 L23.45 -27.55 25.0 -25.5 Q26.6 -23.1 26.85 -20.2 25.55 -20.2 24.25 -19.65 22.8 -19.0 21.95 -17.95 21.35 -17.2 21.05 -16.25 L20.65 -17.55 Q19.9 -20.15 17.45 -21.85 15.65 -23.15 13.45 -23.75 M15.0 -2.4 Q16.9 -3.15 17.95 -5.1 19.1 -7.3 19.6 -10.2 L20.95 -15.95 21.0 -15.85 Q22.05 -13.45 22.65 -10.05 23.2 -6.65 24.4 -5.9 L26.1 -4.65 26.45 -3.7 27.3 -1.05 Q28.0 1.5 28.25 4.2 L28.45 9.95 Q28.5 12.95 28.0 15.85 27.55 18.7 26.25 21.35 L24.95 23.35 Q24.65 24.5 19.95 27.05 L16.75 29.05 14.85 28.7 13.2 28.9 Q11.65 29.15 10.6 30.45 9.05 32.35 8.85 34.65 7.8 33.35 8.0 31.4 8.25 29.2 10.35 28.45 14.35 27.0 17.25 24.05 19.8 21.55 19.45 18.2 17.85 18.65 16.75 19.95 L13.75 23.05 Q14.25 21.15 15.2 19.4 16.5 16.85 18.4 14.8 20.4 12.6 21.15 9.7 21.95 6.85 21.3 3.95 20.85 2.05 19.7 0.7 18.05 -1.2 15.0 -2.4" fill="#bcbcbc" fill-rule="evenodd" stroke="none"/>
    <path d="M-16.7 -31.2 Q-14.7 -31.9 -12.55 -31.95 L-11.15 -31.95 Q-8.8 -31.8 -6.5 -31.0 L-6.7 -30.35 Q-11.45 -30.25 -15.95 -28.8 L-19.9 -27.3 Q-22.3 -26.3 -23.6 -24.9 L-22.6 -27.35 -22.95 -27.7 -21.9 -28.55 Q-19.5 -30.2 -16.7 -31.2 M-17.05 7.1 L-16.4 7.1 Q-15.7 9.0 -15.3 11.0 L-14.45 14.3 Q-13.5 17.1 -10.7 18.4 -7.9 19.65 -7.5 22.5 -8.75 20.95 -10.8 20.55 -12.95 20.1 -13.75 18.35 -13.4 19.75 -12.5 20.95 -11.15 22.8 -9.2 24.05 -7.9 24.85 -7.2 26.15 -6.4 27.7 -6.55 28.9 -7.15 27.95 -8.2 27.2 L-11.3 24.85 Q-13.55 23.1 -14.95 20.6 -16.35 18.0 -16.9 15.15 -17.4 12.3 -17.2 9.3 L-17.05 7.1" fill="#e0e0e0" fill-rule="evenodd" stroke="none"/>
    <path d="M21.05 -16.25 Q21.35 -17.2 21.95 -17.95 22.8 -19.0 24.25 -19.65 25.55 -20.2 26.85 -20.2 28.3 -20.15 29.8 -19.4 32.35 -18.1 33.2 -15.5 34.1 -12.85 33.85 -9.75 33.55 -6.7 31.15 -5.05 28.75 -3.4 26.4 -4.55 L26.1 -4.65 M20.95 -15.95 L21.05 -16.25 21.0 -15.85 M26.05 -8.9 Q26.15 -10.35 26.7 -11.7 L27.8 -13.8 Q28.65 -15.0 30.0 -14.5 M30.1 -11.65 Q28.7 -12.85 26.7 -11.7" fill="none" stroke="#cc6633" stroke-linecap="round" stroke-linejoin="round" stroke-width="1.0"/>
    <path d="M23.45 -27.55 L21.2 -29.95 Q19.35 -31.75 16.9 -32.85 L11.6 -34.95 6.0 -36.2 0.35 -36.9 -5.4 -37.15 -7.2 -37.1 Q-5.15 -35.9 -4.35 -33.6 L-9.65 -33.8 -15.25 -33.2 Q-18.15 -32.55 -20.8 -31.2 L-25.45 -28.35 -29.55 -24.85 Q-31.45 -22.9 -32.65 -20.4 -33.5 -18.6 -33.9 -16.6 -32.25 -18.45 -29.9 -19.7 -27.6 -20.85 -25.05 -21.05 -25.9 -20.7 -26.35 -19.7 L-21.95 -20.8 -18.2 -21.05 Q-20.55 -19.4 -22.3 -16.95 -23.5 -15.25 -23.6 -13.15 -22.8 -14.55 -21.4 -15.8 L-19.7 -17.2 Q-17.8 -18.55 -15.55 -18.95 L-13.45 -19.0 -13.4 -19.1 Q-11.0 -24.35 -0.2 -24.9 2.75 -25.05 6.4 -24.8 L6.9 -24.8 12.15 -24.1 13.45 -23.75 Q15.65 -23.15 17.45 -21.85 19.9 -20.15 20.65 -17.55 L21.05 -16.25 M26.85 -20.2 Q26.6 -23.1 25.0 -25.5 L23.45 -27.55 M8.05 -3.2 Q10.45 -1.65 13.45 -2.05 L15.0 -2.4 Q16.9 -3.15 17.95 -5.1 19.1 -7.3 19.6 -10.2 L20.95 -15.95 21.0 -15.85 Q22.05 -13.45 22.65 -10.05 23.2 -6.65 24.4 -5.9 L26.1 -4.65 M8.05 -3.2 Q6.25 -4.35 4.6 -4.95 L4.5 -5.0 3.85 -5.2 3.7 -5.25 3.5 -5.3 Q0.35 -5.85 -1.5 -3.5 -3.2 -1.35 -4.55 1.1 -5.9 3.6 -9.1 4.1 -12.4 4.65 -14.2 3.55 L-14.95 0.75 -15.4 -2.05 -15.4 -7.3 -16.4 -7.3 -17.45 -1.7 -18.25 3.7 -18.65 9.45 Q-18.8 12.45 -18.15 15.15 L-16.5 20.55 Q-15.45 23.2 -14.05 25.65 -12.85 27.7 -10.95 29.95 -9.1 32.15 -6.75 33.95 L-1.8 36.8 -2.3 33.35 Q-0.7 35.5 2.1 36.4 4.6 37.15 7.35 37.15 9.3 37.15 11.0 36.4 L13.6 34.85 Q12.6 34.25 13.25 33.05 14.5 30.8 16.75 29.05 L19.95 27.05 Q24.65 24.5 24.95 23.35 M-14.85 -12.65 L-14.7 -13.35 -13.6 -18.6 -13.45 -19.0 M-15.4 -7.3 L-15.4 -7.6 Q-15.3 -10.2 -14.85 -12.65 -15.8 -10.35 -16.3 -7.85 L-16.4 -7.3" fill="none" stroke="#666666" stroke-linecap="round" stroke-linejoin="round" stroke-width="1.0"/>
    <path d="M26.1 -4.65 L26.45 -3.7 27.3 -1.05 Q28.0 1.5 28.25 4.2 L28.45 9.95 Q28.5 12.95 28.0 15.85 27.55 18.7 26.25 21.35 L24.95 23.35" fill="none" stroke="#666666" stroke-linecap="round" stroke-linejoin="round" stroke-width="1.25"/>
  </g>
</svg>
