<?xml version="1.0" encoding="UTF-8" standalone="no"?>
<svg xmlns:xlink="http://www.w3.org/1999/xlink" height="8.25px" width="4.6px" xmlns="http://www.w3.org/2000/svg">
  <g transform="matrix(1.0, 0.0, 0.0, 1.0, 2.3, 4.15)">
    <path d="M0.75 -4.15 L1.6 -3.15 Q2.3 -1.9 2.3 -0.15 2.3 1.6 1.6 2.8 0.95 4.05 0.0 4.1 L-0.1 4.05 -0.75 3.85 -1.0 3.65 -1.55 2.95 -1.65 2.8 Q-2.3 1.6 -2.3 -0.15 -2.3 -1.9 -1.65 -3.15 L-0.7 -4.15 0.75 -4.15" fill="#354264" fill-rule="evenodd" stroke="none"/>
    <path d="M-0.25 1.7 L-0.4 2.3 -0.75 2.6 -1.1 2.3 -1.25 1.7 -1.1 1.05 -0.75 0.8 Q-0.55 0.8 -0.4 1.05 -0.25 1.35 -0.25 1.7" fill="#65b1fe" fill-rule="evenodd" stroke="none"/>
    <path d="M0.45 0.5 L0.35 0.9 0.1 1.1 -0.1 0.9 -0.2 0.5 -0.1 0.1 0.1 -0.1 0.35 0.1 0.45 0.5" fill="#65b1fe" fill-rule="evenodd" stroke="none"/>
  </g>
</svg>
