<?xml version="1.0" encoding="UTF-8" standalone="no"?>
<svg xmlns:xlink="http://www.w3.org/1999/xlink" height="6.5px" width="4.1px" xmlns="http://www.w3.org/2000/svg">
  <g transform="matrix(1.0, 0.0, 0.0, 1.0, 2.05, 3.25)">
    <path d="M1.4 -2.2 L2.05 -0.1 Q1.5 -0.2 1.8 0.35 0.3 0.9 -1.75 2.95 L-2.05 3.25 Q-1.75 2.6 -1.8 2.4 -2.1 1.55 -2.05 0.5 -2.1 -1.1 -1.5 -2.2 -0.85 -3.25 0.0 -3.25 0.8 -3.25 1.4 -2.2" fill="#354264" fill-rule="evenodd" stroke="none"/>
    <path d="M-1.1 1.05 L-0.95 0.4 -0.6 0.15 Q-0.4 0.15 -0.25 0.4 L-0.1 0.9 -0.2 0.9 -0.95 1.65 -1.1 1.05" fill="#65b1fe" fill-rule="evenodd" stroke="none"/>
    <path d="M0.4 -0.3 L0.35 0.1 0.15 0.3 -0.1 0.15 -0.25 -0.25 -0.2 -0.7 0.0 -0.95 0.25 -0.75 0.4 -0.3" fill="#65b1fe" fill-rule="evenodd" stroke="none"/>
  </g>
</svg>
