<?xml version="1.0" encoding="UTF-8" standalone="no"?>
<svg xmlns:xlink="http://www.w3.org/1999/xlink" height="16.95px" width="20.15px" xmlns="http://www.w3.org/2000/svg">
  <g transform="matrix(1.0, 0.0, 0.0, 1.0, 10.1, 8.5)">
    <path d="M6.9 -7.55 L8.1 -6.55 Q9.0 -5.55 9.4 -4.1 L9.55 -3.1 Q9.85 -0.1 8.5 2.4 7.1 5.05 4.45 6.45 1.95 7.75 -0.95 7.95 -3.9 8.15 -6.5 6.95 -8.25 6.15 -8.95 4.75 L-9.6 2.3 Q-9.75 0.8 -9.25 -0.7 -8.3 -3.35 -6.35 -5.4 -4.3 -7.45 -2.8 -8.0 L6.9 -7.55 M-1.65 5.15 Q-4.1 4.0 -4.3 1.25 L-4.85 -4.15 Q-7.0 -2.45 -7.5 0.7 -8.1 4.25 -4.9 5.15 -3.25 5.6 -1.65 5.15" fill="#ffcc99" fill-rule="evenodd" stroke="none"/>
    <path d="M-1.65 5.15 Q-3.25 5.6 -4.9 5.15 -8.1 4.25 -7.5 0.7 -7.0 -2.45 -4.85 -4.15 L-4.3 1.25 Q-4.1 4.0 -1.65 5.15" fill="#ffe1c4" fill-rule="evenodd" stroke="none"/>
    <path d="M6.9 -7.55 L8.1 -6.55 Q9.0 -5.55 9.4 -4.1 L9.55 -3.1 Q9.85 -0.1 8.5 2.4 7.1 5.05 4.45 6.45 1.95 7.75 -0.95 7.95 -3.9 8.15 -6.5 6.95 -8.25 6.15 -8.95 4.75 L-9.6 2.3 Q-9.75 0.8 -9.25 -0.7 -8.3 -3.35 -6.35 -5.4 -4.3 -7.45 -2.8 -8.0" fill="none" stroke="#cc6633" stroke-linecap="round" stroke-linejoin="round" stroke-width="1.0"/>
  </g>
</svg>
