<?xml version="1.0" encoding="UTF-8" standalone="no"?>
<svg xmlns:xlink="http://www.w3.org/1999/xlink" height="10.4px" width="15.15px" xmlns="http://www.w3.org/2000/svg">
  <g transform="matrix(1.0, 0.0, 0.0, 1.0, 7.6, 5.3)">
    <path d="M3.1 -0.7 Q2.25 -0.1 1.1 -0.1 2.25 -0.1 3.1 -0.7 M-5.65 -2.65 Q-4.1 -3.75 -2.35 -4.55 L-0.55 -4.8 Q2.4 -4.35 5.05 -2.9 8.65 -0.95 5.85 1.1 3.55 2.8 0.75 3.55 L-2.65 4.45 -2.75 4.5 -3.2 4.6 -5.2 2.75 -3.65 1.2 -3.7 0.55 Q-5.9 0.3 -5.45 -2.4 L-5.65 -2.65 M-2.2 0.45 L-3.7 0.55 -2.2 0.45" fill="#ffffff" fill-rule="evenodd" stroke="none"/>
    <path d="M1.1 -0.1 Q2.25 -0.1 3.1 -0.7 M-5.65 -2.65 Q-4.1 -3.75 -2.35 -4.55 L-0.55 -4.8 Q2.4 -4.35 5.05 -2.9 8.65 -0.95 5.85 1.1 3.55 2.8 0.75 3.55 L-2.65 4.45 -2.75 4.5 -3.2 4.6 Q-5.95 5.4 -6.1 4.0 M-5.65 -2.65 L-7.1 -1.55 M-3.2 4.6 L-5.2 2.75 -3.65 1.2 M-3.7 0.55 Q-5.9 0.3 -5.45 -2.4 M-3.7 0.55 L-2.2 0.45" fill="none" stroke="#666666" stroke-linecap="round" stroke-linejoin="round" stroke-width="1.0"/>
  </g>
</svg>
