<?xml version="1.0" encoding="UTF-8" standalone="no"?>
<svg xmlns:xlink="http://www.w3.org/1999/xlink" height="41.2px" width="26.95px" xmlns="http://www.w3.org/2000/svg">
  <g transform="matrix(1.0, 0.0, 0.0, 1.0, 14.2, 16.6)">
    <path d="M-6.95 -16.1 Q-0.95 -13.95 5.05 -11.2 10.4 -8.7 12.1 -3.8 L12.25 -1.95 Q10.25 3.7 6.4 9.0 5.55 7.55 3.75 6.95 1.05 6.0 -1.9 6.2 L-7.5 7.1 Q-6.4 4.3 -2.65 -2.8 L-2.65 -2.85 -2.7 -2.8 -9.3 -5.15 Q-11.5 -8.9 -10.4 -11.65 -9.25 -14.45 -6.95 -16.1 M2.85 -3.95 L-0.25 -4.1 -0.5 -4.05 -2.1 -3.25 -2.5 -2.95 -2.65 -2.85 -2.5 -2.95 Q-2.65 -4.55 -2.25 -5.6 L-1.45 -7.2 -2.25 -5.6 Q-2.65 -4.55 -2.5 -2.95 L-2.1 -3.25 -0.5 -4.05 -0.25 -4.1 2.85 -3.95" fill="#d6883a" fill-rule="evenodd" stroke="none"/>
    <path d="M6.4 9.0 L7.0 10.95 Q7.35 13.9 4.4 15.2 2.5 16.05 2.2 14.0 L3.15 13.0 2.85 12.7 2.8 12.7 Q-2.15 8.9 -8.1 11.15 L-9.25 11.6 Q-10.25 9.25 -7.5 7.1 L-1.9 6.2 Q1.05 6.0 3.75 6.95 5.55 7.55 6.4 9.0" fill="#dea063" fill-rule="evenodd" stroke="none"/>
    <path d="M2.8 12.7 Q-4.15 14.25 0.75 18.75 1.7 24.85 -3.9 21.3 -3.95 24.75 -8.75 22.3 -12.2 26.9 -13.7 20.45 -15.25 14.0 -9.6 12.0 L-9.2 11.85 Q-8.6 11.65 -8.1 11.15 -2.15 8.9 2.8 12.7" fill="#ffcc99" fill-rule="evenodd" stroke="none"/>
    <path d="M-6.95 -16.1 Q-0.95 -13.95 5.05 -11.2 10.4 -8.7 12.1 -3.8 L12.25 -1.95 Q10.25 3.7 6.4 9.0 L7.0 10.95 Q7.35 13.9 4.4 15.2 2.5 16.05 2.2 14.0 L2.85 12.7 M2.8 12.7 Q-4.15 14.25 0.75 18.75 1.7 24.85 -3.9 21.3 -3.95 24.75 -8.75 22.3 -12.2 26.9 -13.7 20.45 -15.25 14.0 -9.6 12.0 L-9.25 11.6 Q-10.25 9.25 -7.5 7.1 -6.4 4.3 -2.65 -2.8 L-2.7 -2.8 -9.3 -5.15 M-2.65 -2.85 L-2.7 -2.8 M-2.65 -2.85 L-2.5 -2.95 Q-2.65 -4.55 -2.25 -5.6 L-1.45 -7.2 M-2.5 -2.95 L-2.1 -3.25 -0.5 -4.05 -0.25 -4.1 2.85 -3.95 M6.4 9.0 Q5.55 7.55 3.75 6.95 1.05 6.0 -1.9 6.2 L-7.5 7.1 M-8.1 11.15 Q-8.6 11.65 -9.2 11.85 L-9.6 12.0 M-8.1 11.15 L-9.25 11.6 M3.15 13.0 L2.2 14.0 M2.8 12.7 Q-2.15 8.9 -8.1 11.15" fill="none" stroke="#92581f" stroke-linecap="round" stroke-linejoin="round" stroke-width="1.0"/>
  </g>
</svg>
