<?xml version="1.0" encoding="UTF-8" standalone="no"?>
<svg xmlns:xlink="http://www.w3.org/1999/xlink" height="56.05px" width="26.85px" xmlns="http://www.w3.org/2000/svg">
  <g transform="matrix(1.0, 0.0, 0.0, 1.0, 15.4, 14.65)">
    <path d="M-14.9 -7.05 Q-7.65 -9.9 -2.65 -14.15 3.0 -8.2 7.8 1.75 10.75 8.5 7.7 22.4 L7.3 22.3 1.6 22.1 Q-1.1 22.6 -3.55 23.45 -3.05 13.3 -4.35 7.4 -9.25 -0.35 -14.9 -7.05" fill="#d6883a" fill-rule="evenodd" stroke="none"/>
    <path d="M7.7 22.4 Q9.25 22.85 10.15 24.05 10.7 24.8 10.95 25.9 11.6 28.8 8.8 30.45 7.3 31.3 6.65 30.05 L6.45 29.45 7.3 28.35 6.95 28.1 Q1.6 24.8 -4.05 27.65 L-5.15 28.2 Q-6.35 26.0 -3.9 23.55 L-3.55 23.45 Q-1.1 22.6 1.6 22.1 L7.3 22.3 7.7 22.4" fill="#dea063" fill-rule="evenodd" stroke="none"/>
    <path d="M6.65 30.05 L7.15 31.75 6.55 33.05 5.55 34.55 5.6 34.6 Q6.95 40.2 1.1 37.3 1.4 40.75 -3.55 38.8 L-3.6 38.8 Q-6.55 43.7 -8.7 37.45 L-9.2 35.65 Q-10.05 30.8 -5.45 28.6 L-5.1 28.45 Q-4.55 28.2 -4.05 27.65 1.6 24.8 6.95 28.1 L6.45 29.45 6.65 30.05 M-4.0 36.8 Q-3.6 37.9 -3.55 38.8 -3.6 37.9 -4.0 36.8 -6.85 37.7 -9.2 35.65 -6.85 37.7 -4.0 36.8 L-3.6 36.7 Q-1.95 36.0 -0.9 34.45 -0.6 34.0 -0.6 33.55 -0.65 32.95 -1.1 32.3 L-1.45 31.85 Q-2.75 30.3 -3.9 30.0 -2.75 30.3 -1.45 31.85 L-1.1 32.3 Q-0.65 32.95 -0.6 33.55 -0.6 34.0 -0.9 34.45 -1.95 36.0 -3.6 36.7 L-4.0 36.8 M1.1 37.3 Q1.15 35.95 0.7 35.1 0.4 31.45 3.25 31.75 L3.45 31.75 Q4.3 31.8 4.8 32.65 L5.5 34.35 5.55 34.55 5.5 34.35 4.8 32.65 Q4.3 31.8 3.45 31.75 L3.25 31.75 Q0.4 31.45 0.7 35.1 1.15 35.95 1.1 37.3 M1.3 28.05 Q2.3 31.0 -1.45 31.85 2.3 31.0 1.3 28.05 M-0.6 33.55 L0.7 35.1 -0.6 33.55" fill="#ffcc99" fill-rule="evenodd" stroke="none"/>
    <path d="M-2.65 -14.15 Q3.0 -8.2 7.8 1.75 10.75 8.5 7.7 22.4 9.25 22.85 10.15 24.05 10.7 24.8 10.95 25.9 11.6 28.8 8.8 30.45 7.3 31.3 6.65 30.05 L7.15 31.75 6.55 33.05 5.55 34.55 5.6 34.6 Q6.95 40.2 1.1 37.3 1.4 40.75 -3.55 38.8 L-3.6 38.8 Q-6.55 43.7 -8.7 37.45 L-9.2 35.65 Q-10.05 30.8 -5.45 28.6 L-5.1 28.45 Q-4.55 28.2 -4.05 27.65 L-5.15 28.2 Q-6.35 26.0 -3.9 23.55 L-3.55 23.45 Q-3.05 13.3 -4.35 7.4 -9.25 -0.35 -14.9 -7.05 M-9.2 35.65 Q-6.85 37.7 -4.0 36.8 L-3.6 36.7 Q-1.95 36.0 -0.9 34.45 -0.6 34.0 -0.6 33.55 -0.65 32.95 -1.1 32.3 L-1.45 31.85 Q-2.75 30.3 -3.9 30.0 M-3.55 38.8 Q-3.6 37.9 -4.0 36.8 M7.7 22.4 L7.3 22.3 1.6 22.1 Q-1.1 22.6 -3.55 23.45 M7.3 28.35 L6.45 29.45 6.65 30.05 M6.95 28.1 L6.45 29.45 M5.55 34.55 L5.5 34.35 4.8 32.65 Q4.3 31.8 3.45 31.75 L3.25 31.75 Q0.4 31.45 0.7 35.1 1.15 35.95 1.1 37.3 M-4.05 27.65 Q1.6 24.8 6.95 28.1 M0.7 35.1 L-0.6 33.55 M-1.45 31.85 Q2.3 31.0 1.3 28.05" fill="none" stroke="#92581f" stroke-linecap="round" stroke-linejoin="round" stroke-width="1.0"/>
  </g>
</svg>
