<?xml version="1.0" encoding="UTF-8" standalone="no"?>
<svg xmlns:xlink="http://www.w3.org/1999/xlink" height="50.7px" width="34.85px" xmlns="http://www.w3.org/2000/svg">
  <g transform="matrix(1.0, 0.0, 0.0, 1.0, 25.65, 14.65)">
    <path d="M-13.7 -7.5 L-13.65 -7.55 -12.35 -8.1 Q-10.1 -9.15 -8.05 -10.35 -5.1 -12.1 -2.65 -14.15 2.9 -8.35 7.6 1.3 L8.35 2.9 Q9.0 4.3 8.7 6.1 L8.25 8.0 8.05 8.45 Q6.0 15.15 -3.05 23.95 L-3.35 23.65 Q-5.3 21.5 -8.0 20.3 -10.45 19.25 -12.95 18.6 -7.85 11.6 -5.5 6.5 -8.0 6.4 -10.4 5.5 -12.85 4.6 -14.7 0.8 -16.6 -3.0 -14.5 -6.6 L-14.9 -7.05 -13.7 -7.5 -14.5 -6.6 -13.7 -7.5 M-3.2 6.3 L-5.5 6.5 -3.2 6.3 M0.95 4.35 Q1.4 3.05 1.1 1.5 0.4 -2.35 -1.7 -5.65 -3.85 -9.15 -8.05 -10.35 -3.85 -9.15 -1.7 -5.65 0.4 -2.35 1.1 1.5 1.4 3.05 0.95 4.35" fill="#d6883a" fill-rule="evenodd" stroke="none"/>
    <path d="M-3.05 23.95 Q-2.0 25.2 -1.95 26.65 -1.9 27.6 -2.3 28.65 -3.35 31.45 -6.6 31.2 -8.35 31.1 -8.15 29.7 L-8.0 29.1 -6.65 28.65 -6.8 28.3 -6.85 28.25 Q-9.45 22.6 -15.75 21.8 L-16.95 21.7 Q-16.75 19.15 -13.35 18.5 L-12.95 18.6 Q-10.45 19.25 -8.0 20.3 -5.3 21.5 -3.35 23.65 L-3.05 23.95" fill="#dea063" fill-rule="evenodd" stroke="none"/>
    <path d="M-8.15 29.7 L-8.7 31.4 -9.9 32.15 -11.55 32.85 -11.55 32.9 Q-13.5 38.35 -16.75 32.7 -18.4 35.75 -21.45 31.35 L-21.5 31.3 -22.65 31.8 Q-26.5 33.05 -25.0 27.4 L-24.4 25.6 -24.05 24.9 Q-23.45 23.7 -22.5 23.0 -21.8 22.35 -20.85 22.05 L-17.45 21.85 -17.05 21.9 -15.75 21.8 Q-9.45 22.6 -6.85 28.25 L-6.8 28.3 -8.0 29.1 -8.15 29.7 M-20.75 29.45 L-21.45 31.35 -20.75 29.45 -22.1 28.9 Q-23.85 27.85 -24.4 25.6 -23.85 27.85 -22.1 28.9 L-20.75 29.45 -20.35 29.6 Q-18.6 29.95 -16.85 29.2 L-16.1 28.6 Q-15.85 28.1 -15.85 27.35 L-15.9 26.7 Q-16.1 24.7 -16.9 23.85 -16.1 24.7 -15.9 26.7 L-15.85 27.35 Q-15.85 28.1 -16.1 28.6 L-16.85 29.2 Q-18.6 29.95 -20.35 29.6 L-20.75 29.45 M-11.5 25.1 Q-12.3 28.1 -15.9 26.7 -12.3 28.1 -11.5 25.1 M-16.1 28.6 Q-15.8 29.75 -15.9 30.65 -14.15 27.45 -11.9 29.25 L-11.75 29.35 Q-11.1 29.9 -11.15 30.85 -11.2 31.85 -11.5 32.65 L-11.55 32.85 -11.5 32.65 Q-11.2 31.85 -11.15 30.85 -11.1 29.9 -11.75 29.35 L-11.9 29.25 Q-14.15 27.45 -15.9 30.65 -16.0 31.6 -16.75 32.7 -16.0 31.6 -15.9 30.65 -15.8 29.75 -16.1 28.6" fill="#ffcc99" fill-rule="evenodd" stroke="none"/>
    <path d="M-13.65 -7.55 L-13.7 -7.55 -13.7 -7.5 -14.5 -6.6 -14.9 -7.05 M-13.65 -7.55 L-12.35 -8.1 M-2.65 -14.15 Q2.9 -8.35 7.6 1.3 L8.35 2.9 Q9.0 4.3 8.7 6.1 L8.25 8.0 8.05 8.45 Q6.0 15.15 -3.05 23.95 -2.0 25.2 -1.95 26.65 -1.9 27.6 -2.3 28.65 -3.35 31.45 -6.6 31.2 -8.35 31.1 -8.15 29.7 L-8.7 31.4 -9.9 32.15 -11.55 32.85 -11.55 32.9 Q-13.5 38.35 -16.75 32.7 -18.4 35.75 -21.45 31.35 L-21.5 31.3 -22.65 31.8 Q-26.5 33.05 -25.0 27.4 L-24.4 25.6 -24.05 24.9 Q-23.45 23.7 -22.5 23.0 -21.8 22.35 -20.85 22.05 L-17.45 21.85 -17.05 21.9 -15.75 21.8 -16.95 21.7 Q-16.75 19.15 -13.35 18.5 L-12.95 18.6 Q-7.85 11.6 -5.5 6.5 -8.0 6.4 -10.4 5.5 -12.85 4.6 -14.7 0.8 -16.6 -3.0 -14.5 -6.6 M-8.05 -10.35 Q-3.85 -9.15 -1.7 -5.65 0.4 -2.35 1.1 1.5 1.4 3.05 0.95 4.35 M-5.5 6.5 L-3.2 6.3 M-12.95 18.6 Q-10.45 19.25 -8.0 20.3 -5.3 21.5 -3.35 23.65 L-3.05 23.95 M-24.4 25.6 Q-23.85 27.85 -22.1 28.9 L-20.75 29.45 -20.35 29.6 Q-18.6 29.95 -16.85 29.2 L-16.1 28.6 Q-15.85 28.1 -15.85 27.35 L-15.9 26.7 Q-16.1 24.7 -16.9 23.85 M-21.45 31.35 L-20.75 29.45 M-8.15 29.7 L-8.0 29.1 -6.8 28.3 M-6.85 28.25 Q-9.45 22.6 -15.75 21.8 M-8.0 29.1 L-6.65 28.65 M-11.55 32.85 L-11.5 32.65 Q-11.2 31.85 -11.15 30.85 -11.1 29.9 -11.75 29.35 L-11.9 29.25 Q-14.15 27.45 -15.9 30.65 -16.0 31.6 -16.75 32.7 M-15.9 30.65 Q-15.8 29.75 -16.1 28.6 M-15.9 26.7 Q-12.3 28.1 -11.5 25.1" fill="none" stroke="#92581f" stroke-linecap="round" stroke-linejoin="round" stroke-width="1.0"/>
  </g>
</svg>
