<?xml version="1.0" encoding="UTF-8" standalone="no"?>
<svg xmlns:xlink="http://www.w3.org/1999/xlink" height="43.55px" width="41.55px" xmlns="http://www.w3.org/2000/svg">
  <g transform="matrix(1.0, 0.0, 0.0, 1.0, 20.9, 21.75)">
    <path d="M-12.25 11.85 L-10.85 12.2 -11.45 12.35 -12.7 12.8 -13.15 14.1 -11.3 14.1 -13.5 15.1 -13.6 15.4 -13.75 15.6 -14.05 15.6 -14.25 15.45 -14.3 15.15 -8.55 -1.7 -8.35 -1.9 -8.05 -1.95 -7.85 -1.75 -7.85 -1.45 -8.05 -0.75 -7.9 -0.6 -7.05 0.55 -8.45 0.3 -8.75 1.2 -8.6 1.3 -7.5 2.2 -9.05 2.1 -9.6 3.7 Q-8.95 4.0 -8.45 4.5 L-9.85 4.5 -10.15 5.3 -9.95 5.45 -9.0 6.4 -10.5 6.4 -10.85 7.4 -9.7 8.4 -11.25 8.5 -11.65 9.75 -11.6 9.75 -9.55 10.15 -11.95 10.65 -12.4 11.8 -12.4 11.85 -12.25 11.85 M-2.6 -7.85 L-2.65 -7.95 -3.6 -7.4 -3.5 -6.2 -4.45 -6.95 -4.55 -6.85 -4.85 -6.85 -5.05 -7.0 -5.1 -7.3 -4.9 -7.5 9.55 -15.6 9.8 -15.65 10.05 -15.45 10.05 -15.2 9.9 -14.95 9.7 -14.85 9.45 -12.75 9.0 -14.45 7.0 -13.35 6.85 -11.8 6.3 -12.95 5.05 -12.25 5.0 -10.85 4.4 -11.75 4.35 -11.85 2.9 -11.05 2.95 -9.4 2.4 -10.6 2.35 -10.75 1.45 -10.25 1.4 -8.4 0.65 -9.75 0.65 -9.8 -0.45 -9.2 Q-0.25 -8.35 -0.3 -7.5 L-1.1 -8.5 -1.25 -8.75 -1.95 -8.35 -1.75 -6.85 -2.6 -7.85" fill="#666666" fill-rule="evenodd" stroke="none"/>
    <path d="M-2.6 -7.85 L-1.75 -6.85 -1.95 -8.35 -1.25 -8.75 -1.1 -8.5 -0.3 -7.5 Q-0.25 -8.35 -0.45 -9.2 L0.65 -9.8 0.65 -9.75 1.4 -8.4 1.45 -10.25 2.35 -10.75 2.4 -10.6 2.95 -9.4 2.9 -11.05 4.35 -11.85 4.4 -11.75 5.0 -10.85 5.05 -12.25 6.3 -12.95 6.85 -11.8 7.0 -13.35 9.0 -14.45 9.45 -12.75 9.7 -14.85 9.9 -14.95 10.05 -15.2 10.05 -15.45 9.8 -15.65 9.55 -15.6 -4.9 -7.5 -5.1 -7.3 -5.05 -7.0 -4.85 -6.85 -4.55 -6.85 -4.45 -6.95 -3.5 -6.2 -3.6 -7.4 -2.65 -7.95 -2.6 -7.85 M-12.4 11.8 L-11.95 10.65 -9.55 10.15 -11.6 9.75 -11.65 9.75 -11.25 8.5 -9.7 8.4 -10.85 7.4 -10.5 6.4 -9.0 6.4 -9.95 5.45 -10.15 5.3 -9.85 4.5 -8.45 4.5 Q-8.95 4.0 -9.6 3.7 L-9.05 2.1 -7.5 2.2 -8.6 1.3 -8.75 1.2 -8.45 0.3 -7.05 0.55 -7.9 -0.6 -8.05 -0.75 -7.85 -1.45 -7.85 -1.75 -8.05 -1.95 -8.35 -1.9 -8.55 -1.7 -14.3 15.15 -14.25 15.45 -14.05 15.6 -13.75 15.6 -13.6 15.4 -13.5 15.1 -11.3 14.1 -13.15 14.1 -12.7 12.8 -11.45 12.35 -10.85 12.2 -12.25 11.85 -12.4 11.8 M-4.85 12.4 L-5.05 14.05 -20.4 21.3 -9.4 -7.6 12.55 -20.1 Q17.95 -22.45 19.9 -20.1 L19.95 -20.05 Q21.55 -16.7 17.65 -13.35 L-3.55 -0.85 -4.45 8.2 -4.85 12.4 M13.75 -17.25 Q13.75 -16.55 14.25 -16.05 14.75 -15.55 15.45 -15.55 16.15 -15.55 16.65 -16.05 17.15 -16.55 17.15 -17.25 17.15 -17.95 16.65 -18.45 16.15 -18.95 15.45 -18.95 14.75 -18.95 14.25 -18.45 13.75 -17.95 13.75 -17.25" fill="#999999" fill-rule="evenodd" stroke="none"/>
    <path d="M-4.45 8.2 L1.95 8.05 -4.85 12.4 -4.45 8.2 M13.75 -17.25 Q13.75 -17.95 14.25 -18.45 14.75 -18.95 15.45 -18.95 16.15 -18.95 16.65 -18.45 17.15 -17.95 17.15 -17.25 17.15 -16.55 16.65 -16.05 16.15 -15.55 15.45 -15.55 14.75 -15.55 14.25 -16.05 13.75 -16.55 13.75 -17.25" fill="#cccccc" fill-rule="evenodd" stroke="none"/>
    <path d="M-4.85 12.4 L-5.05 14.05 -20.4 21.3 -9.4 -7.6 12.55 -20.1 Q17.95 -22.45 19.9 -20.1 L19.95 -20.05 Q21.55 -16.7 17.65 -13.35 L-3.55 -0.85 -4.45 8.2 -4.85 12.4" fill="none" stroke="#333333" stroke-linecap="round" stroke-linejoin="round" stroke-width="1.0"/>
    <path d="M-4.45 8.2 L1.95 8.05 -4.85 12.4 M13.75 -17.25 Q13.75 -17.95 14.25 -18.45 14.75 -18.95 15.45 -18.95 16.15 -18.95 16.65 -18.45 17.15 -17.95 17.15 -17.25 17.15 -16.55 16.65 -16.05 16.15 -15.55 15.45 -15.55 14.75 -15.55 14.25 -16.05 13.75 -16.55 13.75 -17.25" fill="none" stroke="#666666" stroke-linecap="round" stroke-linejoin="round" stroke-width="0.25"/>
  </g>
</svg>
