<?xml version="1.0" encoding="UTF-8" standalone="no"?>
<svg xmlns:xlink="http://www.w3.org/1999/xlink" height="6.75px" width="7.6px" xmlns="http://www.w3.org/2000/svg">
  <g transform="matrix(1.0, 0.0, 0.0, 1.0, 3.7, 3.4)">
    <path d="M1.75 1.6 L0.25 2.85 Q-0.9 4.0 -2.45 1.95 -3.75 0.3 -3.2 -1.7 -2.95 -2.55 -2.05 -2.9 -1.05 -2.6 -0.3 -1.8 0.95 -0.4 1.75 1.6" fill="#df8a7d" fill-rule="evenodd" stroke="none"/>
    <path d="M1.75 1.6 Q0.95 -0.4 -0.3 -1.8 -1.05 -2.6 -2.05 -2.9 -0.15 -3.65 1.4 -2.4 2.7 -1.3 3.4 0.5 2.5 1.0 1.75 1.6" fill="#9e6036" fill-rule="evenodd" stroke="none"/>
    <path d="M1.75 1.6 Q0.95 -0.4 -0.3 -1.8 -1.05 -2.6 -2.05 -2.9" fill="none" stroke="#59351e" stroke-linecap="round" stroke-linejoin="round" stroke-width="0.5"/>
    <path d="M-2.05 -2.9 Q-2.95 -2.55 -3.2 -1.7 -3.75 0.3 -2.45 1.95 -0.9 4.0 0.25 2.85 L1.75 1.6 Q2.5 1.0 3.4 0.5 2.7 -1.3 1.4 -2.4 -0.15 -3.65 -2.05 -2.9" fill="none" stroke="#59351e" stroke-linecap="round" stroke-linejoin="round" stroke-width="1.0"/>
  </g>
</svg>
