<?xml version="1.0" encoding="UTF-8" standalone="no"?>
<svg xmlns:xlink="http://www.w3.org/1999/xlink" height="7.65px" width="5.45px" xmlns="http://www.w3.org/2000/svg">
  <g transform="matrix(1.0, 0.0, 0.0, 1.0, 2.5, 3.55)">
    <path d="M1.45 -3.05 Q1.95 -1.55 1.7 0.15 2.2 0.1 2.45 0.6 2.75 1.45 2.2 2.25 1.15 3.65 -0.5 3.6 -1.9 3.5 -2.0 2.0 -2.1 0.7 -1.1 0.55 -1.9 -0.95 -2.0 -2.8 -0.3 -4.3 1.45 -3.05" fill="#9e6036" fill-rule="evenodd" stroke="none"/>
    <path d="M-2.0 -2.8 Q-1.9 -0.95 -1.1 0.55 -2.1 0.7 -2.0 2.0 -1.9 3.5 -0.5 3.6 1.15 3.65 2.2 2.25 2.75 1.45 2.45 0.6 2.2 0.1 1.7 0.15 1.95 -1.55 1.45 -3.05" fill="none" stroke="#59351e" stroke-linecap="round" stroke-linejoin="round" stroke-width="1.0"/>
  </g>
</svg>
