<?xml version="1.0" encoding="UTF-8" standalone="no"?>
<svg xmlns:xlink="http://www.w3.org/1999/xlink" height="7.75px" width="8.2px" xmlns="http://www.w3.org/2000/svg">
  <g transform="matrix(1.0, 0.0, 0.0, 1.0, 4.1, 3.85)">
    <path d="M3.6 -2.75 Q3.85 -0.65 2.35 0.6 L-0.9 2.7 -2.55 3.4 -2.75 3.3 Q-3.8 2.4 -3.6 0.8 -1.55 0.2 -0.3 -1.4 1.0 -3.15 2.8 -3.35 3.55 -3.45 3.6 -2.75" fill="#9e6036" fill-rule="evenodd" stroke="none"/>
    <path d="M3.6 -2.75 Q3.85 -0.65 2.35 0.6 L-0.9 2.7 -2.55 3.4 -2.75 3.3 Q-3.8 2.4 -3.6 0.8 -1.55 0.2 -0.3 -1.4 1.0 -3.15 2.8 -3.35 3.55 -3.45 3.6 -2.75 Z" fill="none" stroke="#59351e" stroke-linecap="round" stroke-linejoin="round" stroke-width="1.0"/>
  </g>
</svg>
