<?xml version="1.0" encoding="UTF-8" standalone="no"?>
<svg xmlns:xlink="http://www.w3.org/1999/xlink" height="26.55px" width="36.9px" xmlns="http://www.w3.org/2000/svg">
  <g transform="matrix(1.0, 0.0, 0.0, 1.0, 18.45, 13.3)">
    <path d="M10.7 -5.3 Q17.35 -5.0 17.95 1.0 18.5 9.5 7.15 11.9 2.1 13.15 -4.35 12.75 L-5.95 12.7 Q-10.9 12.7 -14.45 8.95 -17.95 5.25 -17.95 -0.05 -17.95 -5.35 -14.45 -9.1 -10.9 -12.8 -5.95 -12.8 -1.0 -12.8 2.5 -9.1 L3.15 -8.35 Q5.6 -5.85 10.7 -5.3" fill="#9e6036" fill-rule="evenodd" stroke="none"/>
    <path d="M10.7 -5.3 Q17.35 -5.0 17.95 1.0 18.5 9.5 7.15 11.9 2.1 13.15 -4.35 12.75 L-5.95 12.7 Q-10.9 12.7 -14.45 8.95 -17.95 5.25 -17.95 -0.05 -17.95 -5.35 -14.45 -9.1 -10.9 -12.8 -5.95 -12.8 -1.0 -12.8 2.5 -9.1 L3.15 -8.35 Q5.6 -5.85 10.7 -5.3 Z" fill="none" stroke="#59351e" stroke-linecap="round" stroke-linejoin="round" stroke-width="1.0"/>
  </g>
</svg>
