<?xml version="1.0" encoding="UTF-8" standalone="no"?>
<svg xmlns:xlink="http://www.w3.org/1999/xlink" height="80.25px" width="43.9px" xmlns="http://www.w3.org/2000/svg">
  <g transform="matrix(1.0, 0.0, 0.0, 1.0, 21.95, 40.1)">
    <path d="M1.45 -28.7 Q0.3 -27.7 -1.1 -27.2 0.3 -2.1 12.2 16.7 L14.45 16.35 Q17.35 16.35 19.4 18.35 21.45 20.35 21.45 23.2 21.45 26.05 19.4 28.05 17.35 30.05 14.45 30.05 L11.8 29.55 11.8 30.5 Q11.8 34.3 9.6 36.95 7.45 39.65 4.35 39.65 1.25 39.65 -0.95 36.95 -3.1 34.3 -3.1 30.5 -3.1 26.7 -0.95 24.0 0.7 22.0 2.85 21.55 1.15 0.55 -7.8 -21.6 -8.1 -21.25 -8.5 -20.95 -10.7 -19.05 -13.85 -19.05 -17.0 -19.05 -19.25 -20.95 -21.45 -22.8 -21.45 -25.45 -21.45 -28.1 -19.25 -30.0 -17.0 -31.85 -13.85 -31.85 L-11.25 -31.45 -11.5 -33.2 Q-11.5 -35.85 -9.3 -37.75 -7.05 -39.6 -3.9 -39.6 -0.75 -39.6 1.45 -37.75 3.7 -35.85 3.7 -33.2 3.7 -30.55 1.45 -28.7" fill="#ffffff" fill-rule="evenodd" stroke="none"/>
    <path d="M1.45 -28.7 Q0.3 -27.7 -1.1 -27.2 0.3 -2.1 12.2 16.7 L14.45 16.35 Q17.35 16.35 19.4 18.35 21.45 20.35 21.45 23.2 21.45 26.05 19.4 28.05 17.35 30.05 14.45 30.05 L11.8 29.55 11.8 30.5 Q11.8 34.3 9.6 36.95 7.45 39.65 4.35 39.65 1.25 39.65 -0.95 36.95 -3.1 34.3 -3.1 30.5 -3.1 26.7 -0.95 24.0 0.7 22.0 2.85 21.55 1.15 0.55 -7.8 -21.6 -8.1 -21.25 -8.5 -20.95 -10.7 -19.05 -13.85 -19.05 -17.0 -19.05 -19.25 -20.95 -21.45 -22.8 -21.45 -25.45 -21.45 -28.1 -19.25 -30.0 -17.0 -31.85 -13.85 -31.85 L-11.25 -31.45 -11.5 -33.2 Q-11.5 -35.85 -9.3 -37.75 -7.05 -39.6 -3.9 -39.6 -0.75 -39.6 1.45 -37.75 3.7 -35.85 3.7 -33.2 3.7 -30.55 1.45 -28.7 Z" fill="none" stroke="#7c6350" stroke-linecap="round" stroke-linejoin="round" stroke-width="1.0"/>
  </g>
</svg>
