<?xml version="1.0" encoding="UTF-8" standalone="no"?>
<svg xmlns:xlink="http://www.w3.org/1999/xlink" height="32.5px" width="37.85px" xmlns="http://www.w3.org/2000/svg">
  <g transform="matrix(1.0, 0.0, 0.0, 1.0, 28.65, 38.4)">
    <path d="M8.7 -31.05 L3.7 -30.85 -0.25 -30.8 -16.05 -31.85 -16.45 -31.9 Q-22.6 -32.95 -22.6 -34.35 -22.6 -35.8 -16.05 -36.85 L-0.25 -37.9 3.7 -37.85 8.55 -37.6 Q8.6 -36.35 1.55 -35.3 8.7 -33.1 8.7 -31.05" fill="#daa06d" fill-rule="evenodd" stroke="none"/>
    <path d="M8.7 -31.05 L8.7 -28.65 1.8 -28.4 Q3.3 -26.2 2.35 -25.9 L-0.8 -25.85 Q-3.85 -25.85 -8.2 -28.4 -7.95 -26.0 -9.25 -26.1 L-12.8 -26.4 -16.6 -26.9 -20.3 -27.6 -21.75 -28.05 -21.95 -28.1 Q-22.9 -28.6 -23.55 -30.25 -24.35 -32.1 -22.6 -34.35 -22.6 -32.95 -16.45 -31.9 L-16.05 -31.85 -0.25 -30.8 3.7 -30.85 8.7 -31.05" fill="#d28e51" fill-rule="evenodd" stroke="none"/>
    <path d="M-21.95 -28.1 L-21.75 -28.05 -20.3 -27.6 -16.6 -26.9 -12.8 -26.4 -13.55 -24.15 -16.75 -23.05 Q-18.35 -22.3 -18.8 -20.65 -19.45 -18.25 -20.85 -16.2 -21.65 -15.1 -21.95 -20.35 -22.85 -10.85 -24.15 -6.4 L-25.15 -18.45 Q-28.65 -11.6 -28.15 -14.35 -26.75 -22.0 -21.95 -28.1" fill="#deb776" fill-rule="evenodd" stroke="none"/>
    <path d="M-12.8 -26.4 L-9.25 -26.1 Q-7.95 -26.0 -8.2 -28.4 -3.85 -25.85 -0.8 -25.85 L2.35 -25.9 Q3.3 -26.2 1.8 -28.4 L8.7 -28.65 8.7 -31.05 3.7 -30.85 -0.25 -30.8 -16.05 -31.85 -16.45 -31.9 Q-22.6 -32.95 -22.6 -34.35 -24.35 -32.1 -23.55 -30.25 -22.9 -28.6 -21.95 -28.1 L-21.75 -28.05 -20.3 -27.6 -16.6 -26.9 -12.8 -26.4 -13.55 -24.15 -16.75 -23.05 Q-18.35 -22.3 -18.8 -20.65 -19.45 -18.25 -20.85 -16.2 -21.65 -15.1 -21.95 -20.35 -22.85 -10.85 -24.15 -6.4 L-25.15 -18.45 Q-28.65 -11.6 -28.15 -14.35 -26.75 -22.0 -21.95 -28.1 M8.7 -31.05 Q8.7 -33.1 1.55 -35.3 8.6 -36.35 8.55 -37.6 L3.7 -37.85 -0.25 -37.9 -16.05 -36.85 Q-22.6 -35.8 -22.6 -34.35" fill="none" stroke="#9e6036" stroke-linecap="round" stroke-linejoin="round" stroke-width="1.0"/>
  </g>
</svg>
