<?xml version="1.0" encoding="UTF-8" standalone="no"?>
<svg xmlns:xlink="http://www.w3.org/1999/xlink" height="34.75px" width="42.3px" xmlns="http://www.w3.org/2000/svg">
  <g transform="matrix(1.0, 0.0, 0.0, 1.0, 21.15, 17.35)">
    <path d="M12.9 -16.85 L20.65 -6.8 7.4 -6.8 12.9 -16.85" fill="url(#gradient0)" fill-rule="evenodd" stroke="none"/>
    <path d="M12.9 -16.85 L7.4 -6.8 0.05 -16.85 12.9 -16.85" fill="url(#gradient1)" fill-rule="evenodd" stroke="none"/>
    <path d="M7.4 -6.8 L20.65 -6.8 13.25 2.15 -12.4 2.2 -20.65 -6.8 -5.8 -6.8 7.4 -6.8" fill="url(#gradient2)" fill-rule="evenodd" stroke="none"/>
    <path d="M0.05 -16.85 L7.4 -6.8 -5.8 -6.8 0.05 -16.85" fill="url(#gradient3)" fill-rule="evenodd" stroke="none"/>
    <path d="M-12.75 -16.85 L0.05 -16.85 -5.8 -6.8 -12.75 -16.85" fill="url(#gradient4)" fill-rule="evenodd" stroke="none"/>
    <path d="M-20.65 -6.8 L-12.75 -16.85 -5.8 -6.8 -20.65 -6.8" fill="url(#gradient5)" fill-rule="evenodd" stroke="none"/>
    <path d="M13.25 2.15 L1.0 16.9 -12.4 2.2 13.25 2.15" fill="url(#gradient6)" fill-rule="evenodd" stroke="none"/>
    <path d="M20.65 -6.8 L12.9 -16.85 7.4 -6.8 20.65 -6.8 13.25 2.15 1.0 16.9 -12.4 2.2 -20.65 -6.8 -12.75 -16.85 0.05 -16.85 12.9 -16.85 M7.4 -6.8 L0.05 -16.85 -5.8 -6.8 7.4 -6.8 M-12.75 -16.85 L-5.8 -6.8 -20.65 -6.8 M-12.4 2.2 L13.25 2.15" fill="none" stroke="#b8cde7" stroke-linecap="round" stroke-linejoin="round" stroke-width="1.0"/>
  </g>
  <defs>
    <radialGradient cx="0" cy="0" gradientTransform="matrix(0.0134, 0.0, 0.0, 0.0134, 12.4, -14.1)" gradientUnits="userSpaceOnUse" id="gradient0" r="819.2" spreadMethod="pad">
      <stop offset="0.0" stop-color="#c8fbf4"/>
      <stop offset="1.0" stop-color="#01c2c2"/>
    </radialGradient>
    <radialGradient cx="0" cy="0" gradientTransform="matrix(0.0123, 0.0, 0.0, 0.0123, 2.9, -15.35)" gradientUnits="userSpaceOnUse" id="gradient1" r="819.2" spreadMethod="pad">
      <stop offset="0.0" stop-color="#c8fbf4"/>
      <stop offset="1.0" stop-color="#01c2c2"/>
    </radialGradient>
    <radialGradient cx="0" cy="0" gradientTransform="matrix(0.043, 0.0, 0.0, 0.043, -14.5, -4.4)" gradientUnits="userSpaceOnUse" id="gradient2" r="819.2" spreadMethod="pad">
      <stop offset="0.0" stop-color="#c8fbf4"/>
      <stop offset="1.0" stop-color="#01c2c2"/>
    </radialGradient>
    <radialGradient cx="0" cy="0" gradientTransform="matrix(0.0128, 0.0, 0.0, 0.0128, -0.35, -13.9)" gradientUnits="userSpaceOnUse" id="gradient3" r="819.2" spreadMethod="pad">
      <stop offset="0.0" stop-color="#c8fbf4"/>
      <stop offset="1.0" stop-color="#01c2c2"/>
    </radialGradient>
    <radialGradient cx="0" cy="0" gradientTransform="matrix(0.0111, 0.0, 0.0, 0.0111, -3.85, -14.9)" gradientUnits="userSpaceOnUse" id="gradient4" r="819.2" spreadMethod="pad">
      <stop offset="0.0" stop-color="#c8fbf4"/>
      <stop offset="1.0" stop-color="#01c2c2"/>
    </radialGradient>
    <radialGradient cx="0" cy="0" gradientTransform="matrix(0.0138, 0.0, 0.0, 0.0138, -12.6, -14.75)" gradientUnits="userSpaceOnUse" id="gradient5" r="819.2" spreadMethod="pad">
      <stop offset="0.0" stop-color="#c8fbf4"/>
      <stop offset="1.0" stop-color="#01c2c2"/>
    </radialGradient>
    <radialGradient cx="0" cy="0" gradientTransform="matrix(0.0264, 0.0, 0.0, 0.0264, -8.25, 4.8)" gradientUnits="userSpaceOnUse" id="gradient6" r="819.2" spreadMethod="pad">
      <stop offset="0.0" stop-color="#c8fbf4"/>
      <stop offset="1.0" stop-color="#01c2c2"/>
    </radialGradient>
  </defs>
</svg>
