<?xml version="1.0" encoding="UTF-8" standalone="no"?>
<svg xmlns:xlink="http://www.w3.org/1999/xlink" height="114.75px" width="116.2px" xmlns="http://www.w3.org/2000/svg">
  <g transform="matrix(1.0, 0.0, 0.0, 1.0, 58.05, 57.4)">
    <path d="M27.75 46.45 Q29.5 48.4 28.25 49.9 26.6 51.0 26.15 54.8 24.5 58.25 9.5 56.15 L-11.55 53.45 Q-20.8 52.1 -24.2 50.25 L-40.85 35.85 Q-50.95 28.05 -47.7 17.4 L-45.4 8.5 Q-62.0 4.8 -56.05 -16.65 -51.5 -29.3 -43.45 -42.45 -28.2 -53.9 -6.95 -56.85 L-6.65 -56.9 Q16.15 -53.75 38.0 -45.95 L57.65 -12.45 Q58.4 15.3 45.45 29.35 L38.15 32.15 34.25 39.75 32.15 39.5 25.5 38.65 17.55 37.45 10.7 36.25 2.45 34.55 -4.8 32.85 -8.6 31.85 -9.5 31.6 Q-5.65 19.55 -14.85 18.4 L-35.7 12.8 Q-36.1 17.2 -35.4 22.35 -34.2 27.25 -17.6 35.7 -14.6 37.3 -12.5 37.35 -10.2 38.9 -6.65 38.65 -3.6 41.15 0.6 41.25 4.75 43.4 9.75 42.45 L9.3 45.15 Q12.75 46.55 16.7 46.25 L16.7 44.1 Q20.75 46.4 25.2 46.45 L27.75 46.45 M-45.4 8.5 L-39.85 -13.25 -37.15 -10.15 Q-40.6 6.25 -33.45 -2.45 L-31.1 -0.1 Q-35.05 5.25 -35.7 12.8 -35.05 5.25 -31.1 -0.1 L-33.45 -2.45 Q-40.6 6.25 -37.15 -10.15 L-39.85 -13.25 -45.4 8.5 M29.5 15.6 Q28.15 11.3 24.2 13.1 L18.0 27.1 29.5 30.2 29.5 15.6 M53.6 -1.75 Q50.2 -8.35 40.15 -5.4 34.6 1.3 34.25 6.9 32.7 22.55 41.8 20.95 55.45 10.55 53.6 -1.75 M13.2 -14.4 Q-4.05 -26.5 -9.8 -14.4 -15.7 0.1 -8.65 7.2 -2.05 14.15 4.5 7.2 17.55 -9.15 13.2 -14.4 M-38.9 12.05 L-38.75 11.4 Q-38.35 9.85 -38.45 8.6 -38.6 7.05 -39.4 6.85 -40.25 6.6 -41.2 7.8 -41.85 8.55 -42.3 9.7 L-42.7 10.9 Q-43.3 12.8 -43.15 14.3 -43.05 15.85 -42.2 16.1 -41.4 16.3 -40.45 15.15 -39.5 13.95 -38.9 12.05" fill="#ffffff" fill-rule="evenodd" stroke="none"/>
    <path d="M-38.9 12.05 Q-39.5 13.95 -40.45 15.15 -41.4 16.3 -42.2 16.1 -43.05 15.85 -43.15 14.3 -43.3 12.8 -42.7 10.9 L-42.3 9.7 Q-41.85 8.55 -41.2 7.8 -40.25 6.6 -39.4 6.85 -38.6 7.05 -38.45 8.6 -38.35 9.85 -38.75 11.4 L-38.9 12.05" fill="#666666" fill-rule="evenodd" stroke="none"/>
    <path d="M-12.5 37.35 Q-14.6 37.3 -17.6 35.7 -34.2 27.25 -35.4 22.35 -36.1 17.2 -35.7 12.8 L-14.85 18.4 Q-5.65 19.55 -9.5 31.6 L-8.6 31.85 -12.5 37.35 M53.6 -1.75 Q55.45 10.55 41.8 20.95 32.7 22.55 34.25 6.9 34.6 1.3 40.15 -5.4 50.2 -8.35 53.6 -1.75 M29.5 15.6 L29.5 30.2 18.0 27.1 24.2 13.1 Q28.15 11.3 29.5 15.6 M13.2 -14.4 Q17.55 -9.15 4.5 7.2 -2.05 14.15 -8.65 7.2 -15.7 0.1 -9.8 -14.4 -4.05 -26.5 13.2 -14.4" fill="#333333" fill-rule="evenodd" stroke="none"/>
    <path d="M32.15 39.5 L30.3 46.45 27.75 46.45 25.2 46.45 Q20.75 46.4 16.7 44.1 L16.7 46.25 Q12.75 46.55 9.3 45.15 L9.75 42.45 Q4.75 43.4 0.6 41.25 -3.6 41.15 -6.65 38.65 -10.2 38.9 -12.5 37.35 L-8.6 31.85 -4.8 32.85 -6.65 38.65 -4.8 32.85 2.45 34.55 10.7 36.25 17.55 37.45 16.7 44.1 17.55 37.45 25.5 38.65 32.15 39.5 M9.75 42.45 L10.7 36.25 9.75 42.45 M0.6 41.25 L2.45 34.55 0.6 41.25 M25.2 46.45 L25.5 38.65 25.2 46.45" fill="#fdf3d0" fill-rule="evenodd" stroke="none"/>
    <path d="M27.75 46.45 Q29.5 48.4 28.25 49.9 26.6 51.0 26.15 54.8 24.5 58.25 9.5 56.15 L-11.55 53.45 Q-20.8 52.1 -24.2 50.25 L-40.85 35.85 Q-50.95 28.05 -47.7 17.4 L-45.4 8.5 Q-62.0 4.8 -56.05 -16.65 -51.5 -29.3 -43.45 -42.45 -28.2 -53.9 -6.95 -56.85 L-6.65 -56.9 Q16.15 -53.75 38.0 -45.95 L57.65 -12.45 Q58.4 15.3 45.45 29.35 L38.15 32.15 34.25 39.75 32.15 39.5 30.3 46.45 27.75 46.45 25.2 46.45 Q20.75 46.4 16.7 44.1 L16.7 46.25 Q12.75 46.55 9.3 45.15 L9.75 42.45 Q4.75 43.4 0.6 41.25 -3.6 41.15 -6.65 38.65 -10.2 38.9 -12.5 37.35 -14.6 37.3 -17.6 35.7 -34.2 27.25 -35.4 22.35 -36.1 17.2 -35.7 12.8 -35.05 5.25 -31.1 -0.1 L-33.45 -2.45 Q-40.6 6.25 -37.15 -10.15 L-39.85 -13.25 -45.4 8.5 M53.6 -1.75 Q55.45 10.55 41.8 20.95 32.7 22.55 34.25 6.9 34.6 1.3 40.15 -5.4 50.2 -8.35 53.6 -1.75 M29.5 15.6 L29.5 30.2 18.0 27.1 24.2 13.1 Q28.15 11.3 29.5 15.6 M16.7 44.1 L17.55 37.45 10.7 36.25 9.75 42.45 M10.7 36.25 L2.45 34.55 0.6 41.25 M32.15 39.5 L25.5 38.65 25.2 46.45 M25.5 38.65 L17.55 37.45 M13.2 -14.4 Q-4.05 -26.5 -9.8 -14.4 -15.7 0.1 -8.65 7.2 -2.05 14.15 4.5 7.2 17.55 -9.15 13.2 -14.4 M-38.9 12.05 Q-39.5 13.95 -40.45 15.15 -41.4 16.3 -42.2 16.1 -43.05 15.85 -43.15 14.3 -43.3 12.8 -42.7 10.9 L-42.3 9.7 Q-41.85 8.55 -41.2 7.8 -40.25 6.6 -39.4 6.85 -38.6 7.05 -38.45 8.6 -38.35 9.85 -38.75 11.4 L-38.9 12.05 M-8.6 31.85 L-12.5 37.35 M-8.6 31.85 L-9.5 31.6 Q-5.65 19.55 -14.85 18.4 L-35.7 12.8 M-4.8 32.85 L-8.6 31.85 M-6.65 38.65 L-4.8 32.85 2.45 34.55" fill="none" stroke="#000000" stroke-linecap="round" stroke-linejoin="round" stroke-width="1.0"/>
  </g>
</svg>
