<?xml version="1.0" encoding="UTF-8" standalone="no"?>
<svg xmlns:xlink="http://www.w3.org/1999/xlink" height="38.35px" width="78.6px" xmlns="http://www.w3.org/2000/svg">
  <g transform="matrix(1.0, 0.0, 0.0, 1.0, 39.15, 21.85)">
    <path d="M11.45 -16.35 L10.2 -11.2 13.3 -11.5 Q18.0 -11.5 16.45 -7.15 15.2 -2.15 11.9 4.75 L13.8 6.3 18.0 10.05 17.5 2.1 Q17.35 -0.55 20.05 -0.55 21.45 -0.4 21.9 0.35 25.0 -0.9 29.25 -0.7 34.55 -0.4 34.85 4.3 34.85 7.4 33.95 11.15 L35.95 11.15 37.05 12.55 Q24.7 13.5 18.45 15.35 L18.15 11.3 18.0 10.05 Q16.3 10.2 15.05 10.7 L13.75 11.15 Q11.55 9.75 10.2 8.35 L9.1 10.55 7.85 12.55 2.8 13.05 3.6 11.6 7.05 5.35 5.65 3.65 Q3.6 1.15 4.25 -3.2 4.25 -4.0 4.55 -5.25 L4.4 -5.1 Q2.2 -3.85 1.4 -5.55 0.8 -7.45 3.15 -8.7 L5.5 -9.8 6.4 -13.55 7.35 -17.75 Q8.0 -20.7 10.35 -20.1 12.35 -19.8 11.45 -16.35 M8.45 -3.55 Q8.0 -0.7 9.05 1.15 L9.4 0.2 Q11.4 -4.45 11.9 -6.95 12.5 -9.0 10.8 -8.85 L9.4 -8.4 8.95 -6.2 8.45 -3.55 M16.9 -6.65 Q18.75 -11.95 23.0 -19.3 24.25 -21.5 26.1 -20.7 28.6 -19.8 27.55 -17.9 25.8 -15.4 22.55 -8.55 22.05 -7.3 22.35 -6.95 22.7 -6.5 24.1 -6.5 27.05 -6.35 30.95 -7.6 L29.55 -9.95 29.05 -10.7 Q28.0 -12.45 29.7 -13.4 31.75 -14.3 33.15 -12.75 34.25 -11.2 38.3 -2.3 L33.6 -1.8 31.9 -5.7 Q25.95 -3.55 19.55 -3.2 16.4 -3.4 16.9 -6.65 M28.0 1.8 Q25.5 1.8 22.35 3.8 L22.7 11.45 27.35 11.15 29.05 11.15 Q30.3 8.2 30.3 4.3 30.15 1.95 28.0 1.8 M-26.6 -14.45 Q-28.3 -13.85 -29.7 -13.05 -34.25 -11.05 -34.4 -13.7 -34.55 -16.05 -31.45 -16.8 -21.3 -19.65 -5.95 -18.4 L-5.0 -16.65 -10.0 -16.8 Q-9.55 -16.05 -9.55 -14.15 -9.25 -11.35 -9.25 -8.4 L-2.35 -8.4 -1.6 -6.5 -9.1 -6.2 -8.75 -2.75 -7.7 13.35 Q-10.35 13.35 -12.7 14.1 L-13.8 -5.7 Q-18.75 -5.1 -23.3 -3.85 -24.7 8.8 -26.25 13.35 L-31.3 13.95 Q-29.55 6.95 -28.15 -2.6 -31.6 -1.5 -34.25 -0.1 -37.4 1.15 -38.0 -1.35 -38.5 -3.55 -35.5 -4.45 L-27.55 -6.5 -27.4 -8.4 -26.75 -13.55 -26.6 -14.0 -26.6 -14.45 M-22.35 -14.3 Q-22.35 -13.2 -22.7 -10.9 L-23.0 -7.3 -18.5 -7.75 -13.95 -8.2 -13.95 -11.35 -14.1 -14.65 -13.8 -16.8 Q-19.7 -16.35 -22.7 -15.4 -22.35 -15.1 -22.35 -14.3" fill="#3e3000" fill-rule="evenodd" stroke="none"/>
    <path d="M11.45 -16.35 L10.2 -11.2 13.3 -11.5 Q18.0 -11.5 16.45 -7.15 15.2 -2.15 11.9 4.75 L13.8 6.3 18.0 10.05 17.5 2.1 Q17.35 -0.55 20.05 -0.55 21.45 -0.4 21.9 0.35 25.0 -0.9 29.25 -0.7 34.55 -0.4 34.85 4.3 34.85 7.4 33.95 11.15 L35.95 11.15 37.05 12.55 Q24.7 13.5 18.45 15.35 L18.15 11.3 18.0 10.05 Q16.3 10.2 15.05 10.7 L13.75 11.15 Q11.55 9.75 10.2 8.35 L9.1 10.55 7.85 12.55 2.8 13.05 3.6 11.6 7.05 5.35 5.65 3.65 Q3.6 1.15 4.25 -3.2 4.25 -4.0 4.55 -5.25 L4.4 -5.1 Q2.2 -3.85 1.4 -5.55 0.8 -7.45 3.15 -8.7 L5.5 -9.8 6.4 -13.55 7.35 -17.75 Q8.0 -20.7 10.35 -20.1 12.35 -19.8 11.45 -16.35 M8.45 -3.55 Q8.0 -0.7 9.05 1.15 L9.4 0.2 Q11.4 -4.45 11.9 -6.95 12.5 -9.0 10.8 -8.85 L9.4 -8.4 8.95 -6.2 8.45 -3.55 M16.9 -6.65 Q18.75 -11.95 23.0 -19.3 24.25 -21.5 26.1 -20.7 28.6 -19.8 27.55 -17.9 25.8 -15.4 22.55 -8.55 22.05 -7.3 22.35 -6.95 22.7 -6.5 24.1 -6.5 27.05 -6.35 30.95 -7.6 L29.55 -9.95 29.05 -10.7 Q28.0 -12.45 29.7 -13.4 31.75 -14.3 33.15 -12.75 34.25 -11.2 38.3 -2.3 L33.6 -1.8 31.9 -5.7 Q25.95 -3.55 19.55 -3.2 16.4 -3.4 16.9 -6.65 M28.0 1.8 Q25.5 1.8 22.35 3.8 L22.7 11.45 27.35 11.15 29.05 11.15 Q30.3 8.2 30.3 4.3 30.15 1.95 28.0 1.8 M-26.6 -14.45 Q-28.3 -13.85 -29.7 -13.05 -34.25 -11.05 -34.4 -13.7 -34.55 -16.05 -31.45 -16.8 -21.3 -19.65 -5.95 -18.4 L-5.0 -16.65 -10.0 -16.8 Q-9.55 -16.05 -9.55 -14.15 -9.25 -11.35 -9.25 -8.4 L-2.35 -8.4 -1.6 -6.5 -9.1 -6.2 -8.75 -2.75 -7.7 13.35 Q-10.35 13.35 -12.7 14.1 L-13.8 -5.7 Q-18.75 -5.1 -23.3 -3.85 -24.7 8.8 -26.25 13.35 L-31.3 13.95 Q-29.55 6.95 -28.15 -2.6 -31.6 -1.5 -34.25 -0.1 -37.4 1.15 -38.0 -1.35 -38.5 -3.55 -35.5 -4.45 L-27.55 -6.5 -27.4 -8.4 -26.75 -13.55 -26.6 -14.0 -26.6 -14.45 M-22.35 -14.3 Q-22.35 -13.2 -22.7 -10.9 L-23.0 -7.3 -18.5 -7.75 -13.95 -8.2 -13.95 -11.35 -14.1 -14.65 -13.8 -16.8 Q-19.7 -16.35 -22.7 -15.4 -22.35 -15.1 -22.35 -14.3" fill="none" stroke="#3e3000" stroke-linecap="round" stroke-linejoin="round" stroke-width="2.25"/>
    <path d="M11.45 -16.35 L10.2 -11.2 13.3 -11.5 Q18.0 -11.5 16.45 -7.15 15.2 -2.15 11.9 4.75 L13.8 6.3 18.0 10.05 17.5 2.1 Q17.35 -0.55 20.05 -0.55 21.45 -0.4 21.9 0.35 25.0 -0.9 29.25 -0.7 34.55 -0.4 34.85 4.3 34.85 7.4 33.95 11.15 L35.95 11.15 37.05 12.55 Q24.7 13.5 18.45 15.35 L18.15 11.3 18.0 10.05 Q16.3 10.2 15.05 10.7 L13.75 11.15 Q11.55 9.75 10.2 8.35 L9.1 10.55 7.85 12.55 2.8 13.05 3.6 11.6 7.05 5.35 5.65 3.65 Q3.6 1.15 4.25 -3.2 4.25 -4.0 4.55 -5.25 L4.4 -5.1 Q2.2 -3.85 1.4 -5.55 0.8 -7.45 3.15 -8.7 L5.5 -9.8 6.4 -13.55 7.35 -17.75 Q8.0 -20.7 10.35 -20.1 12.35 -19.8 11.45 -16.35 M8.45 -3.55 Q8.0 -0.7 9.05 1.15 L9.4 0.2 Q11.4 -4.45 11.9 -6.95 12.5 -9.0 10.8 -8.85 L9.4 -8.4 8.95 -6.2 8.45 -3.55 M16.9 -6.65 Q18.75 -11.95 23.0 -19.3 24.25 -21.5 26.1 -20.7 28.6 -19.8 27.55 -17.9 25.8 -15.4 22.55 -8.55 22.05 -7.3 22.35 -6.95 22.7 -6.5 24.1 -6.5 27.05 -6.35 30.95 -7.6 L29.55 -9.95 29.05 -10.7 Q28.0 -12.45 29.7 -13.4 31.75 -14.3 33.15 -12.75 34.25 -11.2 38.3 -2.3 L33.6 -1.8 31.9 -5.7 Q25.95 -3.55 19.55 -3.2 16.4 -3.4 16.9 -6.65 M28.0 1.8 Q25.5 1.8 22.35 3.8 L22.7 11.45 27.35 11.15 29.05 11.15 Q30.3 8.2 30.3 4.3 30.15 1.95 28.0 1.8 M-22.35 -14.3 Q-22.35 -13.2 -22.7 -10.9 L-23.0 -7.3 -18.5 -7.75 -13.95 -8.2 -13.95 -11.35 -14.1 -14.65 -13.8 -16.8 Q-19.7 -16.35 -22.7 -15.4 -22.35 -15.1 -22.35 -14.3 M-26.6 -14.0 L-26.6 -14.45 Q-28.3 -13.85 -29.7 -13.05 -34.25 -11.05 -34.4 -13.7 -34.55 -16.05 -31.45 -16.8 -21.3 -19.65 -5.95 -18.4 L-5.0 -16.65 -10.0 -16.8 Q-9.55 -16.05 -9.55 -14.15 -9.25 -11.35 -9.25 -8.4 L-2.35 -8.4 -1.6 -6.5 -9.1 -6.2 -8.75 -2.75 -7.7 13.35 Q-10.35 13.35 -12.7 14.1 L-13.8 -5.7 Q-18.75 -5.1 -23.3 -3.85 -24.7 8.8 -26.25 13.35 L-31.3 13.95 Q-29.55 6.95 -28.15 -2.6 -31.6 -1.5 -34.25 -0.1 -37.4 1.15 -38.0 -1.35 -38.5 -3.55 -35.5 -4.45 L-27.55 -6.5 -27.4 -8.4 -26.75 -13.55 -26.6 -14.0" fill="url(#gradient0)" fill-rule="evenodd" stroke="none"/>
  </g>
  <defs>
    <linearGradient gradientTransform="matrix(0.0031, 0.0269, -0.0462, 0.0054, 33.15, -2.95)" gradientUnits="userSpaceOnUse" id="gradient0" spreadMethod="pad" x1="-819.2" x2="819.2">
      <stop offset="0.0" stop-color="#ffff6b"/>
      <stop offset="0.34901960784313724" stop-color="#eab001"/>
      <stop offset="0.5098039215686274" stop-color="#ac8701"/>
      <stop offset="1.0" stop-color="#dba601"/>
    </linearGradient>
  </defs>
</svg>
