<?xml version="1.0" encoding="UTF-8" standalone="no"?>
<svg xmlns:xlink="http://www.w3.org/1999/xlink" height="40.5px" width="45.05px" xmlns="http://www.w3.org/2000/svg">
  <g transform="matrix(1.0, 0.0, 0.0, 1.0, 22.5, 19.95)">
    <path d="M-1.75 -18.9 Q1.05 -21.1 4.1 -19.45 7.95 -17.35 11.75 -18.0 14.35 -18.45 16.5 -17.45 20.3 -15.7 20.6 -11.65 21.1 -3.45 22.05 3.15 22.85 8.5 18.45 14.35 16.45 17.0 13.75 15.8 8.6 13.55 5.9 16.8 1.3 22.4 -8.05 18.7 -10.8 14.3 -14.35 12.75 -17.6 11.4 -20.2 7.75 -25.0 1.2 -17.85 -4.35 -20.7 -10.65 -16.65 -13.7 L-12.9 -16.6 Q-7.2 -21.15 -2.15 -18.3 L-1.75 -18.9 M0.65 -16.1 Q-0.7 -17.5 -2.15 -18.3 -0.7 -17.5 0.65 -16.1" fill="url(#gradient0)" fill-rule="evenodd" stroke="none"/>
    <path d="M-2.15 -18.3 Q-7.2 -21.15 -12.9 -16.6 L-16.65 -13.7 Q-20.7 -10.65 -17.85 -4.35 -25.0 1.2 -20.2 7.75 -17.6 11.4 -14.35 12.75 -10.8 14.3 -8.05 18.7 1.3 22.4 5.9 16.8 8.6 13.55 13.75 15.8 16.45 17.0 18.45 14.35 22.85 8.5 22.05 3.15 21.1 -3.45 20.6 -11.65 20.3 -15.7 16.5 -17.45 14.35 -18.45 11.75 -18.0 7.95 -17.35 4.1 -19.45 1.05 -21.1 -1.75 -18.9 M-2.15 -18.3 Q-0.7 -17.5 0.65 -16.1" fill="none" stroke="#6d5501" stroke-linecap="round" stroke-linejoin="round" stroke-width="1.0"/>
  </g>
  <defs>
    <radialGradient cx="0" cy="0" gradientTransform="matrix(0.0485, 0.0, 0.0, 0.0485, -8.15, -13.75)" gradientUnits="userSpaceOnUse" id="gradient0" r="819.2" spreadMethod="pad">
      <stop offset="0.0" stop-color="#ffffcc"/>
      <stop offset="0.14901960784313725" stop-color="#ffff00"/>
      <stop offset="0.40784313725490196" stop-color="#febe01"/>
      <stop offset="0.6549019607843137" stop-color="#ab8601"/>
      <stop offset="0.9921568627450981" stop-color="#eeb301"/>
    </radialGradient>
  </defs>
</svg>
