<?xml version="1.0" encoding="UTF-8" standalone="no"?>
<svg xmlns:xlink="http://www.w3.org/1999/xlink" height="117.9px" width="79.7px" xmlns="http://www.w3.org/2000/svg">
  <g transform="matrix(1.0, 0.0, 0.0, 1.0, -134.25, 2.9)">
    <path d="M209.3 -2.55 Q214.45 -1.75 213.95 3.45 209.0 7.8 201.9 7.65 L197.25 7.9 Q193.6 12.9 189.4 9.35 187.25 7.6 187.95 5.05 194.6 -3.15 205.6 -2.9 L209.3 -2.55 M180.2 22.2 L175.3 33.25 Q171.6 41.25 166.7 48.7 166.0 49.8 166.0 51.15 165.75 60.75 168.35 70.2 169.25 73.6 168.9 77.15 166.45 79.8 163.55 81.9 L161.15 81.85 Q159.1 80.2 158.1 77.95 L157.4 78.9 Q157.05 81.15 155.75 83.5 157.8 87.95 154.8 92.65 153.55 94.6 152.9 96.9 150.0 107.7 141.75 114.85 141.0 115.5 140.15 115.0 131.4 109.9 134.25 99.1 L136.1 91.0 Q137.2 85.1 141.1 80.8 142.6 77.25 145.1 75.75 149.25 68.85 155.55 67.25 L151.9 56.45 Q147.85 43.9 152.7 32.25 162.55 19.05 176.95 12.45 177.85 12.05 178.6 12.8 182.55 16.5 180.2 22.2" fill="#fefd7f" fill-opacity="0.13333334" fill-rule="evenodd" stroke="none"/>
  </g>
</svg>
