<?xml version="1.0" encoding="UTF-8" standalone="no"?>
<svg xmlns:xlink="http://www.w3.org/1999/xlink" height="126.1px" width="91.35px" xmlns="http://www.w3.org/2000/svg">
  <g transform="matrix(1.0, 0.0, 0.0, 1.0, -138.8, 1.4)">
    <path d="M199.1 -0.65 Q212.15 -3.25 224.35 1.5 231.45 4.2 230.15 10.35 229.15 14.95 225.55 18.7 218.75 25.8 208.6 24.5 L201.15 23.7 188.95 23.3 181.75 35.15 Q175.05 45.6 175.05 58.35 L174.95 70.3 Q174.85 76.3 172.2 81.55 171.45 83.05 171.8 84.75 174.15 96.65 184.95 102.3 186.2 102.95 186.3 104.45 L186.3 106.3 Q181.25 111.4 173.8 112.75 170.3 113.4 167.1 114.95 158.5 119.05 151.45 124.7 L149.65 124.65 Q144.5 121.2 141.7 115.8 137.0 106.7 139.55 97.0 137.8 94.2 138.95 90.05 139.65 87.4 139.8 85.0 145.35 74.85 155.1 71.15 L155.35 71.1 Q153.95 58.9 152.85 46.65 L152.2 38.75 Q151.85 33.6 155.25 30.05 166.45 17.0 182.2 10.75 184.75 9.75 187.1 10.4 187.35 8.2 188.6 6.4 191.8 -0.8 198.5 -0.7 L199.1 -0.65" fill="#fefd7f" fill-opacity="0.13333334" fill-rule="evenodd" stroke="none"/>
  </g>
</svg>
