<?xml version="1.0" encoding="UTF-8" standalone="no"?>
<svg xmlns:xlink="http://www.w3.org/1999/xlink" height="41.25px" width="80.55px" xmlns="http://www.w3.org/2000/svg">
  <g transform="matrix(1.0, 0.0, 0.0, 1.0, 40.3, 20.6)">
    <path d="M20.6 -4.55 L40.25 -19.75 31.7 0.55 39.1 0.65 31.2 6.35 37.25 15.6 25.9 9.65 25.05 16.7 21.45 9.4 19.1 20.65 15.4 8.9 10.7 17.55 7.9 9.15 -0.75 18.05 -8.15 9.05 -11.5 12.25 -12.6 9.15 -17.2 17.95 -17.8 9.3 -26.35 18.2 -25.95 8.45 -40.3 6.45 -28.2 -0.7 -38.55 -10.45 -24.7 -6.75 -21.0 -17.25 -18.3 -6.65 -11.05 -20.6 -6.05 -6.4 -2.35 -10.45 0.1 -6.15 7.65 -19.0 12.7 -4.9 19.0 -11.2 20.6 -4.55" fill="#66ff33" fill-rule="evenodd" stroke="none"/>
  </g>
</svg>
