<?xml version="1.0" encoding="UTF-8" standalone="no"?>
<svg xmlns:xlink="http://www.w3.org/1999/xlink" height="159.75px" width="119.5px" xmlns="http://www.w3.org/2000/svg">
  <g transform="matrix(1.0, 0.0, 0.0, 1.0, -138.3, 4.5)">
    <path d="M255.9 -0.55 Q257.3 0.75 257.8 2.65 260.7 13.4 251.65 21.5 249.05 23.85 246.0 25.25 243.75 26.3 242.05 24.45 238.9 21.0 242.45 17.15 242.55 11.95 244.7 6.95 L239.45 2.8 Q237.45 1.2 238.05 -1.3 242.75 -6.4 249.95 -4.05 253.35 -2.95 255.9 -0.55 M232.3 28.75 Q230.65 33.8 229.45 39.0 L228.05 45.5 Q222.6 52.75 213.25 54.15 211.65 54.4 210.25 55.3 205.95 58.0 201.25 59.0 201.25 61.05 200.45 63.45 198.1 70.3 203.0 76.0 206.4 79.95 204.15 84.3 199.2 93.7 189.75 96.85 188.0 97.45 186.2 98.35 178.25 102.3 171.75 108.15 164.0 115.1 155.75 110.75 147.8 106.5 148.8 97.2 L149.6 90.55 Q146.4 94.95 141.5 95.8 139.7 96.1 139.0 94.3 137.35 89.95 138.3 85.55 144.7 77.55 150.7 84.35 151.75 81.25 154.6 79.1 161.2 69.5 172.2 67.7 175.35 67.2 177.9 65.05 L188.15 56.75 Q181.2 53.2 174.05 51.25 173.4 51.1 172.8 51.6 164.7 58.1 159.95 49.6 159.3 48.4 159.05 47.0 158.0 41.25 159.3 36.25 158.6 36.25 158.0 35.75 153.2 31.75 158.45 26.45 L158.75 25.85 Q163.75 19.05 167.85 24.15 175.4 16.85 184.6 11.3 186.85 9.95 188.5 7.85 197.85 -4.15 212.2 -2.8 220.0 -2.05 225.85 3.55 237.05 14.3 232.3 28.75 M199.75 134.05 Q210.7 133.8 213.15 143.9 208.4 154.55 197.2 155.25 192.15 155.6 187.9 153.1 179.9 148.4 182.5 140.3 L182.45 139.55 182.5 138.95 182.65 138.3 182.6 138.2 Q185.2 132.5 190.5 131.75 192.6 131.5 194.45 132.65 196.75 134.15 199.75 134.05" fill="#fefd7f" fill-opacity="0.13333334" fill-rule="evenodd" stroke="none"/>
  </g>
</svg>
