<?xml version="1.0" encoding="UTF-8" standalone="no"?>
<svg xmlns:xlink="http://www.w3.org/1999/xlink" height="167.85px" width="132.35px" xmlns="http://www.w3.org/2000/svg">
  <g transform="matrix(1.0, 0.0, 0.0, 1.0, -141.5, 2.2)">
    <path d="M273.85 13.25 Q272.4 18.15 272.6 23.3 273.2 38.05 270.55 52.45 270.2 54.35 270.8 56.25 271.35 58.05 270.95 59.9 266.15 65.55 262.45 59.15 L261.15 56.25 Q257.45 45.7 254.7 34.75 254.3 33.25 253.4 32.0 251.85 29.85 249.35 29.0 246.5 31.4 244.0 31.5 245.15 35.65 244.05 40.55 240.2 57.7 224.05 61.55 216.25 68.3 214.45 78.2 213.95 81.15 212.05 83.75 202.55 96.8 186.85 101.25 179.95 103.2 173.05 104.25 171.25 104.5 169.7 103.3 L164.45 99.15 161.25 99.5 Q156.6 99.3 156.9 94.6 L156.95 93.95 Q161.5 86.0 169.45 84.05 L170.9 84.15 Q180.0 75.1 184.7 63.6 186.7 58.7 186.75 53.5 186.8 50.25 185.9 47.15 180.05 46.0 174.15 44.3 172.8 43.9 171.5 43.05 165.55 39.2 169.05 32.75 175.1 24.8 184.6 21.95 186.0 21.55 187.35 20.65 196.3 14.75 205.95 10.3 208.55 9.05 211.45 8.8 222.5 7.8 230.85 16.5 233.5 19.25 236.65 21.55 L239.4 23.9 Q241.4 21.7 244.25 20.7 247.85 11.5 240.5 4.1 238.9 2.5 239.35 0.4 244.25 -3.9 251.3 -1.5 259.85 1.4 268.75 3.25 276.4 4.85 273.85 13.25 M245.95 68.55 Q245.75 67.0 246.0 65.75 251.4 60.8 257.3 66.55 259.25 68.45 258.7 71.25 252.7 80.9 243.3 85.25 L241.45 85.1 Q238.15 83.1 238.9 79.35 242.35 74.55 246.05 69.9 L245.95 68.55 M228.9 49.1 L230.2 48.2 229.75 48.35 228.9 49.1 M164.9 34.0 L162.85 40.3 Q162.4 41.7 162.2 43.25 157.35 49.6 154.0 43.1 152.9 40.95 152.9 38.5 152.9 35.95 153.3 33.75 159.0 25.95 164.55 32.25 165.2 33.0 164.9 34.0 M216.7 94.65 Q217.95 97.9 218.75 101.3 219.85 105.8 218.8 110.25 L217.2 115.75 Q216.8 117.05 217.15 118.4 219.15 126.1 220.6 133.8 L217.05 138.4 Q218.45 142.1 215.85 146.5 210.0 156.5 202.3 165.2 201.55 166.05 200.45 165.65 194.75 163.75 192.95 157.4 192.15 154.6 190.9 151.9 185.25 148.95 184.45 140.65 184.3 139.35 184.85 138.1 190.1 126.6 199.35 118.6 207.45 107.45 207.9 93.55 213.7 86.75 216.7 94.65 M155.2 82.95 Q153.2 91.35 147.55 97.0 146.55 98.0 145.3 97.4 139.6 94.9 141.55 88.1 142.35 85.55 144.05 83.75 146.75 77.2 152.3 78.3 156.1 79.05 155.2 82.95" fill="#fefd7f" fill-opacity="0.13333334" fill-rule="evenodd" stroke="none"/>
  </g>
</svg>
