<?xml version="1.0" encoding="UTF-8" standalone="no"?>
<svg xmlns:xlink="http://www.w3.org/1999/xlink" height="163.65px" width="116.5px" xmlns="http://www.w3.org/2000/svg">
  <g transform="matrix(1.0, 0.0, 0.0, 1.0, -166.1, 4.5)">
    <path d="M251.05 -3.45 Q256.5 -0.85 256.55 4.6 253.7 9.1 249.7 6.4 L247.35 4.4 246.8 4.25 245.0 4.3 244.75 4.35 Q241.25 7.2 238.3 3.85 236.65 2.0 237.2 -0.2 243.1 -7.25 251.05 -3.45 M266.6 11.05 Q272.5 14.25 271.3 21.75 270.3 28.0 272.7 33.95 276.3 43.0 279.5 51.85 L280.4 53.75 Q284.95 61.45 280.25 68.9 275.25 76.9 269.65 84.55 266.45 85.9 264.45 83.1 263.05 81.15 262.45 78.7 261.15 73.6 257.35 70.2 249.5 67.5 244.0 73.75 L235.9 82.6 Q234.35 84.2 232.1 84.5 L227.35 84.7 Q225.85 88.9 223.05 92.85 L222.8 93.25 Q223.0 95.1 222.55 97.1 221.8 100.45 221.2 103.85 L219.95 106.25 217.55 114.25 216.85 115.9 Q217.85 123.3 217.2 130.8 L216.6 138.45 Q215.75 150.55 206.75 159.15 202.25 160.6 200.3 156.1 199.1 153.3 201.2 150.9 192.5 151.55 193.25 142.9 193.4 141.05 194.1 139.2 L197.6 128.95 Q204.65 120.55 207.65 110.7 208.4 108.65 209.55 107.55 210.8 100.95 211.1 94.4 L209.95 91.1 Q209.2 89.25 209.2 87.15 204.5 79.45 196.35 83.9 L193.45 84.15 Q186.05 81.65 191.35 74.6 193.35 72.0 193.55 68.8 194.35 55.85 194.05 42.85 194.0 41.45 194.3 40.05 195.65 33.5 198.0 27.6 202.8 18.9 210.75 14.85 L212.65 14.0 Q218.45 11.75 224.2 12.1 225.6 12.15 226.95 13.0 239.25 20.5 246.25 32.65 246.95 33.2 247.85 32.95 251.3 32.0 254.9 32.0 L257.8 32.1 258.2 31.75 259.9 29.6 261.25 27.6 Q256.95 18.75 263.65 11.5 264.95 10.15 266.6 11.05 M181.45 23.25 Q183.7 22.6 185.8 23.65 188.95 25.2 188.25 28.75 L181.6 37.05 Q174.6 40.4 168.65 36.05 165.35 33.6 166.1 29.8 171.8 22.55 180.9 23.1 L181.45 23.25 M179.45 85.95 Q184.85 87.5 184.6 92.8 179.5 102.55 170.8 97.5 165.85 94.6 166.8 89.45 172.0 83.75 179.45 85.95" fill="#fefd7f" fill-opacity="0.13333334" fill-rule="evenodd" stroke="none"/>
  </g>
</svg>
