<?xml version="1.0" encoding="UTF-8" standalone="no"?>
<svg xmlns:xlink="http://www.w3.org/1999/xlink" height="124.95px" width="108.3px" xmlns="http://www.w3.org/2000/svg">
  <g transform="matrix(1.0, 0.0, 0.0, 1.0, -205.45, -9.35)">
    <path d="M301.1 14.4 Q308.1 22.6 307.75 34.3 307.5 42.3 310.1 49.9 317.35 70.8 310.25 91.9 L306.55 96.65 Q295.5 98.5 289.75 88.25 285.7 81.0 277.5 83.65 271.75 93.05 264.1 102.15 L262.9 103.85 Q257.4 112.8 251.85 104.7 247.7 98.75 244.45 92.35 236.05 98.65 229.4 89.9 226.8 86.5 225.25 82.65 217.8 78.65 220.95 70.85 226.8 56.45 227.8 41.25 L227.75 41.15 228.65 40.3 Q228.85 35.8 232.5 32.2 L232.5 27.9 Q232.45 26.7 232.65 25.8 238.25 20.1 242.1 27.25 243.0 28.95 244.9 29.65 251.6 27.6 255.2 31.0 266.7 24.3 272.55 12.3 274.8 7.75 279.1 9.7 280.4 10.3 281.8 10.4 L297.25 12.2 Q299.5 12.55 301.1 14.4 M207.6 32.55 Q207.0 28.35 207.4 24.5 214.15 14.3 223.15 21.55 228.25 25.6 225.6 32.1 223.85 36.55 222.35 41.2 219.8 48.85 213.15 54.6 206.7 56.15 207.2 49.55 L207.55 46.35 Q208.6 39.55 207.6 32.55 M215.7 123.45 Q215.0 124.4 215.1 125.5 215.7 133.3 209.0 134.3 207.15 134.6 206.5 132.75 205.1 128.85 205.45 124.45 205.65 121.5 207.2 119.05 211.4 111.65 215.85 117.25 218.15 120.1 215.7 123.45" fill="#fefd7f" fill-opacity="0.13333334" fill-rule="evenodd" stroke="none"/>
  </g>
</svg>
