<?xml version="1.0" encoding="UTF-8" standalone="no"?>
<svg xmlns:xlink="http://www.w3.org/1999/xlink" height="76.85px" width="60.8px" xmlns="http://www.w3.org/2000/svg">
  <g transform="matrix(1.0, 0.0, 0.0, 1.0, 30.4, 38.4)">
    <path d="M-22.6 -34.35 Q-22.6 -35.8 -16.05 -36.85 L-0.25 -37.9 3.7 -37.85 15.55 -36.85 Q22.1 -35.8 22.1 -34.35 L22.1 -34.25 Q21.9 -32.85 15.55 -31.85 L15.45 -31.8 3.7 -30.85 -0.25 -30.8 -16.05 -31.85 -16.45 -31.9 Q-22.6 -32.95 -22.6 -34.35" fill="#daa06d" fill-rule="evenodd" stroke="none"/>
    <path d="M-22.6 -34.35 Q-22.6 -32.95 -16.45 -31.9 L-16.05 -31.85 -0.25 -30.8 3.7 -30.85 15.45 -31.8 15.55 -31.85 Q21.9 -32.85 22.1 -34.25 23.55 -31.85 21.75 -29.2 L21.4 -28.5 19.4 -27.75 15.0 -26.9 14.3 -26.8 3.7 -25.9 2.75 -25.9 -0.8 -25.85 -9.25 -26.1 -12.8 -26.4 -16.6 -26.9 -20.3 -27.6 -21.75 -28.05 -21.95 -28.1 Q-22.9 -28.6 -23.55 -30.25 -24.35 -32.1 -22.6 -34.35 M27.0 -4.9 L28.7 -5.45 Q31.1 -0.75 28.7 3.95 L21.9 6.0 Q13.05 8.35 4.5 9.0 L-14.85 8.2 -18.5 7.55 Q-23.75 6.45 -28.85 4.65 -31.1 0.75 -28.65 -4.7 -23.1 -2.85 -18.2 -2.0 L-18.15 -2.0 -14.65 -1.5 Q-4.85 -0.1 3.65 -0.6 11.85 -1.15 20.35 -3.15 L27.0 -4.9 M22.1 29.55 Q23.55 31.95 21.75 34.6 L21.4 35.3 19.4 36.05 15.0 36.9 -0.8 37.95 -16.6 36.9 -20.3 36.2 -21.75 35.75 Q-22.8 35.4 -23.55 33.55 -24.35 31.7 -22.6 29.45 -22.6 30.85 -16.45 31.9 L-16.05 31.95 -14.35 32.2 -14.1 32.25 -10.55 32.6 -0.25 33.0 4.7 32.95 15.45 32.0 15.55 31.95 16.8 31.75 Q21.9 30.8 22.1 29.55" fill="#d28e51" fill-rule="evenodd" stroke="none"/>
    <path d="M21.4 -28.5 Q27.3 -16.7 27.0 -4.9 L20.35 -3.15 Q19.95 -14.7 14.3 -26.8 L15.0 -26.9 19.4 -27.75 21.4 -28.5 M28.7 3.95 Q25.6 23.05 22.1 29.55 21.9 30.8 16.8 31.75 22.65 20.4 21.9 6.0 L28.7 3.95 M3.45 -5.95 L3.65 -0.6 Q-4.85 -0.1 -14.65 -1.5 L-18.15 -2.0 -18.2 -2.0 Q-17.9 -6.1 -17.1 -10.5 -15.95 -7.35 -15.65 -4.0 L-9.1 -4.65 -2.65 -5.3 3.45 -5.95 M2.75 -25.9 L3.0 -19.3 -1.9 -18.7 -9.5 -18.65 -15.2 -18.5 -12.8 -26.4 -9.25 -26.1 -0.8 -25.85 2.75 -25.9 M4.7 32.95 L-0.25 33.0 -10.55 32.6 -14.1 32.25 -14.35 32.2 Q-20.2 21.3 -18.5 7.55 L-14.85 8.2 4.5 9.0 4.7 32.95" fill="#e6c793" fill-rule="evenodd" stroke="none"/>
    <path d="M-22.6 29.45 Q-27.5 18.5 -28.85 4.65 -23.75 6.45 -18.5 7.55 -20.2 21.3 -14.35 32.2 L-16.05 31.95 -16.45 31.9 Q-22.6 30.85 -22.6 29.45 M-28.65 -4.7 Q-29.0 -9.8 -28.15 -14.35 -26.75 -22.0 -21.95 -28.1 L-21.75 -28.05 -20.3 -27.6 -16.6 -26.9 -12.8 -26.4 -15.2 -18.5 -17.45 -18.45 Q-17.9 -17.35 -17.95 -16.45 L-17.9 -14.35 Q-17.7 -12.4 -17.1 -10.55 L-17.1 -10.5 Q-17.9 -6.1 -18.2 -2.0 -23.1 -2.85 -28.65 -4.7 M2.75 -25.9 L3.7 -25.9 14.3 -26.8 Q19.95 -14.7 20.35 -3.15 11.85 -1.15 3.65 -0.6 L3.45 -5.95 12.8 -6.4 Q15.0 -6.4 15.2 -7.65 15.5 -9.45 15.3 -11.25 15.0 -14.55 13.9 -17.7 L12.4 -22.1 5.7 -20.05 3.7 -19.45 3.0 -19.3 2.75 -25.9 M16.8 31.75 L15.55 31.95 15.45 32.0 4.7 32.95 4.5 9.0 Q13.05 8.35 21.9 6.0 22.65 20.4 16.8 31.75" fill="#deb776" fill-rule="evenodd" stroke="none"/>
    <path d="M3.0 -19.3 L3.7 -19.45 5.7 -20.05 12.4 -22.1 13.9 -17.7 Q15.0 -14.55 15.3 -11.25 15.5 -9.45 15.2 -7.65 15.0 -6.4 12.8 -6.4 L3.45 -5.95 -2.65 -5.3 -9.1 -4.65 -15.65 -4.0 Q-15.95 -7.35 -17.1 -10.5 L-17.1 -10.55 Q-17.7 -12.4 -17.9 -14.35 L-17.95 -16.45 Q-17.9 -17.35 -17.45 -18.45 L-15.2 -18.5 -9.5 -18.65 -1.9 -18.7 3.0 -19.3" fill="#ffffff" fill-rule="evenodd" stroke="none"/>
    <path d="M22.1 -34.25 L22.1 -34.35 Q22.1 -35.8 15.55 -36.85 L3.7 -37.85 -0.25 -37.9 -16.05 -36.85 Q-22.6 -35.8 -22.6 -34.35 -22.6 -32.95 -16.45 -31.9 L-16.05 -31.85 -0.25 -30.8 3.7 -30.85 15.45 -31.8 15.55 -31.85 Q21.9 -32.85 22.1 -34.25 23.55 -31.85 21.75 -29.2 L21.4 -28.5 Q27.3 -16.7 27.0 -4.9 L28.7 -5.45 Q31.1 -0.75 28.7 3.95 25.6 23.05 22.1 29.55 23.55 31.95 21.75 34.6 L21.4 35.3 19.4 36.05 15.0 36.9 -0.8 37.95 -16.6 36.9 -20.3 36.2 -21.75 35.75 Q-22.8 35.4 -23.55 33.55 -24.35 31.7 -22.6 29.45 -27.5 18.5 -28.85 4.65 -31.1 0.75 -28.65 -4.7 -29.0 -9.8 -28.15 -14.35 -26.75 -22.0 -21.95 -28.1 -22.9 -28.6 -23.55 -30.25 -24.35 -32.1 -22.6 -34.35 M14.3 -26.8 L15.0 -26.9 19.4 -27.75 21.4 -28.5 M2.75 -25.9 L3.7 -25.9 14.3 -26.8 M2.75 -25.9 L-0.8 -25.85 -9.25 -26.1 -12.8 -26.4 -16.6 -26.9 -20.3 -27.6 -21.75 -28.05 -21.95 -28.1 M16.8 31.75 L15.55 31.95 15.45 32.0 4.7 32.95 -0.25 33.0 -10.55 32.6 -14.1 32.25 M-14.35 32.2 L-16.05 31.95 -16.45 31.9 Q-22.6 30.85 -22.6 29.45 M16.8 31.75 Q21.9 30.8 22.1 29.55" fill="none" stroke="#9e6036" stroke-linecap="round" stroke-linejoin="round" stroke-width="1.0"/>
    <path d="M14.3 -26.8 Q19.95 -14.7 20.35 -3.15 M3.0 -19.3 L3.7 -19.45 5.7 -20.05 12.4 -22.1 13.9 -17.7 Q15.0 -14.55 15.3 -11.25 15.5 -9.45 15.2 -7.65 15.0 -6.4 12.8 -6.4 L3.45 -5.95 3.65 -0.6 M3.0 -19.3 L2.75 -25.9 M-12.8 -26.4 L-15.2 -18.5 -9.5 -18.65 -1.9 -18.7 3.0 -19.3 M-14.1 32.25 L-14.35 32.2 Q-20.2 21.3 -18.5 7.55 M4.7 32.95 L4.5 9.0 M21.9 6.0 Q22.65 20.4 16.8 31.75 M-17.1 -10.5 L-17.1 -10.55 Q-17.7 -12.4 -17.9 -14.35 L-17.95 -16.45 Q-17.9 -17.35 -17.45 -18.45 L-15.2 -18.5 M3.45 -5.95 L-2.65 -5.3 -9.1 -4.65 -15.65 -4.0 Q-15.95 -7.35 -17.1 -10.5 -17.9 -6.1 -18.2 -2.0" fill="none" stroke="#9e6036" stroke-linecap="round" stroke-linejoin="round" stroke-width="0.25"/>
    <path d="M20.35 -3.15 L27.0 -4.9 M3.65 -0.6 Q11.85 -1.15 20.35 -3.15 M21.9 6.0 L28.7 3.95 M4.5 9.0 L-14.85 8.2 -18.5 7.55 Q-23.75 6.45 -28.85 4.65 M4.5 9.0 Q13.05 8.35 21.9 6.0 M-18.2 -2.0 L-18.15 -2.0 -14.65 -1.5 Q-4.85 -0.1 3.65 -0.6 M-18.2 -2.0 Q-23.1 -2.85 -28.65 -4.7" fill="none" stroke="#9e6036" stroke-linecap="round" stroke-linejoin="round" stroke-width="0.75"/>
  </g>
</svg>
