<?xml version="1.0" encoding="UTF-8" standalone="no"?>
<svg xmlns:xlink="http://www.w3.org/1999/xlink" height="93.9px" width="109.15px" xmlns="http://www.w3.org/2000/svg">
  <g transform="matrix(1.0, 0.0, 0.0, 1.0, -211.3, -8.75)">
    <path d="M289.5 28.2 Q288.5 20.65 290.1 13.4 291.2 8.3 295.85 8.75 302.55 9.35 308.55 12.75 320.2 19.3 316.55 31.9 309.35 56.85 317.3 81.45 317.8 83.1 318.95 84.5 L320.25 86.25 320.45 87.7 Q321.7 97.45 314.3 102.65 312.25 101.0 311.5 98.5 306.35 81.35 289.05 78.0 284.15 77.05 280.4 78.75 L280.2 78.7 Q278.9 78.45 277.75 77.75 270.55 82.2 264.95 89.1 263.55 90.8 261.35 90.4 255.25 89.35 256.25 83.2 257.9 73.05 257.95 62.7 L258.15 57.1 Q256.35 51.85 254.15 46.95 L253.4 44.75 Q252.25 44.05 251.55 42.9 250.6 41.3 251.0 39.4 L253.0 36.85 Q257.1 35.35 260.05 38.75 L262.3 40.8 259.4 24.05 259.35 23.95 Q265.15 18.1 270.85 24.55 276.35 30.75 284.55 32.85 288.0 31.85 289.5 28.2 M245.05 53.25 Q245.55 62.45 239.15 70.4 230.6 70.95 230.2 61.1 230.05 57.35 229.4 53.7 228.3 52.7 227.45 50.5 226.95 49.25 226.85 47.95 226.65 44.4 228.7 41.85 232.45 37.8 234.95 40.0 L235.45 39.3 Q241.6 38.6 246.4 43.75 249.0 46.65 248.75 50.45 247.6 53.05 245.05 53.25 M219.45 31.5 Q220.05 32.55 219.7 33.8 L217.7 36.4 Q213.3 38.0 211.6 33.65 211.0 32.2 211.3 30.95 216.15 25.35 219.45 31.5" fill="#fefd7f" fill-opacity="0.13333334" fill-rule="evenodd" stroke="none"/>
  </g>
</svg>
