<?xml version="1.0" encoding="UTF-8" standalone="no"?>
<svg xmlns:xlink="http://www.w3.org/1999/xlink" height="77.05px" width="81.1px" xmlns="http://www.w3.org/2000/svg">
  <g transform="matrix(1.0, 0.0, 0.0, 1.0, -237.3, -12.45)">
    <path d="M300.3 45.9 L299.25 45.55 Q296.2 49.25 292.25 46.7 290.4 45.55 291.0 43.45 291.9 40.5 293.4 37.75 294.35 26.55 293.55 15.7 298.75 9.8 305.65 14.6 313.25 19.9 317.7 27.4 320.25 31.7 315.5 35.45 L302.55 45.55 Q301.55 46.35 300.3 45.9 M272.1 30.55 Q276.8 38.7 274.95 48.0 283.55 49.95 285.6 59.1 286.05 61.2 285.6 63.45 280.15 68.8 274.6 62.2 L273.85 61.5 273.75 74.25 Q270.95 80.35 265.55 80.55 263.0 80.65 262.15 78.1 259.15 68.95 260.85 59.4 261.15 57.75 260.1 56.25 257.8 53.1 259.75 49.7 258.3 43.35 264.85 42.55 265.4 37.3 263.9 30.8 L263.9 30.1 Q268.65 24.55 272.1 30.55 M243.0 58.8 Q237.2 58.8 237.35 52.85 237.4 50.65 238.1 48.5 237.5 47.4 237.3 46.15 237.05 44.6 237.3 43.35 242.2 37.8 246.15 43.95 249.2 48.7 248.35 54.3 246.9 58.75 243.0 58.8 M312.65 61.8 Q317.55 63.4 315.2 70.85 313.95 74.6 313.85 78.95 313.65 85.0 311.2 89.5 305.95 90.15 305.35 80.75 L305.25 78.35 Q305.2 76.2 305.6 74.1 303.05 68.1 302.6 60.9 302.5 59.6 302.65 58.55 306.75 52.35 311.05 58.5 312.05 59.95 312.65 61.8" fill="#fefd7f" fill-opacity="0.13333334" fill-rule="evenodd" stroke="none"/>
  </g>
</svg>
