<?xml version="1.0" encoding="UTF-8" standalone="no"?>
<svg xmlns:xlink="http://www.w3.org/1999/xlink" height="408.8px" width="560.95px" xmlns="http://www.w3.org/2000/svg">
  <g transform="matrix(1.0, 0.0, 0.0, 1.0, 280.45, 204.4)">
    <path d="M134.95 -146.9 L135.05 -147.65 Q135.8 -154.8 129.7 -166.55 125.85 -174.05 128.95 -178.1 137.85 -189.85 137.0 -202.9 L208.0 -202.9 Q216.0 -173.9 241.05 -159.3 239.55 -137.35 251.05 -123.25 L248.6 -123.05 Q225.85 -121.55 206.55 -131.85 204.9 -121.95 200.5 -113.15 190.65 -93.35 168.3 -100.0 163.15 -101.55 157.35 -104.5 132.6 -117.05 134.95 -146.9" fill="url(#gradient0)" fill-rule="evenodd" stroke="none"/>
    <path d="M208.0 -202.9 L279.0 -202.9 279.0 -88.4 Q271.05 -96.05 264.45 -111.95 256.35 -116.75 251.05 -123.25 239.55 -137.35 241.05 -159.3 216.0 -173.9 208.0 -202.9" fill="url(#gradient1)" fill-rule="evenodd" stroke="none"/>
    <path d="M137.0 -202.9 Q137.85 -189.85 128.95 -178.1 125.85 -174.05 129.7 -166.55 135.8 -154.8 135.05 -147.65 L134.95 -146.9 Q133.35 -137.15 117.95 -136.65 L110.2 -136.9 Q86.1 -125.0 55.85 -123.95 41.05 -123.45 28.35 -128.05 18.0 -131.85 9.05 -139.0 4.4 -142.7 0.15 -143.25 -28.0 -146.9 -39.65 -170.85 -31.8 -184.45 -26.9 -202.9 L137.0 -202.9" fill="url(#gradient2)" fill-rule="evenodd" stroke="none"/>
    <path d="M279.0 -88.4 L279.0 -11.6 Q251.65 -16.95 233.9 -0.05 218.85 14.25 212.25 30.7 179.5 44.85 171.05 72.2 L166.65 86.3 Q159.8 82.65 152.85 78.1 152.15 57.15 140.05 37.8 135.2 30.1 128.55 22.65 121.25 18.55 128.55 10.2 131.95 -17.1 124.55 -31.4 115.4 -49.0 124.75 -66.1 138.2 -90.8 168.3 -100.0 190.65 -93.35 200.5 -113.15 204.9 -121.95 206.55 -131.85 225.85 -121.55 248.6 -123.05 L251.05 -123.25 Q256.35 -116.75 264.45 -111.95 271.05 -96.05 279.0 -88.4" fill="url(#gradient3)" fill-rule="evenodd" stroke="none"/>
    <path d="M134.95 -146.9 Q132.6 -117.05 157.35 -104.5 163.15 -101.55 168.3 -100.0 138.2 -90.8 124.75 -66.1 115.4 -49.0 124.55 -31.4 131.95 -17.1 128.55 10.2 121.25 18.55 128.55 22.65 135.2 30.1 140.05 37.8 113.55 50.35 88.65 31.55 86.5 29.95 82.2 30.4 L78.1 31.1 Q47.05 38.8 45.2 7.15 23.6 -7.75 29.2 -38.65 1.05 -43.25 4.4 -72.75 11.25 -77.0 15.55 -83.35 46.1 -71.1 74.65 -88.3 81.0 -88.4 91.55 -90.1 122.7 -94.95 117.95 -136.65 133.35 -137.15 134.95 -146.9" fill="url(#gradient4)" fill-rule="evenodd" stroke="none"/>
    <path d="M28.35 -128.05 Q41.05 -123.45 55.85 -123.95 86.1 -125.0 110.2 -136.9 L117.95 -136.65 Q122.7 -94.95 91.55 -90.1 81.0 -88.4 74.65 -88.3 46.1 -71.1 15.55 -83.35 22.8 -94.3 22.4 -111.6 30.1 -123.2 28.35 -128.05" fill="url(#gradient5)" fill-rule="evenodd" stroke="none"/>
    <path d="M33.25 88.3 Q35.35 86.8 37.75 85.35 46.85 79.9 49.3 67.4 54.4 41.15 78.35 31.75 L82.2 30.4 Q86.5 29.95 88.65 31.55 113.55 50.35 140.05 37.8 152.15 57.15 152.85 78.1 159.8 82.65 166.65 86.3 L155.4 121.55 Q152.95 129.0 155.4 137.4 159.5 151.4 163.2 165.4 156.7 166.9 150.3 169.65 152.05 162.9 141.0 155.65 131.55 149.5 122.75 144.7 96.6 130.45 70.8 150.0 66.0 153.65 54.6 155.75 52.45 138.85 21.45 129.75 11.75 104.0 33.15 88.4 L33.25 88.3" fill="url(#gradient6)" fill-rule="evenodd" stroke="none"/>
    <path d="M279.0 -11.6 L279.0 179.7 Q261.75 155.35 234.75 158.75 229.05 159.45 222.8 163.45 212.65 169.95 194.2 165.65 178.4 161.95 163.2 165.4 159.5 151.4 155.4 137.4 152.95 129.0 155.4 121.55 L166.65 86.3 171.05 72.2 Q179.5 44.85 212.25 30.7 218.85 14.25 233.9 -0.05 251.65 -16.95 279.0 -11.6" fill="url(#gradient7)" fill-rule="evenodd" stroke="none"/>
    <path d="M33.15 88.35 L33.25 88.3 33.15 88.4 33.15 88.35 M78.35 31.75 L78.1 31.1 82.2 30.4 78.35 31.75" fill="url(#gradient8)" fill-rule="evenodd" stroke="none"/>
    <path d="M4.4 -72.75 Q1.05 -43.25 29.2 -38.65 23.6 -7.75 45.2 7.15 47.05 38.8 78.1 31.1 L78.35 31.75 Q54.4 41.15 49.3 67.4 46.85 79.9 37.75 85.35 35.35 86.8 33.25 88.3 L33.15 88.35 Q14.0 61.0 -9.65 79.9 -9.3 71.2 -7.95 61.0 -20.5 49.1 -24.75 33.85 -27.75 23.0 -33.95 13.45 -41.4 1.95 -53.15 -9.65 -26.3 -15.6 -20.55 -45.1 -18.5 -55.45 -21.0 -65.2 -5.55 -66.7 4.4 -72.75" fill="url(#gradient9)" fill-rule="evenodd" stroke="none"/>
    <path d="M122.5 202.9 L3.65 202.9 Q19.95 183.4 41.05 163.7 49.25 156.05 54.6 155.75 66.0 153.65 70.8 150.0 96.6 130.45 122.75 144.7 131.55 149.5 141.0 155.65 152.05 162.9 150.3 169.65 146.4 171.35 142.55 173.55 122.25 185.05 122.5 202.9" fill="url(#gradient10)" fill-rule="evenodd" stroke="none"/>
    <path d="M279.0 179.7 L279.0 202.9 122.5 202.9 Q122.25 185.05 142.55 173.55 146.4 171.35 150.3 169.65 156.7 166.9 163.2 165.4 178.4 161.95 194.2 165.65 212.65 169.95 222.8 163.45 229.05 159.45 234.75 158.75 261.75 155.35 279.0 179.7" fill="url(#gradient11)" fill-rule="evenodd" stroke="none"/>
    <path d="M-39.65 -170.85 Q-28.0 -146.9 0.15 -143.25 4.4 -142.7 9.05 -139.0 18.0 -131.85 28.35 -128.05 30.1 -123.2 22.4 -111.6 22.8 -94.3 15.55 -83.35 11.25 -77.0 4.4 -72.75 -5.55 -66.7 -21.0 -65.2 -18.5 -55.45 -20.55 -45.1 -26.3 -15.6 -53.15 -9.65 -61.2 -17.6 -71.25 -25.55 -97.15 -22.1 -111.95 -46.9 -135.2 -44.85 -152.4 -27.15 -179.6 -41.05 -178.5 -68.25 -177.4 -96.15 -201.5 -109.5 -179.4 -104.6 -158.4 -112.05 -140.9 -118.25 -126.8 -124.0 -119.45 -127.0 -110.75 -127.65 -81.45 -130.0 -58.25 -148.75 -47.5 -157.45 -39.65 -170.85" fill="url(#gradient12)" fill-rule="evenodd" stroke="none"/>
    <path d="M-26.9 -202.9 Q-31.8 -184.45 -39.65 -170.85 -47.5 -157.45 -58.25 -148.75 -81.45 -130.0 -110.75 -127.65 -119.45 -127.0 -126.8 -124.0 -140.9 -118.25 -158.4 -112.05 -179.4 -104.6 -201.5 -109.5 -208.85 -111.15 -216.3 -114.15 -227.25 -111.85 -243.9 -107.05 -271.1 -99.2 -277.5 -123.8 L-277.5 -202.9 -26.9 -202.9" fill="url(#gradient13)" fill-rule="evenodd" stroke="none"/>
    <path d="M-53.15 -9.65 Q-41.4 1.95 -33.95 13.45 -27.75 23.0 -24.75 33.85 -20.5 49.1 -7.95 61.0 -9.3 71.2 -9.65 79.9 -10.35 94.55 -8.3 105.0 -6.95 135.75 -24.5 141.05 -28.95 134.3 -37.7 128.85 -53.3 119.15 -76.05 119.2 -88.35 119.2 -96.55 127.35 -112.35 143.15 -126.3 138.95 -153.1 130.85 -166.05 153.75 -171.6 163.6 -175.5 173.6 -192.9 167.35 -193.25 144.15 -200.1 115.3 -170.15 95.55 -182.5 79.55 -170.95 59.7 -166.3 56.8 -161.15 54.6 -151.8 50.55 -149.2 41.05 -143.65 20.45 -133.9 8.6 -117.45 -11.4 -148.65 -25.35 L-152.4 -27.15 Q-135.2 -44.85 -111.95 -46.9 -97.15 -22.1 -71.25 -25.55 -61.2 -17.6 -53.15 -9.65" fill="url(#gradient14)" fill-rule="evenodd" stroke="none"/>
    <path d="M-277.5 94.2 L-277.5 -123.8 Q-271.1 -99.2 -243.9 -107.05 -227.25 -111.85 -216.3 -114.15 -208.85 -111.15 -201.5 -109.5 -177.4 -96.15 -178.5 -68.25 -179.6 -41.05 -152.4 -27.15 L-148.65 -25.35 Q-117.45 -11.4 -133.9 8.6 -143.65 20.45 -149.2 41.05 -151.8 50.55 -161.15 54.6 -166.3 56.8 -170.95 59.7 -188.95 70.9 -199.5 92.65 -203.55 100.95 -210.3 107.75 -222.9 120.55 -239.85 126.6 -246.2 96.5 -277.5 94.2" fill="url(#gradient15)" fill-rule="evenodd" stroke="none"/>
    <path d="M-183.3 202.9 L-234.5 202.9 Q-232.15 196.4 -232.4 188.45 -232.6 182.6 -230.95 177.9 -227.55 168.3 -231.45 157.15 -236.95 141.5 -239.85 126.6 -222.9 120.55 -210.3 107.75 -203.55 100.95 -199.5 92.65 -188.95 70.9 -170.95 59.7 -182.5 79.55 -170.15 95.55 -200.1 115.3 -193.25 144.15 -192.9 167.35 -175.5 173.6 -181.15 188.1 -183.3 202.9" fill="url(#gradient16)" fill-rule="evenodd" stroke="none"/>
    <path d="M-234.5 202.9 L-277.5 202.9 -277.5 94.2 Q-246.2 96.5 -239.85 126.6 -236.95 141.5 -231.45 157.15 -227.55 168.3 -230.95 177.9 -232.6 182.6 -232.4 188.45 -232.15 196.4 -234.5 202.9" fill="url(#gradient17)" fill-rule="evenodd" stroke="none"/>
    <path d="M-22.45 202.9 L-183.3 202.9 Q-181.15 188.1 -175.5 173.6 -171.6 163.6 -166.05 153.75 -153.1 130.85 -126.3 138.95 -112.35 143.15 -96.55 127.35 -88.35 119.2 -76.05 119.2 -53.3 119.15 -37.7 128.85 -28.95 134.3 -24.5 141.05 -17.35 151.95 -21.35 166.35 -22.45 170.3 -19.65 175.4 -8.55 195.65 -22.45 202.9" fill="url(#gradient18)" fill-rule="evenodd" stroke="none"/>
    <path d="M3.65 202.9 L-22.45 202.9 Q-8.55 195.65 -19.65 175.4 -22.45 170.3 -21.35 166.35 -17.35 151.95 -24.5 141.05 -6.95 135.75 -8.3 105.0 -10.35 94.55 -9.65 79.9 14.0 61.0 33.15 88.35 L33.15 88.4 Q11.75 104.0 21.45 129.75 52.45 138.85 54.6 155.75 49.25 156.05 41.05 163.7 19.95 183.4 3.65 202.9" fill="url(#gradient19)" fill-rule="evenodd" stroke="none"/>
    <path d="M208.0 -202.9 L279.0 -202.9 279.0 -88.4 279.0 -11.6 279.0 179.7 279.0 202.9 122.5 202.9 3.65 202.9 -22.45 202.9 -183.3 202.9 -234.5 202.9 -277.5 202.9 -277.5 94.2 -277.5 -123.8 -277.5 -202.9 -26.9 -202.9 137.0 -202.9 208.0 -202.9" fill="none" stroke="#666666" stroke-linecap="round" stroke-linejoin="round" stroke-width="1.0"/>
    <path d="M-277.5 -123.8 Q-278.45 -127.45 -278.95 -131.85 M137.0 -202.9 Q137.85 -189.85 128.95 -178.1 125.85 -174.05 129.7 -166.55 135.8 -154.8 135.05 -147.65 L134.95 -146.9 Q132.6 -117.05 157.35 -104.5 163.15 -101.55 168.3 -100.0 190.65 -93.35 200.5 -113.15 204.9 -121.95 206.55 -131.85 225.85 -121.55 248.6 -123.05 L251.05 -123.25 Q239.55 -137.35 241.05 -159.3 216.0 -173.9 208.0 -202.9 M-26.9 -202.9 Q-31.8 -184.45 -39.65 -170.85 -28.0 -146.9 0.15 -143.25 4.4 -142.7 9.05 -139.0 18.0 -131.85 28.35 -128.05 41.05 -123.45 55.85 -123.95 86.1 -125.0 110.2 -136.9 L117.95 -136.65 Q133.35 -137.15 134.95 -146.9 M28.35 -128.05 Q30.1 -123.2 22.4 -111.6 22.8 -94.3 15.55 -83.35 46.1 -71.1 74.65 -88.3 81.0 -88.4 91.55 -90.1 122.7 -94.95 117.95 -136.65 M4.4 -72.75 Q11.25 -77.0 15.55 -83.35 M78.1 31.1 Q47.05 38.8 45.2 7.15 23.6 -7.75 29.2 -38.65 1.05 -43.25 4.4 -72.75 -5.55 -66.7 -21.0 -65.2 -18.5 -55.45 -20.55 -45.1 -26.3 -15.6 -53.15 -9.65 -41.4 1.95 -33.95 13.45 -27.75 23.0 -24.75 33.85 -20.5 49.1 -7.95 61.0 -9.3 71.2 -9.65 79.9 14.0 61.0 33.15 88.35 L33.25 88.3 Q35.35 86.8 37.75 85.35 46.85 79.9 49.3 67.4 54.4 41.15 78.35 31.75 L82.2 30.4 Q86.5 29.95 88.65 31.55 113.55 50.35 140.05 37.8 135.2 30.1 128.55 22.65 121.25 18.55 128.55 10.2 131.95 -17.1 124.55 -31.4 115.4 -49.0 124.75 -66.1 138.2 -90.8 168.3 -100.0 M78.1 31.1 L82.2 30.4 M279.0 -88.4 Q271.05 -96.05 264.45 -111.95 256.35 -116.75 251.05 -123.25 M166.65 86.3 L171.05 72.2 Q179.5 44.85 212.25 30.7 218.85 14.25 233.9 -0.05 251.65 -16.95 279.0 -11.6 M163.2 165.4 Q178.4 161.95 194.2 165.65 212.65 169.95 222.8 163.45 229.05 159.45 234.75 158.75 261.75 155.35 279.0 179.7 M140.05 37.8 Q152.15 57.15 152.85 78.1 159.8 82.65 166.65 86.3 L155.4 121.55 Q152.95 129.0 155.4 137.4 159.5 151.4 163.2 165.4 156.7 166.9 150.3 169.65 146.4 171.35 142.55 173.55 122.25 185.05 122.5 202.9 M33.15 88.4 L33.25 88.3 M54.6 155.75 Q66.0 153.65 70.8 150.0 96.6 130.45 122.75 144.7 131.55 149.5 141.0 155.65 152.05 162.9 150.3 169.65 M3.65 202.9 Q19.95 183.4 41.05 163.7 49.25 156.05 54.6 155.75 52.45 138.85 21.45 129.75 11.75 104.0 33.15 88.4 M-201.5 -109.5 Q-208.85 -111.15 -216.3 -114.15 -227.25 -111.85 -243.9 -107.05 -271.1 -99.2 -277.5 -123.8 M-201.5 -109.5 Q-177.4 -96.15 -178.5 -68.25 -179.6 -41.05 -152.4 -27.15 -135.2 -44.85 -111.95 -46.9 -97.15 -22.1 -71.25 -25.55 -61.2 -17.6 -53.15 -9.65 M-39.65 -170.85 Q-47.5 -157.45 -58.25 -148.75 -81.45 -130.0 -110.75 -127.65 -119.45 -127.0 -126.8 -124.0 -140.9 -118.25 -158.4 -112.05 -179.4 -104.6 -201.5 -109.5 M-170.95 59.7 Q-166.3 56.8 -161.15 54.6 -151.8 50.55 -149.2 41.05 -143.65 20.45 -133.9 8.6 -117.45 -11.4 -148.65 -25.35 L-152.4 -27.15 M-24.5 141.05 Q-28.95 134.3 -37.7 128.85 -53.3 119.15 -76.05 119.2 -88.35 119.2 -96.55 127.35 -112.35 143.15 -126.3 138.95 -153.1 130.85 -166.05 153.75 -171.6 163.6 -175.5 173.6 -181.15 188.1 -183.3 202.9 M-24.5 141.05 Q-6.95 135.75 -8.3 105.0 -10.35 94.55 -9.65 79.9 M-22.45 202.9 Q-8.55 195.65 -19.65 175.4 -22.45 170.3 -21.35 166.35 -17.35 151.95 -24.5 141.05 M-170.95 59.7 Q-182.5 79.55 -170.15 95.55 -200.1 115.3 -193.25 144.15 -192.9 167.35 -175.5 173.6 M-239.85 126.6 Q-222.9 120.55 -210.3 107.75 -203.55 100.95 -199.5 92.65 -188.95 70.9 -170.95 59.7 M-239.85 126.6 Q-236.95 141.5 -231.45 157.15 -227.55 168.3 -230.95 177.9 -232.6 182.6 -232.4 188.45 -232.15 196.4 -234.5 202.9 M-277.5 94.2 Q-246.2 96.5 -239.85 126.6" fill="none" stroke="#6d5501" stroke-linecap="round" stroke-linejoin="round" stroke-width="3.0"/>
  </g>
  <defs>
    <radialGradient cx="0" cy="0" gradientTransform="matrix(0.149, 0.0, 0.0, 0.149, 141.35, -176.8)" gradientUnits="userSpaceOnUse" id="gradient0" r="819.2" spreadMethod="pad">
      <stop offset="0.0" stop-color="#ffffcc"/>
      <stop offset="0.14901960784313725" stop-color="#ffff00"/>
      <stop offset="0.40784313725490196" stop-color="#febe01"/>
      <stop offset="0.6549019607843137" stop-color="#ab8601"/>
      <stop offset="0.9921568627450981" stop-color="#eeb301"/>
    </radialGradient>
    <radialGradient cx="0" cy="0" gradientTransform="matrix(0.1424, 0.0, 0.0, 0.1424, 222.5, -189.85)" gradientUnits="userSpaceOnUse" id="gradient1" r="819.2" spreadMethod="pad">
      <stop offset="0.0" stop-color="#ffffcc"/>
      <stop offset="0.14901960784313725" stop-color="#ffff00"/>
      <stop offset="0.40784313725490196" stop-color="#febe01"/>
      <stop offset="0.6549019607843137" stop-color="#ab8601"/>
      <stop offset="0.9921568627450981" stop-color="#eeb301"/>
    </radialGradient>
    <radialGradient cx="0" cy="0" gradientTransform="matrix(0.1799, 0.0, 0.0, 0.1799, -5.05, -192.75)" gradientUnits="userSpaceOnUse" id="gradient2" r="819.2" spreadMethod="pad">
      <stop offset="0.0" stop-color="#ffffcc"/>
      <stop offset="0.14901960784313725" stop-color="#ffff00"/>
      <stop offset="0.40784313725490196" stop-color="#febe01"/>
      <stop offset="0.6549019607843137" stop-color="#ab8601"/>
      <stop offset="0.9921568627450981" stop-color="#eeb301"/>
    </radialGradient>
    <radialGradient cx="0" cy="0" gradientTransform="matrix(0.2275, 0.0, 0.0, 0.2275, 168.3, -100.0)" gradientUnits="userSpaceOnUse" id="gradient3" r="819.2" spreadMethod="pad">
      <stop offset="0.0" stop-color="#ffffcc"/>
      <stop offset="0.14901960784313725" stop-color="#ffff00"/>
      <stop offset="0.40784313725490196" stop-color="#febe01"/>
      <stop offset="0.6549019607843137" stop-color="#ab8601"/>
      <stop offset="0.9921568627450981" stop-color="#eeb301"/>
    </radialGradient>
    <radialGradient cx="0" cy="0" gradientTransform="matrix(0.1812, 0.0, 0.0, 0.1812, 131.2, -97.1)" gradientUnits="userSpaceOnUse" id="gradient4" r="819.2" spreadMethod="pad">
      <stop offset="0.0" stop-color="#ffffcc"/>
      <stop offset="0.14901960784313725" stop-color="#ffff00"/>
      <stop offset="0.40784313725490196" stop-color="#febe01"/>
      <stop offset="0.6549019607843137" stop-color="#ab8601"/>
      <stop offset="0.9921568627450981" stop-color="#eeb301"/>
    </radialGradient>
    <radialGradient cx="0" cy="0" gradientTransform="matrix(0.1113, 0.0, 0.0, 0.1113, 93.7, -130.25)" gradientUnits="userSpaceOnUse" id="gradient5" r="819.2" spreadMethod="pad">
      <stop offset="0.0" stop-color="#ffffcc"/>
      <stop offset="0.14901960784313725" stop-color="#ffff00"/>
      <stop offset="0.40784313725490196" stop-color="#febe01"/>
      <stop offset="0.6549019607843137" stop-color="#ab8601"/>
      <stop offset="0.9921568627450981" stop-color="#eeb301"/>
    </radialGradient>
    <radialGradient cx="0" cy="0" gradientTransform="matrix(0.1782, 0.0, 0.0, 0.1782, 61.65, 60.9)" gradientUnits="userSpaceOnUse" id="gradient6" r="819.2" spreadMethod="pad">
      <stop offset="0.0" stop-color="#ffffcc"/>
      <stop offset="0.14901960784313725" stop-color="#ffff00"/>
      <stop offset="0.40784313725490196" stop-color="#febe01"/>
      <stop offset="0.6549019607843137" stop-color="#ab8601"/>
      <stop offset="0.9921568627450981" stop-color="#eeb301"/>
    </radialGradient>
    <radialGradient cx="0" cy="0" gradientTransform="matrix(0.1933, 0.0, 0.0, 0.1933, 193.5, 46.4)" gradientUnits="userSpaceOnUse" id="gradient7" r="819.2" spreadMethod="pad">
      <stop offset="0.0" stop-color="#ffffcc"/>
      <stop offset="0.14901960784313725" stop-color="#ffff00"/>
      <stop offset="0.40784313725490196" stop-color="#febe01"/>
      <stop offset="0.6549019607843137" stop-color="#ab8601"/>
      <stop offset="0.9921568627450981" stop-color="#eeb301"/>
    </radialGradient>
    <radialGradient cx="0" cy="0" gradientTransform="matrix(0.8043, 0.0, 0.0, 0.8043, -254.3, -184.05)" gradientUnits="userSpaceOnUse" id="gradient8" r="819.2" spreadMethod="pad">
      <stop offset="0.0" stop-color="#ffffcc"/>
      <stop offset="0.14901960784313725" stop-color="#ffff00"/>
      <stop offset="0.40784313725490196" stop-color="#febe01"/>
      <stop offset="0.6549019607843137" stop-color="#ab8601"/>
      <stop offset="0.9921568627450981" stop-color="#eeb301"/>
    </radialGradient>
    <radialGradient cx="0" cy="0" gradientTransform="matrix(0.1596, 0.0, 0.0, 0.1596, -10.85, -34.75)" gradientUnits="userSpaceOnUse" id="gradient9" r="819.2" spreadMethod="pad">
      <stop offset="0.0" stop-color="#ffffcc"/>
      <stop offset="0.14901960784313725" stop-color="#ffff00"/>
      <stop offset="0.40784313725490196" stop-color="#febe01"/>
      <stop offset="0.6549019607843137" stop-color="#ab8601"/>
      <stop offset="0.9921568627450981" stop-color="#eeb301"/>
    </radialGradient>
    <radialGradient cx="0" cy="0" gradientTransform="matrix(0.1147, 0.0, 0.0, 0.1147, 86.25, 158.0)" gradientUnits="userSpaceOnUse" id="gradient10" r="819.2" spreadMethod="pad">
      <stop offset="0.0" stop-color="#ffffcc"/>
      <stop offset="0.14901960784313725" stop-color="#ffff00"/>
      <stop offset="0.40784313725490196" stop-color="#febe01"/>
      <stop offset="0.6549019607843137" stop-color="#ab8601"/>
      <stop offset="0.9921568627450981" stop-color="#eeb301"/>
    </radialGradient>
    <radialGradient cx="0" cy="0" gradientTransform="matrix(0.1356, 0.0, 0.0, 0.1356, 171.75, 173.95)" gradientUnits="userSpaceOnUse" id="gradient11" r="819.2" spreadMethod="pad">
      <stop offset="0.0" stop-color="#ffffcc"/>
      <stop offset="0.14901960784313725" stop-color="#ffff00"/>
      <stop offset="0.40784313725490196" stop-color="#febe01"/>
      <stop offset="0.6549019607843137" stop-color="#ab8601"/>
      <stop offset="0.9921568627450981" stop-color="#eeb301"/>
    </radialGradient>
    <radialGradient cx="0" cy="0" gradientTransform="matrix(0.2267, 0.0, 0.0, 0.2267, -155.75, -105.8)" gradientUnits="userSpaceOnUse" id="gradient12" r="819.2" spreadMethod="pad">
      <stop offset="0.0" stop-color="#ffffcc"/>
      <stop offset="0.14901960784313725" stop-color="#ffff00"/>
      <stop offset="0.40784313725490196" stop-color="#febe01"/>
      <stop offset="0.6549019607843137" stop-color="#ab8601"/>
      <stop offset="0.9921568627450981" stop-color="#eeb301"/>
    </radialGradient>
    <radialGradient cx="0" cy="0" gradientTransform="matrix(0.2334, 0.0, 0.0, 0.2334, -218.1, -202.9)" gradientUnits="userSpaceOnUse" id="gradient13" r="819.2" spreadMethod="pad">
      <stop offset="0.0" stop-color="#ffffcc"/>
      <stop offset="0.14901960784313725" stop-color="#ffff00"/>
      <stop offset="0.40784313725490196" stop-color="#febe01"/>
      <stop offset="0.6549019607843137" stop-color="#ab8601"/>
      <stop offset="0.9921568627450981" stop-color="#eeb301"/>
    </radialGradient>
    <radialGradient cx="0" cy="0" gradientTransform="matrix(0.2471, 0.0, 0.0, 0.2471, -100.7, -14.5)" gradientUnits="userSpaceOnUse" id="gradient14" r="819.2" spreadMethod="pad">
      <stop offset="0.0" stop-color="#ffffcc"/>
      <stop offset="0.14901960784313725" stop-color="#ffff00"/>
      <stop offset="0.40784313725490196" stop-color="#febe01"/>
      <stop offset="0.6549019607843137" stop-color="#ab8601"/>
      <stop offset="0.9921568627450981" stop-color="#eeb301"/>
    </radialGradient>
    <radialGradient cx="0" cy="0" gradientTransform="matrix(0.267, 0.0, 0.0, 0.267, -277.5, -88.4)" gradientUnits="userSpaceOnUse" id="gradient15" r="819.2" spreadMethod="pad">
      <stop offset="0.0" stop-color="#ffffcc"/>
      <stop offset="0.14901960784313725" stop-color="#ffff00"/>
      <stop offset="0.40784313725490196" stop-color="#febe01"/>
      <stop offset="0.6549019607843137" stop-color="#ab8601"/>
      <stop offset="0.9921568627450981" stop-color="#eeb301"/>
    </radialGradient>
    <radialGradient cx="0" cy="0" gradientTransform="matrix(0.143, 0.0, 0.0, 0.143, -187.65, 95.65)" gradientUnits="userSpaceOnUse" id="gradient16" r="819.2" spreadMethod="pad">
      <stop offset="0.0" stop-color="#ffffcc"/>
      <stop offset="0.14901960784313725" stop-color="#ffff00"/>
      <stop offset="0.40784313725490196" stop-color="#febe01"/>
      <stop offset="0.6549019607843137" stop-color="#ab8601"/>
      <stop offset="0.9921568627450981" stop-color="#eeb301"/>
    </radialGradient>
    <radialGradient cx="0" cy="0" gradientTransform="matrix(0.1232, 0.0, 0.0, 0.1232, -277.5, 111.6)" gradientUnits="userSpaceOnUse" id="gradient17" r="819.2" spreadMethod="pad">
      <stop offset="0.0" stop-color="#ffffcc"/>
      <stop offset="0.14901960784313725" stop-color="#ffff00"/>
      <stop offset="0.40784313725490196" stop-color="#febe01"/>
      <stop offset="0.6549019607843137" stop-color="#ab8601"/>
      <stop offset="0.9921568627450981" stop-color="#eeb301"/>
    </radialGradient>
    <radialGradient cx="0" cy="0" gradientTransform="matrix(0.1672, 0.0, 0.0, 0.1672, -145.6, 153.65)" gradientUnits="userSpaceOnUse" id="gradient18" r="819.2" spreadMethod="pad">
      <stop offset="0.0" stop-color="#ffffcc"/>
      <stop offset="0.14901960784313725" stop-color="#ffff00"/>
      <stop offset="0.40784313725490196" stop-color="#febe01"/>
      <stop offset="0.6549019607843137" stop-color="#ab8601"/>
      <stop offset="0.9921568627450981" stop-color="#eeb301"/>
    </radialGradient>
    <radialGradient cx="0" cy="0" gradientTransform="matrix(0.1364, 0.0, 0.0, 0.1364, 0.75, 94.2)" gradientUnits="userSpaceOnUse" id="gradient19" r="819.2" spreadMethod="pad">
      <stop offset="0.0" stop-color="#ffffcc"/>
      <stop offset="0.14901960784313725" stop-color="#ffff00"/>
      <stop offset="0.40784313725490196" stop-color="#febe01"/>
      <stop offset="0.6549019607843137" stop-color="#ab8601"/>
      <stop offset="0.9921568627450981" stop-color="#eeb301"/>
    </radialGradient>
  </defs>
</svg>
