<?xml version="1.0" encoding="UTF-8" standalone="no"?>
<svg xmlns:xlink="http://www.w3.org/1999/xlink" height="142.85px" width="315.1px" xmlns="http://www.w3.org/2000/svg">
  <g transform="matrix(1.0, 0.0, 0.0, 1.0, 157.55, 71.4)">
    <path d="M147.55 -71.4 Q151.7 -71.4 154.6 -68.5 157.55 -65.55 157.55 -61.4 L157.55 61.45 Q157.55 65.6 154.6 68.5 151.7 71.45 147.55 71.45 L-147.55 71.45 Q-151.7 71.45 -154.65 68.5 -157.55 65.6 -157.55 61.45 L-157.55 -61.4 Q-157.55 -65.55 -154.65 -68.5 -151.7 -71.4 -147.55 -71.4 L147.55 -71.4" fill="#ff9900" fill-rule="evenodd" stroke="none"/>
    <path d="M148.4 -62.25 Q148.75 -61.9 148.75 -61.4 L148.75 61.45 148.45 62.25 148.35 62.35 147.55 62.65 -147.55 62.65 -148.4 62.3 Q-148.75 61.95 -148.75 61.45 L-148.75 -61.4 -148.45 -62.2 -148.4 -62.25 -148.35 -62.3 -147.55 -62.6 147.55 -62.6 148.4 -62.25 M148.1 -62.0 L147.55 -62.2 -147.55 -62.2 -148.15 -62.0 -148.35 -61.4 -148.35 61.45 -148.15 62.0 -147.55 62.25 147.55 62.25 148.05 62.05 148.15 61.95 148.35 61.45 148.35 -61.4 148.1 -62.0" fill="#9b4e00" fill-opacity="0.91764706" fill-rule="evenodd" stroke="none"/>
    <path d="M148.1 -62.0 L148.35 -61.4 148.35 61.45 148.15 61.95 148.05 62.05 147.55 62.25 -147.55 62.25 -148.15 62.0 -148.35 61.45 -148.35 -61.4 -148.15 -62.0 -147.55 -62.2 147.55 -62.2 148.1 -62.0 M147.95 -61.4 L147.8 -61.7 147.55 -61.8 -147.55 -61.8 -147.85 -61.7 -147.95 -61.4 -147.95 61.45 -147.85 61.7 -147.55 61.85 147.55 61.85 147.75 61.8 147.9 61.65 147.95 61.45 147.95 -61.4" fill="#9b4e00" fill-opacity="0.95686275" fill-rule="evenodd" stroke="none"/>
    <path d="M148.65 -62.55 Q149.15 -62.05 149.15 -61.4 L149.15 61.45 Q149.15 62.05 148.7 62.5 L148.6 62.6 Q148.15 63.05 147.55 63.05 L-147.55 63.05 Q-148.2 63.05 -148.7 62.55 -149.15 62.1 -149.15 61.45 L-149.15 -61.4 Q-149.15 -62.05 -148.75 -62.5 L-148.65 -62.6 Q-148.2 -63.0 -147.55 -63.0 L147.55 -63.0 Q148.2 -63.0 148.65 -62.55 M148.4 -62.25 L147.55 -62.6 -147.55 -62.6 -148.35 -62.3 -148.4 -62.25 -148.45 -62.2 -148.75 -61.4 -148.75 61.45 Q-148.75 61.95 -148.4 62.3 L-147.55 62.65 147.55 62.65 148.35 62.35 148.45 62.25 148.75 61.45 148.75 -61.4 Q148.75 -61.9 148.4 -62.25" fill="#9b4e00" fill-opacity="0.8784314" fill-rule="evenodd" stroke="none"/>
    <path d="M148.95 -62.85 Q149.55 -62.25 149.55 -61.4 L149.55 61.45 Q149.55 62.25 149.0 62.8 L148.9 62.9 Q148.35 63.45 147.55 63.45 L-147.55 63.45 Q-148.4 63.45 -149.0 62.85 -149.55 62.3 -149.55 61.45 L-149.55 -61.4 Q-149.55 -62.2 -149.05 -62.8 L-148.95 -62.9 Q-148.35 -63.4 -147.55 -63.4 L147.55 -63.4 Q148.4 -63.4 148.95 -62.85 M148.65 -62.55 Q148.2 -63.0 147.55 -63.0 L-147.55 -63.0 Q-148.2 -63.0 -148.65 -62.6 L-148.75 -62.5 Q-149.15 -62.05 -149.15 -61.4 L-149.15 61.45 Q-149.15 62.1 -148.7 62.55 -148.2 63.05 -147.55 63.05 L147.55 63.05 Q148.15 63.05 148.6 62.6 L148.7 62.5 Q149.15 62.05 149.15 61.45 L149.15 -61.4 Q149.15 -62.05 148.65 -62.55" fill="#9b4e00" fill-opacity="0.8392157" fill-rule="evenodd" stroke="none"/>
    <path d="M149.25 -63.1 Q149.95 -62.4 149.95 -61.4 L149.95 61.45 Q149.95 62.4 149.3 63.1 L149.2 63.2 Q148.5 63.85 147.55 63.85 L-147.55 63.85 Q-148.55 63.85 -149.25 63.15 -149.95 62.45 -149.95 61.45 L-149.95 -61.4 Q-149.95 -62.35 -149.3 -63.05 L-149.2 -63.15 Q-148.5 -63.8 -147.55 -63.8 L147.55 -63.8 Q148.55 -63.8 149.25 -63.1 M148.95 -62.85 Q148.4 -63.4 147.55 -63.4 L-147.55 -63.4 Q-148.35 -63.4 -148.95 -62.9 L-149.05 -62.8 Q-149.55 -62.2 -149.55 -61.4 L-149.55 61.45 Q-149.55 62.3 -149.0 62.85 -148.4 63.45 -147.55 63.45 L147.55 63.45 Q148.35 63.45 148.9 62.9 L149.0 62.8 Q149.55 62.25 149.55 61.45 L149.55 -61.4 Q149.55 -62.25 148.95 -62.85" fill="#9b4e00" fill-opacity="0.79607844" fill-rule="evenodd" stroke="none"/>
    <path d="M149.25 -63.1 Q148.55 -63.8 147.55 -63.8 L-147.55 -63.8 Q-148.5 -63.8 -149.2 -63.15 L-149.3 -63.05 Q-149.95 -62.35 -149.95 -61.4 L-149.95 61.45 Q-149.95 62.45 -149.25 63.15 -148.55 63.85 -147.55 63.85 L147.55 63.85 Q148.5 63.85 149.2 63.2 L149.3 63.1 Q149.95 62.4 149.95 61.45 L149.95 -61.4 Q149.95 -62.4 149.25 -63.1 M149.5 -63.4 Q150.35 -62.55 150.35 -61.4 L150.35 61.45 Q150.35 62.6 149.55 63.4 L149.5 63.45 Q148.7 64.25 147.55 64.25 L-147.55 64.25 Q-148.7 64.25 -149.55 63.4 -150.35 62.6 -150.35 61.45 L-150.35 -61.4 Q-150.35 -62.55 -149.6 -63.35 L-149.5 -63.45 Q-148.7 -64.2 -147.55 -64.2 L147.55 -64.2 Q148.7 -64.2 149.5 -63.4" fill="#9b4e00" fill-opacity="0.75686276" fill-rule="evenodd" stroke="none"/>
    <path d="M151.8 -65.65 Q150.05 -67.4 147.55 -67.4 L-147.55 -67.4 Q-150.05 -67.4 -151.8 -65.7 L-151.85 -65.65 Q-153.55 -63.9 -153.55 -61.4 L-153.55 61.45 Q-153.55 63.95 -151.8 65.7 -150.05 67.45 -147.55 67.45 L147.55 67.45 Q150.0 67.45 151.75 65.7 L151.8 65.65 Q153.55 63.9 153.55 61.45 L153.55 -61.4 Q153.55 -63.9 151.8 -65.65 M153.95 -61.4 L153.95 61.45 Q153.95 64.1 152.1 65.95 L152.05 66.0 Q150.2 67.85 147.55 67.85 L-147.55 67.85 Q-150.2 67.85 -152.1 65.95 -153.95 64.1 -153.95 61.45 L-153.95 -61.4 Q-153.95 -64.05 -152.1 -65.9 L-152.05 -65.95 Q-150.2 -67.8 -147.55 -67.8 L147.55 -67.8 Q150.2 -67.8 152.05 -65.95 153.95 -64.05 153.95 -61.4" fill="#9b4e00" fill-opacity="0.39607844" fill-rule="evenodd" stroke="none"/>
    <path d="M151.5 -65.4 Q149.9 -67.0 147.55 -67.0 L-147.55 -67.0 Q-149.85 -67.0 -151.5 -65.4 L-151.55 -65.35 Q-153.15 -63.7 -153.15 -61.4 L-153.15 61.45 Q-153.15 63.8 -151.55 65.4 -149.9 67.05 -147.55 67.05 L147.55 67.05 Q149.85 67.05 151.45 65.45 L151.55 65.35 Q153.15 63.75 153.15 61.45 L153.15 -61.4 Q153.15 -63.75 151.5 -65.4 M151.8 -65.65 Q153.55 -63.9 153.55 -61.4 L153.55 61.45 Q153.55 63.9 151.8 65.65 L151.75 65.7 Q150.0 67.45 147.55 67.45 L-147.55 67.45 Q-150.05 67.45 -151.8 65.7 -153.55 63.95 -153.55 61.45 L-153.55 -61.4 Q-153.55 -63.9 -151.85 -65.65 L-151.8 -65.7 Q-150.05 -67.4 -147.55 -67.4 L147.55 -67.4 Q150.05 -67.4 151.8 -65.65" fill="#9b4e00" fill-opacity="0.43529412" fill-rule="evenodd" stroke="none"/>
    <path d="M151.2 -65.1 Q149.7 -66.6 147.55 -66.6 L-147.55 -66.6 Q-149.7 -66.6 -151.2 -65.1 L-151.25 -65.05 Q-152.75 -63.55 -152.75 -61.4 L-152.75 61.45 Q-152.75 63.6 -151.25 65.1 -149.7 66.65 -147.55 66.65 L147.55 66.65 Q149.7 66.65 151.2 65.15 L151.25 65.1 Q152.75 63.6 152.75 61.45 L152.75 -61.4 Q152.75 -63.55 151.2 -65.1 M151.5 -65.4 Q153.15 -63.75 153.15 -61.4 L153.15 61.45 Q153.15 63.75 151.55 65.35 L151.45 65.45 Q149.85 67.05 147.55 67.05 L-147.55 67.05 Q-149.9 67.05 -151.55 65.4 -153.15 63.8 -153.15 61.45 L-153.15 -61.4 Q-153.15 -63.7 -151.55 -65.35 L-151.5 -65.4 Q-149.85 -67.0 -147.55 -67.0 L147.55 -67.0 Q149.9 -67.0 151.5 -65.4" fill="#9b4e00" fill-opacity="0.4745098" fill-rule="evenodd" stroke="none"/>
    <path d="M150.95 -64.8 Q149.55 -66.2 147.55 -66.2 L-147.55 -66.2 Q-149.55 -66.2 -150.95 -64.85 L-151.0 -64.8 Q-152.35 -63.4 -152.35 -61.4 L-152.35 61.45 Q-152.35 63.45 -150.95 64.85 -149.55 66.25 -147.55 66.25 L147.55 66.25 Q149.5 66.25 150.9 64.85 L150.95 64.8 Q152.35 63.4 152.35 61.45 L152.35 -61.4 Q152.35 -63.4 150.95 -64.8 M151.2 -65.1 Q152.75 -63.55 152.75 -61.4 L152.75 61.45 Q152.75 63.6 151.25 65.1 L151.2 65.15 Q149.7 66.65 147.55 66.65 L-147.55 66.65 Q-149.7 66.65 -151.25 65.1 -152.75 63.6 -152.75 61.45 L-152.75 -61.4 Q-152.75 -63.55 -151.25 -65.05 L-151.2 -65.1 Q-149.7 -66.6 -147.55 -66.6 L147.55 -66.6 Q149.7 -66.6 151.2 -65.1" fill="#9b4e00" fill-opacity="0.5176471" fill-rule="evenodd" stroke="none"/>
    <path d="M150.65 -64.55 Q149.4 -65.8 147.55 -65.8 L-147.55 -65.8 Q-149.35 -65.8 -150.65 -64.55 L-150.7 -64.5 Q-151.95 -63.2 -151.95 -61.4 L-151.95 61.45 Q-151.95 63.3 -150.7 64.55 -149.4 65.85 -147.55 65.85 L147.55 65.85 Q149.35 65.85 150.6 64.6 L150.7 64.5 Q151.95 63.25 151.95 61.45 L151.95 -61.4 Q151.95 -63.25 150.65 -64.55 M150.95 -64.8 Q152.35 -63.4 152.35 -61.4 L152.35 61.45 Q152.35 63.4 150.95 64.8 L150.9 64.85 Q149.5 66.25 147.55 66.25 L-147.55 66.25 Q-149.55 66.25 -150.95 64.85 -152.35 63.45 -152.35 61.45 L-152.35 -61.4 Q-152.35 -63.4 -151.0 -64.8 L-150.95 -64.85 Q-149.55 -66.2 -147.55 -66.2 L147.55 -66.2 Q149.55 -66.2 150.95 -64.8" fill="#9b4e00" fill-opacity="0.5568628" fill-rule="evenodd" stroke="none"/>
    <path d="M150.35 -64.25 Q149.2 -65.4 147.55 -65.4 L-147.55 -65.4 Q-149.2 -65.4 -150.35 -64.3 L-150.45 -64.2 Q-151.55 -63.05 -151.55 -61.4 L-151.55 61.45 Q-151.55 63.1 -150.4 64.25 -149.2 65.45 -147.55 65.45 L147.55 65.45 Q149.2 65.45 150.35 64.3 L150.4 64.25 Q151.55 63.1 151.55 61.45 L151.55 -61.4 Q151.55 -63.05 150.35 -64.25 M150.65 -64.55 Q151.95 -63.25 151.95 -61.4 L151.95 61.45 Q151.95 63.25 150.7 64.5 L150.6 64.6 Q149.35 65.85 147.55 65.85 L-147.55 65.85 Q-149.4 65.85 -150.7 64.55 -151.95 63.3 -151.95 61.45 L-151.95 -61.4 Q-151.95 -63.2 -150.7 -64.5 L-150.65 -64.55 Q-149.35 -65.8 -147.55 -65.8 L147.55 -65.8 Q149.4 -65.8 150.65 -64.55" fill="#9b4e00" fill-opacity="0.59607846" fill-rule="evenodd" stroke="none"/>
    <path d="M149.8 -63.7 Q150.75 -62.75 150.75 -61.4 L150.75 61.45 Q150.75 62.75 149.85 63.65 L149.75 63.75 Q148.85 64.65 147.55 64.65 L-147.55 64.65 Q-148.9 64.65 -149.85 63.7 -150.75 62.8 -150.75 61.45 L-150.75 -61.4 Q-150.75 -62.7 -149.85 -63.65 L-149.8 -63.7 Q-148.85 -64.6 -147.55 -64.6 L147.55 -64.6 Q148.9 -64.6 149.8 -63.7 M149.5 -63.4 Q148.7 -64.2 147.55 -64.2 L-147.55 -64.2 Q-148.7 -64.2 -149.5 -63.45 L-149.6 -63.35 Q-150.35 -62.55 -150.35 -61.4 L-150.35 61.45 Q-150.35 62.6 -149.55 63.4 -148.7 64.25 -147.55 64.25 L147.55 64.25 Q148.7 64.25 149.5 63.45 L149.55 63.4 Q150.35 62.6 150.35 61.45 L150.35 -61.4 Q150.35 -62.55 149.5 -63.4" fill="#9b4e00" fill-opacity="0.7176471" fill-rule="evenodd" stroke="none"/>
    <path d="M150.1 -63.95 Q151.15 -62.9 151.15 -61.4 L151.15 61.45 Q151.15 62.9 150.15 63.95 L150.05 64.05 Q149.0 65.05 147.55 65.05 L-147.55 65.05 Q-149.05 65.05 -150.1 64.0 -151.15 62.95 -151.15 61.45 L-151.15 -61.4 Q-151.15 -62.85 -150.15 -63.9 L-150.05 -64.0 Q-149.0 -65.0 -147.55 -65.0 L147.55 -65.0 Q149.05 -65.0 150.1 -63.95 M149.8 -63.7 Q148.9 -64.6 147.55 -64.6 L-147.55 -64.6 Q-148.85 -64.6 -149.8 -63.7 L-149.85 -63.65 Q-150.75 -62.7 -150.75 -61.4 L-150.75 61.45 Q-150.75 62.8 -149.85 63.7 -148.9 64.65 -147.55 64.65 L147.55 64.65 Q148.85 64.65 149.75 63.75 L149.85 63.65 Q150.75 62.75 150.75 61.45 L150.75 -61.4 Q150.75 -62.75 149.8 -63.7" fill="#9b4e00" fill-opacity="0.6784314" fill-rule="evenodd" stroke="none"/>
    <path d="M150.35 -64.25 Q151.55 -63.05 151.55 -61.4 L151.55 61.45 Q151.55 63.1 150.4 64.25 L150.35 64.3 Q149.2 65.45 147.55 65.45 L-147.55 65.45 Q-149.2 65.45 -150.4 64.25 -151.55 63.1 -151.55 61.45 L-151.55 -61.4 Q-151.55 -63.05 -150.45 -64.2 L-150.35 -64.3 Q-149.2 -65.4 -147.55 -65.4 L147.55 -65.4 Q149.2 -65.4 150.35 -64.25 M150.1 -63.95 Q149.05 -65.0 147.55 -65.0 L-147.55 -65.0 Q-149.0 -65.0 -150.05 -64.0 L-150.15 -63.9 Q-151.15 -62.85 -151.15 -61.4 L-151.15 61.45 Q-151.15 62.95 -150.1 64.0 -149.05 65.05 -147.55 65.05 L147.55 65.05 Q149.0 65.05 150.05 64.05 L150.15 63.95 Q151.15 62.9 151.15 61.45 L151.15 -61.4 Q151.15 -62.9 150.1 -63.95" fill="#9b4e00" fill-opacity="0.63529414" fill-rule="evenodd" stroke="none"/>
    <path d="M147.95 -61.4 L147.95 61.45 147.9 61.65 147.75 61.8 147.55 61.85 -147.55 61.85 -147.85 61.7 -147.95 61.45 -147.95 -61.4 -147.85 -61.7 -147.55 -61.8 147.55 -61.8 147.8 -61.7 147.95 -61.4" fill="#9b4e00" fill-rule="evenodd" stroke="none"/>
    <path d="M147.55 -71.4 Q151.7 -71.4 154.6 -68.5 157.55 -65.55 157.55 -61.4 L157.55 61.45 Q157.55 65.6 154.6 68.5 151.7 71.45 147.55 71.45 L-147.55 71.45 Q-151.7 71.45 -154.65 68.5 -157.55 65.6 -157.55 61.45 L-157.55 -61.4 Q-157.55 -65.55 -154.65 -68.5 -151.7 -71.4 -147.55 -71.4 L147.55 -71.4 M157.15 -61.4 Q157.15 -65.4 154.35 -68.2 151.55 -71.0 147.55 -71.0 L-147.55 -71.0 Q-151.55 -71.0 -154.35 -68.2 -157.15 -65.4 -157.15 -61.4 L-157.15 61.45 Q-157.15 65.45 -154.35 68.25 -151.55 71.05 -147.55 71.05 L147.55 71.05 Q151.55 71.05 154.35 68.25 157.15 65.45 157.15 61.45 L157.15 -61.4" fill="#9b4e00" fill-opacity="0.03529412" fill-rule="evenodd" stroke="none"/>
    <path d="M156.75 -61.4 Q156.75 -65.2 154.05 -67.9 151.35 -70.6 147.55 -70.6 L-147.55 -70.6 Q-151.35 -70.6 -154.05 -67.95 L-154.1 -67.9 Q-156.75 -65.2 -156.75 -61.4 L-156.75 61.45 Q-156.75 65.25 -154.05 67.95 -151.35 70.65 -147.55 70.65 L147.55 70.65 Q151.35 70.65 154.05 67.95 156.75 65.25 156.75 61.45 L156.75 -61.4 M157.15 -61.4 L157.15 61.45 Q157.15 65.45 154.35 68.25 151.55 71.05 147.55 71.05 L-147.55 71.05 Q-151.55 71.05 -154.35 68.25 -157.15 65.45 -157.15 61.45 L-157.15 -61.4 Q-157.15 -65.4 -154.35 -68.2 -151.55 -71.0 -147.55 -71.0 L147.55 -71.0 Q151.55 -71.0 154.35 -68.2 157.15 -65.4 157.15 -61.4" fill="#9b4e00" fill-opacity="0.07450981" fill-rule="evenodd" stroke="none"/>
    <path d="M156.35 -61.4 Q156.35 -65.05 153.75 -67.65 151.2 -70.2 147.55 -70.2 L-147.55 -70.2 Q-151.2 -70.2 -153.8 -67.65 -156.35 -65.05 -156.35 -61.4 L-156.35 61.45 Q-156.35 65.1 -153.8 67.65 -151.2 70.25 -147.55 70.25 L147.55 70.25 Q151.2 70.25 153.75 67.65 156.35 65.1 156.35 61.45 L156.35 -61.4 M156.75 -61.4 L156.75 61.45 Q156.75 65.25 154.05 67.95 151.35 70.65 147.55 70.65 L-147.55 70.65 Q-151.35 70.65 -154.05 67.95 -156.75 65.25 -156.75 61.45 L-156.75 -61.4 Q-156.75 -65.2 -154.1 -67.9 L-154.05 -67.95 Q-151.35 -70.6 -147.55 -70.6 L147.55 -70.6 Q151.35 -70.6 154.05 -67.9 156.75 -65.2 156.75 -61.4" fill="#9b4e00" fill-opacity="0.11372549" fill-rule="evenodd" stroke="none"/>
    <path d="M155.95 -61.4 Q155.95 -64.9 153.5 -67.35 151.05 -69.8 147.55 -69.8 L-147.55 -69.8 Q-151.05 -69.8 -153.5 -67.35 -155.95 -64.9 -155.95 -61.4 L-155.95 61.45 Q-155.95 64.95 -153.5 67.4 -151.05 69.85 -147.55 69.85 L147.55 69.85 Q151.0 69.85 153.45 67.4 L153.5 67.35 Q155.95 64.9 155.95 61.45 L155.95 -61.4 M156.35 -61.4 L156.35 61.45 Q156.35 65.1 153.75 67.65 151.2 70.25 147.55 70.25 L-147.55 70.25 Q-151.2 70.25 -153.8 67.65 -156.35 65.1 -156.35 61.45 L-156.35 -61.4 Q-156.35 -65.05 -153.8 -67.65 -151.2 -70.2 -147.55 -70.2 L147.55 -70.2 Q151.2 -70.2 153.75 -67.65 156.35 -65.05 156.35 -61.4" fill="#9b4e00" fill-opacity="0.15294118" fill-rule="evenodd" stroke="none"/>
    <path d="M155.55 -61.4 Q155.55 -64.7 153.2 -67.05 150.85 -69.4 147.55 -69.4 L-147.55 -69.4 Q-150.85 -69.4 -153.2 -67.1 L-153.25 -67.05 Q-155.55 -64.7 -155.55 -61.4 L-155.55 61.45 Q-155.55 64.75 -153.2 67.1 -150.85 69.45 -147.55 69.45 L147.55 69.45 Q150.85 69.45 153.2 67.1 155.55 64.75 155.55 61.45 L155.55 -61.4 M155.95 -61.4 L155.95 61.45 Q155.95 64.9 153.5 67.35 L153.45 67.4 Q151.0 69.85 147.55 69.85 L-147.55 69.85 Q-151.05 69.85 -153.5 67.4 -155.95 64.95 -155.95 61.45 L-155.95 -61.4 Q-155.95 -64.9 -153.5 -67.35 -151.05 -69.8 -147.55 -69.8 L147.55 -69.8 Q151.05 -69.8 153.5 -67.35 155.95 -64.9 155.95 -61.4" fill="#9b4e00" fill-opacity="0.19607843" fill-rule="evenodd" stroke="none"/>
    <path d="M155.15 -61.4 Q155.15 -64.55 152.9 -66.8 150.7 -69.0 147.55 -69.0 L-147.55 -69.0 Q-150.7 -69.0 -152.95 -66.8 -155.15 -64.55 -155.15 -61.4 L-155.15 61.45 Q-155.15 64.6 -152.95 66.8 -150.7 69.05 -147.55 69.05 L147.55 69.05 Q150.7 69.05 152.9 66.85 L152.95 66.8 Q155.15 64.6 155.15 61.45 L155.15 -61.4 M155.55 -61.4 L155.55 61.45 Q155.55 64.75 153.2 67.1 150.85 69.45 147.55 69.45 L-147.55 69.45 Q-150.85 69.45 -153.2 67.1 -155.55 64.75 -155.55 61.45 L-155.55 -61.4 Q-155.55 -64.7 -153.25 -67.05 L-153.2 -67.1 Q-150.85 -69.4 -147.55 -69.4 L147.55 -69.4 Q150.85 -69.4 153.2 -67.05 155.55 -64.7 155.55 -61.4" fill="#9b4e00" fill-opacity="0.23529412" fill-rule="evenodd" stroke="none"/>
    <path d="M154.75 -61.4 Q154.75 -64.4 152.65 -66.5 150.55 -68.6 147.55 -68.6 L-147.55 -68.6 Q-150.55 -68.6 -152.65 -66.5 -154.75 -64.4 -154.75 -61.4 L-154.75 61.45 Q-154.75 64.45 -152.65 66.55 -150.55 68.65 -147.55 68.65 L147.55 68.65 Q150.5 68.65 152.6 66.55 L152.65 66.5 Q154.75 64.4 154.75 61.45 L154.75 -61.4 M155.15 -61.4 L155.15 61.45 Q155.15 64.6 152.95 66.8 L152.9 66.85 Q150.7 69.05 147.55 69.05 L-147.55 69.05 Q-150.7 69.05 -152.95 66.8 -155.15 64.6 -155.15 61.45 L-155.15 -61.4 Q-155.15 -64.55 -152.95 -66.8 -150.7 -69.0 -147.55 -69.0 L147.55 -69.0 Q150.7 -69.0 152.9 -66.8 155.15 -64.55 155.15 -61.4" fill="#9b4e00" fill-opacity="0.27450982" fill-rule="evenodd" stroke="none"/>
    <path d="M154.35 -61.4 Q154.35 -64.2 152.35 -66.2 150.35 -68.2 147.55 -68.2 L-147.55 -68.2 Q-150.35 -68.2 -152.35 -66.25 L-152.4 -66.2 Q-154.35 -64.2 -154.35 -61.4 L-154.35 61.45 Q-154.35 64.25 -152.35 66.25 -150.35 68.25 -147.55 68.25 L147.55 68.25 Q150.35 68.25 152.35 66.25 154.35 64.25 154.35 61.45 L154.35 -61.4 M154.75 -61.4 L154.75 61.45 Q154.75 64.4 152.65 66.5 L152.6 66.55 Q150.5 68.65 147.55 68.65 L-147.55 68.65 Q-150.55 68.65 -152.65 66.55 -154.75 64.45 -154.75 61.45 L-154.75 -61.4 Q-154.75 -64.4 -152.65 -66.5 -150.55 -68.6 -147.55 -68.6 L147.55 -68.6 Q150.55 -68.6 152.65 -66.5 154.75 -64.4 154.75 -61.4" fill="#9b4e00" fill-opacity="0.3137255" fill-rule="evenodd" stroke="none"/>
    <path d="M153.95 -61.4 Q153.95 -64.05 152.05 -65.95 150.2 -67.8 147.55 -67.8 L-147.55 -67.8 Q-150.2 -67.8 -152.05 -65.95 L-152.1 -65.9 Q-153.95 -64.05 -153.95 -61.4 L-153.95 61.45 Q-153.95 64.1 -152.1 65.95 -150.2 67.85 -147.55 67.85 L147.55 67.85 Q150.2 67.85 152.05 66.0 L152.1 65.95 Q153.95 64.1 153.95 61.45 L153.95 -61.4 M154.35 -61.4 L154.35 61.45 Q154.35 64.25 152.35 66.25 150.35 68.25 147.55 68.25 L-147.55 68.25 Q-150.35 68.25 -152.35 66.25 -154.35 64.25 -154.35 61.45 L-154.35 -61.4 Q-154.35 -64.2 -152.4 -66.2 L-152.35 -66.25 Q-150.35 -68.2 -147.55 -68.2 L147.55 -68.2 Q150.35 -68.2 152.35 -66.2 154.35 -64.2 154.35 -61.4" fill="#9b4e00" fill-opacity="0.35686275" fill-rule="evenodd" stroke="none"/>
  </g>
</svg>
