<?xml version="1.0" encoding="UTF-8" standalone="no"?>
<svg xmlns:xlink="http://www.w3.org/1999/xlink" height="463.55px" width="563.85px" xmlns="http://www.w3.org/2000/svg">
  <g transform="matrix(1.0, 0.0, 0.0, 1.0, 6.3, 25.25)">
    <path d="M110.8 -4.35 L193.4 -4.35 192.1 405.8 117.45 405.8 110.8 -4.35 M327.0 -4.35 L389.0 -4.35 404.8 405.8 321.75 405.8 327.0 -4.35 M520.3 -4.35 L557.05 -4.35 557.05 405.8 542.7 405.8 520.3 -4.35 M45.15 -4.35 L55.05 405.8 -5.8 405.8 -5.8 -4.35 45.15 -4.35" fill="#764629" fill-rule="evenodd" stroke="none"/>
    <path d="M45.15 -4.35 L110.8 -4.35 117.45 405.8 55.05 405.8 45.15 -4.35 M265.75 405.8 L259.15 -4.35 327.0 -4.35 321.75 405.8 265.75 405.8 M459.75 -4.35 L520.3 -4.35 542.7 405.8 462.45 405.8 459.75 -4.35" fill="#834e2e" fill-rule="evenodd" stroke="none"/>
    <path d="M193.4 -4.35 L259.15 -4.35 265.75 405.8 192.1 405.8 193.4 -4.35 M389.0 -4.35 L459.75 -4.35 462.45 405.8 404.8 405.8 389.0 -4.35" fill="#6c4126" fill-rule="evenodd" stroke="none"/>
    <path d="M45.1 -5.8 L45.15 -4.35 110.8 -4.35 193.4 -4.35 259.15 -4.35 327.0 -4.35 389.0 -4.35 459.75 -4.35 520.3 -4.35 557.05 -4.35 557.05 405.8 542.7 405.8 462.45 405.8 404.8 405.8 321.75 405.8 265.75 405.8 192.1 405.8 117.45 405.8 55.05 405.8 55.3 415.95 M45.15 -4.35 L-5.8 -4.35 -5.8 405.8 55.05 405.8" fill="none" stroke="#764629" stroke-linecap="round" stroke-linejoin="round" stroke-width="1.0"/>
    <path d="M110.8 -4.35 L110.55 -18.9 M193.45 -18.9 L193.4 -4.35 M259.15 -4.35 L258.9 -18.9 M327.0 -4.35 L327.25 -23.25 M389.0 -4.35 L388.35 -20.35 M459.75 -4.35 L459.6 -24.75 M520.3 -4.35 L519.25 -23.25 M542.7 405.8 L543.95 429.05 M321.75 405.8 L321.45 429.05 M265.75 405.8 L266.2 436.3 M192.1 405.8 L192.0 437.8 M117.45 405.8 L117.85 431.95 M462.45 405.8 L462.55 424.7 M404.8 405.8 L405.8 431.95" fill="none" stroke="#5e3720" stroke-linecap="round" stroke-linejoin="round" stroke-width="1.0"/>
    <path d="M193.4 -4.35 L192.1 405.8 M265.75 405.8 L259.15 -4.35 M459.75 -4.35 L462.45 405.8 M542.7 405.8 L520.3 -4.35 M55.05 405.8 L45.15 -4.35 M321.75 405.8 L327.0 -4.35 M110.8 -4.35 L117.45 405.8 M404.8 405.8 L389.0 -4.35" fill="none" stroke="#5e3720" stroke-linecap="round" stroke-linejoin="round" stroke-width="0.5"/>
  </g>
</svg>
