<?xml version="1.0" encoding="UTF-8" standalone="no"?>
<svg xmlns:xlink="http://www.w3.org/1999/xlink" height="143.5px" width="113.55px" xmlns="http://www.w3.org/2000/svg">
  <g transform="matrix(1.0, 0.0, 0.0, 1.0, 55.2, 58.35)">
    <path d="M-17.05 -55.35 Q-9.05 -57.85 0.0 -57.85 23.5 -57.85 40.1 -40.9 56.7 -23.95 56.7 0.0 56.7 23.95 40.1 40.9 L39.35 41.65 38.3 42.7 Q22.2 51.45 0.0 51.45 L-3.7 51.4 -4.5 50.45 Q-7.35 46.8 -9.45 42.7 L-10.35 39.55 -14.45 23.15 -17.7 8.35 Q-19.25 1.1 -19.85 -6.4 -20.45 -14.15 -20.35 -22.0 -20.2 -31.0 -19.05 -39.85 L-17.05 -55.35 -19.05 -39.85 Q-20.2 -31.0 -20.35 -22.0 -20.45 -14.15 -19.85 -6.4 -19.25 1.1 -17.7 8.35 L-14.45 23.15 -10.35 39.55 -9.45 42.7 Q-7.35 46.8 -4.5 50.45 L-3.7 51.4 -13.5 50.6 Q-27.3 48.65 -38.25 42.7 L-38.45 42.5 -47.3 30.3 Q-55.35 18.85 -54.7 -7.45 -54.05 -33.75 -43.05 -41.4 -32.1 -49.05 -22.5 -53.3 -19.85 -54.5 -17.05 -55.35 M-22.5 -53.3 L-24.15 -35.8 Q-24.85 -27.3 -25.05 -18.8 -25.25 -10.3 -25.05 -1.8 -24.85 6.25 -24.05 14.2 -23.2 22.4 -20.95 30.3 -19.2 36.45 -17.6 42.7 L-16.65 44.9 Q-15.35 47.95 -13.5 50.6 -15.35 47.95 -16.65 44.9 L-17.6 42.7 Q-19.2 36.45 -20.95 30.3 -23.2 22.4 -24.05 14.2 -24.85 6.25 -25.05 -1.8 -25.25 -10.3 -25.05 -18.8 -24.85 -27.3 -24.15 -35.8 L-22.5 -53.3" fill="#ffffff" fill-rule="evenodd" stroke="none"/>
    <path d="M43.15 45.5 Q46.1 49.2 48.5 54.55 51.8 61.95 56.05 68.75 60.0 75.0 55.4 77.85 48.35 82.25 39.45 81.65 31.1 81.05 22.9 82.0 L5.6 83.7 -11.9 84.65 Q-20.2 84.9 -28.45 84.5 -37.0 84.1 -44.15 80.1 -47.55 78.25 -47.65 74.85 -47.95 66.05 -45.15 57.8 -43.25 52.4 -40.8 47.25 -28.4 53.7 -15.0 55.65 L-1.55 56.5 Q19.6 56.15 43.15 45.5" fill="#333333" fill-rule="evenodd" stroke="none"/>
    <path d="M39.35 41.65 Q41.35 43.25 43.15 45.5 19.6 56.15 -1.55 56.5 -1.15 54.05 -3.7 51.4 L0.0 51.45 Q22.2 51.45 38.3 42.7 L39.35 41.65 M-40.8 47.25 L-38.5 42.6 -38.25 42.7 Q-27.3 48.65 -13.5 50.6 -16.25 53.6 -15.0 55.65 -28.4 53.7 -40.8 47.25" fill="#996633" fill-rule="evenodd" stroke="none"/>
    <path d="M-15.0 55.65 Q-16.25 53.6 -13.5 50.6 L-3.7 51.4 Q-1.15 54.05 -1.55 56.5 L-15.0 55.65" fill="#cc9933" fill-rule="evenodd" stroke="none"/>
    <path d="M-22.5 -53.3 Q-19.85 -54.5 -17.05 -55.35" fill="none" stroke="#cc6633" stroke-linecap="round" stroke-linejoin="round" stroke-width="1.0"/>
    <path d="M-17.05 -55.35 Q-9.05 -57.85 0.0 -57.85 23.5 -57.85 40.1 -40.9 56.7 -23.95 56.7 0.0 56.7 23.95 40.1 40.9 L39.35 41.65 38.3 42.7 Q22.2 51.45 0.0 51.45 L-3.7 51.4 -13.5 50.6 Q-27.3 48.65 -38.25 42.7 L-38.45 42.5 -47.3 30.3 Q-55.35 18.85 -54.7 -7.45 -54.05 -33.75 -43.05 -41.4 -32.1 -49.05 -22.5 -53.3 L-24.15 -35.8 Q-24.85 -27.3 -25.05 -18.8 -25.25 -10.3 -25.05 -1.8 -24.85 6.25 -24.05 14.2 -23.2 22.4 -20.95 30.3 -19.2 36.45 -17.6 42.7 L-16.65 44.9 Q-15.35 47.95 -13.5 50.6 M-38.5 42.6 L-38.45 42.5 M-17.05 -55.35 L-19.05 -39.85 Q-20.2 -31.0 -20.35 -22.0 -20.45 -14.15 -19.85 -6.4 -19.25 1.1 -17.7 8.35 L-14.45 23.15 -10.35 39.55 -9.45 42.7 Q-7.35 46.8 -4.5 50.45 L-3.7 51.4" fill="none" stroke="#333333" stroke-linecap="round" stroke-linejoin="round" stroke-width="1.0"/>
    <path d="M39.35 41.65 Q41.35 43.25 43.15 45.5 46.1 49.2 48.5 54.55 51.8 61.95 56.05 68.75 60.0 75.0 55.4 77.85 48.35 82.25 39.45 81.65 31.1 81.05 22.9 82.0 L5.6 83.7 -11.9 84.65 Q-20.2 84.9 -28.45 84.5 -37.0 84.1 -44.15 80.1 -47.55 78.25 -47.65 74.85 -47.95 66.05 -45.15 57.8 -43.25 52.4 -40.8 47.25 L-38.5 42.6" fill="none" stroke="#000000" stroke-linecap="round" stroke-linejoin="round" stroke-width="1.0"/>
  </g>
</svg>
