<?xml version="1.0" encoding="UTF-8" standalone="no"?>
<svg xmlns:xlink="http://www.w3.org/1999/xlink" height="17.55px" width="26.1px" xmlns="http://www.w3.org/2000/svg">
  <g transform="matrix(1.0, 0.0, 0.0, 1.0, 13.1, 8.65)">
    <path d="M-9.5 -4.35 L-1.1 -4.75 Q4.9 -5.2 9.55 -8.05 11.95 -9.5 12.5 -5.6 13.45 1.0 8.45 4.6 6.65 5.9 4.5 6.6 1.0 8.15 -3.2 8.4 L-5.8 8.3 Q-9.1 7.5 -7.9 1.45 -12.6 0.5 -9.5 -4.35 M-2.95 1.65 L-5.15 1.65 -7.9 1.45 -5.15 1.65 -2.95 1.65" fill="#ffffff" fill-rule="evenodd" stroke="none"/>
    <path d="M-9.5 -4.35 L-1.1 -4.75 Q4.9 -5.2 9.55 -8.05 11.95 -9.5 12.5 -5.6 13.45 1.0 8.45 4.6 6.65 5.9 4.5 6.6 1.0 8.15 -3.2 8.4 L-5.8 8.3 Q-11.0 8.75 -12.5 6.9 M-9.5 -4.35 L-12.6 -4.3 M-5.8 8.3 Q-9.1 7.5 -7.9 1.45 -12.6 0.5 -9.5 -4.35 M-7.9 1.45 L-5.15 1.65 -2.95 1.65" fill="none" stroke="#cc6633" stroke-linecap="round" stroke-linejoin="round" stroke-width="1.0"/>
  </g>
</svg>
