<?xml version="1.0" encoding="UTF-8" standalone="no"?>
<svg xmlns:xlink="http://www.w3.org/1999/xlink" height="24.3px" width="26.1px" xmlns="http://www.w3.org/2000/svg">
  <g transform="matrix(1.0, 0.0, 0.0, 1.0, 13.1, 11.15)">
    <path d="M-9.5 -5.15 L-1.1 -5.7 Q4.9 -6.35 9.55 -10.3 11.65 -12.1 12.35 -8.2 7.1 -1.95 -2.1 -0.2 L-5.15 0.0 -5.5 0.0 -7.9 -0.2 Q-10.2 -0.6 -10.6 -1.75 -11.1 -3.0 -9.5 -5.15" fill="#ffffff" fill-rule="evenodd" stroke="none"/>
    <path d="M12.35 -8.2 L12.5 -6.9 Q13.45 2.3 8.45 7.35 6.65 9.15 4.5 10.15 1.0 12.3 -3.2 12.65 L-5.8 12.55 Q-3.05 11.25 -5.5 0.0 L-5.15 0.0 -2.1 -0.2 Q7.1 -1.95 12.35 -8.2" fill="#993300" fill-rule="evenodd" stroke="none"/>
    <path d="M-9.5 -5.15 L-1.1 -5.7 Q4.9 -6.35 9.55 -10.3 11.65 -12.1 12.35 -8.2 L12.5 -6.9 Q13.45 2.3 8.45 7.35 6.65 9.15 4.5 10.15 1.0 12.3 -3.2 12.65 L-5.8 12.55 Q-9.75 12.35 -10.6 10.1 M-5.5 0.0 L-7.9 -0.2 Q-10.2 -0.6 -10.6 -1.75 -11.1 -3.0 -9.5 -5.15 L-12.6 -5.05 M-5.5 0.0 Q-3.05 11.25 -5.8 12.55" fill="none" stroke="#cc6633" stroke-linecap="round" stroke-linejoin="round" stroke-width="1.0"/>
  </g>
</svg>
