<?xml version="1.0" encoding="UTF-8" standalone="no"?>
<svg xmlns:xlink="http://www.w3.org/1999/xlink" height="20.35px" width="54.05px" xmlns="http://www.w3.org/2000/svg">
  <g transform="matrix(1.0, 0.0, 0.0, 1.0, 27.05, 10.2)">
    <path d="M24.8 -6.45 Q27.0 -3.6 27.0 0.45 27.0 4.45 24.8 7.3 22.65 10.15 19.6 10.15 16.55 10.15 14.4 7.3 12.25 4.45 12.25 0.45 12.25 -3.6 14.4 -6.45 16.55 -9.3 19.6 -9.3 22.65 -9.3 24.8 -6.45 M-24.9 -7.35 Q-22.75 -10.2 -19.7 -10.2 -16.65 -10.2 -14.5 -7.35 -12.3 -4.5 -12.3 -0.45 -12.3 3.55 -14.5 6.4 -15.7 8.0 -17.2 8.7 L-18.65 8.7 -19.15 9.25 -19.7 9.25 Q-22.75 9.25 -24.9 6.4 -27.05 3.55 -27.05 -0.45 -27.05 -4.5 -24.9 -7.35" fill="#ffffff" fill-rule="evenodd" stroke="none"/>
  </g>
</svg>
