<?xml version="1.0" encoding="UTF-8" standalone="no"?>
<svg xmlns:xlink="http://www.w3.org/1999/xlink" height="12.7px" width="9.2px" xmlns="http://www.w3.org/2000/svg">
  <g transform="matrix(1.0, 0.0, 0.0, 1.0, 4.6, 6.35)">
    <path d="M2.9 -4.15 Q4.1 -2.4 4.1 0.0 4.1 2.4 2.9 4.1 1.7 5.85 0.0 5.85 -1.7 5.85 -2.9 4.1 -4.1 2.4 -4.1 0.0 -4.1 -2.4 -2.9 -4.15 -1.7 -5.85 0.0 -5.85 1.7 -5.85 2.9 -4.15" fill="#663300" fill-rule="evenodd" stroke="none"/>
    <path d="M2.9 -4.15 Q4.1 -2.4 4.1 0.0 4.1 2.4 2.9 4.1 1.7 5.85 0.0 5.85 -1.7 5.85 -2.9 4.1 -4.1 2.4 -4.1 0.0 -4.1 -2.4 -2.9 -4.15 -1.7 -5.85 0.0 -5.85 1.7 -5.85 2.9 -4.15 Z" fill="none" stroke="#cc6633" stroke-linecap="round" stroke-linejoin="round" stroke-width="1.0"/>
    <path d="M1.15 -0.8 Q1.6 -0.05 1.6 1.05 1.6 2.15 1.15 2.9 0.7 3.65 0.1 3.65 -0.5 3.65 -0.95 2.9 -1.4 2.15 -1.4 1.05 -1.4 -0.05 -0.95 -0.8 -0.5 -1.55 0.1 -1.55 0.7 -1.55 1.15 -0.8" fill="#eac39c" fill-rule="evenodd" stroke="none"/>
    <path d="M-1.65 -2.2 L-1.3 -1.9 Q-1.15 -1.6 -1.15 -1.15 -1.15 -0.7 -1.3 -0.4 L-1.65 -0.1 -2.0 -0.4 -2.15 -1.15 -2.0 -1.9 -1.65 -2.2" fill="#eac39c" fill-rule="evenodd" stroke="none"/>
  </g>
</svg>
