<?xml version="1.0" encoding="UTF-8" standalone="no"?>
<svg xmlns:xlink="http://www.w3.org/1999/xlink" height="10.4px" width="54.05px" xmlns="http://www.w3.org/2000/svg">
  <g transform="matrix(1.0, 0.0, 0.0, 1.0, 27.05, 0.25)">
    <path d="M24.8 7.3 Q22.65 10.15 19.6 10.15 16.55 10.15 14.4 7.3 12.25 4.45 12.25 0.45 L12.25 -0.1 21.3 0.4 26.95 -0.25 27.0 0.45 Q27.0 4.45 24.8 7.3 M-18.1 0.65 L-12.3 -0.05 Q-12.45 3.7 -14.5 6.4 -15.7 8.0 -17.2 8.7 L-18.65 8.7 -19.15 9.25 -19.7 9.25 Q-22.75 9.25 -24.9 6.4 -26.85 3.85 -27.05 0.35 L-18.1 0.65" fill="#ffffff" fill-rule="evenodd" stroke="none"/>
  </g>
</svg>
