<?xml version="1.0" encoding="UTF-8" standalone="no"?>
<svg xmlns:xlink="http://www.w3.org/1999/xlink" height="99.55px" width="125.2px" xmlns="http://www.w3.org/2000/svg">
  <g transform="matrix(1.0, 0.0, 0.0, 1.0, 62.7, 49.8)">
    <path d="M-21.1 7.75 L-19.4 7.25 Q-14.55 6.0 -6.3 6.05 L7.1 2.8 17.3 0.65 Q15.3 -7.55 12.35 -15.25 9.2 -23.45 7.25 -31.3 6.4 -34.55 6.7 -38.3 L33.3 -49.3 41.25 -35.8 Q44.95 -29.25 49.0 -22.9 53.65 -15.5 58.45 -8.25 63.95 0.0 61.7 7.15 60.65 10.6 57.95 13.45 52.4 19.2 45.25 22.8 L31.0 30.1 Q23.3 34.2 15.15 36.65 9.8 38.3 4.55 40.1 3.4 46.5 -2.65 47.8 -11.2 49.6 -20.0 49.25 -22.7 49.15 -23.55 47.3 L-23.8 46.7 Q-27.2 39.15 -26.95 30.55 -26.7 21.85 -25.1 13.75 L-24.8 12.55 Q-23.75 8.95 -21.1 7.75 M44.35 -0.65 Q43.05 -1.45 41.6 -1.6 32.95 -2.4 24.15 -0.75 L17.3 0.65 Q23.1 -6.75 31.95 -6.15 23.1 -6.75 17.3 0.65 L24.15 -0.75 Q32.95 -2.4 41.6 -1.6 43.05 -1.45 44.35 -0.65 M54.9 12.2 Q58.2 9.8 59.15 6.15 43.05 11.1 26.55 20.75 17.65 25.9 7.55 28.25 6.7 32.95 8.4 36.5 18.45 31.7 27.95 27.75 37.45 23.75 43.8 19.7 L54.9 12.2 M-6.3 6.05 Q-0.7 10.9 2.1 19.4 4.85 27.95 4.8 37.0 L4.55 40.1 4.8 37.0 Q4.85 27.95 2.1 19.4 -0.7 10.9 -6.3 6.05 M-2.15 43.15 Q1.05 40.05 1.35 34.3 -7.8 39.1 -19.05 39.55 L-24.7 39.35 Q-22.85 44.3 -17.65 46.1 -8.5 49.25 -2.15 43.15" fill="#ffffff" fill-rule="evenodd" stroke="none"/>
    <path d="M-23.8 46.7 Q-31.2 48.3 -38.75 45.65 -41.15 44.8 -43.0 43.55 -46.9 45.45 -52.05 45.2 -54.0 45.05 -54.8 43.75 -59.1 36.8 -48.3 34.4 L-59.75 32.85 Q-64.0 32.0 -61.25 27.95 -58.25 23.5 -52.95 23.5 -55.85 21.85 -56.95 17.55 -58.0 13.55 -54.85 12.45 -48.0 10.05 -41.2 15.2 -42.65 13.65 -40.4 10.9 -34.65 3.75 -28.15 12.1 L-24.8 12.55 -25.1 13.75 Q-26.7 21.85 -26.95 30.55 -27.2 39.15 -23.8 46.7 M-28.15 12.1 Q-34.8 11.7 -40.95 15.05 L-41.2 15.2 -40.95 15.05 Q-34.8 11.7 -28.15 12.1 M-47.5 24.45 Q-50.75 24.75 -52.95 23.5 -50.75 24.75 -47.5 24.45" fill="#f7ba7d" fill-rule="evenodd" stroke="none"/>
    <path d="M54.9 12.2 L43.8 19.7 Q37.45 23.75 27.95 27.75 18.45 31.7 8.4 36.5 6.7 32.95 7.55 28.25 17.65 25.9 26.55 20.75 43.05 11.1 59.15 6.15 58.2 9.8 54.9 12.2 M-2.15 43.15 Q-8.5 49.25 -17.65 46.1 -22.85 44.3 -24.7 39.35 L-19.05 39.55 Q-7.8 39.1 1.35 34.3 1.05 40.05 -2.15 43.15" fill="#dbdbdb" fill-rule="evenodd" stroke="none"/>
    <path d="M-21.1 7.75 L-19.4 7.25 Q-14.55 6.0 -6.3 6.05 L7.1 2.8 17.3 0.65 Q15.3 -7.55 12.35 -15.25 9.2 -23.45 7.25 -31.3 6.4 -34.55 6.7 -38.3 M33.3 -49.3 L41.25 -35.8 Q44.95 -29.25 49.0 -22.9 53.65 -15.5 58.45 -8.25 63.95 0.0 61.7 7.15 60.65 10.6 57.95 13.45 52.4 19.2 45.25 22.8 L31.0 30.1 Q23.3 34.2 15.15 36.65 9.8 38.3 4.55 40.1 3.4 46.5 -2.65 47.8 -11.2 49.6 -20.0 49.25 -22.7 49.15 -23.55 47.3 L-23.8 46.7 Q-27.2 39.15 -26.95 30.55 -26.7 21.85 -25.1 13.75 L-24.8 12.55 Q-23.75 8.95 -21.1 7.75 L-23.15 8.55 M31.95 -6.15 Q23.1 -6.75 17.3 0.65 L24.15 -0.75 Q32.95 -2.4 41.6 -1.6 43.05 -1.45 44.35 -0.65 M4.55 40.1 L4.8 37.0 Q4.85 27.95 2.1 19.4 -0.7 10.9 -6.3 6.05" fill="none" stroke="#000000" stroke-linecap="round" stroke-linejoin="round" stroke-width="1.0"/>
    <path d="M-23.8 46.7 Q-31.2 48.3 -38.75 45.65 -41.15 44.8 -43.0 43.55 -46.9 45.45 -52.05 45.2 -54.0 45.05 -54.8 43.75 -59.1 36.8 -48.3 34.4 L-59.75 32.85 Q-64.0 32.0 -61.25 27.95 -58.25 23.5 -52.95 23.5 -55.85 21.85 -56.95 17.55 -58.0 13.55 -54.85 12.45 -48.0 10.05 -41.2 15.2 -42.65 13.65 -40.4 10.9 -34.65 3.75 -28.15 12.1 L-24.8 12.55 M-52.95 23.5 Q-50.75 24.75 -47.5 24.45 M-41.2 15.2 L-40.95 15.05 Q-34.8 11.7 -28.15 12.1" fill="none" stroke="#cc6633" stroke-linecap="round" stroke-linejoin="round" stroke-width="1.0"/>
  </g>
</svg>
