<?xml version="1.0" encoding="UTF-8" standalone="no"?>
<svg xmlns:xlink="http://www.w3.org/1999/xlink" height="30.8px" width="121.9px" xmlns="http://www.w3.org/2000/svg">
  <g transform="matrix(1.0, 0.0, 0.0, 1.0, 58.95, 17.55)">
    <path d="M8.15 -10.1 L4.3 -10.1 4.3 -13.25 17.25 -13.25 17.25 -10.1 12.2 -10.1 Q11.6 -7.2 10.85 -5.25 L16.3 -5.25 16.3 8.75 Q18.35 4.55 18.35 -2.0 L18.35 -11.2 23.2 -11.2 22.45 -14.1 22.35 -14.7 26.95 -15.3 27.55 -11.2 32.4 -11.2 32.4 -7.8 22.1 -7.8 22.1 -1.3 Q22.25 7.7 18.1 12.9 16.4 11.45 14.45 10.7 L15.9 9.25 12.65 9.25 12.65 7.45 10.1 7.45 10.1 10.0 6.85 10.0 6.85 2.0 5.75 3.2 Q4.9 1.4 3.7 -0.3 7.45 -5.05 8.15 -10.1 M10.1 -2.1 L10.1 4.4 12.65 4.4 12.65 -2.1 10.1 -2.1 M37.65 -12.65 L60.9 -12.65 60.9 -8.9 51.35 -8.9 51.35 6.1 62.95 6.1 62.95 9.75 35.7 9.75 35.7 6.1 46.95 6.1 46.95 -8.9 37.65 -8.9 37.65 -12.65 M-45.7 -13.5 L-45.7 -13.15 -41.8 -13.15 -41.8 -15.3 -40.1 -15.3 -37.45 -14.95 -37.55 -14.5 -37.7 -13.85 -37.7 -13.15 -32.35 -13.15 -32.35 -10.1 -37.7 -10.1 -37.7 -8.65 -29.8 -8.65 -29.8 -5.5 -42.05 -5.5 -42.05 -4.2 -33.8 -4.2 -33.8 6.85 -38.15 6.85 -31.65 10.0 -34.4 13.25 Q-37.8 10.7 -42.8 8.75 L-40.6 6.85 -47.75 6.85 -45.2 8.9 Q-48.7 10.6 -54.4 12.75 L-57.1 9.75 Q-52.7 9.0 -49.8 6.85 L-53.8 6.85 -53.8 -4.2 -45.95 -4.2 -45.95 -5.5 -57.45 -5.5 -57.45 -8.65 -49.7 -8.65 -49.7 -10.1 -55.5 -10.1 -55.5 -13.15 -49.7 -13.15 -49.7 -15.3 -48.0 -15.3 -45.55 -14.95 -45.7 -14.35 -45.7 -13.5 M-41.8 -10.1 L-45.7 -10.1 -45.7 -8.65 -41.8 -8.65 -41.8 -10.1 M-49.8 -1.3 L-49.8 -0.05 -45.95 -0.05 -45.95 -1.3 -49.8 -1.3 M-42.05 -0.05 L-37.95 -0.05 -37.95 -1.3 -42.05 -1.3 -42.05 -0.05 M-24.45 -1.3 L-27.25 -4.55 Q-17.2 -8.05 -15.0 -15.55 L-10.25 -14.6 Q-9.9 -14.5 -10.65 -13.5 -7.25 -7.55 1.7 -6.25 L-0.45 -2.0 Q-3.0 -2.75 -5.45 -4.2 L-5.45 -2.5 -10.75 -2.5 -10.75 0.05 -2.05 0.05 -2.05 3.3 -5.8 3.3 -2.4 4.9 Q-4.2 7.1 -5.2 8.75 L-0.6 8.75 -0.6 11.9 -24.95 11.9 -24.95 8.75 -20.2 8.75 -20.35 8.65 -22.25 4.65 -19.5 3.3 -23.6 3.3 -23.6 0.05 -14.9 0.05 -14.9 -2.5 -20.35 -2.5 -20.35 -3.7 Q-22.4 -2.35 -24.45 -1.3 M-7.75 -5.65 Q-10.9 -7.45 -12.8 -10.6 -14.25 -7.95 -17.55 -5.65 L-7.75 -5.65 M-6.9 3.3 L-10.75 3.3 -10.75 8.75 -9.45 8.75 Q-8.45 7.3 -7.15 3.95 L-6.9 3.3 M-18.25 3.3 L-16.2 8.05 -18.15 8.75 -14.9 8.75 -14.9 3.3 -18.25 3.3 M-37.95 2.6 L-42.05 2.6 -42.05 3.95 -37.95 3.95 -37.95 2.6 M-45.95 2.6 L-49.8 2.6 -49.8 3.95 -45.95 3.95 -45.95 2.6" fill="#4a3900" fill-rule="evenodd" stroke="none"/>
    <path d="M7.15 -11.1 L3.3 -11.1 3.3 -14.25 16.25 -14.25 16.25 -11.1 11.2 -11.1 Q10.6 -8.2 9.85 -6.25 L15.3 -6.25 15.3 7.75 Q17.35 3.55 17.35 -3.0 L17.35 -12.2 22.2 -12.2 21.45 -15.1 21.35 -15.7 25.95 -16.3 26.55 -12.2 31.4 -12.2 31.4 -8.8 21.1 -8.8 21.1 -2.3 Q21.25 6.7 17.1 11.9 15.4 10.45 13.45 9.7 L14.9 8.25 11.65 8.25 11.65 6.45 9.1 6.45 9.1 9.0 5.85 9.0 5.85 1.0 4.75 2.2 2.7 -1.3 Q6.45 -6.05 7.15 -11.1 M9.1 -3.1 L9.1 3.4 11.65 3.4 11.65 -3.1 9.1 -3.1 M36.65 -13.65 L59.9 -13.65 59.9 -9.9 50.35 -9.9 50.35 5.1 61.95 5.1 61.95 8.75 34.7 8.75 34.7 5.1 45.95 5.1 45.95 -9.9 36.65 -9.9 36.65 -13.65 M-41.1 -16.3 Q-38.45 -16.3 -38.45 -15.95 L-38.55 -15.5 -38.7 -14.85 -38.7 -14.15 -33.35 -14.15 -33.35 -11.1 -38.7 -11.1 -38.7 -9.65 -30.8 -9.65 -30.8 -6.5 -43.05 -6.5 -43.05 -5.2 -34.8 -5.2 -34.8 5.85 -39.15 5.85 -32.65 9.0 -35.4 12.25 Q-38.8 9.7 -43.8 7.75 L-41.6 5.85 -48.75 5.85 -46.2 7.9 Q-49.7 9.6 -55.4 11.75 L-58.1 8.75 Q-53.7 8.0 -50.8 5.85 L-54.8 5.85 -54.8 -5.2 -46.95 -5.2 -46.95 -6.5 -58.45 -6.5 -58.45 -9.65 -50.7 -9.65 -50.7 -11.1 -56.5 -11.1 -56.5 -14.15 -50.7 -14.15 -50.7 -16.3 -49.0 -16.3 -46.55 -15.95 -46.7 -15.35 -46.7 -14.5 -46.7 -14.15 -42.8 -14.15 -42.8 -16.3 -41.1 -16.3 M-50.8 -1.05 L-46.95 -1.05 -46.95 -2.3 -50.8 -2.3 -50.8 -1.05 M-43.05 -1.05 L-38.95 -1.05 -38.95 -2.3 -43.05 -2.3 -43.05 -1.05 M-46.7 -9.65 L-42.8 -9.65 -42.8 -11.1 -46.7 -11.1 -46.7 -9.65 M-21.35 -4.7 Q-23.4 -3.35 -25.45 -2.3 L-28.25 -5.55 Q-18.2 -9.05 -16.0 -16.55 L-11.25 -15.6 Q-10.9 -15.5 -11.65 -14.5 -8.25 -8.55 0.7 -7.25 L-1.45 -3.0 Q-4.0 -3.75 -6.45 -5.2 L-6.45 -3.5 -11.75 -3.5 -11.75 -0.95 -3.05 -0.95 -3.05 2.3 -6.8 2.3 -3.4 3.9 -6.2 7.75 -1.6 7.75 -1.6 10.9 -25.95 10.9 -25.95 7.75 -21.2 7.75 -21.35 7.65 -23.25 3.65 -20.5 2.3 -24.6 2.3 -24.6 -0.95 -15.9 -0.95 -15.9 -3.5 -21.35 -3.5 -21.35 -4.7 M-18.55 -6.65 L-8.75 -6.65 Q-11.9 -8.45 -13.8 -11.6 -15.25 -8.95 -18.55 -6.65 M-7.9 2.3 L-11.75 2.3 -11.75 7.75 -10.45 7.75 Q-9.45 6.3 -8.15 2.95 L-7.9 2.3 M-17.2 7.05 L-19.15 7.75 -15.9 7.75 -15.9 2.3 -19.25 2.3 -17.2 7.05 M-38.95 1.6 L-43.05 1.6 -43.05 2.95 -38.95 2.95 -38.95 1.6 M-46.95 1.6 L-50.8 1.6 -50.8 2.95 -46.95 2.95 -46.95 1.6" fill="#8a6c00" fill-rule="evenodd" stroke="none"/>
    <path d="M2.8 -12.1 L2.8 -15.25 15.75 -15.25 15.75 -12.1 10.7 -12.1 Q10.1 -9.2 9.35 -7.25 L14.8 -7.25 14.8 6.75 Q16.85 2.55 16.85 -4.0 L16.85 -13.2 21.7 -13.2 20.95 -16.1 20.85 -16.7 25.45 -17.3 26.05 -13.2 30.9 -13.2 30.9 -9.8 20.6 -9.8 20.6 -3.3 Q20.75 5.7 16.6 10.9 14.9 9.45 12.95 8.7 L14.4 7.25 11.15 7.25 11.15 5.45 8.6 5.45 8.6 8.0 5.35 8.0 5.35 0.0 4.25 1.2 2.2 -2.3 Q5.95 -7.05 6.65 -12.1 L2.8 -12.1 M8.6 -4.1 L8.6 2.4 11.15 2.4 11.15 -4.1 8.6 -4.1 M36.15 -14.65 L59.4 -14.65 59.4 -10.9 49.85 -10.9 49.85 4.1 61.45 4.1 61.45 7.75 34.2 7.75 34.2 4.1 45.45 4.1 45.45 -10.9 36.15 -10.9 36.15 -14.65 M-41.6 -17.3 L-38.95 -16.95 -39.05 -16.5 -39.2 -15.85 -39.2 -15.15 -33.85 -15.15 -33.85 -12.1 -39.2 -12.1 -39.2 -10.65 -31.3 -10.65 -31.3 -7.5 -43.55 -7.5 -43.55 -6.2 -35.3 -6.2 -35.3 4.85 -39.65 4.85 -33.15 8.0 -35.9 11.25 Q-39.3 8.7 -44.3 6.75 L-42.1 4.85 -49.25 4.85 -46.7 6.9 Q-50.2 8.6 -55.9 10.75 L-58.6 7.75 Q-54.2 7.0 -51.3 4.85 L-55.3 4.85 -55.3 -6.2 -47.45 -6.2 -47.45 -7.5 -58.95 -7.5 -58.95 -10.65 -51.2 -10.65 -51.2 -12.1 -57.0 -12.1 -57.0 -15.15 -51.2 -15.15 -51.2 -17.3 -49.5 -17.3 -47.05 -16.95 -47.2 -16.35 -47.2 -15.5 -47.2 -15.15 -43.3 -15.15 -43.3 -17.3 -41.6 -17.3 M-51.3 -2.05 L-47.45 -2.05 -47.45 -3.3 -51.3 -3.3 -51.3 -2.05 M-43.55 -2.05 L-39.45 -2.05 -39.45 -3.3 -43.55 -3.3 -43.55 -2.05 M-47.2 -12.1 L-47.2 -10.65 -43.3 -10.65 -43.3 -12.1 -47.2 -12.1 M-21.85 -5.7 L-25.95 -3.3 -28.75 -6.55 Q-18.7 -10.05 -16.5 -17.55 L-11.75 -16.6 Q-11.4 -16.5 -12.15 -15.5 -8.75 -9.55 0.2 -8.25 L-1.95 -4.0 Q-4.5 -4.75 -6.95 -6.2 L-6.95 -4.5 -12.25 -4.5 -12.25 -1.95 -3.55 -1.95 -3.55 1.3 -7.3 1.3 -3.9 2.9 Q-5.7 5.1 -6.7 6.75 L-2.1 6.75 -2.1 9.9 -26.45 9.9 -26.45 6.75 -21.7 6.75 -21.85 6.65 -23.75 2.65 -21.0 1.3 -25.1 1.3 -25.1 -1.95 -16.4 -1.95 -16.4 -4.5 -21.85 -4.5 -21.85 -5.7 M-19.05 -7.65 L-9.25 -7.65 Q-12.4 -9.45 -14.3 -12.6 -15.75 -9.95 -19.05 -7.65 M-8.4 1.3 L-12.25 1.3 -12.25 6.75 -10.95 6.75 Q-9.95 5.3 -8.65 1.95 L-8.4 1.3 M-17.7 6.05 L-19.65 6.75 -16.4 6.75 -16.4 1.3 -19.75 1.3 -17.7 6.05 M-39.45 0.6 L-43.55 0.6 -43.55 1.95 -39.45 1.95 -39.45 0.6 M-47.45 0.6 L-51.3 0.6 -51.3 1.95 -47.45 1.95 -47.45 0.6" fill="#febf00" fill-rule="evenodd" stroke="none"/>
  </g>
</svg>
