<?xml version="1.0" encoding="UTF-8" standalone="no"?>
<svg xmlns:xlink="http://www.w3.org/1999/xlink" height="45.1px" width="127.45px" xmlns="http://www.w3.org/2000/svg">
  <g transform="matrix(1.0, 0.0, 0.0, 1.0, 93.35, 22.55)">
    <path d="M31.6 -20.1 Q33.1 -18.6 33.1 -16.55 L33.1 16.55 Q33.1 18.6 31.6 20.05 30.15 21.55 28.1 21.55 L-87.35 21.55 Q-89.4 21.55 -90.9 20.05 -92.35 18.6 -92.35 16.55 L-92.35 -16.55 Q-92.35 -18.6 -90.9 -20.1 -89.4 -21.55 -87.35 -21.55 L28.1 -21.55 Q30.15 -21.55 31.6 -20.1" fill="#00cc00" fill-rule="evenodd" stroke="none"/>
    <path d="M28.6 -16.55 L28.6 16.55 28.5 16.85 28.4 16.95 28.1 17.05 -87.35 17.05 -87.7 16.9 -87.85 16.55 -87.85 -16.55 -87.7 -16.9 -87.35 -17.05 28.1 -17.05 28.45 -16.9 28.6 -16.55" fill="#006600" fill-rule="evenodd" stroke="none"/>
    <path d="M32.75 -16.55 Q32.7 -18.45 31.35 -19.8 30.0 -21.15 28.1 -21.15 L-87.35 -21.15 Q-89.25 -21.15 -90.6 -19.85 L-90.65 -19.8 Q-91.95 -18.45 -91.95 -16.55 L-91.95 16.55 Q-91.95 18.45 -90.6 19.8 -89.25 21.15 -87.35 21.2 L28.1 21.2 Q30.0 21.2 31.35 19.8 32.75 18.45 32.75 16.55 L32.75 -16.55 M31.6 -20.1 Q33.1 -18.6 33.1 -16.55 L33.1 16.55 Q33.1 18.6 31.6 20.05 30.15 21.55 28.1 21.55 L-87.35 21.55 Q-89.4 21.55 -90.9 20.05 -92.35 18.6 -92.35 16.55 L-92.35 -16.55 Q-92.35 -18.6 -90.9 -20.1 -89.4 -21.55 -87.35 -21.55 L28.1 -21.55 Q30.15 -21.55 31.6 -20.1" fill="#006600" fill-opacity="0.07058824" fill-rule="evenodd" stroke="none"/>
    <path d="M32.35 -16.55 Q32.35 -18.3 31.1 -19.55 29.85 -20.8 28.1 -20.8 L-87.35 -20.8 Q-89.1 -20.8 -90.35 -19.55 -91.6 -18.3 -91.6 -16.55 L-91.6 16.55 Q-91.6 18.3 -90.35 19.55 -89.1 20.8 -87.35 20.8 L28.1 20.8 Q29.85 20.8 31.05 19.55 L31.1 19.5 Q32.35 18.3 32.35 16.55 L32.35 -16.55 M32.75 -16.55 L32.75 16.55 Q32.75 18.45 31.35 19.8 30.0 21.2 28.1 21.2 L-87.35 21.2 Q-89.25 21.15 -90.6 19.8 -91.95 18.45 -91.95 16.55 L-91.95 -16.55 Q-91.95 -18.45 -90.65 -19.8 L-90.6 -19.85 Q-89.25 -21.15 -87.35 -21.15 L28.1 -21.15 Q30.0 -21.15 31.35 -19.8 32.7 -18.45 32.75 -16.55" fill="#006600" fill-opacity="0.14901961" fill-rule="evenodd" stroke="none"/>
    <path d="M32.0 -16.55 Q31.95 -18.15 30.8 -19.3 29.7 -20.4 28.1 -20.4 L-87.35 -20.4 Q-88.95 -20.45 -90.1 -19.3 -91.25 -18.15 -91.2 -16.55 L-91.2 16.55 Q-91.2 18.15 -90.1 19.25 -88.95 20.4 -87.35 20.45 L28.1 20.45 Q29.7 20.45 30.8 19.3 L30.85 19.25 Q32.0 18.15 32.0 16.55 L32.0 -16.55 M32.35 -16.55 L32.35 16.55 Q32.35 18.3 31.1 19.5 L31.05 19.55 Q29.85 20.8 28.1 20.8 L-87.35 20.8 Q-89.1 20.8 -90.35 19.55 -91.6 18.3 -91.6 16.55 L-91.6 -16.55 Q-91.6 -18.3 -90.35 -19.55 -89.1 -20.8 -87.35 -20.8 L28.1 -20.8 Q29.85 -20.8 31.1 -19.55 32.35 -18.3 32.35 -16.55" fill="#006600" fill-opacity="0.22745098" fill-rule="evenodd" stroke="none"/>
    <path d="M31.6 -16.55 Q31.6 -18.0 30.55 -19.05 29.55 -20.05 28.1 -20.05 L-87.35 -20.05 Q-88.8 -20.05 -89.8 -19.05 L-89.85 -19.0 Q-90.85 -18.0 -90.85 -16.55 L-90.85 16.55 Q-90.85 18.0 -89.85 19.0 -88.8 20.05 -87.35 20.05 L28.1 20.05 Q29.5 20.05 30.55 19.0 31.6 17.95 31.6 16.55 L31.6 -16.55 M32.0 -16.55 L32.0 16.55 Q32.0 18.15 30.85 19.25 L30.8 19.3 Q29.7 20.45 28.1 20.45 L-87.35 20.45 Q-88.95 20.4 -90.1 19.25 -91.2 18.15 -91.2 16.55 L-91.2 -16.55 Q-91.25 -18.15 -90.1 -19.3 -88.95 -20.45 -87.35 -20.4 L28.1 -20.4 Q29.7 -20.4 30.8 -19.3 31.95 -18.15 32.0 -16.55" fill="#006600" fill-opacity="0.3019608" fill-rule="evenodd" stroke="none"/>
    <path d="M31.6 -16.55 L31.6 16.55 Q31.6 17.95 30.55 19.0 29.5 20.05 28.1 20.05 L-87.35 20.05 Q-88.8 20.05 -89.85 19.0 -90.85 18.0 -90.85 16.55 L-90.85 -16.55 Q-90.85 -18.0 -89.85 -19.0 L-89.8 -19.05 Q-88.8 -20.05 -87.35 -20.05 L28.1 -20.05 Q29.55 -20.05 30.55 -19.05 31.6 -18.0 31.6 -16.55 M30.3 -18.75 Q29.35 -19.7 28.1 -19.65 L-87.35 -19.65 Q-88.6 -19.65 -89.55 -18.8 L-89.6 -18.75 Q-90.45 -17.8 -90.45 -16.55 L-90.45 16.55 Q-90.5 17.8 -89.55 18.75 -88.65 19.65 -87.35 19.7 L28.1 19.7 Q29.35 19.65 30.25 18.75 L30.3 18.7 Q31.2 17.8 31.25 16.55 L31.25 -16.55 Q31.2 -17.85 30.3 -18.75" fill="#006600" fill-opacity="0.38039216" fill-rule="evenodd" stroke="none"/>
    <path d="M30.3 -18.75 Q31.2 -17.85 31.25 -16.55 L31.25 16.55 Q31.2 17.8 30.3 18.7 L30.25 18.75 Q29.35 19.65 28.1 19.7 L-87.35 19.7 Q-88.65 19.65 -89.55 18.75 -90.5 17.8 -90.45 16.55 L-90.45 -16.55 Q-90.45 -17.8 -89.6 -18.75 L-89.55 -18.8 Q-88.6 -19.65 -87.35 -19.65 L28.1 -19.65 Q29.35 -19.7 30.3 -18.75 M30.0 -18.5 Q29.2 -19.3 28.1 -19.3 L-87.35 -19.3 Q-88.45 -19.3 -89.25 -18.5 L-89.3 -18.45 Q-90.1 -17.65 -90.1 -16.55 L-90.1 16.55 Q-90.1 17.65 -89.3 18.45 -88.45 19.3 -87.35 19.3 L28.1 19.3 Q29.2 19.3 30.0 18.5 L30.05 18.45 Q30.85 17.65 30.85 16.55 L30.85 -16.55 Q30.85 -17.65 30.0 -18.5" fill="#006600" fill-opacity="0.45882353" fill-rule="evenodd" stroke="none"/>
    <path d="M28.7 -17.15 L28.1 -17.4 -87.35 -17.4 -87.95 -17.15 -88.2 -16.55 -88.2 16.55 -87.95 17.15 Q-87.7 17.4 -87.35 17.45 L28.1 17.45 28.65 17.2 28.75 17.1 29.0 16.55 29.0 -16.55 28.7 -17.15 M28.95 -17.45 Q29.35 -17.05 29.35 -16.55 L29.35 16.55 29.0 17.35 28.9 17.45 28.1 17.8 -87.35 17.8 Q-87.85 17.8 -88.25 17.4 -88.6 17.05 -88.6 16.55 L-88.6 -16.55 -88.3 -17.4 -88.25 -17.45 -88.2 -17.5 -87.35 -17.8 28.1 -17.8 Q28.6 -17.8 28.95 -17.45" fill="#006600" fill-opacity="0.84313726" fill-rule="evenodd" stroke="none"/>
    <path d="M28.7 -17.15 L29.0 -16.55 29.0 16.55 28.75 17.1 28.65 17.2 28.1 17.45 -87.35 17.45 Q-87.7 17.4 -87.95 17.15 L-88.2 16.55 -88.2 -16.55 -87.95 -17.15 -87.35 -17.4 28.1 -17.4 28.7 -17.15 M28.6 -16.55 L28.45 -16.9 28.1 -17.05 -87.35 -17.05 -87.7 -16.9 -87.85 -16.55 -87.85 16.55 -87.7 16.9 -87.35 17.05 28.1 17.05 28.4 16.95 28.5 16.85 28.6 16.55 28.6 -16.55" fill="#006600" fill-opacity="0.92156863" fill-rule="evenodd" stroke="none"/>
    <path d="M28.95 -17.45 Q28.6 -17.8 28.1 -17.8 L-87.35 -17.8 -88.2 -17.5 -88.25 -17.45 -88.3 -17.4 -88.6 -16.55 -88.6 16.55 Q-88.6 17.05 -88.25 17.4 -87.85 17.8 -87.35 17.8 L28.1 17.8 28.9 17.45 29.0 17.35 29.35 16.55 29.35 -16.55 Q29.35 -17.05 28.95 -17.45 M29.25 -17.7 Q29.7 -17.2 29.75 -16.55 L29.75 16.55 Q29.7 17.2 29.25 17.65 L29.2 17.7 Q28.75 18.15 28.1 18.2 L-87.35 18.2 Q-88.0 18.15 -88.5 17.7 -89.0 17.2 -88.95 16.55 L-88.95 -16.55 Q-88.95 -17.2 -88.55 -17.65 L-88.45 -17.75 Q-88.0 -18.15 -87.35 -18.15 L28.1 -18.15 Q28.75 -18.2 29.25 -17.7" fill="#006600" fill-opacity="0.7647059" fill-rule="evenodd" stroke="none"/>
    <path d="M29.25 -17.7 Q28.75 -18.2 28.1 -18.15 L-87.35 -18.15 Q-88.0 -18.15 -88.45 -17.75 L-88.55 -17.65 Q-88.95 -17.2 -88.95 -16.55 L-88.95 16.55 Q-89.0 17.2 -88.5 17.7 -88.0 18.15 -87.35 18.2 L28.1 18.2 Q28.75 18.15 29.2 17.7 L29.25 17.65 Q29.7 17.2 29.75 16.55 L29.75 -16.55 Q29.7 -17.2 29.25 -17.7 M30.1 -16.55 L30.1 16.55 Q30.1 17.35 29.55 17.9 L29.45 18.0 Q28.9 18.55 28.1 18.55 L-87.35 18.55 Q-88.15 18.55 -88.75 17.95 -89.35 17.35 -89.35 16.55 L-89.35 -16.55 Q-89.35 -17.35 -88.8 -17.95 L-88.75 -18.0 Q-88.15 -18.55 -87.35 -18.55 L28.1 -18.55 Q28.9 -18.55 29.5 -17.95 30.1 -17.35 30.1 -16.55" fill="#006600" fill-opacity="0.6901961" fill-rule="evenodd" stroke="none"/>
    <path d="M30.1 -16.55 Q30.1 -17.35 29.5 -17.95 28.9 -18.55 28.1 -18.55 L-87.35 -18.55 Q-88.15 -18.55 -88.75 -18.0 L-88.8 -17.95 Q-89.35 -17.35 -89.35 -16.55 L-89.35 16.55 Q-89.35 17.35 -88.75 17.95 -88.15 18.55 -87.35 18.55 L28.1 18.55 Q28.9 18.55 29.45 18.0 L29.55 17.9 Q30.1 17.35 30.1 16.55 L30.1 -16.55 M29.75 -18.25 Q30.45 -17.55 30.5 -16.55 L30.5 16.55 Q30.45 17.5 29.8 18.2 L29.75 18.25 Q29.05 18.9 28.1 18.95 L-87.35 18.95 Q-88.35 18.9 -89.05 18.2 -89.75 17.5 -89.7 16.55 L-89.7 -16.55 Q-89.7 -17.5 -89.05 -18.2 L-89.0 -18.25 Q-88.3 -18.9 -87.35 -18.9 L28.1 -18.9 Q29.05 -18.95 29.75 -18.25" fill="#006600" fill-opacity="0.6117647" fill-rule="evenodd" stroke="none"/>
    <path d="M30.0 -18.5 Q30.85 -17.65 30.85 -16.55 L30.85 16.55 Q30.85 17.65 30.05 18.45 L30.0 18.5 Q29.2 19.3 28.1 19.3 L-87.35 19.3 Q-88.45 19.3 -89.3 18.45 -90.1 17.65 -90.1 16.55 L-90.1 -16.55 Q-90.1 -17.65 -89.3 -18.45 L-89.25 -18.5 Q-88.45 -19.3 -87.35 -19.3 L28.1 -19.3 Q29.2 -19.3 30.0 -18.5 M29.75 -18.25 Q29.05 -18.95 28.1 -18.9 L-87.35 -18.9 Q-88.3 -18.9 -89.0 -18.25 L-89.05 -18.2 Q-89.7 -17.5 -89.7 -16.55 L-89.7 16.55 Q-89.75 17.5 -89.05 18.2 -88.35 18.9 -87.35 18.95 L28.1 18.95 Q29.05 18.9 29.75 18.25 L29.8 18.2 Q30.45 17.5 30.5 16.55 L30.5 -16.55 Q30.45 -17.55 29.75 -18.25" fill="#006600" fill-opacity="0.53333336" fill-rule="evenodd" stroke="none"/>
    <path d="M31.6 -20.1 Q30.15 -21.55 28.1 -21.55 L-87.35 -21.55 Q-89.4 -21.55 -90.9 -20.1 -92.35 -18.6 -92.35 -16.55 L-92.35 16.55 Q-92.35 18.6 -90.9 20.05 -89.4 21.55 -87.35 21.55 L28.1 21.55 Q30.15 21.55 31.6 20.05 33.1 18.6 33.1 16.55 L33.1 -16.55 Q33.1 -18.6 31.6 -20.1 Z" fill="none" stroke="#003300" stroke-linecap="round" stroke-linejoin="round" stroke-width="2.0"/>
  </g>
</svg>
