<?xml version="1.0" encoding="UTF-8" standalone="no"?>
<svg xmlns:xlink="http://www.w3.org/1999/xlink" height="78.15px" width="14.5px" xmlns="http://www.w3.org/2000/svg">
  <g transform="matrix(1.0, 0.0, 0.0, 1.0, 7.25, 39.05)">
    <path d="M6.6 -26.55 Q6.15 -26.05 4.65 -25.8 L4.45 -25.75 0.0 -25.5 -4.7 -25.8 -4.8 -25.8 Q-5.95 -26.0 -6.6 -26.55 -6.6 -27.0 -4.7 -27.3 L0.0 -27.6 0.3 -27.6 4.65 -27.3 Q6.6 -27.0 6.6 -26.55 M-0.15 -26.6 L0.3 -27.6 -0.15 -26.6" fill="#ff3333" fill-rule="evenodd" stroke="none"/>
    <path d="M-4.7 -25.8 L0.0 -25.5 4.45 -25.75 4.65 -25.8 Q6.15 -26.05 6.6 -26.55 L6.5 36.25 Q-0.9 40.7 -6.35 36.25 L-6.6 -26.55 Q-5.95 -26.0 -4.8 -25.8 L-4.7 -25.75 -4.7 -25.8" fill="#ff3300" fill-rule="evenodd" stroke="none"/>
    <path d="M0.3 -27.6 L0.55 -28.95 0.6 -29.35 Q0.85 -30.45 0.3 -30.8 L-0.15 -31.1 -1.15 -31.7 -2.25 -32.35 Q-2.6 -32.65 -2.75 -33.1 -3.0 -33.8 -2.85 -34.65 L-2.3 -36.6 Q-1.85 -37.7 -0.95 -38.2 L0.65 -38.4 Q1.35 -38.3 1.45 -37.4 1.55 -36.4 2.8 -36.3 L3.95 -36.25 M0.3 -27.6 L-0.15 -26.6" fill="none" stroke="#333333" stroke-linecap="round" stroke-linejoin="round" stroke-width="1.25"/>
    <path d="M6.6 -26.55 Q6.15 -26.05 4.65 -25.8 L4.45 -25.75 0.0 -25.5 -4.7 -25.8 -4.8 -25.8 Q-5.95 -26.0 -6.6 -26.55 L-6.35 36.25 Q-0.9 40.7 6.5 36.25 L6.6 -26.55 Q6.6 -27.0 4.65 -27.3 L0.3 -27.6 0.0 -27.6 -4.7 -27.3 Q-6.6 -27.0 -6.6 -26.55" fill="none" stroke="#cc0000" stroke-linecap="round" stroke-linejoin="round" stroke-width="1.0"/>
  </g>
</svg>
