<?xml version="1.0" encoding="UTF-8" standalone="no"?>
<svg xmlns:xlink="http://www.w3.org/1999/xlink" height="71.9px" width="66.0px" xmlns="http://www.w3.org/2000/svg">
  <g transform="matrix(1.0, 0.0, 0.0, 1.0, 33.1, 35.95)">
    <path d="M-16.75 -30.8 L-18.0 -31.25 -18.75 -31.6 -18.75 -32.5 Q-18.55 -33.3 -17.95 -33.75 -17.3 -34.4 -16.4 -34.55 L-14.7 -34.95 -12.8 -34.9 -11.4 -34.9 -10.05 -34.85 -8.15 -34.8 -6.3 -34.8 -4.45 -34.8 -2.55 -34.75 -0.95 -34.7 2.75 -34.3 Q3.75 -34.2 4.2 -33.45 L4.65 -32.6 Q4.3 -31.75 3.4 -31.4 L1.6 -30.95 -16.75 -30.8" fill="#d8a95c" fill-rule="evenodd" stroke="none"/>
    <path d="M1.6 -30.95 L1.9 -30.9 Q-1.0 -27.35 -0.35 -22.0 6.9 -21.45 12.15 -16.2 18.0 -10.35 18.0 -2.05 L18.0 4.95 18.0 7.15 18.0 11.95 18.0 14.95 Q18.0 23.25 12.15 29.1 6.3 34.95 -2.0 34.95 L-12.1 34.95 Q-20.4 34.95 -26.25 29.1 -32.1 23.25 -32.1 14.95 L-32.1 -2.05 Q-32.1 -10.35 -26.25 -16.2 -20.75 -21.7 -13.15 -22.0 -12.65 -27.15 -16.2 -30.65 L-16.15 -30.65 -16.2 -30.65 -16.75 -30.8 1.6 -30.95" fill="url(#gradient0)" fill-rule="evenodd" stroke="none"/>
    <path d="M18.0 -2.05 Q21.65 -8.8 27.5 -5.6 32.95 -2.6 31.9 3.45 30.8 9.5 25.2 11.85 23.55 12.55 21.6 12.65 19.3 12.75 18.0 11.95 L18.0 7.15 Q21.05 8.5 23.8 6.8 25.45 5.8 24.6 4.15 21.5 -2.3 18.0 4.95 L18.0 -2.05" fill="url(#gradient1)" fill-rule="evenodd" stroke="none"/>
    <path d="M1.9 -30.9 Q-1.0 -27.35 -0.35 -22.0 6.9 -21.45 12.15 -16.2 18.0 -10.35 18.0 -2.05 21.65 -8.8 27.5 -5.6 32.95 -2.6 31.9 3.45 30.8 9.5 25.2 11.85 23.55 12.55 21.6 12.65 19.3 12.75 18.0 11.95 L18.0 14.95 Q18.0 23.25 12.15 29.1 6.3 34.95 -2.0 34.95 L-12.1 34.95 Q-20.4 34.95 -26.25 29.1 -32.1 23.25 -32.1 14.95 L-32.1 -2.05 Q-32.1 -10.35 -26.25 -16.2 -20.75 -21.7 -13.15 -22.0 -12.65 -27.15 -16.2 -30.65 L-16.75 -30.8 -18.0 -31.25 -18.75 -31.6 -18.75 -32.5 Q-18.55 -33.3 -17.95 -33.75 -17.3 -34.4 -16.4 -34.55 L-14.7 -34.95 -12.8 -34.9 -11.4 -34.9 -10.05 -34.85 -8.15 -34.8 -6.3 -34.8 -4.45 -34.8 -2.55 -34.75 -0.95 -34.7 2.75 -34.3 Q3.75 -34.2 4.2 -33.45 L4.65 -32.6 Q4.3 -31.75 3.4 -31.4 L1.6 -30.95 -16.75 -30.8 M-16.15 -30.65 L-16.2 -30.65 M18.0 4.95 Q21.5 -2.3 24.6 4.15 25.45 5.8 23.8 6.8 21.05 8.5 18.0 7.15 L18.0 11.95 M18.0 4.95 L18.0 7.15 M18.0 -2.05 L18.0 4.95" fill="none" stroke="#b98809" stroke-linecap="round" stroke-linejoin="round" stroke-width="2.0"/>
  </g>
  <defs>
    <radialGradient cx="0" cy="0" gradientTransform="matrix(0.0618, 0.0, 0.0, 0.0618, -18.3, -11.15)" gradientUnits="userSpaceOnUse" id="gradient0" r="819.2" spreadMethod="pad">
      <stop offset="0.00784313725490196" stop-color="#ffffff"/>
      <stop offset="0.050980392156862744" stop-color="#ffffff"/>
      <stop offset="0.6274509803921569" stop-color="#f8d16a"/>
    </radialGradient>
    <radialGradient cx="0" cy="0" gradientTransform="matrix(0.02, 0.0, 0.0, 0.02, 25.8, -2.45)" gradientUnits="userSpaceOnUse" id="gradient1" r="819.2" spreadMethod="pad">
      <stop offset="0.00784313725490196" stop-color="#ffffff"/>
      <stop offset="0.050980392156862744" stop-color="#ffffff"/>
      <stop offset="0.6274509803921569" stop-color="#f8d16a"/>
    </radialGradient>
  </defs>
</svg>
