<?xml version="1.0" encoding="UTF-8" standalone="no"?>
<svg xmlns:xlink="http://www.w3.org/1999/xlink" height="72.55px" width="72.55px" xmlns="http://www.w3.org/2000/svg">
  <g transform="matrix(1.0, 0.0, 0.0, 1.0, 37.3, 42.3)">
    <path d="M14.25 -41.3 Q22.55 -41.3 28.4 -35.45 34.25 -29.6 34.25 -21.3 L34.25 9.25 Q34.25 17.55 28.4 23.4 22.55 29.25 14.25 29.25 L-16.3 29.25 Q-24.6 29.25 -30.45 23.4 -36.3 17.55 -36.3 9.25 L-36.3 -21.3 Q-36.3 -29.6 -30.45 -35.45 -24.6 -41.3 -16.3 -41.3 L14.25 -41.3" fill="#000000" fill-rule="evenodd" stroke="none"/>
    <path d="M14.25 -41.3 L-16.3 -41.3 Q-24.6 -41.3 -30.45 -35.45 -36.3 -29.6 -36.3 -21.3 L-36.3 9.25 Q-36.3 17.55 -30.45 23.4 -24.6 29.25 -16.3 29.25 L14.25 29.25 Q22.55 29.25 28.4 23.4 34.25 17.55 34.25 9.25 L34.25 -21.3 Q34.25 -29.6 28.4 -35.45 22.55 -41.3 14.25 -41.3 Z" fill="none" stroke="#003300" stroke-linecap="round" stroke-linejoin="round" stroke-width="2.0"/>
  </g>
</svg>
